<svg xmlns="http://www.w3.org/2000/svg" xmlns:xlink="http://www.w3.org/1999/xlink" id="Layer_1" width="205" height="185" x="0" y="0" enable-background="new 0 0 205 185" version="1.1" viewBox="0 0 205 185" xml:space="preserve"><g><g><rect width="34" height="14" x="102.5" y="170.5" fill="#FFF"/><path fill="#1D2445" d="M136.5,185h-34c-0.276,0-0.5-0.224-0.5-0.5v-14c0-0.276,0.224-0.5,0.5-0.5h34c0.276,0,0.5,0.224,0.5,0.5 v14C137,184.776,136.777,185,136.5,185z M103,184h33v-13h-33V184z"/></g><g><rect width="34" height="14" x="136.5" y="170.5" fill="#1D2445"/><path fill="#1D2445" d="M171,185h-35v-15h35V185z M137,184h33v-13h-33V184z"/></g><g><rect width="34" height="14" x="170.5" y="170.5" fill="#FFF"/><path fill="#1D2445" d="M204.5,185h-34c-0.276,0-0.5-0.224-0.5-0.5v-14c0-0.276,0.224-0.5,0.5-0.5h34c0.276,0,0.5,0.224,0.5,0.5 v14C205,184.776,204.777,185,204.5,185z M171,184h33v-13h-33V184z"/></g><g><rect width="34" height="14" x="34.5" y="142.5" fill="#1D2445"/></g><g><rect width="34" height="14" x="136.5" y="142.5" fill="#FFF"/><path fill="#1D2445" d="M170.5,157h-34c-0.276,0-0.5-0.224-0.5-0.5v-14c0-0.276,0.224-0.5,0.5-0.5h34c0.276,0,0.5,0.224,0.5,0.5 v14C171,156.776,170.777,157,170.5,157z M137,156h33v-13h-33V156z"/></g><g><rect width="34" height="14" x="34.5" y="128.5" fill="#FFF"/><path fill="#1D2445" d="M68.5,143h-34c-0.276,0-0.5-0.224-0.5-0.5v-14c0-0.276,0.224-0.5,0.5-0.5h34c0.276,0,0.5,0.224,0.5,0.5v14 C69,142.776,68.777,143,68.5,143z M35,142h33v-13H35V142z"/></g><g><rect width="34" height="14" x="136.5" y="128.5" fill="#FFF"/><path fill="#1D2445" d="M170.5,143h-34c-0.276,0-0.5-0.224-0.5-0.5v-14c0-0.276,0.224-0.5,0.5-0.5h34c0.276,0,0.5,0.224,0.5,0.5 v14C171,142.776,170.777,143,170.5,143z M137,142h33v-13h-33V142z"/></g><g><rect width="34" height="14" x="34.5" y="114.5" fill="#1D2445"/><path fill="#1D2445" d="M69,129H34v-15h35V129z M35,128h33v-13H35V128z"/></g><g><rect width="34" height="14" x="136.5" y="114.5" fill="#FFF"/><path fill="#1D2445" d="M170.5,129h-34c-0.276,0-0.5-0.224-0.5-0.5v-14c0-0.276,0.224-0.5,0.5-0.5h34c0.276,0,0.5,0.224,0.5,0.5 v14C171,128.776,170.777,129,170.5,129z M137,128h33v-13h-33V128z"/></g><g><rect width="34" height="14" x="34.5" y="100.5" fill="#FFF"/><path fill="#1D2445" d="M68.5,115h-34c-0.276,0-0.5-0.224-0.5-0.5v-14c0-0.276,0.224-0.5,0.5-0.5h34c0.276,0,0.5,0.224,0.5,0.5v14 C69,114.776,68.777,115,68.5,115z M35,114h33v-13H35V114z"/></g><g><rect width="17" height="14" x="136.5" y="100.5" fill="#1D2445"/><path fill="#1D2445" d="M154,115h-18v-15h18V115z M137,114h16v-13h-16V114z"/></g><g><rect width="17" height="14" x="153.5" y="100.5" fill="#FFF"/><path fill="#1D2445" d="M170.5,115h-17c-0.276,0-0.5-0.224-0.5-0.5v-14c0-0.276,0.224-0.5,0.5-0.5h17c0.276,0,0.5,0.224,0.5,0.5 v14C171,114.776,170.777,115,170.5,115z M154,114h16v-13h-16V114z"/></g><g><rect width="17" height="14" x="153.5" y="72.5" fill="#FFF"/><path fill="#1D2445" d="M170.5,87h-17c-0.276,0-0.5-0.224-0.5-0.5v-14c0-0.276,0.224-0.5,0.5-0.5h17c0.276,0,0.5,0.224,0.5,0.5v14 C171,86.776,170.777,87,170.5,87z M154,86h16V73h-16V86z"/></g><g><rect width="17" height="14" x="34.5" y="72.5" fill="#FFF"/><path fill="#1D2445" d="M51.5,87h-17c-0.276,0-0.5-0.224-0.5-0.5v-14c0-0.276,0.224-0.5,0.5-0.5h17c0.276,0,0.5,0.224,0.5,0.5v14 C52,86.776,51.777,87,51.5,87z M35,86h16V73H35V86z"/></g><g><rect width="17" height="14" x="51.5" y="58.5" fill="#1D2445"/></g><g><rect width="34" height="14" x="34.5" y="86.5" fill="#FFF"/><path fill="#1D2445" d="M68.5,101h-34c-0.276,0-0.5-0.224-0.5-0.5v-14c0-0.276,0.224-0.5,0.5-0.5h34c0.276,0,0.5,0.224,0.5,0.5v14 C69,100.776,68.777,101,68.5,101z M35,100h33V87H35V100z"/></g><g><rect width="34" height="14" x="136.5" y="86.5" fill="#FFF"/><path fill="#1D2445" d="M170.5,101h-34c-0.276,0-0.5-0.224-0.5-0.5v-14c0-0.276,0.224-0.5,0.5-0.5h34c0.276,0,0.5,0.224,0.5,0.5 v14C171,100.776,170.777,101,170.5,101z M137,100h33V87h-33V100z"/></g><g><rect width="33" height="14" x="120.5" y="72.5" fill="#1D2445"/><path fill="#1D2445" d="M154,87h-34V72h34V87z M121,86h32V73h-32V86z"/></g><g><rect width="34" height="14" x="51.5" y="72.5" fill="#FFF"/><path fill="#1D2445" d="M85.5,87h-34c-0.276,0-0.5-0.224-0.5-0.5v-14c0-0.276,0.224-0.5,0.5-0.5h34c0.276,0,0.5,0.224,0.5,0.5v14 C86,86.776,85.777,87,85.5,87z M52,86h33V73H52V86z"/></g><g><rect width="34" height="14" x="17.5" y="58.5" fill="#FFF"/><path fill="#1D2445" d="M51.5,73h-34c-0.276,0-0.5-0.224-0.5-0.5v-14c0-0.276,0.224-0.5,0.5-0.5h34c0.276,0,0.5,0.224,0.5,0.5v14 C52,72.776,51.777,73,51.5,73z M18,72h33V59H18V72z"/></g><g><rect width="17" height="14" x="34.5" y="44.5" fill="#FFF"/><path fill="#1D2445" d="M51.5,59h-17c-0.276,0-0.5-0.224-0.5-0.5v-14c0-0.276,0.224-0.5,0.5-0.5h17c0.276,0,0.5,0.224,0.5,0.5v14 C52,58.776,51.777,59,51.5,59z M35,58h16V45H35V58z"/></g><g><rect width="17" height="14" x="51.5" y="30.5" fill="#FFF"/><path fill="#1D2445" d="M68.5,45h-17c-0.276,0-0.5-0.224-0.5-0.5v-14c0-0.276,0.224-0.5,0.5-0.5h17c0.276,0,0.5,0.224,0.5,0.5v14 C69,44.776,68.777,45,68.5,45z M52,44h16V31H52V44z"/></g><g><rect width="34" height="14" x="68.5" y="30.5" fill="#FFF"/><path fill="#1D2445" d="M102.5,45h-34c-0.276,0-0.5-0.224-0.5-0.5v-14c0-0.276,0.224-0.5,0.5-0.5h34c0.276,0,0.5,0.224,0.5,0.5v14 C103,44.776,102.777,45,102.5,45z M69,44h33V31H69V44z"/></g><g><rect width="34" height="14" x="85.5" y="44.5" fill="#1D2445"/></g><g><rect width="34" height="14" x="51.5" y="44.5" fill="#FFF"/><path fill="#1D2445" d="M85.5,59h-34c-0.276,0-0.5-0.224-0.5-0.5v-14c0-0.276,0.224-0.5,0.5-0.5h34c0.276,0,0.5,0.224,0.5,0.5v14 C86,58.776,85.777,59,85.5,59z M52,58h33V45H52V58z"/></g><g><rect width="34" height="14" x="102.5" y="16.5" fill="#FFF"/><path fill="#1D2445" d="M136.5,31h-34c-0.276,0-0.5-0.224-0.5-0.5v-14c0-0.276,0.224-0.5,0.5-0.5h34c0.276,0,0.5,0.224,0.5,0.5v14 C137,30.776,136.777,31,136.5,31z M103,30h33V17h-33V30z"/></g><g><rect width="17" height="14" x="153.5" y="44.5" fill="#FFF"/><path fill="#1D2445" d="M170.5,59h-17c-0.276,0-0.5-0.224-0.5-0.5v-14c0-0.276,0.224-0.5,0.5-0.5h17c0.276,0,0.5,0.224,0.5,0.5v14 C171,58.776,170.777,59,170.5,59z M154,58h16V45h-16V58z"/></g><g><rect width="34" height="14" x="68.5" y="58.5" fill="#FFF"/><path fill="#1D2445" d="M102.5,73h-34c-0.276,0-0.5-0.224-0.5-0.5v-14c0-0.276,0.224-0.5,0.5-0.5h34c0.276,0,0.5,0.224,0.5,0.5v14 C103,72.776,102.777,73,102.5,73z M69,72h33V59H69V72z"/></g><g><rect width="34" height="14" x="119.5" y="44.5" fill="#FFF"/><path fill="#1D2445" d="M153.5,59h-34c-0.276,0-0.5-0.224-0.5-0.5v-14c0-0.276,0.224-0.5,0.5-0.5h34c0.276,0,0.5,0.224,0.5,0.5v14 C154,58.776,153.777,59,153.5,59z M120,58h33V45h-33V58z"/></g><g><rect width="34" height="14" x="102.5" y="58.5" fill="#FFF"/><path fill="#1D2445" d="M136.5,73h-34c-0.276,0-0.5-0.224-0.5-0.5v-14c0-0.276,0.224-0.5,0.5-0.5h34c0.276,0,0.5,0.224,0.5,0.5v14 C137,72.776,136.777,73,136.5,73z M103,72h33V59h-33V72z"/></g><g><rect width="34" height="14" x="153.5" y="58.5" fill="#FFF"/><path fill="#1D2445" d="M187.5,73h-34c-0.276,0-0.5-0.224-0.5-0.5v-14c0-0.276,0.224-0.5,0.5-0.5h34c0.276,0,0.5,0.224,0.5,0.5v14 C188,72.776,187.777,73,187.5,73z M154,72h33V59h-33V72z"/></g><g><rect width="34" height="14" x=".5" y="170.5" fill="#FFF"/><path fill="#1D2445" d="M34.5,185h-34c-0.276,0-0.5-0.224-0.5-0.5v-14c0-0.276,0.224-0.5,0.5-0.5h34c0.276,0,0.5,0.224,0.5,0.5v14 C35,184.776,34.777,185,34.5,185z M1,184h33v-13H1V184z"/></g><g><rect width="34" height="14" x="17.5" y="156.5" fill="#FFF"/><path fill="#1D2445" d="M51.5,171h-34c-0.276,0-0.5-0.224-0.5-0.5v-14c0-0.276,0.224-0.5,0.5-0.5h34c0.276,0,0.5,0.224,0.5,0.5v14 C52,170.776,51.777,171,51.5,171z M18,170h33v-13H18V170z"/></g><g><rect width="33.91" height="14" x="68.59" y="156.5" fill="#FFF"/><path fill="#1D2445" d="M102.5,171H68.59c-0.276,0-0.5-0.224-0.5-0.5v-14c0-0.276,0.224-0.5,0.5-0.5h33.91 c0.276,0,0.5,0.224,0.5,0.5v14C103,170.776,102.777,171,102.5,171z M69.09,170H102v-13H69.09V170z"/></g><g><rect width="17" height="14" x="136.5" y="156.5" fill="#FFF"/><path fill="#1D2445" d="M153.5,171h-17c-0.276,0-0.5-0.224-0.5-0.5v-14c0-0.276,0.224-0.5,0.5-0.5h17c0.276,0,0.5,0.224,0.5,0.5 v14C154,170.776,153.777,171,153.5,171z M137,170h16v-13h-16V170z"/></g><g><rect width="17" height="14" x="119.5" y="156.5" fill="#FFF"/><path fill="#1D2445" d="M136.5,171h-17c-0.276,0-0.5-0.224-0.5-0.5v-14c0-0.276,0.224-0.5,0.5-0.5h17c0.276,0,0.5,0.224,0.5,0.5 v14C137,170.776,136.777,171,136.5,171z M120,170h16v-13h-16V170z"/></g><g><rect width="34" height="14" x="153.5" y="156.5" fill="#FFF"/><path fill="#1D2445" d="M187.5,171h-34c-0.276,0-0.5-0.224-0.5-0.5v-14c0-0.276,0.224-0.5,0.5-0.5h34c0.276,0,0.5,0.224,0.5,0.5 v14C188,170.776,187.777,171,187.5,171z M154,170h33v-13h-33V170z"/></g><g><g><g><polygon fill="#FFF" points="15.5 156.5 15.5 154.5 9.5 154.5 9.5 156.5 7.5 156.5 .5 165.5 .5 170.5 17.5 170.5 17.5 156.5"/></g></g><g><g><path fill="#1D2445" d="M17.5,171h-17c-0.276,0-0.5-0.224-0.5-0.5v-5c0-0.111,0.037-0.219,0.105-0.307l7-9 C7.201,156.071,7.346,156,7.5,156H9v-1.5c0-0.276,0.224-0.5,0.5-0.5h6c0.276,0,0.5,0.224,0.5,0.5v1.5h1.5 c0.276,0,0.5,0.224,0.5,0.5v14C18,170.776,17.777,171,17.5,171z M1,170h16v-13h-1.5c-0.276,0-0.5-0.224-0.5-0.5V155h-5v1.5 c0,0.276-0.224,0.5-0.5,0.5H7.744L1,165.671V170z"/></g></g></g><g><g><g><polygon fill="#FFF" points="197.5 156.5 195.5 156.5 195.5 154.5 189.5 154.5 189.5 156.5 187.5 156.5 187.5 170.5 204.5 170.5 204.5 165.5"/></g></g><g><g><path fill="#1D2445" d="M204.5,171h-17c-0.276,0-0.5-0.224-0.5-0.5v-14c0-0.276,0.224-0.5,0.5-0.5h1.5v-1.5 c0-0.276,0.224-0.5,0.5-0.5h6c0.276,0,0.5,0.224,0.5,0.5v1.5h1.5c0.154,0,0.3,0.071,0.395,0.193l7,9 c0.068,0.088,0.105,0.196,0.105,0.307v5C205,170.776,204.777,171,204.5,171z M188,170h16v-4.329L197.256,157H195.5 c-0.276,0-0.5-0.224-0.5-0.5V155h-5v1.5c0,0.276-0.224,0.5-0.5,0.5H188V170z"/></g></g></g><g><g><g><polygon fill="#FFF" points="180.5 142.5 178.5 142.5 178.5 140.5 172.5 140.5 172.5 142.5 170.5 142.5 170.5 156.5 187.5 156.5 187.5 151.5"/></g></g><g><g><path fill="#1D2445" d="M187.5,157h-17c-0.276,0-0.5-0.224-0.5-0.5v-14c0-0.276,0.224-0.5,0.5-0.5h1.5v-1.5 c0-0.276,0.224-0.5,0.5-0.5h6c0.276,0,0.5,0.224,0.5,0.5v1.5h1.5c0.154,0,0.3,0.071,0.395,0.193l7,9 c0.068,0.088,0.105,0.196,0.105,0.307v5C188,156.776,187.777,157,187.5,157z M171,156h16v-4.329L180.256,143H178.5 c-0.276,0-0.5-0.224-0.5-0.5V141h-5v1.5c0,0.276-0.224,0.5-0.5,0.5H171V156z"/></g></g></g><g><g><g><polygon fill="#FFF" points="163.5 30.5 161.5 30.5 161.5 28.5 155.5 28.5 155.5 30.5 153.5 30.5 153.5 44.5 170.5 44.5 170.5 39.5"/></g></g><g><g><path fill="#1D2445" d="M170.5,45h-17c-0.276,0-0.5-0.224-0.5-0.5v-14c0-0.276,0.224-0.5,0.5-0.5h1.5v-1.5 c0-0.276,0.224-0.5,0.5-0.5h6c0.276,0,0.5,0.224,0.5,0.5V30h1.5c0.154,0,0.3,0.071,0.395,0.193l7,9 C170.963,39.281,171,39.389,171,39.5v5C171,44.776,170.777,45,170.5,45z M154,44h16v-4.329L163.256,31H161.5 c-0.276,0-0.5-0.224-0.5-0.5V29h-5v1.5c0,0.276-0.224,0.5-0.5,0.5H154V44z"/></g></g></g><g><g><g><polygon fill="#FFF" points="180.5 44.5 178.5 44.5 178.5 42.5 172.5 42.5 172.5 44.5 170.5 44.5 170.5 58.5 187.5 58.5 187.5 53.5"/></g></g><g><g><path fill="#1D2445" d="M187.5,59h-17c-0.276,0-0.5-0.224-0.5-0.5v-14c0-0.276,0.224-0.5,0.5-0.5h1.5v-1.5 c0-0.276,0.224-0.5,0.5-0.5h6c0.276,0,0.5,0.224,0.5,0.5V44h1.5c0.154,0,0.3,0.071,0.395,0.193l7,9 C187.963,53.281,188,53.389,188,53.5v5C188,58.776,187.777,59,187.5,59z M171,58h16v-4.329L180.256,45H178.5 c-0.276,0-0.5-0.224-0.5-0.5V43h-5v1.5c0,0.276-0.224,0.5-0.5,0.5H171V58z"/></g></g></g><g><g><g><polygon fill="#FFF" points="32.5 142.5 32.5 140.5 26.5 140.5 26.5 142.5 24.5 142.5 17.5 151.5 17.5 156.5 34.5 156.5 34.5 142.5"/></g></g><g><g><path fill="#1D2445" d="M34.5,157h-17c-0.276,0-0.5-0.224-0.5-0.5v-5c0-0.111,0.037-0.219,0.105-0.307l7-9 c0.095-0.122,0.24-0.193,0.395-0.193H26v-1.5c0-0.276,0.224-0.5,0.5-0.5h6c0.276,0,0.5,0.224,0.5,0.5v1.5h1.5 c0.276,0,0.5,0.224,0.5,0.5v14C35,156.776,34.777,157,34.5,157z M18,156h16v-13h-1.5c-0.276,0-0.5-0.224-0.5-0.5V141h-5v1.5 c0,0.276-0.224,0.5-0.5,0.5h-1.756L18,151.671V156z"/></g></g></g><g><g><g><polygon fill="#FFF" points="32.5 44.5 32.5 42.5 26.5 42.5 26.5 44.5 24.5 44.5 17.5 53.5 17.5 58.5 34.5 58.5 34.5 44.5"/></g></g><g><g><path fill="#1D2445" d="M34.5,59h-17c-0.276,0-0.5-0.224-0.5-0.5v-5c0-0.111,0.037-0.219,0.105-0.307l7-9 C24.201,44.071,24.346,44,24.5,44H26v-1.5c0-0.276,0.224-0.5,0.5-0.5h6c0.276,0,0.5,0.224,0.5,0.5V44h1.5 c0.276,0,0.5,0.224,0.5,0.5v14C35,58.776,34.777,59,34.5,59z M18,58h16V45h-1.5c-0.276,0-0.5-0.224-0.5-0.5V43h-5v1.5 c0,0.276-0.224,0.5-0.5,0.5h-1.756L18,53.671V58z"/></g></g></g><g><g><g><polygon fill="#FFF" points="49.5 30.5 49.5 28.5 43.5 28.5 43.5 30.5 41.5 30.5 34.5 39.5 34.5 44.5 51.5 44.5 51.5 30.5"/></g></g><g><g><path fill="#1D2445" d="M51.5,45h-17c-0.276,0-0.5-0.224-0.5-0.5v-5c0-0.111,0.037-0.219,0.105-0.307l7-9 C41.201,30.071,41.346,30,41.5,30H43v-1.5c0-0.276,0.224-0.5,0.5-0.5h6c0.276,0,0.5,0.224,0.5,0.5V30h1.5 c0.276,0,0.5,0.224,0.5,0.5v14C52,44.776,51.777,45,51.5,45z M35,44h16V31h-1.5c-0.276,0-0.5-0.224-0.5-0.5V29h-5v1.5 c0,0.276-0.224,0.5-0.5,0.5h-1.756L35,39.671V44z"/></g></g></g><g><g><g><polygon fill="#FFF" points="100.5 142.5 100.5 140.5 94.5 140.5 94.5 142.5 92.5 142.5 92.5 140.5 86.5 140.5 86.5 142.5 84.5 142.5 84.5 140.5 78.5 140.5 78.5 142.5 76.5 142.5 76.5 140.5 70.5 140.5 70.5 142.5 68.5 142.5 68.5 156.5 102.5 156.5 102.5 142.5"/></g></g><g><g><path fill="#1D2445" d="M102.5,157h-34c-0.276,0-0.5-0.224-0.5-0.5v-14c0-0.276,0.224-0.5,0.5-0.5H70v-1.5 c0-0.276,0.224-0.5,0.5-0.5h6c0.276,0,0.5,0.224,0.5,0.5v1.5h1v-1.5c0-0.276,0.224-0.5,0.5-0.5h6c0.276,0,0.5,0.224,0.5,0.5v1.5 h1v-1.5c0-0.276,0.224-0.5,0.5-0.5h6c0.276,0,0.5,0.224,0.5,0.5v1.5h1v-1.5c0-0.276,0.224-0.5,0.5-0.5h6 c0.276,0,0.5,0.224,0.5,0.5v1.5h1.5c0.276,0,0.5,0.224,0.5,0.5v14C103,156.776,102.777,157,102.5,157z M69,156h33v-13h-1.5 c-0.276,0-0.5-0.224-0.5-0.5V141h-5v1.5c0,0.276-0.224,0.5-0.5,0.5h-2c-0.276,0-0.5-0.224-0.5-0.5V141h-5v1.5 c0,0.276-0.224,0.5-0.5,0.5h-2c-0.276,0-0.5-0.224-0.5-0.5V141h-5v1.5c0,0.276-0.224,0.5-0.5,0.5h-2c-0.276,0-0.5-0.224-0.5-0.5 V141h-5v1.5c0,0.276-0.224,0.5-0.5,0.5H69V156z"/></g></g></g><g><g><g><polygon fill="#FFF" points="151.5 30.5 151.5 28.5 145.5 28.5 145.5 30.5 143.5 30.5 143.5 28.5 137.5 28.5 137.5 30.5 119.5 30.5 119.5 44.5 153.5 44.5 153.5 30.5"/></g></g><g><g><path fill="#1D2445" d="M153.5,45h-34c-0.276,0-0.5-0.224-0.5-0.5v-14c0-0.276,0.224-0.5,0.5-0.5H137v-1.5 c0-0.276,0.224-0.5,0.5-0.5h6c0.276,0,0.5,0.224,0.5,0.5V30h1v-1.5c0-0.276,0.224-0.5,0.5-0.5h6c0.276,0,0.5,0.224,0.5,0.5V30 h1.5c0.276,0,0.5,0.224,0.5,0.5v14C154,44.776,153.777,45,153.5,45z M120,44h33V31h-1.5c-0.276,0-0.5-0.224-0.5-0.5V29h-5v1.5 c0,0.276-0.224,0.5-0.5,0.5h-2c-0.276,0-0.5-0.224-0.5-0.5V29h-5v1.5c0,0.276-0.224,0.5-0.5,0.5H120V44z"/></g></g></g><g><g><rect width="34" height="14" x="102.5" y="142.5" fill="#1D2445"/></g><g><rect width="6" height="3" x="104.5" y="140.5" fill="#1D2445"/></g><g><rect width="6" height="3" x="112.5" y="140.5" fill="#1D2445"/></g><g><rect width="6" height="3" x="120.5" y="140.5" fill="#1D2445"/></g><g><rect width="6" height="3" x="128.5" y="140.5" fill="#1D2445"/></g></g><g><rect width="34" height="14" x="34.5" y="170.5" fill="#1D2445"/><path fill="#1D2445" d="M69,185H34v-15h35V185z M35,184h33v-13H35V184z"/></g><g><rect width="34" height="14" x="68.5" y="170.5" fill="#FFF"/><path fill="#1D2445" d="M102.5,185h-34c-0.276,0-0.5-0.224-0.5-0.5v-14c0-0.276,0.224-0.5,0.5-0.5h34c0.276,0,0.5,0.224,0.5,0.5 v14C103,184.776,102.777,185,102.5,185z M69,184h33v-13H69V184z"/></g><g><g><g><g><polygon fill="#FFF" points="134.5 2.5 134.5 .5 128.5 .5 128.5 2.5 126.5 2.5 126.5 .5 120.5 .5 120.5 2.5 118.5 2.5 118.5 .5 112.5 .5 112.5 2.5 110.5 2.5 110.5 .5 104.5 .5 104.5 2.5 102.5 2.5 102.5 16.5 136.5 16.5 136.5 2.5"/></g></g><g><g><path fill="#1D2445" d="M136.5,17h-34c-0.276,0-0.5-0.224-0.5-0.5v-14c0-0.276,0.224-0.5,0.5-0.5h1.5V0.5 c0-0.276,0.224-0.5,0.5-0.5h6c0.276,0,0.5,0.224,0.5,0.5V2h1V0.5c0-0.276,0.224-0.5,0.5-0.5h6c0.276,0,0.5,0.224,0.5,0.5V2h1 V0.5c0-0.276,0.224-0.5,0.5-0.5h6c0.276,0,0.5,0.224,0.5,0.5V2h1V0.5c0-0.276,0.224-0.5,0.5-0.5h6c0.276,0,0.5,0.224,0.5,0.5V2 h1.5c0.276,0,0.5,0.224,0.5,0.5v14C137,16.776,136.777,17,136.5,17z M103,16h33V3h-1.5c-0.276,0-0.5-0.224-0.5-0.5V1h-5v1.5 c0,0.276-0.224,0.5-0.5,0.5h-2c-0.276,0-0.5-0.224-0.5-0.5V1h-5v1.5c0,0.276-0.224,0.5-0.5,0.5h-2c-0.276,0-0.5-0.224-0.5-0.5 V1h-5v1.5c0,0.276-0.224,0.5-0.5,0.5h-2c-0.276,0-0.5-0.224-0.5-0.5V1h-5v1.5c0,0.276-0.224,0.5-0.5,0.5H103V16z"/></g></g></g></g><g><g><rect width="34" height="14" x="68.5" y="16.5" fill="#1D2445"/></g><g><rect width="6" height="3" x="70.5" y="14.5" fill="#1D2445"/></g><g><rect width="6" height="3" x="78.5" y="14.5" fill="#1D2445"/></g><g><rect width="6" height="3" x="86.5" y="14.5" fill="#1D2445"/></g><g><rect width="6" height="3" x="94.5" y="14.5" fill="#1D2445"/></g></g></g></svg>