<?xml version="1.0" encoding="UTF-8"?><svg version="1.1" xmlns="http://www.w3.org/2000/svg" xmlns:xlink="http://www.w3.org/1999/xlink" viewBox="0 0 1600 1200" width="1600" height="1200" x="0px" y="0px">
              
              <!-- ITEM 0 -->
<g>
    <defs>
        
        <clipPath id="clip-path-id-viewbox-item-0">
            <rect x="0.0" y="0.0" width="637.02" height="333.0"/>
        </clipPath>
    </defs>
    <g transform="translate(140.0 142.0) rotate(0.0 649.5 339.5) scale(2.039182443251389 2.039039039039039)">
        <g clip-path="url(#clip-path-id-viewbox-item-0)" transform="translate(-0.0 -0.0)">

<g>
	<g>
		<rect x="347.42" y="0.5" fill="#FFFFFF" width="57.82" height="332"/>
		<path fill="#1D2445" d="M405.24,333h-57.82c-0.276,0-0.5-0.224-0.5-0.5V0.5c0-0.276,0.224-0.5,0.5-0.5h57.82    c0.276,0,0.5,0.224,0.5,0.5v332C405.74,332.776,405.517,333,405.24,333z M347.92,332h56.82V1h-56.82V332z"/>
	</g>
	<g>
		<rect x="289.6" y="0.5" fill="#FFFFFF" width="57.82" height="332"/>
		<path fill="#1D2445" d="M347.42,333H289.6c-0.276,0-0.5-0.224-0.5-0.5V0.5c0-0.276,0.224-0.5,0.5-0.5h57.82    c0.276,0,0.5,0.224,0.5,0.5v332C347.92,332.776,347.697,333,347.42,333z M290.1,332h56.82V1H290.1V332z"/>
	</g>
	<g>
		<rect x="405.24" y="0.5" fill="#FFFFFF" width="57.82" height="332"/>
		<path fill="#1D2445" d="M463.06,333H405.24c-0.276,0-0.5-0.224-0.5-0.5V0.5c0-0.276,0.224-0.5,0.5-0.5h57.819    c0.276,0,0.5,0.224,0.5,0.5v332C463.56,332.776,463.336,333,463.06,333z M405.74,332h56.819V1H405.74V332z"/>
	</g>
	<g>
		<rect x="520.88" y="0.5" fill="#FFFFFF" width="57.82" height="332"/>
		<path fill="#1D2445" d="M578.7,333h-57.82c-0.276,0-0.5-0.224-0.5-0.5V0.5c0-0.276,0.224-0.5,0.5-0.5h57.82    c0.276,0,0.5,0.224,0.5,0.5v332C579.2,332.776,578.977,333,578.7,333z M521.38,332h56.82V1h-56.82V332z"/>
	</g>
	<g>
		<rect x="173.96" y="0.5" fill="#FFFFFF" width="57.82" height="332"/>
		<path fill="#1D2445" d="M231.78,333h-57.82c-0.276,0-0.5-0.224-0.5-0.5V0.5c0-0.276,0.224-0.5,0.5-0.5h57.82    c0.276,0,0.5,0.224,0.5,0.5v332C232.28,332.776,232.056,333,231.78,333z M174.46,332h56.82V1h-56.82V332z"/>
	</g>
	<g>
		<rect x="58.32" y="0.5" fill="#FFFFFF" width="57.82" height="332"/>
		<path fill="#1D2445" d="M116.14,333H58.32c-0.276,0-0.5-0.224-0.5-0.5V0.5c0-0.276,0.224-0.5,0.5-0.5h57.82    c0.276,0,0.5,0.224,0.5,0.5v332C116.64,332.776,116.416,333,116.14,333z M58.82,332h56.82V1H58.82V332z"/>
	</g>
	<g>
		<rect x="463.06" y="0.5" fill="#FFFFFF" width="57.82" height="332"/>
		<path fill="#1D2445" d="M520.88,333h-57.82c-0.276,0-0.5-0.224-0.5-0.5V0.5c0-0.276,0.224-0.5,0.5-0.5h57.82    c0.276,0,0.5,0.224,0.5,0.5v332C521.38,332.776,521.156,333,520.88,333z M463.56,332h56.82V1h-56.82V332z"/>
	</g>
	<g>
		<rect x="578.7" y="0.5" fill="#FFFFFF" width="57.82" height="332"/>
		<path fill="#1D2445" d="M636.52,333H578.7c-0.276,0-0.5-0.224-0.5-0.5V0.5c0-0.276,0.224-0.5,0.5-0.5h57.819    c0.276,0,0.5,0.224,0.5,0.5v332C637.02,332.776,636.796,333,636.52,333z M579.2,332h56.819V1H579.2V332z"/>
	</g>
	<g>
		<rect x="231.78" y="0.5" fill="#FFFFFF" width="57.82" height="332"/>
		<path fill="#1D2445" d="M289.6,333h-57.82c-0.276,0-0.5-0.224-0.5-0.5V0.5c0-0.276,0.224-0.5,0.5-0.5h57.82    c0.276,0,0.5,0.224,0.5,0.5v332C290.1,332.776,289.876,333,289.6,333z M232.28,332h56.82V1h-56.82V332z"/>
	</g>
	<g>
		<rect x="116.14" y="0.5" fill="#FFFFFF" width="57.82" height="332"/>
		<path fill="#1D2445" d="M173.96,333h-57.82c-0.276,0-0.5-0.224-0.5-0.5V0.5c0-0.276,0.224-0.5,0.5-0.5h57.82    c0.276,0,0.5,0.224,0.5,0.5v332C174.46,332.776,174.237,333,173.96,333z M116.64,332h56.82V1h-56.82V332z"/>
	</g>
	<g>
		<rect x="0.5" y="0.5" fill="#FFFFFF" width="57.82" height="332"/>
		<path fill="#1D2445" d="M58.32,333H0.5c-0.276,0-0.5-0.224-0.5-0.5V0.5C0,0.224,0.224,0,0.5,0h57.82c0.276,0,0.5,0.224,0.5,0.5    v332C58.82,332.776,58.596,333,58.32,333z M1,332h56.82V1H1V332z"/>
	</g>
</g>

        </g>
    </g>
</g>

<!-- ITEM 1 -->
<g>
    <defs>
        
        <clipPath id="clip-path-id-viewbox-item-1">
            <rect x="0.0" y="0.0" width="206.607" height="239.997"/>
        </clipPath>
    </defs>
    <g transform="translate(246.0 228.0) rotate(0.0 190.0 220.0) scale(1.8392406840039301 1.8333562502864618)">
        <g clip-path="url(#clip-path-id-viewbox-item-1)" transform="translate(-0.0 -0.0)">

<g>
	<rect x="21.588" y="130.542" fill="#FFFFFF" width="163.432" height="101.925"/>
	<path fill="#1D2445" d="M185.019,232.968H21.588c-0.276,0-0.5-0.224-0.5-0.5V130.542c0-0.276,0.224-0.5,0.5-0.5h163.431   c0.276,0,0.5,0.224,0.5,0.5v101.925C185.519,232.744,185.296,232.968,185.019,232.968z M22.088,231.968h162.431V131.042H22.088   V231.968z"/>
</g>
<g>
	<rect x="21.588" y="5.772" fill="#FFFFFF" width="163.432" height="124.77"/>
	<path fill="#1D2445" d="M185.019,131.042H21.588c-0.276,0-0.5-0.224-0.5-0.5V5.772c0-0.276,0.224-0.5,0.5-0.5h163.431   c0.276,0,0.5,0.224,0.5,0.5v124.77C185.519,130.819,185.296,131.042,185.019,131.042z M22.088,130.042h162.431V6.272H22.088   V130.042z"/>
</g>
<g>
	<path fill="#FFFFFF" d="M43.229,232.467v-3.673c1.377-0.627,2.929-0.761,4.393-0.378c3.628,0.941,7.39,1.256,11.124,0.931   c16.695-1.415,30.006-15.403,31.131-32.66c1.06-14.17-6.454-27.6-19.085-34.11c-3.524-1.808-5.475-5.688-4.824-9.595   c0.218-1.372,0.327-2.758,0.325-4.147c0-14.551-11.862-26.228-26.14-25.27c-7.565,0.579-14.429,4.649-18.566,11.01v97.892H43.229z"/>
	<path fill="#1D2445" d="M43.229,232.968H21.588c-0.276,0-0.5-0.224-0.5-0.5v-97.892c0-0.097,0.028-0.191,0.081-0.272   c4.194-6.448,11.277-10.649,18.947-11.236c0.566-0.038,1.121-0.057,1.674-0.057c13.787,0,25.004,11.585,25.004,25.826   c0.002,1.409-0.109,2.831-0.331,4.226c-0.618,3.711,1.214,7.355,4.558,9.071c12.836,6.616,20.433,20.193,19.355,34.592   c-1.137,17.451-14.717,31.692-31.587,33.121c-3.776,0.329-7.62,0.006-11.292-0.946c-1.25-0.326-2.578-0.245-3.768,0.225v3.342   C43.729,232.744,43.506,232.968,43.229,232.968z M22.088,231.968h20.641v-3.173c0-0.196,0.114-0.374,0.293-0.455   c1.477-0.674,3.155-0.818,4.727-0.407c3.561,0.924,7.288,1.236,10.954,0.917c16.383-1.388,29.57-15.229,30.675-32.195   c1.048-14.002-6.337-27.202-18.814-33.633c-3.732-1.915-5.777-5.982-5.088-10.121c0.212-1.339,0.32-2.708,0.318-4.065   c0-14.239-11.639-25.706-25.606-24.772c-7.308,0.559-14.064,4.541-18.1,10.66V231.968z"/>
</g>
<g>
	<path fill="#FFFFFF" d="M179.906,232.467c2.68-2.812,4.235-8.418,4.235-18.953c0-31.28-29.875-137.449-29.875-137.449   s-29.875,106.169-29.875,137.449c0,10.544,1.485,16.141,4.095,18.953H179.906z"/>
	<path fill="#1D2445" d="M179.906,232.968h-51.419c-0.139,0-0.272-0.058-0.367-0.16c-2.884-3.108-4.228-9.238-4.228-19.293   c0-30.991,29.594-136.523,29.893-137.585c0.122-0.432,0.841-0.432,0.963,0c0.299,1.062,29.893,106.594,29.893,137.585   c0,10.036-1.39,16.167-4.374,19.298C180.173,232.911,180.042,232.968,179.906,232.968z M128.708,231.968h50.979   c2.696-2.983,3.954-8.859,3.954-18.453c0-28.674-25.526-121.726-29.375-135.588c-3.848,13.862-29.375,106.914-29.375,135.588   C124.892,223.126,126.105,229.002,128.708,231.968z"/>
</g>
<g>
	<polygon fill="#FFFFFF" points="111.379,11.044 26.86,92.277 26.86,56.585 74.246,11.044  "/>
	<path fill="#1D2445" d="M26.86,92.777c-0.066,0-0.133-0.013-0.196-0.04c-0.185-0.079-0.304-0.26-0.304-0.46V56.585   c0-0.136,0.056-0.266,0.153-0.36L73.9,10.684c0.093-0.09,0.217-0.14,0.347-0.14h37.132c0.204,0,0.388,0.124,0.464,0.313   c0.076,0.189,0.03,0.406-0.117,0.547L27.207,92.637C27.112,92.728,26.987,92.777,26.86,92.777z M27.36,56.798v34.305l82.777-79.559   H74.448L27.36,56.798z"/>
</g>
<g>
	<polygon fill="#FFFFFF" points="146.85,11.044 27.765,125.27 26.86,125.27 26.86,109.042 129.031,11.044  "/>
	<path fill="#1D2445" d="M27.765,125.77H26.86c-0.276,0-0.5-0.224-0.5-0.5v-16.229c0-0.136,0.056-0.267,0.154-0.361l102.171-97.998   c0.093-0.089,0.217-0.139,0.346-0.139h17.819c0.204,0,0.388,0.124,0.464,0.313s0.03,0.406-0.118,0.547L28.111,125.631   C28.018,125.72,27.894,125.77,27.765,125.77z M27.36,124.77h0.204L145.607,11.544h-16.375L27.36,109.255V124.77z"/>
</g>
<g>
	<polygon fill="#FFFFFF" points="179.748,62.112 179.748,79.202 131.72,125.27 113.909,125.27  "/>
	<path fill="#1D2445" d="M131.72,125.77h-17.81c-0.204,0-0.388-0.124-0.464-0.313s-0.03-0.406,0.118-0.547l65.838-63.158   c0.145-0.139,0.357-0.178,0.542-0.099c0.184,0.079,0.304,0.26,0.304,0.46v17.09c0,0.136-0.056,0.267-0.154,0.361l-48.028,46.068   C131.972,125.72,131.848,125.77,131.72,125.77z M115.153,124.77h16.365l47.729-45.782V63.284L115.153,124.77z"/>
</g>
<g>
	<g>
		<g>
			<path fill="#FFFFFF" d="M179.748,0.5h-72.05H98.91H26.86H16.316v10.544V125.27v10.544v103.682H26.86V135.814h72.05h8.787h72.05     v103.682h10.544V135.814V125.27V11.044V0.5H179.748z M26.86,125.27V11.044h72.05V125.27H26.86z M179.748,125.27h-72.05V11.044     h72.05V125.27z"/>
		</g>
	</g>
	<g>
		<g>
			<path fill="#1D2445" d="M190.291,239.997h-10.544c-0.276,0-0.5-0.224-0.5-0.5V136.314H27.36v103.183c0,0.276-0.224,0.5-0.5,0.5     H16.316c-0.276,0-0.5-0.224-0.5-0.5V0.5c0-0.276,0.224-0.5,0.5-0.5h173.975c0.276,0,0.5,0.224,0.5,0.5v238.997     C190.791,239.773,190.568,239.997,190.291,239.997z M180.247,238.997h9.544V1H16.816v237.997h9.544V135.814     c0-0.276,0.224-0.5,0.5-0.5h152.887c0.276,0,0.5,0.224,0.5,0.5V238.997z M179.747,125.77h-72.05c-0.276,0-0.5-0.224-0.5-0.5     V11.044c0-0.276,0.224-0.5,0.5-0.5h72.05c0.276,0,0.5,0.224,0.5,0.5V125.27C180.247,125.547,180.024,125.77,179.747,125.77z      M108.197,124.77h71.05V11.544h-71.05V124.77z M98.91,125.77H26.86c-0.276,0-0.5-0.224-0.5-0.5V11.044c0-0.276,0.224-0.5,0.5-0.5     h72.05c0.276,0,0.5,0.224,0.5,0.5V125.27C99.41,125.547,99.187,125.77,98.91,125.77z M27.36,124.77h71.05V11.544H27.36V124.77z"/>
		</g>
	</g>
</g>
<g>
	<rect x="0.5" y="225.438" fill="#FFFFFF" width="205.607" height="14.059"/>
	<path fill="#1D2445" d="M206.108,239.997H0.5c-0.276,0-0.5-0.224-0.5-0.5v-14.059c0-0.276,0.224-0.5,0.5-0.5h205.608   c0.276,0,0.5,0.224,0.5,0.5v14.059C206.608,239.773,206.384,239.997,206.108,239.997z M1,238.997h204.608v-13.059H1V238.997z"/>
</g>

        </g>
    </g>
</g>

<!-- ITEM 2 -->
<g>
    <defs>
        
        <clipPath id="clip-path-id-viewbox-item-2">
            <rect x="0.0" y="0.0" width="206.607" height="239.997"/>
        </clipPath>
    </defs>
    <g transform="translate(951.0 221.0) rotate(0.0 191.5 222.0) scale(1.8537610051934348 1.850023125289066)">
        <g clip-path="url(#clip-path-id-viewbox-item-2)" transform="translate(-0.0 -0.0)">

<g>
	<rect x="20.612" y="130.266" fill="#FFFFFF" width="161.417" height="99.468"/>
	<path fill="#1D2445" d="M182.029,230.233H20.612c-0.276,0-0.5-0.224-0.5-0.5v-99.468c0-0.276,0.224-0.5,0.5-0.5h161.417   c0.276,0,0.5,0.224,0.5,0.5v99.468C182.529,230.01,182.306,230.233,182.029,230.233z M21.112,229.233h160.417v-98.468H21.112   V229.233z"/>
</g>
<g>
	<rect x="22.02" y="5.772" fill="#FFFFFF" width="163.432" height="124.77"/>
	<path fill="#1D2445" d="M185.451,131.042H22.02c-0.276,0-0.5-0.224-0.5-0.5V5.772c0-0.276,0.224-0.5,0.5-0.5h163.432   c0.276,0,0.5,0.224,0.5,0.5v124.77C185.951,130.819,185.728,131.042,185.451,131.042z M22.52,130.042h162.432V6.272H22.52V130.042z   "/>
</g>
<g>
	<path fill="#FFFFFF" d="M141.965,208.295c0,19.383-8.787,21.536-16.791,21.536c-8.69,0-16.598-2.153-16.598-21.536   s16.695-78.632,16.695-78.632S141.965,188.921,141.965,208.295z"/>
	<path fill="#1D2445" d="M125.174,230.331c-8.272,0-17.098-1.703-17.098-22.036c0-19.23,16.546-78.174,16.713-78.768   c0.122-0.431,0.841-0.431,0.963,0c0.167,0.593,16.713,59.546,16.713,78.768C142.465,227.713,133.724,230.331,125.174,230.331z    M125.27,131.531c-2.738,9.914-16.195,59.527-16.195,76.765c0,19.411,7.953,21.036,16.098,21.036   c8.461,0,16.291-2.548,16.291-21.036C141.465,191.065,128.008,141.447,125.27,131.531z"/>
</g>
<g>
	<path fill="#FFFFFF" d="M81.952,122.494c-3.106-1.764-4.815-5.251-4.305-8.787c0.168-1.116,0.227-2.246,0.176-3.374   c-0.223-10.191-8.665-18.271-18.856-18.048c-10.191,0.223-18.271,8.665-18.048,18.856v0.949c0.114,2.993-1.697,5.724-4.499,6.783   c-11.992,4.631-17.959,18.106-13.328,30.098c1.344,3.479,3.504,6.585,6.299,9.055c1.835,1.655,2.823,4.052,2.689,6.52   c-0.373,7.979,5.794,14.749,13.772,15.122c2.537,0.118,5.06-0.433,7.315-1.599v55.277h10.544v-62.042   c14.263,2.918,28.19-6.279,31.108-20.542c2.297-11.229-2.925-22.656-12.92-28.268H81.952z"/>
	<path fill="#1D2445" d="M63.711,233.846H53.167c-0.276,0-0.5-0.224-0.5-0.5v-54.48c-2.136,0.959-4.494,1.408-6.839,1.302   c-8.241-0.385-14.633-7.403-14.249-15.645c0.127-2.332-0.792-4.563-2.524-6.125c-2.839-2.509-5.063-5.707-6.43-9.246   c-4.723-12.23,1.384-26.022,13.614-30.745c2.607-0.986,4.285-3.516,4.179-6.298l0-0.968c-0.111-5.051,1.756-9.854,5.257-13.511   c3.501-3.658,8.217-5.734,13.28-5.845l0.423-0.004c10.222,0,18.72,8.317,18.944,18.542c0.053,1.144-0.008,2.312-0.181,3.459   c-0.483,3.353,1.109,6.603,4.058,8.278c0.048,0.027,0.09,0.061,0.125,0.101c10.105,5.775,15.321,17.282,12.985,28.702   c-2.546,12.448-13.602,21.482-26.287,21.482c-1.604,0-3.219-0.146-4.811-0.435v61.437   C64.211,233.622,63.987,233.846,63.711,233.846z M53.667,232.846h9.544v-61.542c0-0.15,0.067-0.292,0.184-0.387   c0.116-0.095,0.271-0.133,0.416-0.103c1.719,0.352,3.472,0.53,5.211,0.53c12.212,0,22.855-8.698,25.308-20.682   c2.262-11.061-2.832-22.205-12.675-27.731c-0.051-0.029-0.096-0.065-0.133-0.108c-3.191-1.909-4.903-5.49-4.37-9.186   c0.164-1.086,0.221-2.189,0.171-3.28c-0.212-9.696-8.262-17.575-17.944-17.575l-0.401,0.004c-4.795,0.105-9.262,2.071-12.579,5.536   c-3.316,3.465-5.085,8.014-4.98,12.809v0.96c0.122,3.193-1.815,6.114-4.822,7.251c-11.712,4.523-17.563,17.735-13.039,29.45   c1.31,3.39,3.44,6.454,6.164,8.861c1.96,1.769,3,4.29,2.856,6.921c-0.359,7.687,5.606,14.236,13.297,14.595   c2.445,0.116,4.897-0.423,7.063-1.543c0.154-0.081,0.34-0.074,0.489,0.017s0.24,0.253,0.24,0.427V232.846z"/>
</g>
<g>
	<g>
		<polygon fill="#FFFFFF" points="111.379,11.044 26.86,92.277 26.86,56.585 74.246,11.044   "/>
		<path fill="#1D2445" d="M26.86,92.777c-0.066,0-0.133-0.013-0.196-0.04c-0.185-0.079-0.304-0.26-0.304-0.46V56.585    c0-0.136,0.056-0.266,0.153-0.36l47.386-45.541c0.093-0.09,0.217-0.14,0.347-0.14h37.133c0.204,0,0.388,0.124,0.464,0.313    c0.076,0.189,0.03,0.406-0.117,0.547L27.207,92.637C27.111,92.728,26.986,92.777,26.86,92.777z M27.36,56.798v34.305    l82.777-79.559h-35.69L27.36,56.798z"/>
	</g>
	<g>
		<polygon fill="#FFFFFF" points="146.85,11.044 27.765,125.27 26.86,125.27 26.86,109.042 129.031,11.044   "/>
		<path fill="#1D2445" d="M27.765,125.77H26.86c-0.276,0-0.5-0.224-0.5-0.5v-16.229c0-0.136,0.056-0.267,0.154-0.361l102.171-97.998    c0.093-0.089,0.217-0.139,0.346-0.139h17.819c0.204,0,0.388,0.124,0.464,0.313s0.03,0.406-0.118,0.547L28.111,125.631    C28.018,125.72,27.894,125.77,27.765,125.77z M27.36,124.77h0.204L145.607,11.544h-16.375L27.36,109.255V124.77z"/>
	</g>
	<g>
		<polygon fill="#FFFFFF" points="179.748,62.112 179.748,79.202 131.72,125.27 113.909,125.27   "/>
		<path fill="#1D2445" d="M131.72,125.77h-17.811c-0.204,0-0.388-0.124-0.464-0.313s-0.03-0.406,0.118-0.547l65.838-63.158    c0.146-0.139,0.359-0.178,0.542-0.099c0.184,0.079,0.304,0.26,0.304,0.46v17.09c0,0.136-0.056,0.267-0.154,0.361l-48.028,46.068    C131.973,125.72,131.849,125.77,131.72,125.77z M115.153,124.77h16.366l47.729-45.782V63.284L115.153,124.77z"/>
	</g>
</g>
<g>
	<g>
		<g>
			<g>
				<path fill="#FFFFFF" d="M16.316,0.5v238.997H26.86V135.814h152.888v103.682h10.544V0.5H16.316z M26.86,125.27V11.044h72.05      V125.27H26.86z M179.748,125.27h-72.05V11.044h72.05V125.27z"/>
			</g>
		</g>
		<g>
			<g>
				<path fill="#1D2445" d="M190.291,239.997h-10.544c-0.276,0-0.5-0.224-0.5-0.5V136.314H27.36v103.183c0,0.276-0.224,0.5-0.5,0.5      H16.316c-0.276,0-0.5-0.224-0.5-0.5V0.5c0-0.276,0.224-0.5,0.5-0.5h173.976c0.276,0,0.5,0.224,0.5,0.5v238.997      C190.791,239.773,190.568,239.997,190.291,239.997z M180.248,238.997h9.544V1H16.816v237.997h9.544V135.814      c0-0.276,0.224-0.5,0.5-0.5h152.888c0.276,0,0.5,0.224,0.5,0.5V238.997z M179.748,125.77h-72.05c-0.276,0-0.5-0.224-0.5-0.5      V11.044c0-0.276,0.224-0.5,0.5-0.5h72.05c0.276,0,0.5,0.224,0.5,0.5V125.27C180.248,125.547,180.024,125.77,179.748,125.77z       M108.197,124.77h71.05V11.544h-71.05V124.77z M98.911,125.77H26.86c-0.276,0-0.5-0.224-0.5-0.5V11.044      c0-0.276,0.224-0.5,0.5-0.5h72.051c0.276,0,0.5,0.224,0.5,0.5V125.27C99.411,125.547,99.187,125.77,98.911,125.77z       M27.36,124.77h71.051V11.544H27.36V124.77z"/>
			</g>
		</g>
	</g>
	<g>
		<rect x="0.5" y="225.438" fill="#FFFFFF" width="205.607" height="14.059"/>
		<path fill="#1D2445" d="M206.107,239.997H0.5c-0.276,0-0.5-0.224-0.5-0.5v-14.059c0-0.276,0.224-0.5,0.5-0.5h205.607    c0.276,0,0.5,0.224,0.5,0.5v14.059C206.607,239.773,206.384,239.997,206.107,239.997z M1,238.997h204.607v-13.059H1V238.997z"/>
	</g>
</g>

        </g>
    </g>
</g>

<!-- ITEM 3 -->
<g>
    <defs>
        
        <clipPath id="clip-path-id-viewbox-item-3">
            <rect x="0.0" y="0.0" width="56.015" height="36.8"/>
        </clipPath>
    </defs>
    <g transform="translate(1170.0 711.0) rotate(0.0 51.5 34.0) scale(1.8387931803981077 1.847826086956522)">
        <g clip-path="url(#clip-path-id-viewbox-item-3)" transform="translate(-0.0 -0.0)">

<g>
	<g>
		
			<rect x="6.481" y="3.322" transform="matrix(-0.5658 0.8245 -0.8245 -0.5658 38.9076 11.2157)" fill="#FFFFFF" width="20.04" height="25.06"/>
		<path fill="#1D2445" d="M21.163,31.703c-0.1,0-0.199-0.03-0.283-0.088L0.217,17.435c-0.228-0.156-0.286-0.467-0.129-0.695    L11.427,0.218c0.156-0.228,0.469-0.286,0.695-0.129l20.663,14.18c0.228,0.156,0.286,0.467,0.129,0.695L21.575,31.486    c-0.075,0.109-0.19,0.185-0.321,0.209C21.224,31.701,21.193,31.703,21.163,31.703z M1.195,16.894l19.838,13.614l10.773-15.699    L11.968,1.196L1.195,16.894z"/>
	</g>
	<g>
		
			<rect x="24.804" y="5.913" transform="matrix(-0.0952 0.9955 -0.9955 -0.0952 63.7618 -20.1512)" fill="#FFFFFF" width="32.47" height="25.98"/>
		<path fill="#1D2445" d="M52.426,36.801c-0.016,0-0.032,0-0.048-0.002l-25.862-2.472c-0.275-0.026-0.477-0.27-0.45-0.545    l3.089-32.323c0.012-0.132,0.077-0.254,0.179-0.338s0.233-0.126,0.366-0.112L55.563,3.48c0.132,0.013,0.254,0.077,0.338,0.179    c0.084,0.103,0.125,0.234,0.112,0.366l-3.09,32.323C52.899,36.607,52.681,36.801,52.426,36.801z M27.109,33.378l24.866,2.377    L54.97,4.428L30.103,2.051L27.109,33.378z"/>
	</g>
</g>

        </g>
    </g>
</g>

<!-- ITEM 4 -->
<g>
    <defs>
        
        <clipPath id="clip-path-id-viewbox-item-4">
            <rect x="0.0" y="0.0" width="205.0" height="185.0"/>
        </clipPath>
    </defs>
    <g transform="translate(565.0 553.0) rotate(0.0 233.0 210.5) scale(2.273170731707317 2.2756756756756755)">
        <g clip-path="url(#clip-path-id-viewbox-item-4)" transform="translate(-0.0 -0.0)">

<g>
	<g>
		<rect x="102.5" y="170.5" fill="#FFFFFF" width="34" height="14"/>
		<path fill="#1D2445" d="M136.5,185h-34c-0.276,0-0.5-0.224-0.5-0.5v-14c0-0.276,0.224-0.5,0.5-0.5h34c0.276,0,0.5,0.224,0.5,0.5    v14C137,184.776,136.777,185,136.5,185z M103,184h33v-13h-33V184z"/>
	</g>
	<g>
		<rect x="136.5" y="170.5" fill="#1D2445" width="34" height="14"/>
		<path fill="#1D2445" d="M171,185h-35v-15h35V185z M137,184h33v-13h-33V184z"/>
	</g>
	<g>
		<rect x="170.5" y="170.5" fill="#FFFFFF" width="34" height="14"/>
		<path fill="#1D2445" d="M204.5,185h-34c-0.276,0-0.5-0.224-0.5-0.5v-14c0-0.276,0.224-0.5,0.5-0.5h34c0.276,0,0.5,0.224,0.5,0.5    v14C205,184.776,204.777,185,204.5,185z M171,184h33v-13h-33V184z"/>
	</g>
	<g>
		<rect x="34.5" y="142.5" fill="#1D2445" width="34" height="14"/>
	</g>
	<g>
		<rect x="136.5" y="142.5" fill="#FFFFFF" width="34" height="14"/>
		<path fill="#1D2445" d="M170.5,157h-34c-0.276,0-0.5-0.224-0.5-0.5v-14c0-0.276,0.224-0.5,0.5-0.5h34c0.276,0,0.5,0.224,0.5,0.5    v14C171,156.776,170.777,157,170.5,157z M137,156h33v-13h-33V156z"/>
	</g>
	<g>
		<rect x="34.5" y="128.5" fill="#FFFFFF" width="34" height="14"/>
		<path fill="#1D2445" d="M68.5,143h-34c-0.276,0-0.5-0.224-0.5-0.5v-14c0-0.276,0.224-0.5,0.5-0.5h34c0.276,0,0.5,0.224,0.5,0.5v14    C69,142.776,68.777,143,68.5,143z M35,142h33v-13H35V142z"/>
	</g>
	<g>
		<rect x="136.5" y="128.5" fill="#FFFFFF" width="34" height="14"/>
		<path fill="#1D2445" d="M170.5,143h-34c-0.276,0-0.5-0.224-0.5-0.5v-14c0-0.276,0.224-0.5,0.5-0.5h34c0.276,0,0.5,0.224,0.5,0.5    v14C171,142.776,170.777,143,170.5,143z M137,142h33v-13h-33V142z"/>
	</g>
	<g>
		<rect x="34.5" y="114.5" fill="#1D2445" width="34" height="14"/>
		<path fill="#1D2445" d="M69,129H34v-15h35V129z M35,128h33v-13H35V128z"/>
	</g>
	<g>
		<rect x="136.5" y="114.5" fill="#FFFFFF" width="34" height="14"/>
		<path fill="#1D2445" d="M170.5,129h-34c-0.276,0-0.5-0.224-0.5-0.5v-14c0-0.276,0.224-0.5,0.5-0.5h34c0.276,0,0.5,0.224,0.5,0.5    v14C171,128.776,170.777,129,170.5,129z M137,128h33v-13h-33V128z"/>
	</g>
	<g>
		<rect x="34.5" y="100.5" fill="#FFFFFF" width="34" height="14"/>
		<path fill="#1D2445" d="M68.5,115h-34c-0.276,0-0.5-0.224-0.5-0.5v-14c0-0.276,0.224-0.5,0.5-0.5h34c0.276,0,0.5,0.224,0.5,0.5v14    C69,114.776,68.777,115,68.5,115z M35,114h33v-13H35V114z"/>
	</g>
	<g>
		<rect x="136.5" y="100.5" fill="#1D2445" width="17" height="14"/>
		<path fill="#1D2445" d="M154,115h-18v-15h18V115z M137,114h16v-13h-16V114z"/>
	</g>
	<g>
		<rect x="153.5" y="100.5" fill="#FFFFFF" width="17" height="14"/>
		<path fill="#1D2445" d="M170.5,115h-17c-0.276,0-0.5-0.224-0.5-0.5v-14c0-0.276,0.224-0.5,0.5-0.5h17c0.276,0,0.5,0.224,0.5,0.5    v14C171,114.776,170.777,115,170.5,115z M154,114h16v-13h-16V114z"/>
	</g>
	<g>
		<rect x="153.5" y="72.5" fill="#FFFFFF" width="17" height="14"/>
		<path fill="#1D2445" d="M170.5,87h-17c-0.276,0-0.5-0.224-0.5-0.5v-14c0-0.276,0.224-0.5,0.5-0.5h17c0.276,0,0.5,0.224,0.5,0.5v14    C171,86.776,170.777,87,170.5,87z M154,86h16V73h-16V86z"/>
	</g>
	<g>
		<rect x="34.5" y="72.5" fill="#FFFFFF" width="17" height="14"/>
		<path fill="#1D2445" d="M51.5,87h-17c-0.276,0-0.5-0.224-0.5-0.5v-14c0-0.276,0.224-0.5,0.5-0.5h17c0.276,0,0.5,0.224,0.5,0.5v14    C52,86.776,51.777,87,51.5,87z M35,86h16V73H35V86z"/>
	</g>
	<g>
		<rect x="51.5" y="58.5" fill="#1D2445" width="17" height="14"/>
	</g>
	<g>
		<rect x="34.5" y="86.5" fill="#FFFFFF" width="34" height="14"/>
		<path fill="#1D2445" d="M68.5,101h-34c-0.276,0-0.5-0.224-0.5-0.5v-14c0-0.276,0.224-0.5,0.5-0.5h34c0.276,0,0.5,0.224,0.5,0.5v14    C69,100.776,68.777,101,68.5,101z M35,100h33V87H35V100z"/>
	</g>
	<g>
		<rect x="136.5" y="86.5" fill="#FFFFFF" width="34" height="14"/>
		<path fill="#1D2445" d="M170.5,101h-34c-0.276,0-0.5-0.224-0.5-0.5v-14c0-0.276,0.224-0.5,0.5-0.5h34c0.276,0,0.5,0.224,0.5,0.5    v14C171,100.776,170.777,101,170.5,101z M137,100h33V87h-33V100z"/>
	</g>
	<g>
		<rect x="120.5" y="72.5" fill="#1D2445" width="33" height="14"/>
		<path fill="#1D2445" d="M154,87h-34V72h34V87z M121,86h32V73h-32V86z"/>
	</g>
	<g>
		<rect x="51.5" y="72.5" fill="#FFFFFF" width="34" height="14"/>
		<path fill="#1D2445" d="M85.5,87h-34c-0.276,0-0.5-0.224-0.5-0.5v-14c0-0.276,0.224-0.5,0.5-0.5h34c0.276,0,0.5,0.224,0.5,0.5v14    C86,86.776,85.777,87,85.5,87z M52,86h33V73H52V86z"/>
	</g>
	<g>
		<rect x="17.5" y="58.5" fill="#FFFFFF" width="34" height="14"/>
		<path fill="#1D2445" d="M51.5,73h-34c-0.276,0-0.5-0.224-0.5-0.5v-14c0-0.276,0.224-0.5,0.5-0.5h34c0.276,0,0.5,0.224,0.5,0.5v14    C52,72.776,51.777,73,51.5,73z M18,72h33V59H18V72z"/>
	</g>
	<g>
		<rect x="34.5" y="44.5" fill="#FFFFFF" width="17" height="14"/>
		<path fill="#1D2445" d="M51.5,59h-17c-0.276,0-0.5-0.224-0.5-0.5v-14c0-0.276,0.224-0.5,0.5-0.5h17c0.276,0,0.5,0.224,0.5,0.5v14    C52,58.776,51.777,59,51.5,59z M35,58h16V45H35V58z"/>
	</g>
	<g>
		<rect x="51.5" y="30.5" fill="#FFFFFF" width="17" height="14"/>
		<path fill="#1D2445" d="M68.5,45h-17c-0.276,0-0.5-0.224-0.5-0.5v-14c0-0.276,0.224-0.5,0.5-0.5h17c0.276,0,0.5,0.224,0.5,0.5v14    C69,44.776,68.777,45,68.5,45z M52,44h16V31H52V44z"/>
	</g>
	<g>
		<rect x="68.5" y="30.5" fill="#FFFFFF" width="34" height="14"/>
		<path fill="#1D2445" d="M102.5,45h-34c-0.276,0-0.5-0.224-0.5-0.5v-14c0-0.276,0.224-0.5,0.5-0.5h34c0.276,0,0.5,0.224,0.5,0.5v14    C103,44.776,102.777,45,102.5,45z M69,44h33V31H69V44z"/>
	</g>
	<g>
		<rect x="85.5" y="44.5" fill="#1D2445" width="34" height="14"/>
	</g>
	<g>
		<rect x="51.5" y="44.5" fill="#FFFFFF" width="34" height="14"/>
		<path fill="#1D2445" d="M85.5,59h-34c-0.276,0-0.5-0.224-0.5-0.5v-14c0-0.276,0.224-0.5,0.5-0.5h34c0.276,0,0.5,0.224,0.5,0.5v14    C86,58.776,85.777,59,85.5,59z M52,58h33V45H52V58z"/>
	</g>
	<g>
		<rect x="102.5" y="16.5" fill="#FFFFFF" width="34" height="14"/>
		<path fill="#1D2445" d="M136.5,31h-34c-0.276,0-0.5-0.224-0.5-0.5v-14c0-0.276,0.224-0.5,0.5-0.5h34c0.276,0,0.5,0.224,0.5,0.5v14    C137,30.776,136.777,31,136.5,31z M103,30h33V17h-33V30z"/>
	</g>
	<g>
		<rect x="153.5" y="44.5" fill="#FFFFFF" width="17" height="14"/>
		<path fill="#1D2445" d="M170.5,59h-17c-0.276,0-0.5-0.224-0.5-0.5v-14c0-0.276,0.224-0.5,0.5-0.5h17c0.276,0,0.5,0.224,0.5,0.5v14    C171,58.776,170.777,59,170.5,59z M154,58h16V45h-16V58z"/>
	</g>
	<g>
		<rect x="68.5" y="58.5" fill="#FFFFFF" width="34" height="14"/>
		<path fill="#1D2445" d="M102.5,73h-34c-0.276,0-0.5-0.224-0.5-0.5v-14c0-0.276,0.224-0.5,0.5-0.5h34c0.276,0,0.5,0.224,0.5,0.5v14    C103,72.776,102.777,73,102.5,73z M69,72h33V59H69V72z"/>
	</g>
	<g>
		<rect x="119.5" y="44.5" fill="#FFFFFF" width="34" height="14"/>
		<path fill="#1D2445" d="M153.5,59h-34c-0.276,0-0.5-0.224-0.5-0.5v-14c0-0.276,0.224-0.5,0.5-0.5h34c0.276,0,0.5,0.224,0.5,0.5v14    C154,58.776,153.777,59,153.5,59z M120,58h33V45h-33V58z"/>
	</g>
	<g>
		<rect x="102.5" y="58.5" fill="#FFFFFF" width="34" height="14"/>
		<path fill="#1D2445" d="M136.5,73h-34c-0.276,0-0.5-0.224-0.5-0.5v-14c0-0.276,0.224-0.5,0.5-0.5h34c0.276,0,0.5,0.224,0.5,0.5v14    C137,72.776,136.777,73,136.5,73z M103,72h33V59h-33V72z"/>
	</g>
	<g>
		<rect x="153.5" y="58.5" fill="#FFFFFF" width="34" height="14"/>
		<path fill="#1D2445" d="M187.5,73h-34c-0.276,0-0.5-0.224-0.5-0.5v-14c0-0.276,0.224-0.5,0.5-0.5h34c0.276,0,0.5,0.224,0.5,0.5v14    C188,72.776,187.777,73,187.5,73z M154,72h33V59h-33V72z"/>
	</g>
	<g>
		<rect x="0.5" y="170.5" fill="#FFFFFF" width="34" height="14"/>
		<path fill="#1D2445" d="M34.5,185h-34c-0.276,0-0.5-0.224-0.5-0.5v-14c0-0.276,0.224-0.5,0.5-0.5h34c0.276,0,0.5,0.224,0.5,0.5v14    C35,184.776,34.777,185,34.5,185z M1,184h33v-13H1V184z"/>
	</g>
	<g>
		<rect x="17.5" y="156.5" fill="#FFFFFF" width="34" height="14"/>
		<path fill="#1D2445" d="M51.5,171h-34c-0.276,0-0.5-0.224-0.5-0.5v-14c0-0.276,0.224-0.5,0.5-0.5h34c0.276,0,0.5,0.224,0.5,0.5v14    C52,170.776,51.777,171,51.5,171z M18,170h33v-13H18V170z"/>
	</g>
	<g>
		<rect x="68.59" y="156.5" fill="#FFFFFF" width="33.91" height="14"/>
		<path fill="#1D2445" d="M102.5,171H68.59c-0.276,0-0.5-0.224-0.5-0.5v-14c0-0.276,0.224-0.5,0.5-0.5h33.91    c0.276,0,0.5,0.224,0.5,0.5v14C103,170.776,102.777,171,102.5,171z M69.09,170H102v-13H69.09V170z"/>
	</g>
	<g>
		<rect x="136.5" y="156.5" fill="#FFFFFF" width="17" height="14"/>
		<path fill="#1D2445" d="M153.5,171h-17c-0.276,0-0.5-0.224-0.5-0.5v-14c0-0.276,0.224-0.5,0.5-0.5h17c0.276,0,0.5,0.224,0.5,0.5    v14C154,170.776,153.777,171,153.5,171z M137,170h16v-13h-16V170z"/>
	</g>
	<g>
		<rect x="119.5" y="156.5" fill="#FFFFFF" width="17" height="14"/>
		<path fill="#1D2445" d="M136.5,171h-17c-0.276,0-0.5-0.224-0.5-0.5v-14c0-0.276,0.224-0.5,0.5-0.5h17c0.276,0,0.5,0.224,0.5,0.5    v14C137,170.776,136.777,171,136.5,171z M120,170h16v-13h-16V170z"/>
	</g>
	<g>
		<rect x="153.5" y="156.5" fill="#FFFFFF" width="34" height="14"/>
		<path fill="#1D2445" d="M187.5,171h-34c-0.276,0-0.5-0.224-0.5-0.5v-14c0-0.276,0.224-0.5,0.5-0.5h34c0.276,0,0.5,0.224,0.5,0.5    v14C188,170.776,187.777,171,187.5,171z M154,170h33v-13h-33V170z"/>
	</g>
	<g>
		<g>
			<g>
				<polygon fill="#FFFFFF" points="15.5,156.5 15.5,154.5 9.5,154.5 9.5,156.5 7.5,156.5 0.5,165.5 0.5,170.5 17.5,170.5       17.5,156.5     "/>
			</g>
		</g>
		<g>
			<g>
				<path fill="#1D2445" d="M17.5,171h-17c-0.276,0-0.5-0.224-0.5-0.5v-5c0-0.111,0.037-0.219,0.105-0.307l7-9      C7.201,156.071,7.346,156,7.5,156H9v-1.5c0-0.276,0.224-0.5,0.5-0.5h6c0.276,0,0.5,0.224,0.5,0.5v1.5h1.5      c0.276,0,0.5,0.224,0.5,0.5v14C18,170.776,17.777,171,17.5,171z M1,170h16v-13h-1.5c-0.276,0-0.5-0.224-0.5-0.5V155h-5v1.5      c0,0.276-0.224,0.5-0.5,0.5H7.744L1,165.671V170z"/>
			</g>
		</g>
	</g>
	<g>
		<g>
			<g>
				<polygon fill="#FFFFFF" points="197.5,156.5 195.5,156.5 195.5,154.5 189.5,154.5 189.5,156.5 187.5,156.5 187.5,170.5       204.5,170.5 204.5,165.5     "/>
			</g>
		</g>
		<g>
			<g>
				<path fill="#1D2445" d="M204.5,171h-17c-0.276,0-0.5-0.224-0.5-0.5v-14c0-0.276,0.224-0.5,0.5-0.5h1.5v-1.5      c0-0.276,0.224-0.5,0.5-0.5h6c0.276,0,0.5,0.224,0.5,0.5v1.5h1.5c0.154,0,0.3,0.071,0.395,0.193l7,9      c0.068,0.088,0.105,0.196,0.105,0.307v5C205,170.776,204.777,171,204.5,171z M188,170h16v-4.329L197.256,157H195.5      c-0.276,0-0.5-0.224-0.5-0.5V155h-5v1.5c0,0.276-0.224,0.5-0.5,0.5H188V170z"/>
			</g>
		</g>
	</g>
	<g>
		<g>
			<g>
				<polygon fill="#FFFFFF" points="180.5,142.5 178.5,142.5 178.5,140.5 172.5,140.5 172.5,142.5 170.5,142.5 170.5,156.5       187.5,156.5 187.5,151.5     "/>
			</g>
		</g>
		<g>
			<g>
				<path fill="#1D2445" d="M187.5,157h-17c-0.276,0-0.5-0.224-0.5-0.5v-14c0-0.276,0.224-0.5,0.5-0.5h1.5v-1.5      c0-0.276,0.224-0.5,0.5-0.5h6c0.276,0,0.5,0.224,0.5,0.5v1.5h1.5c0.154,0,0.3,0.071,0.395,0.193l7,9      c0.068,0.088,0.105,0.196,0.105,0.307v5C188,156.776,187.777,157,187.5,157z M171,156h16v-4.329L180.256,143H178.5      c-0.276,0-0.5-0.224-0.5-0.5V141h-5v1.5c0,0.276-0.224,0.5-0.5,0.5H171V156z"/>
			</g>
		</g>
	</g>
	<g>
		<g>
			<g>
				<polygon fill="#FFFFFF" points="163.5,30.5 161.5,30.5 161.5,28.5 155.5,28.5 155.5,30.5 153.5,30.5 153.5,44.5 170.5,44.5       170.5,39.5     "/>
			</g>
		</g>
		<g>
			<g>
				<path fill="#1D2445" d="M170.5,45h-17c-0.276,0-0.5-0.224-0.5-0.5v-14c0-0.276,0.224-0.5,0.5-0.5h1.5v-1.5      c0-0.276,0.224-0.5,0.5-0.5h6c0.276,0,0.5,0.224,0.5,0.5V30h1.5c0.154,0,0.3,0.071,0.395,0.193l7,9      C170.963,39.281,171,39.389,171,39.5v5C171,44.776,170.777,45,170.5,45z M154,44h16v-4.329L163.256,31H161.5      c-0.276,0-0.5-0.224-0.5-0.5V29h-5v1.5c0,0.276-0.224,0.5-0.5,0.5H154V44z"/>
			</g>
		</g>
	</g>
	<g>
		<g>
			<g>
				<polygon fill="#FFFFFF" points="180.5,44.5 178.5,44.5 178.5,42.5 172.5,42.5 172.5,44.5 170.5,44.5 170.5,58.5 187.5,58.5       187.5,53.5     "/>
			</g>
		</g>
		<g>
			<g>
				<path fill="#1D2445" d="M187.5,59h-17c-0.276,0-0.5-0.224-0.5-0.5v-14c0-0.276,0.224-0.5,0.5-0.5h1.5v-1.5      c0-0.276,0.224-0.5,0.5-0.5h6c0.276,0,0.5,0.224,0.5,0.5V44h1.5c0.154,0,0.3,0.071,0.395,0.193l7,9      C187.963,53.281,188,53.389,188,53.5v5C188,58.776,187.777,59,187.5,59z M171,58h16v-4.329L180.256,45H178.5      c-0.276,0-0.5-0.224-0.5-0.5V43h-5v1.5c0,0.276-0.224,0.5-0.5,0.5H171V58z"/>
			</g>
		</g>
	</g>
	<g>
		<g>
			<g>
				<polygon fill="#FFFFFF" points="32.5,142.5 32.5,140.5 26.5,140.5 26.5,142.5 24.5,142.5 17.5,151.5 17.5,156.5 34.5,156.5       34.5,142.5     "/>
			</g>
		</g>
		<g>
			<g>
				<path fill="#1D2445" d="M34.5,157h-17c-0.276,0-0.5-0.224-0.5-0.5v-5c0-0.111,0.037-0.219,0.105-0.307l7-9      c0.095-0.122,0.24-0.193,0.395-0.193H26v-1.5c0-0.276,0.224-0.5,0.5-0.5h6c0.276,0,0.5,0.224,0.5,0.5v1.5h1.5      c0.276,0,0.5,0.224,0.5,0.5v14C35,156.776,34.777,157,34.5,157z M18,156h16v-13h-1.5c-0.276,0-0.5-0.224-0.5-0.5V141h-5v1.5      c0,0.276-0.224,0.5-0.5,0.5h-1.756L18,151.671V156z"/>
			</g>
		</g>
	</g>
	<g>
		<g>
			<g>
				<polygon fill="#FFFFFF" points="32.5,44.5 32.5,42.5 26.5,42.5 26.5,44.5 24.5,44.5 17.5,53.5 17.5,58.5 34.5,58.5 34.5,44.5           "/>
			</g>
		</g>
		<g>
			<g>
				<path fill="#1D2445" d="M34.5,59h-17c-0.276,0-0.5-0.224-0.5-0.5v-5c0-0.111,0.037-0.219,0.105-0.307l7-9      C24.201,44.071,24.346,44,24.5,44H26v-1.5c0-0.276,0.224-0.5,0.5-0.5h6c0.276,0,0.5,0.224,0.5,0.5V44h1.5      c0.276,0,0.5,0.224,0.5,0.5v14C35,58.776,34.777,59,34.5,59z M18,58h16V45h-1.5c-0.276,0-0.5-0.224-0.5-0.5V43h-5v1.5      c0,0.276-0.224,0.5-0.5,0.5h-1.756L18,53.671V58z"/>
			</g>
		</g>
	</g>
	<g>
		<g>
			<g>
				<polygon fill="#FFFFFF" points="49.5,30.5 49.5,28.5 43.5,28.5 43.5,30.5 41.5,30.5 34.5,39.5 34.5,44.5 51.5,44.5 51.5,30.5           "/>
			</g>
		</g>
		<g>
			<g>
				<path fill="#1D2445" d="M51.5,45h-17c-0.276,0-0.5-0.224-0.5-0.5v-5c0-0.111,0.037-0.219,0.105-0.307l7-9      C41.201,30.071,41.346,30,41.5,30H43v-1.5c0-0.276,0.224-0.5,0.5-0.5h6c0.276,0,0.5,0.224,0.5,0.5V30h1.5      c0.276,0,0.5,0.224,0.5,0.5v14C52,44.776,51.777,45,51.5,45z M35,44h16V31h-1.5c-0.276,0-0.5-0.224-0.5-0.5V29h-5v1.5      c0,0.276-0.224,0.5-0.5,0.5h-1.756L35,39.671V44z"/>
			</g>
		</g>
	</g>
	<g>
		<g>
			<g>
				<polygon fill="#FFFFFF" points="100.5,142.5 100.5,140.5 94.5,140.5 94.5,142.5 92.5,142.5 92.5,140.5 86.5,140.5 86.5,142.5       84.5,142.5 84.5,140.5 78.5,140.5 78.5,142.5 76.5,142.5 76.5,140.5 70.5,140.5 70.5,142.5 68.5,142.5 68.5,156.5 102.5,156.5       102.5,142.5     "/>
			</g>
		</g>
		<g>
			<g>
				<path fill="#1D2445" d="M102.5,157h-34c-0.276,0-0.5-0.224-0.5-0.5v-14c0-0.276,0.224-0.5,0.5-0.5H70v-1.5      c0-0.276,0.224-0.5,0.5-0.5h6c0.276,0,0.5,0.224,0.5,0.5v1.5h1v-1.5c0-0.276,0.224-0.5,0.5-0.5h6c0.276,0,0.5,0.224,0.5,0.5v1.5      h1v-1.5c0-0.276,0.224-0.5,0.5-0.5h6c0.276,0,0.5,0.224,0.5,0.5v1.5h1v-1.5c0-0.276,0.224-0.5,0.5-0.5h6      c0.276,0,0.5,0.224,0.5,0.5v1.5h1.5c0.276,0,0.5,0.224,0.5,0.5v14C103,156.776,102.777,157,102.5,157z M69,156h33v-13h-1.5      c-0.276,0-0.5-0.224-0.5-0.5V141h-5v1.5c0,0.276-0.224,0.5-0.5,0.5h-2c-0.276,0-0.5-0.224-0.5-0.5V141h-5v1.5      c0,0.276-0.224,0.5-0.5,0.5h-2c-0.276,0-0.5-0.224-0.5-0.5V141h-5v1.5c0,0.276-0.224,0.5-0.5,0.5h-2c-0.276,0-0.5-0.224-0.5-0.5      V141h-5v1.5c0,0.276-0.224,0.5-0.5,0.5H69V156z"/>
			</g>
		</g>
	</g>
	<g>
		<g>
			<g>
				<polygon fill="#FFFFFF" points="151.5,30.5 151.5,28.5 145.5,28.5 145.5,30.5 143.5,30.5 143.5,28.5 137.5,28.5 137.5,30.5       119.5,30.5 119.5,44.5 153.5,44.5 153.5,30.5     "/>
			</g>
		</g>
		<g>
			<g>
				<path fill="#1D2445" d="M153.5,45h-34c-0.276,0-0.5-0.224-0.5-0.5v-14c0-0.276,0.224-0.5,0.5-0.5H137v-1.5      c0-0.276,0.224-0.5,0.5-0.5h6c0.276,0,0.5,0.224,0.5,0.5V30h1v-1.5c0-0.276,0.224-0.5,0.5-0.5h6c0.276,0,0.5,0.224,0.5,0.5V30      h1.5c0.276,0,0.5,0.224,0.5,0.5v14C154,44.776,153.777,45,153.5,45z M120,44h33V31h-1.5c-0.276,0-0.5-0.224-0.5-0.5V29h-5v1.5      c0,0.276-0.224,0.5-0.5,0.5h-2c-0.276,0-0.5-0.224-0.5-0.5V29h-5v1.5c0,0.276-0.224,0.5-0.5,0.5H120V44z"/>
			</g>
		</g>
	</g>
	<g>
		<g>
			<rect x="102.5" y="142.5" fill="#1D2445" width="34" height="14"/>
		</g>
		<g>
			<rect x="104.5" y="140.5" fill="#1D2445" width="6" height="3"/>
		</g>
		<g>
			<rect x="112.5" y="140.5" fill="#1D2445" width="6" height="3"/>
		</g>
		<g>
			<rect x="120.5" y="140.5" fill="#1D2445" width="6" height="3"/>
		</g>
		<g>
			<rect x="128.5" y="140.5" fill="#1D2445" width="6" height="3"/>
		</g>
	</g>
	<g>
		<rect x="34.5" y="170.5" fill="#1D2445" width="34" height="14"/>
		<path fill="#1D2445" d="M69,185H34v-15h35V185z M35,184h33v-13H35V184z"/>
	</g>
	<g>
		<rect x="68.5" y="170.5" fill="#FFFFFF" width="34" height="14"/>
		<path fill="#1D2445" d="M102.5,185h-34c-0.276,0-0.5-0.224-0.5-0.5v-14c0-0.276,0.224-0.5,0.5-0.5h34c0.276,0,0.5,0.224,0.5,0.5    v14C103,184.776,102.777,185,102.5,185z M69,184h33v-13H69V184z"/>
	</g>
	<g>
		<g>
			<g>
				<g>
					<polygon fill="#FFFFFF" points="134.5,2.5 134.5,0.5 128.5,0.5 128.5,2.5 126.5,2.5 126.5,0.5 120.5,0.5 120.5,2.5 118.5,2.5        118.5,0.5 112.5,0.5 112.5,2.5 110.5,2.5 110.5,0.5 104.5,0.5 104.5,2.5 102.5,2.5 102.5,16.5 136.5,16.5 136.5,2.5      "/>
				</g>
			</g>
			<g>
				<g>
					<path fill="#1D2445" d="M136.5,17h-34c-0.276,0-0.5-0.224-0.5-0.5v-14c0-0.276,0.224-0.5,0.5-0.5h1.5V0.5       c0-0.276,0.224-0.5,0.5-0.5h6c0.276,0,0.5,0.224,0.5,0.5V2h1V0.5c0-0.276,0.224-0.5,0.5-0.5h6c0.276,0,0.5,0.224,0.5,0.5V2h1       V0.5c0-0.276,0.224-0.5,0.5-0.5h6c0.276,0,0.5,0.224,0.5,0.5V2h1V0.5c0-0.276,0.224-0.5,0.5-0.5h6c0.276,0,0.5,0.224,0.5,0.5V2       h1.5c0.276,0,0.5,0.224,0.5,0.5v14C137,16.776,136.777,17,136.5,17z M103,16h33V3h-1.5c-0.276,0-0.5-0.224-0.5-0.5V1h-5v1.5       c0,0.276-0.224,0.5-0.5,0.5h-2c-0.276,0-0.5-0.224-0.5-0.5V1h-5v1.5c0,0.276-0.224,0.5-0.5,0.5h-2c-0.276,0-0.5-0.224-0.5-0.5       V1h-5v1.5c0,0.276-0.224,0.5-0.5,0.5h-2c-0.276,0-0.5-0.224-0.5-0.5V1h-5v1.5c0,0.276-0.224,0.5-0.5,0.5H103V16z"/>
				</g>
			</g>
		</g>
	</g>
	<g>
		<g>
			<rect x="68.5" y="16.5" fill="#1D2445" width="34" height="14"/>
		</g>
		<g>
			<rect x="70.5" y="14.5" fill="#1D2445" width="6" height="3"/>
		</g>
		<g>
			<rect x="78.5" y="14.5" fill="#1D2445" width="6" height="3"/>
		</g>
		<g>
			<rect x="86.5" y="14.5" fill="#1D2445" width="6" height="3"/>
		</g>
		<g>
			<rect x="94.5" y="14.5" fill="#1D2445" width="6" height="3"/>
		</g>
	</g>
</g>

        </g>
    </g>
</g>

<!-- ITEM 5 -->
<g>
    <defs>
        
        <clipPath id="clip-path-id-viewbox-item-5">
            <rect x="0.0" y="0.0" width="34.109" height="89.41"/>
        </clipPath>
    </defs>
    <g transform="translate(1242.0 652.0) rotate(0.0 32.0 83.5) scale(1.8763376235011286 1.8678000223688627)">
        <g clip-path="url(#clip-path-id-viewbox-item-5)" transform="translate(-0.0 -0.0)">

<g>
	<g>
		<path fill="#FFFFFF" d="M32.37,51.78c0,0,0.85,9.69,1.22,13.94s-4.56,18.15-14,23.19C7.86,85.59,2.09,72.51,1.72,68.3    S0.5,54.36,0.5,54.36L32.37,51.78z"/>
		<path fill="#1D2445" d="M19.59,89.41c-0.046,0-0.091-0.006-0.136-0.019C7.652,86.05,1.63,72.981,1.222,68.344l-1.22-13.94    c-0.012-0.133,0.03-0.264,0.116-0.366c0.086-0.102,0.209-0.165,0.341-0.176l31.87-2.58c0.275-0.016,0.515,0.181,0.539,0.455    l1.22,13.94c0.396,4.556-4.718,18.579-14.263,23.674C19.753,89.39,19.672,89.41,19.59,89.41z M1.042,54.818l1.176,13.438    c0.388,4.417,6.106,16.821,17.314,20.117c8.919-4.905,13.926-18.401,13.56-22.609l-1.177-13.445L1.042,54.818z"/>
	</g>
	<g>
		<polygon fill="#1D2445" points="20.57,8.64 4.63,9.92 3.93,1.96 19.87,0.67   "/>
		<path fill="#1D2445" d="M4.63,10.42c-0.257,0-0.475-0.196-0.498-0.456l-0.7-7.96C3.42,1.871,3.462,1.739,3.548,1.637    c0.086-0.102,0.208-0.165,0.341-0.176l15.94-1.29c0.274-0.022,0.515,0.181,0.539,0.455l0.7,7.97    c0.012,0.133-0.03,0.265-0.116,0.367c-0.086,0.102-0.209,0.165-0.342,0.176l-15.94,1.28C4.657,10.42,4.643,10.42,4.63,10.42z     M4.472,2.418l0.613,6.964l14.943-1.2l-0.613-6.974L4.472,2.418z"/>
	</g>
	<g>
		<g>
			<g>
				<path fill="#FFFFFF" d="M17.671,21.438c1.271-2.28,5.085-9.964,4.299-18.938l-0.17-2l-4,0.32l0.17,2      c0.8,9.18-4.11,17.1-4.11,17.18l-0.312,0.528L13.13,20.06c0-0.07-6.2-7.13-7-16.27l-0.18-2l-4,0.32l0.18,2      c0.759,9.16,6.059,16.239,7.593,18.117L12.45,53.36c0.13,1.56,1.72,15.91,5.67,15.58c3.95-0.33,2.43-14.67,2.3-16.23      L17.671,21.438z"/>
			</g>
		</g>
		<g>
			<g>
				<path fill="#1D2445" d="M17.987,69.445L17.987,69.445c-4.646-0.001-6.021-15.883-6.035-16.044L9.238,22.423      c-1.72-2.133-6.854-9.199-7.606-18.272l-0.18-1.997C1.44,2.022,1.482,1.89,1.568,1.788S1.777,1.622,1.91,1.611l4-0.32      c0.279-0.017,0.514,0.181,0.538,0.454l0.18,2c0.649,7.416,4.949,13.547,6.767,15.838c0.026,0.033,0.05,0.063,0.071,0.091      c0.013-0.025,0.029-0.053,0.045-0.083c1.408-2.536,4.613-9.242,3.96-16.728l-0.17-2.001c-0.011-0.133,0.031-0.264,0.117-0.366      s0.209-0.165,0.341-0.175l4-0.32c0.274-0.026,0.515,0.183,0.538,0.456l0.17,2c0.786,8.966-2.983,16.718-4.286,19.089      l2.766,31.455c0.768,8.439,0.345,13.686-1.259,15.597c-0.427,0.508-0.941,0.791-1.527,0.84      C18.103,69.443,18.045,69.445,17.987,69.445z M2.493,2.568l0.135,1.497c0.743,8.968,5.915,15.927,7.482,17.846      c0.063,0.078,0.102,0.173,0.111,0.273l2.727,31.133c0.439,5.276,2.368,15.128,5.038,15.129l0.092-0.003      c0.315-0.026,0.591-0.186,0.844-0.487c0.803-0.956,2.003-4.158,1.029-14.863l-2.779-31.61c-0.009-0.1,0.013-0.2,0.062-0.288      c1.19-2.135,5.014-9.789,4.238-18.651l-0.128-1.505l-3.003,0.24l0.127,1.499c0.676,7.76-2.629,14.683-4.082,17.299l-0.067,0.122      c-0.008,0.02-0.018,0.038-0.029,0.057l-0.313,0.528c-0.081,0.137-0.223,0.227-0.381,0.243c-0.164,0.013-0.315-0.045-0.422-0.165      l-0.418-0.468c-0.019-0.021-0.035-0.043-0.05-0.066l-0.096-0.122c-1.874-2.362-6.307-8.687-6.979-16.372L5.496,2.328      L2.493,2.568z"/>
			</g>
		</g>
	</g>
</g>

        </g>
    </g>
</g>

<!-- ITEM 6 -->
<g>
    <defs>
        
        <clipPath id="clip-path-id-viewbox-item-6">
            <rect x="0.0" y="0.0" width="44.221" height="50.903"/>
        </clipPath>
    </defs>
    <g transform="translate(1274.0 678.0) rotate(0.0 54.5 63.5) scale(2.464892245765587 2.4949413590554586)">
        <g clip-path="url(#clip-path-id-viewbox-item-6)" transform="translate(-0.0 -0.0)">

<g>
	<g>
		<path fill="#FFFFFF" d="M27.964,8.401c0.791,2.518-0.605,5.201-3.12,6l0,0c-2.518,0.791-5.201-0.605-6-3.12l0,0l-1.43-4.56    c-0.791-2.518,0.605-5.201,3.12-6l0,0c2.518-0.791,5.201,0.605,6,3.12l0,0L27.964,8.401z"/>
		<path fill="#1D2445" d="M23.408,15.122c-2.314,0-4.34-1.483-5.041-3.69l-1.43-4.562c-0.871-2.773,0.675-5.746,3.445-6.626    C20.9,0.082,21.434,0,21.97,0c2.314,0,4.339,1.483,5.041,3.69l1.431,4.562c0.871,2.773-0.675,5.746-3.446,6.626    C24.478,15.04,23.944,15.122,23.408,15.122z M21.97,1c-0.435,0-0.867,0.067-1.286,0.198c-2.245,0.713-3.499,3.124-2.792,5.373    l1.43,4.561c0.568,1.788,2.21,2.991,4.087,2.991c0.435,0,0.867-0.067,1.286-0.198c2.246-0.713,3.499-3.124,2.793-5.373    l-1.43-4.561C25.489,2.203,23.846,1,21.97,1z"/>
	</g>
	<g>
		<path fill="#FFFFFF" d="M40.344,18.631c2.515-0.764,3.935-3.423,3.171-5.938l-0.001-0.002l0,0v-0.06l0,0    c-0.781-2.528-3.463-3.944-5.99-3.163c-0.003,0.001-0.006,0.002-0.01,0.003l0,0l-4.56,1.43c-2.519,0.789-3.922,3.471-3.133,5.99    c0.001,0.003,0.002,0.007,0.003,0.01l0,0c0.789,2.519,3.471,3.922,5.99,3.133c0.003-0.001,0.007-0.002,0.01-0.003l0,0    L40.344,18.631z"/>
		<path fill="#1D2445" d="M34.384,20.754L34.384,20.754c-2.319,0-4.344-1.489-5.038-3.704c-0.873-2.788,0.679-5.756,3.458-6.626    l4.56-1.43c0.521-0.161,1.046-0.241,1.574-0.241c2.333,0,4.364,1.499,5.053,3.73c0.015,0.048,0.022,0.098,0.022,0.147    c0.388,1.261,0.248,2.684-0.414,3.923c-0.662,1.239-1.767,2.146-3.111,2.555l-4.518,1.399    C35.449,20.673,34.918,20.754,34.384,20.754z M38.939,9.753c-0.428,0-0.854,0.065-1.268,0.192l-4.568,1.433    c-2.252,0.706-3.51,3.112-2.805,5.364c0.565,1.806,2.207,3.012,4.086,3.012c0,0,0,0,0,0c0.432,0,0.863-0.066,1.28-0.197    l4.531-1.404c1.091-0.332,1.986-1.066,2.522-2.07c0.536-1.004,0.649-2.156,0.318-3.245c-0.014-0.047-0.022-0.098-0.022-0.147    C42.477,10.969,40.831,9.753,38.939,9.753z"/>
	</g>
	<g>
		<path fill="#FFFFFF" d="M27.374,41.311c-1.93,3.69-8.2,4.23-14.08,1.15s-9-8.52-7.1-12.21l1.75-3.35c3.5-6.68,9-9.49,12.88-7.45    l7.06,3.69c3.9,2,4.73,8.14,1.23,14.83L27.374,41.311z"/>
		<path fill="#1D2445" d="M20.845,44.965c-2.483,0-5.247-0.732-7.783-2.061C6.903,39.678,3.691,34.02,5.75,30.022l1.751-3.353    c2.706-5.164,6.78-8.372,10.632-8.372c1.043,0,2.027,0.239,2.923,0.71l7.059,3.69c1.538,0.789,2.664,2.185,3.251,4.036    c1.006,3.167,0.346,7.347-1.81,11.468l-1.739,3.339C26.68,43.718,24.139,44.965,20.845,44.965z M18.133,19.298    c-3.479,0-7.214,3.002-9.746,7.835l-1.75,3.35c-1.772,3.441,1.318,8.617,6.889,11.536c2.396,1.255,4.995,1.946,7.319,1.946    c2.909,0,5.127-1.052,6.086-2.885l1.739-3.339c2.034-3.887,2.668-7.788,1.743-10.703c-0.505-1.592-1.459-2.785-2.758-3.451    l-7.063-3.692C19.839,19.498,19.013,19.298,18.133,19.298z"/>
	</g>
	<g>
		<path fill="#FFFFFF" d="M7.944,26.901c1.463-3.11,3.885-5.668,6.91-7.3c-5.94-1.27-10.14-0.54-12.2,2.11    c-1.45,1.744-1.283,4.318,0.38,5.86c0.196,0.167,0.411,0.311,0.64,0.43c1.228,0.613,2.692,0.517,3.83-0.25L7.944,26.901    L7.944,26.901z"/>
		<path fill="#1D2445" d="M5.374,28.902L5.374,28.902c-0.664,0-1.329-0.157-1.923-0.453c-0.267-0.138-0.514-0.304-0.741-0.496    c-1.874-1.738-2.06-4.613-0.44-6.561C4.439,18.6,8.822,17.8,14.959,19.113c0.205,0.043,0.361,0.21,0.391,0.418    c0.029,0.208-0.073,0.411-0.258,0.511c-2.91,1.57-5.287,4.082-6.695,7.073l-0.449,0.867c-0.038,0.074-0.095,0.138-0.165,0.185    C7.069,28.647,6.236,28.902,5.374,28.902z M9.706,19.494c-3.115,0-5.355,0.849-6.657,2.524c-1.29,1.552-1.142,3.825,0.325,5.187    c0.153,0.129,0.337,0.252,0.53,0.353c0.998,0.497,2.26,0.441,3.217-0.154L7.5,26.671c1.301-2.765,3.396-5.154,5.968-6.828    C12.11,19.611,10.85,19.494,9.706,19.494z"/>
	</g>
	<g>
		<path fill="#FFFFFF" d="M36.404,39.401c1-3.21-0.8-7.07-5.23-11.22c0.388,3.416-0.334,6.867-2.06,9.84l-0.44,0.85    c0.021,1.378,0.786,2.637,2,3.29c0.226,0.118,0.464,0.212,0.71,0.28C33.597,42.91,35.794,41.58,36.404,39.401z"/>
		<path fill="#1D2445" d="M32.276,43.035L32.276,43.035c-0.333,0-0.668-0.035-0.996-0.104c-0.307-0.084-0.579-0.191-0.837-0.326    c-1.378-0.741-2.246-2.168-2.269-3.726c-0.001-0.083,0.018-0.164,0.056-0.237l0.44-0.85c1.672-2.882,2.381-6.268,2.007-9.553    c-0.024-0.208,0.085-0.409,0.272-0.503c0.187-0.093,0.414-0.062,0.566,0.082c4.568,4.279,6.424,8.336,5.366,11.733    C36.309,41.596,34.413,43.035,32.276,43.035z M29.178,38.985c0.06,1.148,0.715,2.188,1.733,2.736    c0.19,0.099,0.396,0.18,0.606,0.238c0.23,0.048,0.496,0.076,0.759,0.076c1.69,0,3.19-1.138,3.646-2.769    c0.868-2.789-0.568-6.159-4.156-9.809c0.095,3.069-0.676,6.154-2.22,8.814L29.178,38.985z"/>
	</g>
	<g>
		<path fill="#FFFFFF" d="M9.314,28.261c-0.39-0.209-0.807-0.36-1.24-0.45c-3.19-0.68-6.48,1.94-7.36,5.83    c-0.75,3.36,0.53,6.57,2.93,7.83c0.398,0.199,0.817,0.35,1.25,0.45c3.18,0.67,6.48-1.94,7.35-5.84    C13.004,32.731,11.724,29.521,9.314,28.261L9.314,28.261z"/>
		<path fill="#1D2445" d="M5.902,42.526C5.902,42.526,5.902,42.526,5.902,42.526c-0.374,0-0.747-0.039-1.111-0.116    c-0.481-0.112-0.939-0.276-1.371-0.492c-2.674-1.403-3.984-4.85-3.194-8.386c0.83-3.667,3.701-6.329,6.828-6.329    c0.377,0,0.756,0.04,1.125,0.119c0.477,0.099,0.939,0.267,1.372,0.498c2.673,1.398,3.982,4.841,3.182,8.372    C11.913,39.862,9.041,42.526,5.902,42.526z M7.054,28.204c-2.664,0-5.125,2.333-5.852,5.548c-0.68,3.045,0.445,6.106,2.675,7.276    c0.353,0.176,0.736,0.314,1.131,0.406c0.286,0.06,0.59,0.092,0.894,0.092c2.675,0,5.137-2.335,5.854-5.554    c0.69-3.042-0.435-6.097-2.674-7.269c-0.352-0.188-0.724-0.323-1.11-0.403C7.669,28.236,7.361,28.204,7.054,28.204z"/>
	</g>
	<g>
		<path fill="#FFFFFF" d="M27.224,37.621c-2.41-1.26-5.78-0.48-8.1,2.06c-2.69,2.94-3,7.14-0.59,9.37    c0.323,0.302,0.687,0.558,1.08,0.76c2.41,1.26,5.78,0.48,8.1-2.06c2.69-2.94,3-7.14,0.59-9.37    C27.981,38.079,27.617,37.824,27.224,37.621z"/>
		<path fill="#1D2445" d="M22.12,50.904C22.12,50.904,22.12,50.904,22.12,50.904c-0.993,0-1.914-0.219-2.738-0.649    c-0.432-0.222-0.833-0.504-1.19-0.838c-2.583-2.39-2.331-6.909,0.563-10.072c1.633-1.789,3.807-2.815,5.962-2.815    c0.993,0,1.914,0.218,2.738,0.649c0.43,0.221,0.832,0.503,1.189,0.837c2.583,2.391,2.332,6.91-0.563,10.073    C26.449,49.877,24.276,50.904,22.12,50.904z M24.718,37.529c-1.875,0-3.78,0.907-5.225,2.49c-2.524,2.759-2.802,6.646-0.62,8.665    c0.291,0.272,0.616,0.501,0.969,0.683c0.683,0.357,1.448,0.537,2.278,0.537l0,0c1.875,0,3.78-0.908,5.225-2.49    c2.524-2.759,2.802-6.646,0.62-8.666c-0.292-0.272-0.618-0.501-0.969-0.682C26.313,37.709,25.547,37.529,24.718,37.529z"/>
	</g>
	<g>
		<path fill="#FFFFFF" d="M15.364,12.721c3.054-5.846,10.269-8.109,16.115-5.055s8.109,10.269,5.055,16.115l0,0    c-3.1,5.92-9.1,5.86-14.94,2.81S12.264,18.641,15.364,12.721z"/>
		<path fill="#1D2445" d="M28.832,29.131c-2.293,0-4.806-0.706-7.469-2.096c-3.851-2.011-6.367-4.609-7.276-7.513    c-0.708-2.258-0.426-4.624,0.835-7.032c2.153-4.122,6.383-6.683,11.038-6.683c1.988,0,3.978,0.49,5.751,1.417    c2.946,1.539,5.116,4.133,6.11,7.304c0.995,3.171,0.695,6.54-0.844,9.485C35.224,27.361,32.407,29.131,28.832,29.131z     M25.959,6.807c-4.281,0-8.171,2.355-10.152,6.146c-1.134,2.166-1.392,4.275-0.767,6.27c0.829,2.645,3.175,5.04,6.785,6.925    c2.483,1.297,4.906,1.983,7.006,1.983c3.225,0,5.667-1.542,7.259-4.582c1.415-2.708,1.69-5.806,0.776-8.723    c-0.915-2.916-2.91-5.302-5.619-6.717C29.592,7.245,27.813,6.807,25.959,6.807z"/>
	</g>
	<g>
		<path fill="#FFFFFF" d="M29.934,36.641l-0.13-0.11c-0.202,0.493-0.432,0.974-0.69,1.44l-0.43,0.83    c0.65,0.772,1.06,1.718,1.18,2.72c0.24,0.23,0.509,0.429,0.8,0.59c0.226,0.118,0.464,0.212,0.71,0.28    c0.297,0.077,0.603,0.113,0.91,0.11C32.367,40.303,31.512,38.173,29.934,36.641z"/>
		<path fill="#1D2445" d="M32.245,43.001c-0.335,0-0.669-0.042-0.995-0.125c-0.29-0.081-0.562-0.188-0.817-0.321    c-0.339-0.188-0.644-0.412-0.915-0.672c-0.083-0.08-0.137-0.187-0.15-0.302c-0.108-0.908-0.477-1.757-1.066-2.458    c-0.13-0.154-0.154-0.372-0.061-0.552l0.43-0.83c0.254-0.459,0.478-0.926,0.671-1.399c0.061-0.148,0.188-0.258,0.344-0.297    c0.156-0.036,0.32,0.001,0.442,0.104l0.13,0.11c1.703,1.651,2.614,3.925,2.526,6.261c-0.01,0.266-0.228,0.478-0.494,0.481    C32.288,43.001,32.247,43.001,32.245,43.001z M30.335,41.274c0.176,0.152,0.368,0.287,0.572,0.399    c0.184,0.096,0.389,0.177,0.602,0.236c0.09,0.023,0.183,0.042,0.277,0.057c-0.057-1.685-0.701-3.303-1.817-4.566    c-0.13,0.276-0.27,0.548-0.417,0.813l-0.275,0.53C29.832,39.489,30.194,40.354,30.335,41.274z"/>
	</g>
	<g>
		<path fill="#1D2445" d="M20.224,7.641c1.415-0.772,2.974-1.241,4.58-1.38l-0.55-1.75c-0.34-1.276-1.649-2.035-2.925-1.695    c-1.276,0.34-2.035,1.649-1.695,2.925l0,0l0.06,0.19L20.224,7.641z"/>
	</g>
	<g>
		<path fill="#1D2445" d="M37.924,16.891l1.69-0.49c1.276-0.34,2.035-1.649,1.695-2.925s-1.649-2.035-2.925-1.695h-0.2l-1.75,0.55    C37.245,13.73,37.753,15.284,37.924,16.891z"/>
	</g>
	<g>
		<path fill="#FFFFFF" d="M8.214,30.401c-0.202-0.103-0.417-0.177-0.64-0.22c-1.87-0.4-4,1.44-4.53,4c-0.5,2.22,0.22,4.4,1.71,5.18    c0.198,0.106,0.41,0.183,0.63,0.23c1.88,0.4,4-1.44,4.53-4C10.414,33.331,9.704,31.151,8.214,30.401z"/>
		<path fill="#1D2445" d="M5.909,40.146C5.908,40.146,5.908,40.146,5.909,40.146c-0.213,0-0.424-0.022-0.629-0.065    c-0.264-0.056-0.521-0.149-0.762-0.278c-1.684-0.881-2.511-3.292-1.962-5.73c0.515-2.489,2.49-4.445,4.495-4.445    c0.212,0,0.423,0.022,0.627,0.066c0.258,0.049,0.517,0.139,0.762,0.263c1.685,0.848,2.511,3.264,1.962,5.744    C9.886,38.19,7.912,40.146,5.909,40.146z M7.051,30.627c-1.522,0-3.101,1.64-3.518,3.656c-0.453,2.012,0.158,3.958,1.452,4.635    c0.161,0.086,0.329,0.147,0.501,0.184c1.592,0.337,3.48-1.408,3.937-3.612c0.453-2.046-0.151-3.996-1.435-4.642    c-0.163-0.083-0.334-0.142-0.51-0.176C7.334,30.642,7.193,30.627,7.051,30.627z"/>
	</g>
	<g>
		<path fill="#FFFFFF" d="M26.664,40.121c-0.168-0.15-0.353-0.281-0.55-0.39c-1.49-0.77-3.69-0.12-5.23,1.56    c-1.78,1.95-2.11,4.71-0.71,6c0.168,0.15,0.353,0.281,0.55,0.39c1.49,0.77,3.69,0.12,5.23-1.56    C27.734,44.191,28.064,41.401,26.664,40.121z"/>
		<path fill="#1D2445" d="M22.123,48.503L22.123,48.503c-0.597,0-1.145-0.127-1.629-0.377c-0.245-0.135-0.46-0.289-0.654-0.462    c-1.607-1.481-1.296-4.551,0.674-6.709c1.654-1.806,4.16-2.528,5.829-1.667c0.242,0.133,0.458,0.287,0.654,0.461    c0.634,0.58,0.99,1.41,1.032,2.405c0.063,1.47-0.576,3.08-1.708,4.307C25.149,47.739,23.58,48.503,22.123,48.503z M24.714,39.91    c-1.181,0-2.475,0.643-3.462,1.719c-1.578,1.729-1.924,4.203-0.74,5.294c0.133,0.119,0.287,0.229,0.454,0.32    c0.328,0.169,0.721,0.259,1.157,0.259l0,0c1.181,0,2.475-0.643,3.462-1.719c0.957-1.037,1.497-2.378,1.445-3.588    c-0.031-0.723-0.274-1.313-0.703-1.705c-0.136-0.122-0.291-0.231-0.455-0.322C25.544,39.999,25.149,39.91,24.714,39.91z"/>
	</g>
	<g>
		<path fill="#FFFFFF" d="M29.814,26.331c-1.38,2.63-4.72,2.09-8.22,0.26s-5.86-4.27-4.49-6.9s6-4.47,9.47-2.63    S31.184,23.701,29.814,26.331z"/>
		<path fill="#1D2445" d="M26.633,28.636c-1.466,0-3.239-0.539-5.271-1.602c-4.383-2.292-6.052-4.981-4.702-7.574    c1.1-2.111,3.964-3.643,6.811-3.643c1.21,0,2.333,0.27,3.336,0.802c3.745,1.986,4.949,7.063,3.449,9.943    C29.545,27.919,28.293,28.636,26.633,28.636z M23.472,16.818c-2.455,0-5.002,1.334-5.924,3.104    c-1.421,2.728,2.07,5.071,4.278,6.226c1.861,0.973,3.524,1.487,4.808,1.487c1.3,0,2.195-0.503,2.738-1.537    c1.284-2.464,0.137-6.916-3.032-8.596C25.482,17.048,24.517,16.818,23.472,16.818z"/>
	</g>
	<g>
		
			<ellipse transform="matrix(-0.8863 -0.4631 0.4631 -0.8863 49.9103 49.6564)" fill="#1D2445" cx="31.051" cy="18.701" rx="1.19" ry="1.79"/>
	</g>
	<g>
		
			<ellipse transform="matrix(-0.8863 -0.4631 0.4631 -0.8863 35.9803 37.3956)" fill="#1D2445" cx="22.581" cy="14.281" rx="1.19" ry="1.79"/>
	</g>
	<g>
		
			<rect x="19.952" y="22.704" transform="matrix(-0.4631 0.8863 -0.8863 -0.4631 54.7417 14.6391)" fill="#FFFFFF" width="5.97" height="2.39"/>
		<path fill="#1D2445" d="M22.614,27.598c-0.08,0-0.16-0.019-0.231-0.057l-2.118-1.107c-0.245-0.128-0.339-0.43-0.212-0.675    l2.765-5.291c0.062-0.118,0.167-0.206,0.294-0.246c0.127-0.039,0.264-0.027,0.381,0.034l2.118,1.107    c0.245,0.128,0.339,0.43,0.212,0.675l-2.765,5.291c-0.062,0.118-0.167,0.206-0.294,0.246    C22.714,27.59,22.664,27.598,22.614,27.598z M21.17,25.78l1.232,0.644l2.301-4.405l-1.232-0.644L21.17,25.78z"/>
	</g>
	<g>
		<path fill="#1D2445" d="M27.024,21.341c-0.747,0.99-2.043,1.392-3.22,1c-1.22-0.62-1.32-2.64-1-3.22s1.5-0.57,2.67,0    S27.334,20.751,27.024,21.341z"/>
	</g>
</g>
<g>
	<path fill="#FFFFFF" d="M8.558,25.207l0.166,0.036c-0.269,0.46-0.511,0.935-0.724,1.423l-0.398,0.846   c-1.008-0.047-2.008,0.203-2.877,0.717c-0.329-0.051-0.65-0.143-0.955-0.276c-0.231-0.108-0.45-0.24-0.654-0.394   c-0.241-0.189-0.457-0.41-0.641-0.656C4.172,25.501,6.382,24.885,8.558,25.207z"/>
	<path fill="#1D2445" d="M4.726,28.729c-0.025,0-0.05-0.002-0.076-0.006c-0.371-0.057-0.733-0.162-1.079-0.312   c-0.275-0.128-0.525-0.279-0.756-0.454c-0.283-0.222-0.53-0.474-0.74-0.755c-0.159-0.213-0.123-0.514,0.082-0.684   c1.788-1.479,4.175-2.147,6.473-1.806l0.201,0.043c0.156,0.034,0.287,0.141,0.351,0.288c0.064,0.147,0.054,0.315-0.026,0.453   c-0.259,0.442-0.493,0.903-0.697,1.371l-0.404,0.859c-0.086,0.183-0.259,0.306-0.476,0.287l-0.215-0.005   c-0.838,0-1.663,0.226-2.384,0.652C4.903,28.705,4.815,28.729,4.726,28.729z M3.205,26.974c0.07,0.067,0.144,0.131,0.221,0.191   c0.167,0.127,0.357,0.241,0.557,0.334c0.205,0.089,0.426,0.159,0.653,0.206c0.813-0.445,1.725-0.685,2.652-0.698l0.26-0.554   c0.118-0.271,0.248-0.543,0.387-0.813C6.283,25.53,4.57,26,3.205,26.974z"/>
</g>

        </g>
    </g>
</g>

<!-- ITEM 7 -->
<g>
    <defs>
        
        <clipPath id="clip-path-id-viewbox-item-7">
            <rect x="0.0" y="0.0" width="105.0" height="65.0"/>
        </clipPath>
    </defs>
    <g transform="translate(1147.0 741.0) rotate(0.0 114.5 71.0) scale(2.1809523809523808 2.1846153846153844)">
        <g clip-path="url(#clip-path-id-viewbox-item-7)" transform="translate(-0.0 -0.0)">

<g>
	<rect x="0.5" y="0.5" fill="#FFFFFF" width="104" height="64"/>
	<path fill="#1D2445" d="M104.5,65H0.5C0.224,65,0,64.776,0,64.5v-64C0,0.224,0.224,0,0.5,0h104c0.276,0,0.5,0.224,0.5,0.5v64   C105,64.776,104.777,65,104.5,65z M1,64h103V1H1V64z"/>
</g>

        </g>
    </g>
</g>

<!-- ITEM 8 -->
<g>
    <defs>
        
        <clipPath id="clip-path-id-viewbox-item-8">
            <rect x="0.0" y="0.0" width="60.715" height="60.703"/>
        </clipPath>
    </defs>
    <g transform="translate(1123.0 771.0) rotate(0.0 68.5 68.5) scale(2.256444041834802 2.256890104278207)">
        <g clip-path="url(#clip-path-id-viewbox-item-8)" transform="translate(-0.0 -0.0)">

<g>
	<g>
		<path fill="#FFFFFF" d="M43.043,3.356c11.913,5.471,18.78,18.154,16.85,31.12l-13.35,20.9c-7.838,5.128-17.642,6.241-26.43,3    l-19-22c-2.608-12.694,3.27-25.621,14.55-32L43.043,3.356z"/>
		<path fill="#1D2445" d="M30.346,60.703c-3.562,0-7.063-0.625-10.406-1.858c-0.08-0.029-0.15-0.079-0.206-0.143l-19-22    c-0.056-0.064-0.094-0.143-0.111-0.226C-2.038,23.524,3.907,10.449,15.417,3.941c0.069-0.04,0.147-0.062,0.228-0.064l27.38-1.02    c0.078-0.004,0.156,0.013,0.227,0.045c12.04,5.53,19.087,18.544,17.136,31.648c-0.01,0.069-0.035,0.136-0.073,0.195l-13.35,20.9    c-0.038,0.06-0.088,0.111-0.147,0.149C41.908,59.005,36.213,60.703,30.346,60.703z M20.406,57.951    c3.196,1.163,6.54,1.752,9.94,1.752c5.636,0,11.109-1.621,15.833-4.688l13.234-20.719c1.827-12.592-4.932-25.079-16.472-30.438    L15.803,4.871C4.78,11.164-0.924,23.704,1.576,36.148L20.406,57.951z"/>
	</g>
	<g>
		<path fill="#FFFFFF" d="M20.153,58.306c3.94-4.45,13.38-18.16,14.7-34c0,0-16.41-1.49-33.7,12    C3.246,46.436,10.435,54.76,20.153,58.306z"/>
		<path fill="#1D2445" d="M20.153,58.806c-0.058,0-0.115-0.01-0.171-0.03C10.029,55.144,2.807,46.782,0.663,36.407    c-0.039-0.186,0.032-0.378,0.182-0.495c14.06-10.97,27.404-12.155,32.488-12.155c0.993,0,1.542,0.049,1.565,0.051    c0.273,0.025,0.476,0.266,0.453,0.54c-1.276,15.321-10.255,29.129-14.824,34.29C20.43,58.747,20.293,58.806,20.153,58.806z     M1.707,36.508c2.127,9.781,8.935,17.672,18.296,21.208c4.504-5.204,12.92-18.335,14.306-32.941    c-0.243-0.01-0.571-0.019-0.976-0.019C28.382,24.757,15.431,25.906,1.707,36.508z"/>
	</g>
	<g>
		<path fill="#FFFFFF" d="M59.893,34.476c-3.83-3.79-11.49-10.1-26.53-10.1c0,0,11.09,13.87,13.22,31    C53.845,50.673,58.702,43.045,59.893,34.476z"/>
		<path fill="#1D2445" d="M46.583,55.876c-0.072,0-0.144-0.016-0.211-0.047c-0.156-0.073-0.264-0.221-0.285-0.392    c-2.088-16.795-13.004-30.612-13.115-30.75c-0.12-0.15-0.143-0.355-0.06-0.529c0.083-0.173,0.258-0.283,0.451-0.283    c16.529,0,24.321,7.711,26.882,10.245c0.112,0.111,0.166,0.268,0.144,0.424c-1.211,8.72-6.144,16.465-13.533,21.251    C46.772,55.849,46.677,55.876,46.583,55.876z M34.373,24.885c2.336,3.188,10.569,15.26,12.6,29.629    c6.709-4.607,11.199-11.792,12.389-19.86C56.759,32.086,49.438,25.183,34.373,24.885z"/>
	</g>
	<g>
		<path fill="#FFFFFF" d="M34.853,27.366c0,0,6.21-8.83,8.19-24c-8.731-4.147-18.936-3.774-27.34,1    C19.183,6.476,28.393,14.426,34.853,27.366z"/>
		<path fill="#1D2445" d="M34.853,27.865c-0.012,0-0.025,0-0.038-0.001c-0.175-0.013-0.331-0.118-0.41-0.275    C27.77,14.297,18.468,6.627,15.444,4.793c-0.152-0.092-0.243-0.257-0.241-0.435c0.002-0.177,0.099-0.34,0.253-0.427    C19.983,1.359,25.128,0,30.334,0c4.442,0,8.911,1.007,12.923,2.914c0.196,0.093,0.31,0.301,0.281,0.517    c-1.973,15.118-8.214,24.133-8.276,24.223C35.168,27.787,35.015,27.865,34.853,27.865z M16.676,4.401    c3.578,2.447,11.979,9.835,18.228,21.96C36.355,24,40.833,15.915,42.499,3.663C38.705,1.92,34.508,1,30.334,1    C25.577,1,20.873,2.173,16.676,4.401z"/>
	</g>
	<g>
		<circle fill="#1D2445" cx="34.853" cy="25.866" r="4.48"/>
		<path fill="#1D2445" d="M34.853,30.846c-2.746,0-4.98-2.234-4.98-4.98s2.234-4.98,4.98-4.98s4.98,2.234,4.98,4.98    S37.599,30.846,34.853,30.846z M34.853,21.885c-2.194,0-3.98,1.786-3.98,3.98c0,2.195,1.786,3.98,3.98,3.98s3.98-1.786,3.98-3.98    C38.833,23.671,37.047,21.885,34.853,21.885z"/>
	</g>
</g>

        </g>
    </g>
</g>

<!-- ITEM 9 -->
<g>
    <defs>
        
        <clipPath id="clip-path-id-viewbox-item-9">
            <rect x="0.0" y="0.0" width="52.0" height="79.0"/>
        </clipPath>
    </defs>
    <g transform="translate(190.0 722.0) rotate(0.0 50.0 75.5) scale(1.9230769230769231 1.9113924050632911)">
        <g clip-path="url(#clip-path-id-viewbox-item-9)" transform="translate(-0.0 -0.0)">

<g>
	<g>
		<path fill="#1D2445" d="M28.5,76.5h-6v-73c0-1.657,1.343-3,3-3l0,0c1.657,0,3,1.343,3,3V76.5z"/>
		<path fill="#1D2445" d="M28.5,77h-6c-0.276,0-0.5-0.224-0.5-0.5v-73c0-1.93,1.57-3.5,3.5-3.5S29,1.571,29,3.5v73    C29,76.777,28.777,77,28.5,77z M23,76h5V3.5C28,2.122,26.879,1,25.5,1S23,2.122,23,3.5V76z"/>
	</g>
	<g>
		<path fill="#1D2445" d="M5.5,74.5h41c1.105,0,2,0.895,2,2l0,0c0,1.105-0.895,2-2,2h-41c-1.105,0-2-0.895-2-2l0,0    C3.5,75.396,4.395,74.5,5.5,74.5z"/>
		<path fill="#1D2445" d="M46.5,79h-41C4.122,79,3,77.879,3,76.5S4.122,74,5.5,74h41c1.378,0,2.5,1.122,2.5,2.5S47.879,79,46.5,79z     M5.5,75C4.673,75,4,75.673,4,76.5S4.673,78,5.5,78h41c0.827,0,1.5-0.673,1.5-1.5S47.327,75,46.5,75H5.5z"/>
	</g>
	<g>
		<path fill="#FFFFFF" d="M6.5,62.5h39c3.314,0,6,2.686,6,6l0,0c0,3.314-2.686,6-6,6h-39c-3.314,0-6-2.686-6-6l0,0    C0.5,65.186,3.186,62.5,6.5,62.5z"/>
		<path fill="#1D2445" d="M45.5,75h-39C2.916,75,0,72.084,0,68.5S2.916,62,6.5,62h39c3.584,0,6.5,2.916,6.5,6.5S49.084,75,45.5,75z     M6.5,63C3.468,63,1,65.468,1,68.5S3.468,74,6.5,74h39c3.033,0,5.5-2.467,5.5-5.5S48.533,63,45.5,63H6.5z"/>
	</g>
	<g>
		<path fill="#FFFFFF" d="M9.5,50.5h33c3.314,0,6,2.686,6,6l0,0c0,3.314-2.686,6-6,6h-33c-3.314,0-6-2.686-6-6l0,0    C3.5,53.186,6.186,50.5,9.5,50.5z"/>
		<path fill="#1D2445" d="M42.5,63h-33C5.916,63,3,60.084,3,56.5S5.916,50,9.5,50h33c3.584,0,6.5,2.916,6.5,6.5S46.084,63,42.5,63z     M9.5,51C6.468,51,4,53.468,4,56.5S6.468,62,9.5,62h33c3.033,0,5.5-2.467,5.5-5.5S45.533,51,42.5,51H9.5z"/>
	</g>
	<g>
		<path fill="#FFFFFF" d="M12.5,38.5h27c3.314,0,6,2.686,6,6l0,0c0,3.314-2.686,6-6,6h-27c-3.314,0-6-2.686-6-6l0,0    C6.5,41.186,9.186,38.5,12.5,38.5z"/>
		<path fill="#1D2445" d="M39.5,51h-27C8.916,51,6,48.084,6,44.5S8.916,38,12.5,38h27c3.584,0,6.5,2.916,6.5,6.5S43.084,51,39.5,51z     M12.5,39C9.468,39,7,41.468,7,44.5S9.468,50,12.5,50h27c3.033,0,5.5-2.467,5.5-5.5S42.533,39,39.5,39H12.5z"/>
	</g>
	<g>
		<path fill="#FFFFFF" d="M15.5,26.5h20c3.314,0,6,2.686,6,6l0,0c0,3.314-2.686,6-6,6h-20c-3.314,0-6-2.686-6-6l0,0    C9.5,29.186,12.186,26.5,15.5,26.5z"/>
		<path fill="#1D2445" d="M35.5,39h-20C11.916,39,9,36.084,9,32.5s2.916-6.5,6.5-6.5h20c3.584,0,6.5,2.916,6.5,6.5    S39.084,39,35.5,39z M15.5,27c-3.033,0-5.5,2.467-5.5,5.5s2.467,5.5,5.5,5.5h20c3.033,0,5.5-2.467,5.5-5.5S38.533,27,35.5,27H15.5    z"/>
	</g>
	<g>
		<path fill="#FFFFFF" d="M18.5,14.5h14c3.314,0,6,2.686,6,6l0,0c0,3.314-2.686,6-6,6h-14c-3.314,0-6-2.686-6-6l0,0    C12.5,17.186,15.186,14.5,18.5,14.5z"/>
		<path fill="#1D2445" d="M32.5,27h-14c-3.584,0-6.5-2.916-6.5-6.5s2.916-6.5,6.5-6.5h14c3.584,0,6.5,2.916,6.5,6.5    S36.084,27,32.5,27z M18.5,15c-3.033,0-5.5,2.467-5.5,5.5s2.467,5.5,5.5,5.5h14c3.033,0,5.5-2.467,5.5-5.5S35.533,15,32.5,15H18.5    z"/>
	</g>
</g>

        </g>
    </g>
</g>

<!-- ITEM 10 -->
<g>
    <defs>
        
        <clipPath id="clip-path-id-viewbox-item-10">
            <rect x="0.0" y="0.0" width="152.244" height="150.206"/>
        </clipPath>
    </defs>
    <g transform="translate(309.0 618.0) rotate(0.0 165.0 162.5) scale(2.1675731063293133 2.1636951919364074)">
        <g clip-path="url(#clip-path-id-viewbox-item-10)" transform="translate(-0.0 -0.0)">

<g>
	<g>
		<g>
			<path fill="#FFFFFF" d="M151.646,13.58c-0.354-0.743-1.172-1.223-2.083-1.223c-0.175,0-0.354,0.018-0.602,0.07l-10.533,3.143     c-0.032,0.01-0.065,0.017-0.18,0.026c-0.314,0-0.584-0.237-0.624-0.551l-0.018-0.091c-0.01-0.236,0.071-0.467,0.226-0.641     l1.522-1.693c0.484-0.526,0.817-1.175,0.967-1.898c0.163-0.938-0.035-1.727-0.567-2.231l-0.142-0.112     c-0.571-0.389-1.438-0.193-1.757,0.285l-4.447,5.341l-1.292,0.989c-0.899,0.687-1.631,1.591-2.117,2.613l-0.658,1.386     c-0.05,0.1-0.111,0.193-0.174,0.285L95.824,36.792c-1.831,0.962-2.536,3.226-1.574,5.057l5.834,11.107l12.222-6.42     c1.466-0.77,2.879-1.636,4.23-2.593l19.125-14.935c1.114-0.044,2.225-0.164,3.318-0.367l2.899-0.952     c0.615-0.208,1.283-0.245,1.917-0.107l0.153,0.033l5.266-1.06h0.01c0.587,0,1.081-0.44,1.152-1.087     c0.021-0.737-0.363-1.428-0.995-1.867l0.332-0.089c0.593-0.064,1.049-0.577,1.03-1.23c-0.077-0.846-0.689-1.564-1.55-1.873     l0.287-0.079c0.626-0.098,1.057-0.688,0.945-1.382c-0.243-0.974-1.201-1.66-2.408-1.664l-2.889,0.293l5.884-2.453     c0.287-0.112,0.514-0.329,0.638-0.612C151.773,14.231,151.779,13.917,151.646,13.58z"/>
		</g>
	</g>
	<g>
		<g>
			<path fill="#1D2445" d="M100.083,53.456c-0.18,0-0.354-0.097-0.442-0.268l-5.834-11.107c-0.527-1.004-0.633-2.153-0.295-3.235     c0.337-1.083,1.075-1.97,2.079-2.497l33.231-17.455c0.025-0.04,0.05-0.081,0.071-0.123l0.653-1.378     c0.521-1.095,1.305-2.062,2.266-2.796l1.247-0.954l4.412-5.298c0.413-0.63,1.676-0.886,2.422-0.378l0.17,0.132     c0.688,0.649,0.943,1.601,0.75,2.709c-0.169,0.819-0.545,1.558-1.091,2.151l-1.519,1.689c-0.065,0.074-0.103,0.179-0.098,0.286     c0.021,0.112,0.078,0.163,0.142,0.163l10.57-3.148c0.302-0.066,0.52-0.091,0.744-0.091c1.104,0,2.099,0.592,2.534,1.508     c0.192,0.481,0.191,0.937,0.011,1.349c-0.178,0.405-0.503,0.716-0.914,0.876l-2.903,1.211c1.321,0.112,2.339,0.899,2.62,2.026     c0.084,0.515-0.021,0.978-0.29,1.347c-0.087,0.12-0.188,0.226-0.301,0.316c0.524,0.45,0.858,1.064,0.921,1.747     c0.021,0.709-0.343,1.313-0.901,1.601c0.36,0.479,0.553,1.055,0.536,1.645c-0.101,0.928-0.795,1.573-1.652,1.573l-5.177,1.05     c-0.065,0.013-0.137,0.013-0.204-0.001l-0.153-0.033c-0.544-0.119-1.124-0.086-1.651,0.092l-2.903,0.954     c-1.1,0.208-2.188,0.333-3.292,0.384l-18.999,14.836c-1.384,0.98-2.825,1.864-4.305,2.642l-12.223,6.419     C100.241,53.437,100.162,53.456,100.083,53.456z M138.904,8.672c-0.298,0-0.544,0.135-0.633,0.269l-4.479,5.383     c-0.023,0.029-0.051,0.055-0.08,0.077l-1.292,0.989c-0.836,0.639-1.517,1.479-1.97,2.431l-0.657,1.386     c-0.065,0.13-0.139,0.245-0.217,0.356c-0.046,0.066-0.106,0.12-0.178,0.157L96.056,37.234c-0.768,0.403-1.332,1.081-1.59,1.908     s-0.177,1.706,0.226,2.474l5.602,10.664l11.78-6.187c1.44-0.756,2.844-1.617,4.173-2.558l19.106-14.921     c0.082-0.064,0.183-0.102,0.288-0.105c1.112-0.044,2.204-0.165,3.245-0.359l2.835-0.936c0.692-0.233,1.46-0.277,2.18-0.12     l0.051,0.011l5.163-1.039c0.032-0.006,0.075-0.01,0.108-0.01c0.344,0,0.613-0.264,0.655-0.642     c0.014-0.512-0.278-1.051-0.783-1.402c-0.16-0.111-0.241-0.305-0.207-0.497c0.033-0.192,0.175-0.347,0.363-0.397l0.332-0.089     c0.425-0.052,0.67-0.354,0.659-0.733c-0.057-0.612-0.524-1.167-1.219-1.416c-0.205-0.074-0.339-0.272-0.331-0.49     c0.009-0.218,0.157-0.405,0.367-0.463l0.287-0.079c0.222-0.038,0.366-0.127,0.465-0.262c0.11-0.152,0.153-0.351,0.119-0.56     c-0.182-0.724-0.955-1.24-1.916-1.243l-2.836,0.291c-0.26,0.021-0.475-0.135-0.535-0.375c-0.062-0.24,0.063-0.489,0.292-0.584     l5.884-2.453c0.174-0.068,0.302-0.191,0.372-0.351c0.073-0.167,0.069-0.345-0.011-0.547c-0.258-0.54-0.898-0.908-1.618-0.908     c-0.153,0-0.303,0.018-0.497,0.059l-10.495,3.133c-0.074,0.022-0.143,0.034-0.279,0.045c-0.002,0-0.003,0-0.004,0     c-0.607,0-1.088-0.424-1.159-0.985c-0.002-0.014-0.021-0.12-0.021-0.134c-0.015-0.368,0.109-0.72,0.352-0.993l1.524-1.696     c0.428-0.464,0.72-1.039,0.85-1.665c0.13-0.752-0.019-1.385-0.422-1.767l-0.107-0.083C139.185,8.693,139.019,8.672,138.904,8.672     z"/>
		</g>
	</g>
</g>
<g>
	<g>
		<g>
			<g>
				<path fill="#FFFFFF" d="M86.597,23.415l-0.147-0.032l-0.011-0.086l-1.798-0.309l-0.188-0.041      c-0.64-0.446-0.94-1.241-0.747-1.998l0.579-2.27c0.059-0.232,0.073-0.473,0.042-0.71l-0.872-6.535l-3.541,3.456l-0.507-3.8      L68.63,12.529l1.58,11.834l-8.115,7.922l-2.25-0.741l-0.731,3.65l-0.045,0.044l0.035,0.006l-2.51,12.538l15.491,3.698l2.14-10.5      l0.622-3.05l3.149,0.537c5.316,0.907,9.989-3.599,9.275-8.945l-0.3-2.244l0.692-0.868      C88.527,25.326,87.953,23.711,86.597,23.415z"/>
			</g>
		</g>
		<g>
			<g>
				<path fill="#1D2445" d="M72.085,51.98c-0.039,0-0.078-0.004-0.116-0.014l-15.491-3.698c-0.262-0.063-0.427-0.321-0.374-0.584      l2.482-12.401c-0.013-0.109,0.007-0.219,0.063-0.312l0.705-3.525c0.028-0.14,0.115-0.262,0.238-0.334      c0.124-0.072,0.272-0.087,0.408-0.043l1.962,0.646l7.719-7.535l-1.546-11.585c-0.037-0.274,0.155-0.525,0.429-0.562      l10.776-1.439c0.133-0.017,0.265,0.018,0.37,0.099c0.105,0.08,0.175,0.199,0.192,0.331l0.375,2.813l2.827-2.76      c0.137-0.133,0.333-0.177,0.513-0.115c0.179,0.062,0.308,0.219,0.332,0.407l0.873,6.534c0.04,0.299,0.022,0.602-0.053,0.899      l-0.579,2.271c-0.132,0.521,0.058,1.075,0.475,1.409l0.082,0.018l1.777,0.305c0.107,0.019,0.202,0.071,0.274,0.145      c0.762,0.199,1.368,0.753,1.634,1.5c0.276,0.778,0.135,1.627-0.38,2.273l-0.559,0.702l0.271,2.032      c0.325,2.43-0.413,4.878-2.023,6.718c-1.619,1.85-3.943,2.91-6.377,2.91l0,0c-0.483,0-0.972-0.042-1.454-0.124l-2.672-0.456      L72.575,51.58c-0.027,0.133-0.107,0.249-0.222,0.322C72.273,51.953,72.18,51.98,72.085,51.98z M57.179,47.407l14.52,3.466      l2.657-13.043c0.055-0.265,0.31-0.438,0.574-0.393l3.149,0.538c2.573,0.438,5.197-0.502,6.911-2.459      c1.441-1.647,2.075-3.751,1.785-5.926l-0.3-2.244c-0.019-0.135,0.02-0.271,0.104-0.378l0.691-0.868      c0.298-0.374,0.38-0.865,0.22-1.315c-0.159-0.45-0.533-0.779-1-0.881l-0.147-0.032c-0.09-0.02-0.171-0.063-0.235-0.124      l-1.761-0.312c-0.064-0.014-0.125-0.041-0.179-0.078c-0.809-0.563-1.188-1.58-0.946-2.532l0.579-2.271      c0.043-0.171,0.054-0.347,0.03-0.52l-0.741-5.548l-2.827,2.76c-0.137,0.132-0.334,0.177-0.513,0.115      c-0.179-0.062-0.308-0.219-0.333-0.407l-0.44-3.304l-9.785,1.306l1.514,11.338c0.021,0.157-0.033,0.314-0.146,0.424      l-8.116,7.922c-0.135,0.13-0.331,0.174-0.506,0.117l-1.714-0.564l-0.62,3.097c-0.002,0.008-0.004,0.017-0.006,0.025      c-0.001,0.008-0.002,0.017-0.004,0.025L57.179,47.407z"/>
			</g>
		</g>
	</g>
	<g>
		<path fill="#1D2445" d="M60.9,34.974l9.425,1.351L66.058,4.363c-0.274-2.05-2.158-3.49-4.208-3.217l-1.617,0.216    c-8.144,1.087-13.592,8.94-11.757,16.95l1.516,6.622C51.201,30.215,55.537,34.206,60.9,34.974z"/>
	</g>
	<g>
		<path fill="#FFFFFF" d="M74.837,37.995l-2.329-0.858c-0.758-0.279-1.517,0.409-1.313,1.191"/>
		<path fill="#1D2445" d="M71.194,38.827c-0.223,0-0.425-0.149-0.483-0.374c-0.142-0.542,0.028-1.113,0.443-1.49    c0.416-0.377,1.001-0.49,1.526-0.296l2.329,0.858c0.259,0.096,0.392,0.383,0.296,0.642c-0.096,0.26-0.384,0.392-0.642,0.296    l-2.329-0.858c-0.18-0.066-0.369-0.029-0.509,0.099c-0.067,0.061-0.217,0.232-0.148,0.496c0.07,0.268-0.09,0.541-0.357,0.61    C71.278,38.821,71.235,38.827,71.194,38.827z"/>
	</g>
	<g>
		<path fill="#FFFFFF" d="M63.006,27.205l9.192-1.227l-1.122-8.402l-9.192,1.227c-1.866,0.249-3.177,1.964-2.928,3.83l0.219,1.644    C59.425,26.143,61.139,27.454,63.006,27.205z"/>
	</g>
	<g>
		
			<rect x="63.086" y="25.031" transform="matrix(-0.9912 0.1323 -0.1323 -0.9912 135.7301 49.3293)" fill="#FFFFFF" width="6.28" height="8.288"/>
	</g>
	<g>
		
			<rect x="61.441" y="30.991" transform="matrix(-0.714 0.7002 -0.7002 -0.714 137.4653 14.1168)" fill="#FFFFFF" width="8.818" height="8.288"/>
	</g>
	<g>
		<path fill="#1D2445" d="M75.887,9.352l-11.036,1.473l0.756,5.659c-1.745,0.376-3.418,0.707-3.678,0.657    c-0.396-0.076,4.18,3.805,7.042,6.208c0.786,0.66,1.968,0.004,1.832-1.013l-0.049-0.363c-0.322-2.414,1.373-4.632,3.787-4.954    l2.328-0.311L75.887,9.352z"/>
	</g>
	<g>
		<path fill="#FFFFFF" d="M83.041,18.599l-2.543,0.34c-0.295,0.039-0.563,0.195-0.744,0.431l-0.917,1.199"/>
		<path fill="#1D2445" d="M78.837,21.07c-0.106,0-0.213-0.034-0.304-0.103c-0.22-0.168-0.261-0.482-0.094-0.701l0.917-1.2    c0.265-0.345,0.646-0.566,1.076-0.623l2.542-0.34c0.267-0.04,0.524,0.155,0.562,0.429s-0.155,0.525-0.429,0.562l-2.543,0.34    c-0.165,0.022-0.312,0.107-0.414,0.24l-0.916,1.199C79.136,21.002,78.987,21.07,78.837,21.07z"/>
	</g>
	<g>
		<path fill="#FFFFFF" d="M83.249,28.8l0.611,0.882c0.335,0.483,0.853,0.807,1.434,0.897l1.995,0.308l-0.351-2.631L83.249,28.8z"/>
		<path fill="#1D2445" d="M87.288,31.387c-0.025,0-0.051-0.002-0.076-0.006l-1.995-0.308c-0.713-0.11-1.357-0.514-1.769-1.107    l-0.61-0.881c-0.099-0.142-0.116-0.325-0.048-0.484c0.069-0.158,0.215-0.27,0.386-0.295l3.688-0.543    c0.133-0.02,0.268,0.015,0.374,0.095c0.107,0.081,0.177,0.201,0.195,0.333l0.351,2.63c0.021,0.156-0.033,0.313-0.146,0.423    C87.544,31.336,87.418,31.387,87.288,31.387z M84.118,29.177l0.152,0.219c0.255,0.369,0.656,0.62,1.099,0.688l1.335,0.206    l-0.195-1.466L84.118,29.177z"/>
	</g>
	<g>
		<path fill="#1D2445" d="M66.853,0.312l1.36-0.182c8.029-1.072,15.407,4.568,16.479,12.597l0.11,0.826    c0.152,1.14-0.649,2.188-1.789,2.341l-18.998,2.537L62.377,6.167C61.996,3.315,64,0.693,66.853,0.312z"/>
	</g>
	<g>
		<path fill="#1D2445" d="M43.27,25.004c-0.785-5.879,2.717-11.292,8.02-12.906c-2.456-2.622-6.017-4.067-9.759-3.567    c-6.272,0.837-10.652,6.794-9.782,13.304c0.771,5.773,4.442,8.27,7.924,9.307c2.515,0.75,4.801-1.647,4.03-4.156    C43.508,26.349,43.361,25.688,43.27,25.004z"/>
	</g>
	<g>
		<g>
			<path fill="#FFFFFF" d="M47.301,17.324c-0.723,0-1.359-0.523-1.479-1.259c-0.49-3.014-0.001-5.844,1.452-8.412     c0.409-0.722,1.326-0.974,2.045-0.566c0.721,0.408,0.975,1.323,0.566,2.044c-1.125,1.987-1.485,4.098-1.103,6.453     c0.133,0.818-0.422,1.588-1.24,1.721C47.462,17.318,47.381,17.324,47.301,17.324z"/>
			<path fill="#1D2445" d="M47.301,17.824c-0.985,0-1.814-0.706-1.972-1.679c-0.509-3.127-0.001-6.067,1.51-8.738     c0.525-0.925,1.801-1.281,2.728-0.755c0.464,0.263,0.799,0.691,0.941,1.206c0.143,0.515,0.076,1.055-0.188,1.52     c-1.066,1.883-1.407,3.887-1.044,6.126c0.086,0.527-0.039,1.057-0.351,1.49c-0.313,0.434-0.775,0.719-1.303,0.805     C47.516,17.816,47.407,17.824,47.301,17.824z M48.582,7.392c-0.36,0-0.695,0.194-0.873,0.508     c-1.396,2.467-1.864,5.188-1.394,8.085c0.088,0.54,0.592,0.916,1.147,0.826c0.264-0.042,0.495-0.186,0.651-0.402     s0.218-0.481,0.176-0.745c-0.402-2.473-0.022-4.69,1.16-6.78c0.132-0.232,0.165-0.502,0.094-0.759s-0.238-0.472-0.471-0.603     C48.923,7.437,48.753,7.392,48.582,7.392z"/>
		</g>
	</g>
</g>
<g>
	<path fill="#1D2445" d="M100.432,52.709L47.19,67.797l-1.296-4.635c-2.397-8.574,3.043-17.366,11.785-19.047l38.516-7.408   L100.432,52.709z"/>
	<path fill="#1D2445" d="M46.844,68.415l-1.431-5.118c-1.181-4.221-0.535-8.779,1.771-12.506c2.306-3.727,6.096-6.339,10.399-7.167   l38.976-7.496l4.482,16.928L46.844,68.415z M95.831,37.286l-38.058,7.32c-4.03,0.775-7.58,3.221-9.739,6.711   s-2.764,7.758-1.658,11.71l1.161,4.152l52.286-14.818L95.831,37.286z"/>
</g>
<g>
	<path fill="#1D2445" d="M47.021,104.997l-39.324,1.685l0,0c0.384-7.77,3.778-15.084,9.463-20.394l20.872-19.492l4.819-10.541   c3.378-7.389,10.756-12.128,18.881-12.128h4.806c9.157,0,15.732,8.817,13.119,17.594l-1.337,4.49   c-1.811,6.084-5.06,11.643-9.472,16.207L47.021,104.997z"/>
	<path fill="#1D2445" d="M7.171,107.205l0.027-0.548c0.392-7.943,3.809-15.307,9.621-20.734L37.62,66.499l4.777-10.451   c3.449-7.545,11.039-12.42,19.336-12.42h4.806c4.524,0,8.67,2.08,11.374,5.707c2.704,3.627,3.515,8.194,2.224,12.53l-1.337,4.49   c-1.827,6.136-5.144,11.811-9.592,16.412l-21.967,22.723L7.171,107.205z M61.733,44.627c-7.906,0-15.139,4.646-18.426,11.836   l-4.934,10.698L17.501,86.653c-5.486,5.125-8.767,12.033-9.272,19.505l38.571-1.653l21.689-22.436   c4.337-4.486,7.57-10.019,9.352-16.001l1.337-4.49c1.2-4.03,0.447-8.275-2.066-11.646s-6.367-5.305-10.572-5.305H61.733z"/>
</g>
<g>
	<path fill="#1D2445" d="M25.19,131.256l55.25,17.707c7.441,2.385,15.401-1.743,17.74-9.198l0.515-1.642   c1.81-5.768-0.775-12.004-6.134-14.801L24.489,87.794c-4.13-1.727-8.364-0.339-11.407,2.484c-1.775,1.647-3,3.8-3.725,6.11   l-0.847,2.699C4.281,112.572,11.732,126.942,25.19,131.256z"/>
</g>
<g>
	<path fill="#1D2445" d="M93.337,135.625l-19.88-9.535l-5.738,20.482l15.885,2.949c3.714,0.69,7.52-0.585,10.069-3.373l1.406-1.538   C97.658,141.79,96.784,137.278,93.337,135.625z"/>
	<path fill="#1D2445" d="M85.604,150.206C85.603,150.206,85.603,150.206,85.604,150.206c-0.7,0-1.403-0.065-2.092-0.193   l-15.884-2.949c-0.139-0.026-0.26-0.108-0.334-0.228s-0.095-0.264-0.057-0.399l5.738-20.482c0.04-0.143,0.141-0.26,0.275-0.321   c0.135-0.062,0.289-0.059,0.422,0.005l19.88,9.535c1.787,0.857,3.028,2.464,3.406,4.41c0.377,1.946-0.174,3.901-1.511,5.364   l-1.406,1.538C91.881,148.85,88.805,150.206,85.604,150.206z M68.348,146.181l15.347,2.849c0.629,0.117,1.271,0.176,1.908,0.176   c0,0,0,0,0.001,0c2.921,0,5.728-1.237,7.7-3.395l1.406-1.538c1.122-1.227,1.583-2.867,1.267-4.499s-1.357-2.98-2.855-3.699   l-19.344-9.277L68.348,146.181z"/>
</g>
<g>
	<path fill="#FFFFFF" d="M70.095,124.477c-4.456-2.137-9.357-3.18-14.297-3.042l-34.275,0.955l-2.162,14.326   c1.873-0.508,24.563,5.438,24.563,5.438l23.794,4.419l5.738-20.482L70.095,124.477z"/>
	<path fill="#1D2445" d="M67.719,147.072c-0.03,0-0.061-0.003-0.091-0.008l-23.794-4.419c-0.244-0.063-20.881-5.46-24.141-5.46   c-0.148,0-0.199,0.013-0.201,0.013c-0.165,0.044-0.339,0.001-0.463-0.111c-0.126-0.112-0.188-0.28-0.162-0.446l2.162-14.326   c0.036-0.239,0.238-0.418,0.48-0.425l34.274-0.955c4.987-0.136,10.028,0.935,14.526,3.091l3.362,1.613   c0.22,0.105,0.331,0.352,0.266,0.585L68.2,146.707C68.139,146.926,67.94,147.072,67.719,147.072z M19.946,136.193   c4.026,0.226,23.27,5.258,24.105,5.477l23.309,4.328l5.502-19.638l-2.983-1.432c-4.354-2.088-9.215-3.127-14.067-2.993   l-33.856,0.943L19.946,136.193z"/>
</g>
<g>
	<g>
		<g>
			<g>
				<path fill="#FFFFFF" d="M24.141,122.056l-2.838-2.372c-1.822-1.524-3.905-2.706-6.146-3.491l-1.641-0.575l-0.85,2.359      l-0.404-0.148l-10.428,28.93c-0.137,0.379,0.06,0.797,0.439,0.933l1.976,0.712c2.219,0.8,4.694-0.059,5.94-2.062l3.882-6.237      c0.51-0.819,1.245-1.472,2.118-1.883l3.288-1.546c1.193-0.561,2.116-1.57,2.569-2.807l4.322-11.815H24.141z"/>
			</g>
		</g>
		<g>
			<g>
				<path fill="#1D2445" d="M5.942,149.201L5.942,149.201c-0.636,0-1.263-0.11-1.864-0.327l-1.976-0.712      c-0.637-0.229-0.969-0.935-0.74-1.572l10.429-28.931c0.046-0.125,0.139-0.228,0.26-0.284c0.097-0.046,0.206-0.06,0.313-0.036      l0.682-1.891c0.094-0.258,0.375-0.395,0.636-0.303l1.641,0.574c2.308,0.808,4.428,2.013,6.302,3.58l2.699,2.256h2.044      c0.163,0,0.316,0.08,0.41,0.213c0.093,0.134,0.115,0.305,0.06,0.458l-4.322,11.815c-0.502,1.371-1.505,2.467-2.825,3.088      l-3.288,1.546c-0.787,0.37-1.446,0.956-1.906,1.694l-3.882,6.237C9.602,148.232,7.857,149.201,5.942,149.201z M12.564,118.466      l-10.26,28.462c-0.043,0.119,0.02,0.251,0.139,0.294l1.976,0.712c0.491,0.177,1.005,0.267,1.524,0.267      c1.565,0,2.994-0.793,3.821-2.123l3.882-6.237c0.563-0.903,1.368-1.619,2.33-2.071l3.288-1.546      c1.08-0.508,1.901-1.405,2.312-2.526l4.077-11.143h-1.511c-0.117,0-0.23-0.041-0.32-0.116l-2.838-2.372      c-1.782-1.491-3.798-2.636-5.991-3.404l-1.173-0.41l-0.683,1.893c-0.046,0.125-0.139,0.228-0.26,0.284      C12.778,118.476,12.669,118.489,12.564,118.466z"/>
			</g>
		</g>
	</g>
	<g>
		<path fill="#FFFFFF" d="M10.396,117.274L0.658,144.29c-0.497,1.378,0.218,2.898,1.596,3.395l0,0l11.537-32.007h0    C12.413,115.181,10.893,115.896,10.396,117.274z"/>
		<path fill="#1D2445" d="M2.254,148.185c-0.058,0-0.114-0.01-0.17-0.03c-0.792-0.286-1.426-0.863-1.783-1.625    c-0.358-0.762-0.398-1.618-0.113-2.41l9.738-27.017c0.449-1.247,1.641-2.084,2.966-2.084c0.364,0,0.724,0.063,1.069,0.188    c0.124,0.045,0.227,0.138,0.282,0.257c0.057,0.12,0.063,0.258,0.019,0.382L2.725,147.855c-0.045,0.125-0.138,0.227-0.258,0.283    C2.399,148.169,2.327,148.185,2.254,148.185z M12.892,116.021c-0.904,0-1.719,0.572-2.024,1.423L1.129,144.46    c-0.195,0.541-0.168,1.125,0.076,1.646c0.173,0.366,0.438,0.669,0.768,0.885l11.158-30.957    C13.052,116.025,12.972,116.021,12.892,116.021z"/>
	</g>
</g>
<g>
	<path fill="#FFFFFF" d="M88.375,133.285c-0.061,0-0.121-0.011-0.181-0.034l-17.036-6.587c-0.257-0.1-0.386-0.389-0.286-0.646   c0.101-0.258,0.392-0.385,0.647-0.286l17.036,6.587c0.257,0.1,0.386,0.389,0.286,0.646   C88.765,133.164,88.575,133.285,88.375,133.285z"/>
</g>
<g>
	<path fill="#FFFFFF" d="M73.19,68.178c-0.187,0-0.365-0.105-0.451-0.285l-2.183-4.582c-0.343-0.719-0.326-1.536,0.046-2.24   c0.371-0.705,1.035-1.18,1.821-1.304l10.021-1.583c0.268-0.045,0.528,0.143,0.572,0.416c0.043,0.273-0.144,0.529-0.416,0.572   L72.58,60.754c-0.472,0.075-0.87,0.36-1.093,0.783c-0.224,0.423-0.233,0.913-0.028,1.344l2.183,4.582   c0.119,0.249,0.013,0.547-0.236,0.666C73.336,68.163,73.263,68.178,73.19,68.178z"/>
</g>

        </g>
    </g>
</g>

<!-- ITEM 11 -->
<g>
    <defs>
        
        <clipPath id="clip-path-id-viewbox-item-11">
            <rect x="0.0" y="0.0" width="139.238" height="210.125"/>
        </clipPath>
    </defs>
    <g transform="translate(874.0 457.0) rotate(0.0 155.5 235.0) scale(2.233585659087318 2.2367638310529445)">
        <g clip-path="url(#clip-path-id-viewbox-item-11)" transform="translate(-0.0 -0.0)">

<g>
	<path fill="#1D2445" d="M61.61,17.767c-2.301-4.832-10.461-5.751-18.227-2.053c-6.625,3.155-10.822,8.651-10.483,13.197   c0.088,1.177,1.361,1.88,2.427,1.372L61.61,17.767z"/>
</g>
<g>
	<path fill="#1D2445" d="M49.143,36.53c-2.301-4.832,2.129-11.747,9.894-15.445c6.625-3.155,13.537-2.949,16.853,0.179   c0.859,0.81,0.601,2.242-0.465,2.749L49.143,36.53z"/>
</g>
<g>
	<path fill="#1D2445" d="M50.596,30.67c-2.301-4.832,2.129-11.747,9.894-15.445c6.625-3.155,13.537-2.949,16.853,0.179   c0.859,0.81,0.601,2.242-0.465,2.749L50.596,30.67z"/>
</g>
<g>
	<path fill="#1D2445" d="M50.221,23.11c-2.301-4.832,2.129-11.747,9.894-15.445c6.625-3.155,13.537-2.949,16.853,0.179   c0.859,0.81,0.601,2.242-0.465,2.749L50.221,23.11z"/>
</g>
<g>
	<path fill="#1D2445" d="M42.398,17.713c-2.301-4.832,2.129-11.747,9.894-15.445c6.625-3.155,13.537-2.949,16.853,0.179   c0.859,0.81,0.601,2.242-0.465,2.749L42.398,17.713z"/>
</g>
<g>
	<path fill="#1D2445" d="M60.472,9.171C58.171,4.339,50.01,3.42,42.245,7.118c-6.625,3.155-10.822,8.651-10.483,13.197   c0.088,1.177,1.361,1.88,2.427,1.372L60.472,9.171z"/>
</g>
<g>
	<path fill="#1D2445" d="M69.589,31.696l-7.162,6.275L48.563,8.857c-0.889-1.868-0.096-4.102,1.771-4.992l1.473-0.702   c7.418-3.533,16.268,0.076,19.101,7.788l2.342,6.377C75.12,22.415,73.664,28.125,69.589,31.696z"/>
</g>
<g>
	<g>
		<g>
			<path fill="#FFFFFF" d="M70.774,29.88l-1.135,0.714l-13.642-2.711l-5.133-10.779l-9.816,4.674l1.648,3.462l-4.853-0.964     l2.834,5.952c0.103,0.216,0.246,0.411,0.423,0.573l1.724,1.586c0.575,0.529,0.758,1.359,0.465,2.082l-0.134,0.136l-1.339,1.241     l0.037,0.078l-0.105,0.107c-0.974,0.988-0.574,2.655,0.742,3.092l1.053,0.35l0.973,2.043c2.231,4.685,8.21,5.984,12.187,2.817     l-0.001,0.095l2.39-1.925l4.607,9.675l16.566-3.373L70.774,29.88z"/>
		</g>
	</g>
	<g>
		<g>
			<path fill="#1D2445" d="M63.698,52.679c-0.19,0-0.367-0.108-0.451-0.285l-4.335-9.104l-1.897,1.528     c-0.077,0.062-0.169,0.099-0.264,0.108c-1.462,1.076-3.188,1.643-5.011,1.643c-3.313,0-6.255-1.854-7.676-4.838l-0.882-1.851     l-0.851-0.283c-0.784-0.261-1.367-0.896-1.56-1.699c-0.188-0.785,0.029-1.595,0.58-2.18c0.019-0.095,0.059-0.181,0.123-0.241     l1.381-1.284c0.168-0.507,0.024-1.076-0.371-1.44l-1.724-1.586c-0.225-0.206-0.405-0.451-0.536-0.726l-2.833-5.952     c-0.082-0.17-0.06-0.373,0.057-0.522c0.115-0.149,0.306-0.223,0.492-0.183l3.875,0.77l-1.22-2.562     c-0.058-0.12-0.064-0.257-0.021-0.382c0.045-0.125,0.137-0.228,0.257-0.285l9.816-4.674c0.247-0.118,0.548-0.014,0.666,0.237     l5.025,10.552l13.2,2.623l0.966-0.608c0.12-0.074,0.264-0.098,0.401-0.058c0.136,0.038,0.249,0.131,0.313,0.257l9.491,18.926     c0.069,0.139,0.07,0.303,0.002,0.443c-0.067,0.14-0.197,0.24-0.35,0.271l-16.566,3.373     C63.765,52.675,63.731,52.679,63.698,52.679z M59.092,42.004c0.037,0,0.074,0.004,0.111,0.013     c0.149,0.034,0.274,0.134,0.34,0.272l4.438,9.322l15.544-3.165l-8.952-17.85l-0.668,0.421c-0.109,0.068-0.238,0.093-0.364,0.067     l-13.642-2.711c-0.154-0.031-0.286-0.133-0.354-0.275L50.628,17.77l-8.914,4.244l1.434,3.01c0.082,0.17,0.06,0.373-0.057,0.522     c-0.116,0.149-0.308,0.22-0.492,0.183l-3.875-0.77l2.405,5.053c0.076,0.159,0.18,0.3,0.31,0.419l1.725,1.587     c0.723,0.666,0.959,1.726,0.588,2.638c-0.024,0.06-0.061,0.115-0.106,0.162l-0.134,0.136l-1.197,1.11     c-0.018,0.082-0.052,0.156-0.104,0.21l-0.105,0.107c-0.336,0.34-0.47,0.82-0.358,1.284s0.448,0.832,0.902,0.982l1.053,0.35     c0.13,0.043,0.235,0.137,0.294,0.26l0.973,2.043c1.254,2.632,3.85,4.268,6.773,4.268c1.706,0,3.314-0.563,4.651-1.627     c0.073-0.058,0.158-0.093,0.247-0.104l2.14-1.723C58.868,42.042,58.979,42.004,59.092,42.004z"/>
		</g>
	</g>
</g>
<g>
	<path fill="#FFFFFF" d="M58.977,42.422l1.272-1.625c0.583-0.745,1.779-0.338,1.787,0.608"/>
	<path fill="#1D2445" d="M58.977,42.922c-0.108,0-0.217-0.035-0.309-0.106c-0.217-0.17-0.255-0.484-0.085-0.702l1.272-1.625   c0.397-0.509,1.051-0.705,1.664-0.496c0.612,0.208,1.012,0.761,1.017,1.408c0.002,0.276-0.22,0.501-0.496,0.504   c-0.001,0-0.003,0-0.004,0c-0.274,0-0.498-0.221-0.5-0.496c-0.003-0.329-0.26-0.442-0.339-0.469   c-0.078-0.027-0.353-0.094-0.555,0.165L59.37,42.73C59.272,42.856,59.125,42.922,58.977,42.922z"/>
</g>
<g>
	<path fill="#FFFFFF" d="M63.585,26.334l-8.373,3.987l-3.644-7.653l8.373-3.987c1.7-0.809,3.734-0.088,4.544,1.612l0.713,1.497   C66.007,23.49,65.285,25.524,63.585,26.334z"/>
</g>
<g>
	
		<rect x="58.186" y="25.742" transform="matrix(0.9029 -0.4299 0.4299 0.9029 -6.8592 29.4139)" fill="#FFFFFF" width="6.948" height="8.288"/>
</g>
<g>
	<path fill="#1D2445" d="M43.049,18.402l10.052-4.787l2.455,5.155c1.668-0.637,3.25-1.272,3.441-1.456   c0.29-0.279-1.426,5.47-2.513,9.045c-0.299,0.982-1.647,1.077-2.088,0.151l-0.158-0.331c-1.047-2.199-3.678-3.132-5.876-2.085   l-2.121,1.01L43.049,18.402z"/>
</g>
<g>
	<path fill="#FFFFFF" d="M42.1,30.055l2.316-1.103c0.269-0.128,0.578-0.144,0.859-0.044l1.423,0.505"/>
	<path fill="#1D2445" d="M42.1,30.555c-0.187,0-0.366-0.105-0.451-0.285c-0.119-0.249-0.013-0.547,0.236-0.667l2.316-1.103   c0.39-0.185,0.83-0.209,1.24-0.064l1.423,0.505c0.261,0.092,0.396,0.378,0.305,0.638c-0.093,0.261-0.381,0.396-0.639,0.304   l-1.423-0.505c-0.158-0.055-0.326-0.046-0.477,0.024l-2.316,1.104C42.245,30.539,42.172,30.555,42.1,30.555z"/>
</g>
<g>
	<path fill="#FFFFFF" d="M47.491,38.716l-0.031,1.072c-0.017,0.587-0.274,1.142-0.712,1.534l-1.504,1.347l-1.141-2.396   L47.491,38.716z"/>
	<path fill="#1D2445" d="M45.245,43.169c-0.032,0-0.065-0.003-0.099-0.01c-0.154-0.031-0.285-0.133-0.353-0.275l-1.142-2.396   c-0.058-0.121-0.064-0.259-0.019-0.385c0.045-0.126,0.14-0.228,0.261-0.284l3.388-1.557c0.157-0.072,0.34-0.059,0.485,0.037   c0.144,0.096,0.229,0.259,0.224,0.432l-0.031,1.072c-0.021,0.721-0.34,1.411-0.877,1.892l-1.504,1.347   C45.486,43.125,45.367,43.169,45.245,43.169z M44.773,40.516l0.636,1.335l1.006-0.901c0.334-0.299,0.532-0.728,0.545-1.176   l0.008-0.267L44.773,40.516z"/>
</g>
<g>
	<path fill="#1D2445" d="M45.687,5.897l-1.239,0.59c-7.313,3.483-10.419,12.234-6.936,19.548l0.839,1.762   c0.229,0.481,0.805,0.686,1.286,0.456l18.314-8.721l-5.319-11.17C51.395,5.763,48.286,4.659,45.687,5.897z"/>
</g>
<g>
	<g>
		<path fill="#1D2445" d="M103.427,200.471l-0.022-7.506l-11.676,0.034c-1.326,0.004-2.596,0.534-3.531,1.475l-2.552,2.566    c-0.68,0.684-1.543,1.157-2.485,1.361l-7.179,1.558c-2.305,0.5-3.946,2.543-3.94,4.901l0.006,2.101    c0.001,0.403,0.329,0.728,0.731,0.727l30.752-0.089L103.427,200.471z"/>
	</g>
	<g>
		<path fill="#1D2445" d="M88.782,207.211l17.254-0.05l0.011-1.739c0.015-2.375-0.399-4.734-1.22-6.963l-1.598-4.333l-14.469,5.362    L88.782,207.211z"/>
	</g>
	<g>
		<path fill="#FFFFFF" d="M103.427,209.542l-28.718,0.083c-1.465,0.004-2.656-1.18-2.66-2.645l0,0l34.023-0.099l0,0    C106.076,208.346,104.892,209.537,103.427,209.542z"/>
		<path fill="#1D2445" d="M74.701,210.125c-1.733,0-3.147-1.41-3.152-3.143c-0.001-0.276,0.223-0.5,0.499-0.501l34.022-0.099h0.001    c0.275,0,0.499,0.223,0.5,0.499c0.003,0.842-0.322,1.634-0.917,2.232c-0.594,0.597-1.384,0.927-2.227,0.929l-28.718,0.083H74.701z     M72.609,207.479c0.228,0.943,1.08,1.646,2.092,1.646v0.5l0.006-0.5l28.719-0.083c0.574-0.001,1.114-0.227,1.52-0.635    c0.285-0.287,0.479-0.639,0.569-1.023L72.609,207.479z"/>
	</g>
</g>
<g>
	<path fill="#FFFFFF" d="M32.503,72.777l-8.459,0.959c-0.539,0.05-1.065-0.087-1.494-0.372l-1.276-0.884   c-0.941-0.648-2.038-1.069-3.168-1.215l-1.58-0.209l-6.45-2.386c-0.618-0.302-1.432-0.019-1.731,0.597l-0.072,0.182   c-0.206,0.69,0.016,1.473,0.641,2.223c0.475,0.536,1.086,0.932,1.758,1.143l2.169,0.712c0.211,0.07,0.388,0.216,0.498,0.406   l0.051,0.126c0.065,0.156,0.065,0.327,0,0.483c-0.064,0.156-0.186,0.277-0.341,0.341c-0.031,0.013-0.064,0.023-0.095,0.031   L2.188,77.455c-1.071,0.358-1.765,1.311-1.681,2.373c0.084,0.56,0.574,0.982,1.141,0.982l6.508-0.822l-2.734,1.227   c-0.973,0.568-1.461,1.64-1.166,2.669c0.211,0.554,0.773,0.904,1.447,0.677l0.324-0.083c-0.589,0.697-0.758,1.628-0.386,2.436   c0.281,0.519,0.977,0.739,1.487,0.51l0.33-0.088c-0.327,0.699-0.311,1.5,0.102,2.166c0.217,0.295,0.565,0.471,0.932,0.471   c0.205,0,0.402-0.053,0.581-0.158l5.096-1.705l0.117-0.105c0.482-0.437,1.075-0.735,1.719-0.862l2.885-0.591l0.098-0.027   c1.497-0.525,2.944-1.207,4.301-2.026l1.797-1.083c0.675-0.407,1.448-0.631,2.236-0.648l5.646-1.023L32.503,72.777z"/>
	<path fill="#1D2445" d="M8.491,90.471c-0.524,0-1.023-0.252-1.335-0.675c-0.341-0.548-0.475-1.172-0.404-1.785   c-0.638,0.028-1.257-0.32-1.551-0.861c-0.304-0.656-0.331-1.373-0.106-2.032c-0.584-0.074-1.085-0.473-1.308-1.057   c-0.351-1.218,0.138-2.454,1.209-3.17L1.71,81.306c-0.003,0-0.006,0-0.009,0c-0.87,0-1.569-0.604-1.688-1.404   c-0.106-1.323,0.706-2.483,2.017-2.921l10.808-2.554c0.001,0,0.09-0.078,0.09-0.079c-0.001-0.002-0.002-0.1-0.003-0.103   l-0.051-0.126c-0.019-0.022-0.099-0.087-0.192-0.119l-2.167-0.711c-0.756-0.238-1.441-0.684-1.976-1.287   c-0.74-0.888-1.001-1.841-0.746-2.697l0.087-0.224c0.43-0.886,1.569-1.273,2.416-0.861l6.352,2.347l1.524,0.202   c1.208,0.156,2.379,0.605,3.386,1.299l1.277,0.884c0.333,0.22,0.741,0.324,1.164,0.285l8.448-0.958   c0.146-0.019,0.275,0.026,0.38,0.115c0.105,0.089,0.169,0.218,0.176,0.355l0.463,8.964c0.014,0.251-0.162,0.473-0.41,0.518   l-5.646,1.023c-0.779,0.023-1.467,0.222-2.067,0.584l-1.797,1.083c-1.385,0.836-2.863,1.533-4.393,2.069l-0.129,0.037l-2.919,0.599   c-0.557,0.11-1.068,0.367-1.483,0.743l-0.118,0.106c-0.052,0.046-0.111,0.081-0.177,0.103l-5.051,1.69   C9.032,90.404,8.769,90.471,8.491,90.471z M7.458,86.834c0.146,0,0.287,0.064,0.384,0.179c0.124,0.149,0.151,0.357,0.069,0.533   c-0.267,0.569-0.239,1.185,0.073,1.69c0.159,0.21,0.555,0.309,0.836,0.145c0.029-0.018,0.061-0.032,0.094-0.042l5.036-1.708   c0.549-0.497,1.226-0.836,1.957-0.981l2.944-0.609c1.435-0.504,2.851-1.171,4.177-1.973l1.798-1.083   c0.749-0.452,1.608-0.701,2.483-0.72l5.134-0.937l-0.412-7.995l-7.931,0.899c-0.725,0.068-1.296-0.1-1.827-0.452l-1.284-0.889   c-0.876-0.603-1.896-0.994-2.948-1.13l-1.581-0.209c-0.037-0.005-0.073-0.014-0.108-0.027l-6.45-2.386   c-0.142-0.066-0.249-0.09-0.364-0.09c-0.313,0-0.618,0.18-0.744,0.438l-0.057,0.148c-0.143,0.482,0.052,1.107,0.56,1.717   c0.404,0.456,0.935,0.801,1.524,0.986l2.175,0.714c0.327,0.109,0.602,0.333,0.774,0.631l0.082,0.19   c0.115,0.273,0.115,0.583-0.003,0.863c-0.115,0.277-0.332,0.495-0.611,0.61c-0.023,0.01-0.143,0.048-0.168,0.054L2.303,77.942   c-0.824,0.277-1.362,1.024-1.298,1.846c0.044,0.282,0.321,0.521,0.643,0.521l6.445-0.818c0.25-0.031,0.477,0.123,0.544,0.361   c0.066,0.239-0.051,0.49-0.276,0.591L5.626,81.67c-0.741,0.436-1.118,1.28-0.891,2.075c0.115,0.296,0.438,0.463,0.807,0.341   l0.359-0.094c0.215-0.053,0.433,0.034,0.549,0.219c0.115,0.184,0.099,0.422-0.042,0.588c-0.476,0.563-0.596,1.292-0.313,1.903   c0.125,0.228,0.562,0.383,0.828,0.263l0.406-0.115C7.372,86.839,7.415,86.834,7.458,86.834z"/>
</g>
<g>
	<g>
		<path fill="#1D2445" d="M136.093,200.471l-0.022-7.506l-11.676,0.034c-1.326,0.004-2.596,0.534-3.531,1.475l-2.552,2.566    c-0.68,0.684-1.543,1.157-2.485,1.361l-7.179,1.558c-2.305,0.5-3.946,2.543-3.94,4.901l0.006,2.101    c0.001,0.403,0.329,0.728,0.731,0.727l30.752-0.089L136.093,200.471z"/>
	</g>
	<g>
		<path fill="#1D2445" d="M121.449,207.211l17.254-0.05l0.011-1.739c0.015-2.375-0.399-4.734-1.22-6.963l-1.598-4.333l-14.469,5.362    L121.449,207.211z"/>
	</g>
	<g>
		<path fill="#FFFFFF" d="M136.094,209.542l-28.718,0.083c-1.465,0.004-2.656-1.18-2.66-2.645l0,0l34.023-0.099l0,0    C138.742,208.346,137.558,209.537,136.094,209.542z"/>
		<path fill="#1D2445" d="M107.368,210.125c-1.733,0-3.147-1.41-3.152-3.143c-0.001-0.276,0.223-0.5,0.499-0.501l34.022-0.099    c0,0,0,0,0.001,0c0.132,0,0.259,0.052,0.353,0.146s0.147,0.221,0.147,0.353c0.002,0.842-0.323,1.635-0.917,2.231    c-0.594,0.597-1.384,0.927-2.227,0.93l-28.718,0.083H107.368z M105.276,207.479c0.228,0.943,1.08,1.646,2.092,1.646v0.5l0.006-0.5    l28.719-0.083c0.574-0.001,1.114-0.227,1.52-0.634c0.285-0.287,0.479-0.64,0.569-1.024L105.276,207.479z"/>
	</g>
</g>
<g>
	<g>
		<g>
			<path fill="#FFFFFF" d="M124.966,93.228l-41.932-2.301l-0.04,53.403c-0.001,1.121,0.462,2.131,1.203,2.858l-4.354,40.761     c-0.506,4.735,3.261,8.838,8.022,8.739l15.149-0.317c1.532-0.032,2.839-1.119,3.149-2.62l9.353-45.241     c0.237-0.006,0.375-0.014,0.374-0.024L124.966,93.228z"/>
		</g>
	</g>
	<g>
		<g>
			<path fill="#1D2445" d="M87.694,197.189c-2.377,0-4.652-1.016-6.244-2.787c-1.59-1.769-2.357-4.141-2.104-6.507l4.328-40.528     c-0.763-0.833-1.181-1.902-1.181-3.037l0.041-53.403c0-0.137,0.057-0.269,0.156-0.363c0.099-0.094,0.229-0.146,0.371-0.136     l41.932,2.301c0.142,0.007,0.273,0.075,0.362,0.186s0.127,0.254,0.104,0.394l-9.077,55.256c-0.014,0.085-0.05,0.167-0.104,0.233     c-0.095,0.118-0.191,0.166-0.351,0.188l-9.275,44.864c-0.359,1.741-1.852,2.982-3.628,3.02L87.694,197.189z M83.534,91.456     l-0.041,52.875c0,0.946,0.374,1.834,1.054,2.5c0.108,0.107,0.163,0.258,0.146,0.41l-4.354,40.761     c-0.223,2.084,0.453,4.173,1.854,5.732c1.401,1.56,3.406,2.455,5.5,2.455l0.159-0.002l15.148-0.317     c1.308-0.027,2.405-0.941,2.671-2.222l9.353-45.241c0.044-0.214,0.221-0.373,0.435-0.396l8.922-54.315L83.534,91.456z"/>
		</g>
	</g>
</g>
<g>
	<path fill="#1D2445" d="M77.745,36.8L77.745,36.8c10.897-0.061,21.304,4.526,28.611,12.611l14.149,15.655   c2.297,2.541,4.165,5.439,5.532,8.58l3.581,8.228c0.352,0.808-0.14,1.734-1.007,1.894l-40.279,7.436L66.376,58.141   C60.33,49.038,66.817,36.861,77.745,36.8z"/>
</g>
<g>
	<path fill="#1D2445" d="M33.834,84.595l23.312-8.645c3.787-2.098,4.398-8.238,1.365-13.712l-0.827-1.492   c-1.892-3.415-5.342-5.123-7.704-3.814L24.053,72.153c-0.953,0.56-1.272,1.787-0.711,2.739l4.445,7.551   C29.015,84.531,31.563,85.438,33.834,84.595z"/>
</g>
<g>
	<path fill="#1D2445" d="M53.352,74.001c1.358,1.79,3.923,2.111,5.68,0.711l22.984-18.314c3.967-3.009,4.117-9.491,0.334-14.478   l-1.031-1.359c-2.36-3.111-6.279-4.111-8.754-2.233l-28.89,22.916L53.352,74.001z"/>
</g>
<g>
	<g>
		<g>
			<path fill="#FFFFFF" d="M136.717,193.529l-4.957-45.042c0.001-0.001,0.011-0.001,0.011-0.001l-1.304-55.257l-41.932-2.301     l9.751,54.109c0.205,1.138,0.883,2.085,1.805,2.668l8.462,40.831c1.002,4.834,5.309,8.265,10.244,8.162l15.424-0.323     C135.726,196.343,136.881,195.026,136.717,193.529z"/>
		</g>
	</g>
	<g>
		<g>
			<path fill="#1D2445" d="M118.579,197.2c-5.065,0-9.488-3.602-10.517-8.563l-8.421-40.63c-0.97-0.681-1.64-1.72-1.849-2.881     l-9.751-54.109c-0.027-0.151,0.017-0.305,0.117-0.42c0.102-0.114,0.252-0.18,0.402-0.168l41.932,2.301     c0.261,0.014,0.467,0.227,0.473,0.487l1.305,55.257c0,0.022-0.001,0.044-0.003,0.065l4.946,44.935     c0.094,0.853-0.177,1.711-0.742,2.356c-0.566,0.646-1.383,1.026-2.24,1.044L118.579,197.2z M89.139,91.461l9.639,53.486     c0.173,0.958,0.748,1.809,1.58,2.334c0.114,0.072,0.194,0.188,0.222,0.321l8.462,40.831c0.933,4.5,4.944,7.766,9.538,7.766     l0.206-0.002l15.425-0.323c0.587-0.012,1.123-0.262,1.51-0.703s0.564-1.005,0.5-1.588l-4.958-45.042     c-0.006-0.052-0.003-0.103,0.007-0.151l-1.292-54.688L89.139,91.461z"/>
		</g>
	</g>
</g>
<g>
	<path fill="#1D2445" d="M79.558,66.854h29.708c11.759,0,21.292,9.533,21.292,21.292v6.041H86.932c-4.073,0-7.375-3.302-7.375-7.375   V66.854z"/>
</g>
<g>
	<path fill="#FFFFFF" d="M70.467,66.27c-0.146,0-0.29-0.063-0.389-0.185c-0.174-0.214-0.141-0.529,0.074-0.703l6.969-5.65   c0.826-0.67,1.949-0.748,2.859-0.202c0.912,0.547,1.37,1.575,1.169,2.618c-0.054,0.272-0.322,0.446-0.586,0.396   c-0.271-0.052-0.448-0.314-0.396-0.585c0.147-0.76-0.266-1.31-0.701-1.571c-0.435-0.261-1.114-0.367-1.716,0.121l-6.969,5.65   C70.689,66.234,70.578,66.27,70.467,66.27z"/>
</g>

        </g>
    </g>
</g>

              </svg>