<svg xmlns="http://www.w3.org/2000/svg" xmlns:xlink="http://www.w3.org/1999/xlink" width="1200" height="800" x="0" y="0" version="1.1" viewBox="0 0 1200 800"><g><defs><clipPath id="clip-path-id-viewbox-item-0"><rect width="205.607" height="238.997" x="0" y="0"/></clipPath></defs><g><g clip-path="url(#clip-path-id-viewbox-item-0)" transform="translate(687.0 41.0) rotate(0.0 192.5 224.0) scale(1.8725043408055173 1.8745005167428879) translate(-0.0 -0.0)"><rect width="161.417" height="99.468" x="20.112" y="129.765" fill="#F6F6F8"/><g><rect width="163.432" height="124.77" x="21.519" y="5.272" fill="#EDEEF0"/></g><path fill="#E4E4E8" d="M141.465,207.795c0,19.383-8.787,21.536-16.791,21.536c-8.69,0-16.598-2.153-16.598-21.536 s16.695-78.632,16.695-78.632S141.465,188.421,141.465,207.795z"/><path fill="#E4E4E8" d="M81.452,121.994c-3.106-1.764-4.815-5.251-4.305-8.787c0.168-1.116,0.227-2.246,0.176-3.374 c-0.223-10.191-8.665-18.271-18.856-18.048c-10.191,0.223-18.271,8.665-18.048,18.856v0.949c0.114,2.993-1.697,5.724-4.499,6.783 c-11.992,4.631-17.959,18.106-13.328,30.098c1.344,3.48,3.504,6.585,6.299,9.055c1.835,1.655,2.823,4.052,2.689,6.52 c-0.373,7.979,5.794,14.749,13.772,15.122c2.537,0.118,5.06-0.433,7.315-1.599v55.277h10.544v-62.042 c14.263,2.918,28.19-6.279,31.108-20.542c2.297-11.229-2.925-22.656-12.92-28.268H81.452z"/><g><polygon fill="#FBFBFB" points="110.879 10.544 26.36 91.776 26.36 56.085 73.746 10.544"/><polygon fill="#FBFBFB" points="146.35 10.544 27.265 124.77 26.36 124.77 26.36 108.541 128.531 10.544"/><polygon fill="#FBFBFB" points="179.248 61.612 179.248 78.702 131.22 124.77 113.409 124.77"/></g><g><rect width="10.544" height="238.997" x="179.247" y="0" fill="#FFF"/><rect width="10.544" height="238.997" x="15.816" y="0" fill="#FFF"/><rect width="8.787" height="135.314" x="98.41" y="0" fill="#FFF"/><rect width="205.607" height="14.059" x="0" y="224.938" fill="#FFF"/><rect width="173.976" height="10.544" x="15.816" y="124.77" fill="#FFF"/><rect width="173.976" height="10.544" x="15.816" y="0" fill="#FFF"/></g></g></g></g><g><defs><clipPath id="clip-path-id-viewbox-item-1"><rect width="205.607" height="238.997" x="0" y="0"/></clipPath></defs><g><g clip-path="url(#clip-path-id-viewbox-item-1)" transform="translate(116.0 38.0) rotate(0.0 193.5 225.0) scale(1.8822316360824292 1.8828688226212043) translate(-0.0 -0.0)"><g><rect width="163.432" height="101.925" x="21.088" y="130.042" fill="#F6F6F8"/><rect width="163.432" height="124.77" x="21.088" y="5.272" fill="#EDEEF0"/></g><path fill="#E4E4E8" d="M42.729,231.967v-3.673c1.377-0.627,2.929-0.761,4.393-0.378c3.628,0.941,7.39,1.256,11.124,0.931 c16.695-1.415,30.006-15.403,31.131-32.66c1.06-14.17-6.454-27.6-19.085-34.11c-3.524-1.808-5.475-5.688-4.824-9.595 c0.218-1.372,0.327-2.758,0.325-4.147c0-14.551-11.862-26.228-26.14-25.27c-7.565,0.579-14.429,4.649-18.566,11.01v97.892H42.729z"/><path fill="#E4E4E8" d="M179.406,231.967c2.68-2.812,4.235-8.418,4.235-18.953c0-31.28-29.875-137.449-29.875-137.449 s-29.875,106.169-29.875,137.449c0,10.544,1.485,16.141,4.095,18.953H179.406z"/><g><polygon fill="#FBFBFB" points="110.879 10.544 26.36 91.776 26.36 56.085 73.746 10.544"/><polygon fill="#FBFBFB" points="146.35 10.544 27.265 124.77 26.36 124.77 26.36 108.541 128.531 10.544"/><polygon fill="#FBFBFB" points="179.248 61.612 179.248 78.702 131.22 124.77 113.409 124.77"/></g><g><rect width="10.544" height="238.997" x="179.248" y="0" fill="#FFF"/><rect width="10.544" height="238.997" x="15.816" y="0" fill="#FFF"/><rect width="8.787" height="135.314" x="98.411" y="0" fill="#FFF"/><rect width="205.607" height="14.059" x="0" y="224.938" fill="#FFF"/><rect width="173.976" height="10.544" x="15.816" y="124.77" fill="#FFF"/><rect width="173.976" height="10.544" x="15.816" y="0" fill="#FFF"/></g></g></g></g><g><defs><clipPath id="clip-path-id-viewbox-item-2"><rect width="27.91" height="84.431" x="0" y="0"/></clipPath></defs><g><g clip-path="url(#clip-path-id-viewbox-item-2)" transform="translate(701.0 158.0) rotate(0.0 44.0 137.5) scale(3.152991759226084 3.257097511577501) translate(-0.0 -0.0)"><g><g><g><path fill="#FFF" d="M15.076,83.92H2.294c-0.991,0-1.794-0.803-1.794-1.794s0.803-1.794,1.794-1.794h12.782 c1.891,0.03,3.78-0.147,5.633-0.529h0.144c0.287-0.054,2.969-0.583,2.969-3.095c-0.065-1.271-0.267-2.531-0.601-3.758 c-1.857-8.001-3.794-14.881-5.077-19.429l-0.135-0.466c-0.144-0.511-0.305-1.103-0.475-1.731 c-0.897-3.346-3.274-12.226-5.848-12.226c-0.991,0-1.794-0.803-1.794-1.794c0-0.991,0.803-1.794,1.794-1.794 c5.328,0,7.633,8.602,9.32,14.881c0.161,0.619,0.314,1.184,0.457,1.686l0.135,0.475c1.292,4.575,3.247,11.499,5.122,19.581 c0.395,1.508,0.627,3.053,0.691,4.611c0,4.485-3.83,6.279-5.929,6.629C19.373,83.797,17.225,83.98,15.076,83.92z"/><path fill="#1D2445" d="M15.876,84.431c-0.271,0-0.543-0.004-0.814-0.011H2.294C1.029,84.42,0,83.39,0,82.126 s1.029-2.294,2.294-2.294l13.201,0.003c1.713,0,3.434-0.176,5.113-0.522c0.033-0.007,0.067-0.01,0.101-0.01h0.144 c0.335-0.071,2.469-0.573,2.469-2.594c-0.063-1.207-0.259-2.436-0.583-3.627c-1.872-8.067-3.8-14.902-5.076-19.424l-0.134-0.463 c-0.145-0.516-0.306-1.11-0.477-1.739c-2.628-9.802-4.368-11.857-5.366-11.857c-1.265,0-2.294-1.029-2.294-2.294 s1.029-2.294,2.294-2.294c5.706,0,8.071,8.804,9.798,15.232c0.167,0.637,0.318,1.198,0.46,1.698l0.134,0.476 c1.293,4.579,3.248,11.499,5.128,19.605c0.401,1.525,0.638,3.112,0.703,4.703c0,4.816-4.151,6.776-6.346,7.143 C19.705,84.24,17.786,84.431,15.876,84.431z M15.068,80.832H2.294C1.58,80.832,1,81.412,1,82.126S1.58,83.42,2.294,83.42h12.782 c0.276,0.008,0.538,0.011,0.8,0.011c1.844,0,3.697-0.185,5.506-0.548c2.063-0.344,5.527-2.021,5.527-6.139 c-0.062-1.499-0.289-3.014-0.674-4.483c-1.879-8.097-3.829-15.003-5.12-19.573l-0.134-0.475c-0.145-0.504-0.298-1.073-0.46-1.696 c-1.647-6.131-3.896-14.507-8.836-14.507c-0.713,0-1.294,0.581-1.294,1.294s0.581,1.294,1.294,1.294 c2.604,0,4.66,6.361,6.328,12.583c0.173,0.638,0.334,1.229,0.477,1.738l0.134,0.463c1.279,4.535,3.21,11.383,5.083,19.455 c0.338,1.243,0.546,2.543,0.613,3.846c0,2.206-1.818,3.32-3.376,3.611L20.771,80.3c-1.733,0.355-3.508,0.535-5.276,0.535 L15.068,80.832z"/></g><g><path fill="#FFF" d="M16.439,0.886L15.542,0.5L0.5,74.053h0.951c2.278,0.018,4.261-1.554,4.763-3.776L19.238,6.25 C19.696,4.024,18.527,1.783,16.439,0.886z"/><path fill="#1D2445" d="M1.49,74.553C1.49,74.553,1.49,74.553,1.49,74.553c-0.001,0-0.042,0-0.043,0H0.5 c-0.15,0-0.292-0.067-0.387-0.184C0.017,74.253-0.02,74.1,0.01,73.953L15.053,0.4c0.03-0.147,0.125-0.273,0.258-0.343 c0.133-0.069,0.29-0.075,0.429-0.016l0.897,0.386c2.294,0.987,3.594,3.479,3.091,5.924L6.703,70.376 C6.147,72.84,4.004,74.553,1.49,74.553z M1.113,73.553h0.338H1.49c2.043,0,3.786-1.393,4.236-3.387L18.748,6.15 c0.408-1.985-0.646-4.005-2.507-4.805l-0.333-0.143L1.113,73.553z"/></g></g></g></g></g></g><g><defs><clipPath id="clip-path-id-viewbox-item-3"><rect width="140.001" height="205.002" x="0" y="0"/></clipPath></defs><g><g clip-path="url(#clip-path-id-viewbox-item-3)" transform="translate(273.0 321.0) rotate(0.0 148.5 218.0) scale(2.121413418475582 2.1268085189412784) translate(-0.0 -0.0)"><g><g><path fill="#FFF" d="M136.999,204.502c-1.096,0-2.101-0.727-2.408-1.834l-24-86.656c-0.369-1.33,0.411-2.708,1.742-3.076 c1.333-0.366,2.708,0.411,3.077,1.742l24,86.656c0.369,1.33-0.411,2.708-1.742,3.076 C137.444,204.471,137.22,204.502,136.999,204.502z"/><path fill="#1D2445" d="M136.999,205.002c-1.343,0-2.531-0.905-2.89-2.2l-24-86.656c-0.214-0.772-0.114-1.581,0.28-2.279 c0.395-0.697,1.038-1.199,1.81-1.412c1.573-0.434,3.261,0.535,3.692,2.09l24,86.656c0.214,0.772,0.114,1.581-0.28,2.279 c-0.395,0.697-1.038,1.199-1.81,1.412C137.536,204.965,137.266,205.002,136.999,205.002z M113.001,113.345 c-0.18,0-0.36,0.024-0.536,0.073c-0.514,0.142-0.942,0.477-1.205,0.941s-0.33,1.004-0.187,1.519l24,86.656 c0.287,1.036,1.387,1.693,2.462,1.394c0.514-0.142,0.942-0.477,1.206-0.941s0.33-1.004,0.187-1.519l-24-86.656 C114.689,113.948,113.897,113.345,113.001,113.345z"/></g></g><g><g><rect width="68" height="4.688" x="48.001" y="110.657" fill="#1D2445"/></g></g><g><g><path fill="#FFF" d="M24.002,204.502c-0.221,0-0.445-0.03-0.669-0.092c-1.331-0.368-2.11-1.746-1.742-3.076l23.774-85.843 L0.68,3.93C0.167,2.648,0.789,1.193,2.071,0.68c1.283-0.515,2.737,0.109,3.25,1.391l45.314,113.127l-24.226,87.47 C26.103,203.775,25.098,204.502,24.002,204.502z"/><path fill="#1D2445" d="M24.002,205.002c-0.267,0-0.537-0.037-0.802-0.109c-0.773-0.214-1.416-0.716-1.811-1.413 c-0.395-0.697-0.494-1.507-0.28-2.279l23.729-85.68L0.215,4.116c-0.298-0.744-0.288-1.56,0.027-2.296 c0.315-0.736,0.898-1.307,1.643-1.604C2.243,0.073,2.618,0,3.001,0c1.233,0,2.326,0.74,2.785,1.885l45.377,113.284l-0.045,0.163 l-24.226,87.47C26.533,204.096,25.345,205.002,24.002,205.002z M3.001,1C2.746,1,2.496,1.049,2.257,1.144 C1.761,1.343,1.372,1.722,1.162,2.214c-0.21,0.491-0.216,1.035-0.018,1.531l44.749,111.717l-0.045,0.163l-23.774,85.843 c-0.143,0.515-0.076,1.054,0.187,1.519s0.691,0.8,1.206,0.942c1.071,0.295,2.174-0.358,2.461-1.395l24.181-87.307L4.857,2.257 C4.551,1.494,3.822,1,3.001,1z"/></g></g></g></g></g><g><defs><clipPath id="clip-path-id-viewbox-item-4"><rect width="108.984" height="70" x="0" y="0"/></clipPath></defs><g><g clip-path="url(#clip-path-id-viewbox-item-4)" transform="translate(846.0 551.0) rotate(0.0 157.0 102.0) scale(2.8811568670630554 2.914285714285714) translate(-0.0 -0.0)"><path fill="#D2D3DA" d="M52.365,33.616c0,0-0.844-0.226-2.32-0.621c-0.739-0.212-1.636-0.405-2.652-0.639 c-0.511-0.112-1.044-0.25-1.619-0.359c-0.576-0.104-1.182-0.214-1.813-0.328c-1.251-0.27-2.635-0.386-4.069-0.59 c-1.452-0.084-2.959-0.298-4.528-0.268c-1.563-0.069-3.168,0.067-4.783,0.122c-1.612,0.183-3.24,0.325-4.834,0.684 c-0.799,0.152-1.596,0.305-2.366,0.577c-0.773,0.251-1.548,0.447-2.291,0.745c-0.744,0.296-1.471,0.607-2.2,0.861 c-0.727,0.262-1.421,0.606-2.129,0.856c-1.426,0.471-2.774,1.04-4.126,1.437c-0.675,0.198-1.309,0.465-1.939,0.688 c-0.637,0.212-1.248,0.433-1.857,0.612c-1.185,0.424-2.287,0.825-3.306,1.131c-0.51,0.153-0.992,0.296-1.423,0.457 c-0.447,0.141-0.858,0.27-1.229,0.387C1.374,39.821,0.422,40,0.422,40L0,39.442c0,0,0.463-0.825,1.436-2.128 c0.5-0.633,1.067-1.471,1.873-2.238c0.789-0.791,1.688-1.696,2.757-2.573c1.1-0.829,2.292-1.76,3.67-2.558 c1.387-0.784,2.864-1.617,4.541-2.147c0.835-0.266,1.665-0.584,2.56-0.743c0.885-0.19,1.793-0.329,2.696-0.487 c0.906-0.15,1.842-0.196,2.76-0.303l1.381-0.142l1.39-0.064c1.845-0.151,3.693-0.069,5.495-0.02c1.801,0.155,3.561,0.334,5.23,0.682 c0.839,0.141,1.657,0.3,2.445,0.515c0.79,0.199,1.564,0.379,2.305,0.594c1.466,0.492,2.863,0.881,4.097,1.398 c1.248,0.47,2.374,0.939,3.355,1.407c0.987,0.447,1.841,0.834,2.504,1.208c1.351,0.714,2.124,1.122,2.124,1.122L52.365,33.616z"/><path fill="#D2D3DA" d="M56.365,32.965c0,0,0.772-0.408,2.124-1.122c0.664-0.374,1.518-0.76,2.504-1.208 c0.981-0.469,2.107-0.938,3.355-1.407c1.234-0.516,2.631-0.906,4.097-1.398c0.741-0.216,1.515-0.395,2.305-0.594 c0.787-0.215,1.605-0.374,2.445-0.515c1.67-0.348,3.429-0.527,5.23-0.682c1.802-0.049,3.65-0.131,5.495,0.02l1.39,0.064l1.381,0.142 c0.918,0.107,1.854,0.153,2.76,0.303c0.904,0.158,1.811,0.297,2.696,0.487c0.895,0.159,1.726,0.477,2.56,0.743 c1.676,0.53,3.154,1.362,4.541,2.147c1.379,0.799,2.57,1.729,3.67,2.558c1.069,0.877,1.968,1.782,2.757,2.573 c0.807,0.768,1.373,1.606,1.873,2.238c0.973,1.303,1.436,2.128,1.436,2.128L108.563,40c0,0-0.953-0.179-2.458-0.633 c-0.371-0.117-0.782-0.246-1.229-0.387c-0.432-0.161-0.914-0.304-1.423-0.457c-1.019-0.306-2.121-0.706-3.306-1.131 c-0.609-0.18-1.22-0.401-1.857-0.612c-0.63-0.222-1.265-0.49-1.939-0.688c-1.351-0.397-2.7-0.966-4.126-1.437 c-0.707-0.25-1.402-0.594-2.129-0.856c-0.73-0.254-1.456-0.565-2.2-0.861c-0.743-0.298-1.518-0.494-2.291-0.745 c-0.77-0.272-1.566-0.425-2.366-0.577c-1.594-0.358-3.222-0.5-4.834-0.684c-1.615-0.055-3.22-0.19-4.783-0.122 c-1.569-0.03-3.076,0.184-4.528,0.268c-1.435,0.203-2.819,0.32-4.069,0.59c-0.632,0.114-1.237,0.224-1.813,0.328 c-0.576,0.109-1.109,0.247-1.619,0.359c-1.016,0.234-1.913,0.427-2.652,0.639c-1.476,0.395-2.32,0.621-2.32,0.621L56.365,32.965z"/><path fill="#D2D3DA" d="M53.806,42c0,0-0.416-2.625-0.917-6.563c-0.242-1.969-0.531-4.266-0.79-6.727 c-0.294-2.461-0.501-5.086-0.743-7.711c-0.12-1.313-0.293-2.625-0.479-3.917c-0.188-1.292-0.348-2.563-0.368-3.794 c-0.015-1.23,0.081-2.42,0.248-3.548c0.151-1.128,0.353-2.194,0.588-3.179c0.225-0.984,0.493-1.887,0.759-2.687 c0.257-0.8,0.551-1.497,0.796-2.071C53.402,0.656,53.806,0,53.806,0h0.7c0,0,0.405,0.656,0.905,1.805 c0.245,0.574,0.539,1.271,0.796,2.071c0.266,0.8,0.534,1.702,0.759,2.687c0.235,0.984,0.437,2.051,0.588,3.179 c0.168,1.128,0.263,2.317,0.248,3.548c-0.02,1.23-0.18,2.502-0.368,3.794c-0.186,1.292-0.359,2.604-0.479,3.917 c-0.242,2.625-0.449,5.25-0.743,7.711c-0.259,2.461-0.548,4.758-0.79,6.727C54.923,39.375,54.506,42,54.506,42H53.806z"/><path fill="#D2D3DA" d="M54.817,40.913c0,0,0.054-0.604,0.148-1.662c0.041-0.529,0.11-1.17,0.203-1.908 c0.09-0.737,0.18-1.575,0.321-2.476c0.129-0.905,0.285-1.883,0.463-2.919c0.159-1.04,0.406-2.118,0.623-3.249 c0.253-1.12,0.48-2.292,0.812-3.455c0.301-1.173,0.65-2.355,0.997-3.543c0.37-1.18,0.677-2.39,1.027-3.574 c0.324-1.193,0.718-2.347,1.217-3.407c0.524-1.048,1.125-2.015,1.8-2.869c0.657-0.864,1.329-1.645,2.023-2.315 c0.668-0.685,1.351-1.26,1.99-1.74c0.622-0.491,1.223-0.869,1.737-1.162c1.023-0.589,1.694-0.841,1.694-0.841l0.566,0.411 c0,0-0.016,0.729-0.195,1.856c-0.1,0.556-0.197,1.241-0.367,1.977c-0.17,0.735-0.37,1.549-0.618,2.41 c-0.257,0.854-0.539,1.769-0.888,2.7c-0.339,0.937-0.723,1.906-1.229,2.852c-0.491,0.956-1.13,1.879-1.762,2.842 c-0.652,0.95-1.249,1.959-1.815,2.983c-1.105,2.063-2.1,4.194-3.092,6.188c-0.936,2.015-1.835,3.905-2.549,5.555 c-1.458,3.312-2.43,5.519-2.43,5.519L54.817,40.913z"/><path fill="#D2D3DA" d="M55.39,43.326c0,0,0.044-0.586,0.121-1.611c0.019-0.51,0.126-1.141,0.242-1.872 c0.1-0.741,0.28-1.552,0.499-2.439c0.199-0.895,0.544-1.83,0.877-2.844c0.396-0.988,0.832-2.038,1.413-3.07 c0.139-0.263,0.28-0.527,0.421-0.794c0.162-0.255,0.325-0.512,0.489-0.77c0.339-0.51,0.657-1.057,1.067-1.534 c0.399-0.491,0.801-0.987,1.205-1.484l1.34-1.391c0.433-0.492,0.953-0.865,1.411-1.331c0.467-0.457,0.949-0.89,1.454-1.282 c0.502-0.395,0.985-0.836,1.512-1.174c0.521-0.344,1.059-0.649,1.596-0.931c1.08-0.556,2.212-0.845,3.277-1.113 c1.079-0.193,2.107-0.326,3.059-0.372c0.956-0.013,1.835,0.039,2.61,0.117c0.772,0.065,1.459,0.266,2.014,0.399 c1.114,0.295,1.747,0.586,1.747,0.586l0.113,0.691c0,0-0.504,0.509-1.381,1.187c-0.436,0.344-0.973,0.713-1.567,1.134 c-0.593,0.427-1.257,0.873-1.985,1.29c-0.708,0.465-1.464,0.936-2.28,1.354c-0.764,0.515-1.629,0.903-2.49,1.322 c-0.435,0.202-0.886,0.388-1.366,0.542c-0.464,0.18-0.934,0.362-1.408,0.546l-0.725,0.278l-0.689,0.342 c-0.458,0.234-0.939,0.461-1.36,0.755l-1.288,0.876c-0.402,0.329-0.803,0.656-1.2,0.981c-0.42,0.31-0.74,0.709-1.131,1.043 l-0.56,0.523l-0.506,0.561c-0.706,0.723-1.268,1.524-1.858,2.266c-0.522,0.78-1.065,1.514-1.461,2.253 c-0.413,0.732-0.823,1.401-1.105,2.022c-0.302,0.617-0.588,1.153-0.783,1.636c-0.41,0.943-0.644,1.481-0.644,1.481L55.39,43.326z"/><path fill="#D2D3DA" d="M52.817,41.087c0,0-0.972-2.208-2.43-5.519c-0.714-1.649-1.613-3.54-2.549-5.555 c-0.992-1.994-1.987-4.124-3.092-6.188c-0.566-1.024-1.162-2.033-1.815-2.983C42.299,19.88,41.66,18.956,41.17,18 c-0.506-0.946-0.891-1.914-1.229-2.852c-0.349-0.932-0.631-1.846-0.888-2.7c-0.247-0.861-0.448-1.675-0.618-2.41 c-0.169-0.736-0.266-1.42-0.367-1.977c-0.179-1.127-0.195-1.856-0.195-1.856l0.566-0.411c0,0,0.671,0.252,1.694,0.841 c0.514,0.293,1.115,0.672,1.737,1.162c0.639,0.48,1.322,1.055,1.99,1.74c0.694,0.67,1.366,1.452,2.023,2.315 c0.675,0.854,1.276,1.821,1.8,2.869c0.499,1.06,0.893,2.214,1.217,3.407c0.35,1.184,0.656,2.394,1.027,3.574 c0.347,1.187,0.696,2.37,0.997,3.543c0.333,1.163,0.559,2.336,0.812,3.455c0.217,1.13,0.464,2.208,0.623,3.249 c0.177,1.036,0.333,2.014,0.462,2.919c0.141,0.901,0.231,1.738,0.321,2.476c0.093,0.738,0.163,1.378,0.203,1.908 c0.094,1.057,0.148,1.662,0.148,1.662L52.817,41.087z"/><path fill="#D2D3DA" d="M52.3,43.565c0,0-0.354-0.462-0.973-1.272c-0.629-0.821-1.491-1.925-2.606-3.222 c-0.539-0.658-1.15-1.344-1.813-2.048c-0.641-0.72-1.37-1.427-2.092-2.173c-0.766-0.707-1.534-1.447-2.348-2.151 c-0.789-0.73-1.659-1.388-2.501-2.06c-0.882-0.627-1.779-1.224-2.722-1.711c-0.913-0.527-1.856-0.951-2.659-1.511 c-0.841-0.504-1.566-1.127-2.287-1.693c-0.706-0.59-1.379-1.162-2.005-1.715c-0.615-0.574-1.199-1.093-1.71-1.6 c-0.51-0.508-0.953-0.992-1.331-1.379c-0.746-0.801-1.16-1.38-1.16-1.38l0.22-0.665c0,0,0.666-0.19,1.811-0.309 c0.286-0.024,0.603-0.05,0.948-0.078c0.338-0.001,0.704,0.003,1.092,0.025c0.777,0.041,1.66,0.106,2.576,0.325 c0.467,0.089,0.939,0.22,1.438,0.342c0.479,0.161,0.981,0.323,1.48,0.526c1.027,0.354,2.018,0.916,3.002,1.552 c0.941,0.7,1.859,1.504,2.676,2.435c0.852,0.891,1.642,1.854,2.47,2.759c0.787,0.945,1.586,1.869,2.283,2.844 c0.743,0.937,1.344,1.953,1.958,2.898c0.556,0.986,1.144,1.896,1.583,2.828c0.47,0.913,0.889,1.782,1.242,2.599 c0.376,0.801,0.663,1.572,0.924,2.245c0.27,0.671,0.481,1.254,0.628,1.741c0.316,0.969,0.497,1.523,0.497,1.523L52.3,43.565z"/><path fill="#F3F4F6" d="M54.492,70L54.492,70c15.969,0,28.914-12.945,28.914-28.914V35.22c0-2.331-1.89-4.22-4.22-4.22H29.799 c-2.331,0-4.22,1.89-4.22,4.22v5.866C25.578,57.055,38.524,70,54.492,70z"/><path fill="#D2D3DA" d="M57.009,30.292c0,0,0.501-0.282,1.379-0.776c0.426-0.261,0.99-0.525,1.654-0.822 c0.658-0.319,1.418-0.63,2.268-0.917c0.838-0.336,1.807-0.529,2.829-0.811c1.046-0.172,2.164-0.374,3.362-0.378 c0.3-0.011,0.603-0.021,0.908-0.032c0.307,0.021,0.615,0.042,0.926,0.064c0.624,0.052,1.266,0.082,1.891,0.247 c0.625,0.151,1.284,0.251,1.905,0.465L76.006,28c1.187,0.569,2.43,1.11,3.531,1.814l0.85,0.506c0.273,0.175,0.512,0.381,0.762,0.577 c0.501,0.389,0.976,0.805,1.417,1.234c0.767,0.92,1.51,1.853,1.975,2.837c0.475,0.977,0.942,1.897,1.181,2.81 c0.269,0.902,0.454,1.748,0.586,2.501c0.108,0.761,0.115,1.455,0.125,2.018c0.006,1.132-0.109,1.809-0.109,1.809l-0.636,0.293 c0,0-0.621-0.339-1.501-0.982c-0.438-0.322-0.952-0.715-1.483-1.179c-0.567-0.439-1.171-0.937-1.762-1.503 c-0.297-0.285-0.602-0.57-0.936-0.845c-0.309-0.293-0.642-0.581-0.944-0.902c-0.625-0.633-1.313-1.191-1.872-1.931 c-0.307-0.325-0.609-0.661-0.886-1.042l-0.424-0.57l-0.457-0.528c-0.316-0.34-0.601-0.768-0.966-1.056 c-0.347-0.32-0.724-0.613-1.092-0.927l-1.21-0.75c-0.407-0.254-0.855-0.405-1.283-0.62c-0.424-0.233-0.891-0.323-1.337-0.496 l-0.677-0.235c-0.233-0.051-0.465-0.101-0.695-0.151c-0.919-0.254-1.858-0.292-2.76-0.419c-0.906-0.005-1.786-0.092-2.6-0.006 c-0.412,0.021-0.806,0.042-1.181,0.061c-0.374,0.029-0.723,0.081-1.058,0.118c-0.666,0.078-1.261,0.144-1.761,0.243 c-0.992,0.171-1.559,0.269-1.559,0.269L57.009,30.292z"/><path fill="#D2D3DA" d="M50.681,30.951c0,0-0.567-0.098-1.559-0.269c-0.5-0.099-1.095-0.165-1.761-0.243 c-0.335-0.036-0.684-0.089-1.058-0.118c-0.375-0.019-0.77-0.04-1.181-0.061c-0.814-0.085-1.694,0.002-2.6,0.006 c-0.902,0.126-1.84,0.165-2.76,0.419c-0.23,0.05-0.462,0.1-0.695,0.151l-0.677,0.235c-0.446,0.173-0.913,0.263-1.337,0.496 c-0.428,0.215-0.876,0.367-1.283,0.62l-1.21,0.75c-0.369,0.314-0.745,0.607-1.092,0.927c-0.364,0.288-0.649,0.716-0.966,1.056 l-0.457,0.528l-0.424,0.57c-0.276,0.38-0.579,0.716-0.886,1.042c-0.559,0.74-1.248,1.298-1.872,1.931 c-0.302,0.32-0.635,0.608-0.944,0.902c-0.335,0.274-0.639,0.559-0.936,0.845c-0.591,0.565-1.195,1.064-1.762,1.503 c-0.531,0.464-1.046,0.857-1.483,1.179c-0.88,0.643-1.501,0.982-1.501,0.982l-0.636-0.293c0,0-0.115-0.676-0.109-1.809 c0.01-0.563,0.017-1.257,0.125-2.018c0.132-0.753,0.317-1.6,0.586-2.501c0.239-0.914,0.706-1.834,1.181-2.81 c0.465-0.984,1.208-1.917,1.975-2.837c0.441-0.429,0.916-0.845,1.417-1.234c0.25-0.196,0.489-0.402,0.762-0.577l0.85-0.506 c1.101-0.704,2.344-1.245,3.531-1.814l1.876-0.671c0.621-0.214,1.28-0.314,1.905-0.465c0.625-0.165,1.267-0.195,1.891-0.247 c0.311-0.021,0.619-0.043,0.926-0.064c0.305,0.011,0.608,0.022,0.908,0.032c1.199,0.004,2.317,0.206,3.362,0.378 c1.022,0.282,1.991,0.475,2.829,0.811c0.85,0.288,1.61,0.598,2.268,0.917c0.664,0.298,1.228,0.561,1.654,0.822 c0.877,0.494,1.379,0.776,1.379,0.776L50.681,30.951z"/></g></g></g><g><defs><clipPath id="clip-path-id-viewbox-item-5"><rect width="142.821" height="261.557" x="0" y="0"/></clipPath></defs><g><g clip-path="url(#clip-path-id-viewbox-item-5)" transform="translate(359.0 188.0) rotate(0.0 156.5 288.0) scale(2.1915544632792097 2.202196844282508) translate(-0.0 -0.0)"><g><path fill="#ED956E" d="M137.919,255.22l-12.803-1.506l-12.905-14.625c-1.257-1.425-1.948-3.26-1.944-5.16l0.218-85.41 l-0.099-0.038c-9.363-3.576-19.645,2.342-21.266,12.232c-0.684,4.176-1.348,8.361-2.153,12.516 c-0.789,4.075-1.674,8.185-1.614,12.358c0.086,5.959,1.551,11.841,2.449,17.709c0.977,6.381,1.954,12.761,2.932,19.142 c0.002,0.011,0.003,0.022,0.005,0.033l2.448,15.984l-3.101,6.918c-1.646,3.672,1.041,7.821,5.065,7.821h6.531 c0,0,17.101,8.28,18.747,8.332c2.262,0.072,22.392,0,22.392,0v-0.792C142.821,257.918,140.714,255.549,137.919,255.22z"/><path fill="#002652" d="M40.556,59.042h11.5V8.125h0c-6.351,0-11.5,5.149-11.5,11.5V59.042z"/><path fill="#ED956E" d="M67.169,39.095h16.667V13.21H56.723v15.439C56.723,34.418,61.4,39.095,67.169,39.095z"/><polygon fill="#ED956E" points="65.025 70.156 52.908 55.987 61.816 33.37 70.531 36.829 77.446 39.643"/><path fill="#ED956E" d="M87.803,14.086v6.592c0,0.239-0.046,0.477-0.135,0.699l-0.874,2.173c-0.294,0.73-0.1,1.565,0.485,2.091 l0.524,0.471v12.75c0,2.074-1.686,3.754-3.761,3.745l-23.658-0.096l0.097-8.058L87.803,14.086z"/><path fill="#ED956E" d="M84.513,33.71l5.178-2.688c1.171-0.608,1.363-2.203,0.37-3.072L84.513,23.1V33.71z"/><path fill="#002652" d="M76.294,42.388l-1.875-0.029c-1.228-0.019-2.183,1.064-2.011,2.28l0.776,5.478" opacity=".07"/><path fill="#002652" d="M87.194,21.134H83.88c-0.298,0-0.584,0.118-0.795,0.329l-1.068,1.068 c-0.708,0.708-0.207,1.918,0.795,1.918h3.853" opacity=".07"/><path fill="#002652" d="M84.466,33.431l0.427,0.835c0.234,0.457,0.646,0.798,1.139,0.943l1.694,0.498v-2.321 L84.466,33.431z" opacity=".07"/><path fill="#002652" d="M76.203,0.387h-0.56c-2.369,0-4.29,1.921-4.29,4.29v5.114v1.434v8.35h19.865v-4.173 C91.218,7.109,84.496,0.387,76.203,0.387z"/><path fill="#002652" d="M73.644,19.362H51.321v-4.974C51.321,6.442,57.763,0,65.709,0h4.7c1.786,0,3.235,1.448,3.235,3.235V19.362z"/><path fill="#BEDBFF" d="M43.628,130.055l-39.397,7.18l0,0c-0.978-8.043,1.214-16.149,6.111-22.604L22.631,98.44 c3.756-4.948,6.466-10.61,7.964-16.64l10.783-25.195c2.044-4.776,6.369-8.191,11.488-9.072l0,0 c7.668-1.319,14.953,3.827,16.272,11.495l3.699,21.501c0.888,5.161-1.259,10.374-5.523,13.413l-10.616,7.566L43.628,130.055z"/><path fill="#013B84" d="M89.794,136.805l-27.174-4.378l-43.118-6.699l-6.348-0.543c-7.073-0.605-13.149,4.973-13.149,12.072v4.521 c0,14.414,11.685,26.099,26.099,26.099h56.587L89.794,136.805z"/><path fill="#013B84" d="M9.054,116.468l23.614,19.794L0,137.518l0,0c0.032-7.392,2.672-14.722,7.921-19.927L9.054,116.468z"/><path fill="#BEDBFF" d="M92.558,107.92L60.761,71.571c-3.378-3.862-3.021-9.724,0.802-13.146l0,0 c4.113-3.683,10.504-3.027,13.783,1.414l28.382,38.432l-5.536,9.155C96.966,109.455,94.119,109.705,92.558,107.92z"/><g><path fill="#ED956E" d="M110.167,96.725l0.159-41.683c0.002-0.539-0.433-0.978-0.972-0.98l-9.75-0.037l-6.023,32.515 c-0.235,1.708-0.356,3.43-0.362,5.154l-0.026,6.822c-0.016,4.173,3.354,7.569,7.527,7.585h0 C105.918,106.121,110.148,101.923,110.167,96.725z"/><path fill="#ED956E" d="M90.45,52.749l1.598,3.033c0.854,1.622,2.253,2.891,3.949,3.586l3.402,1.392l-6.091-11.628l-2.062,1.082 C90.327,50.696,89.971,51.83,90.45,52.749z"/><ellipse cx="99.736" cy="57.046" fill="#ED956E" rx="3.435" ry="3.9" transform="matrix(-0.8908 0.4545 -0.4545 -0.8908 214.5022 62.5335)"/><path fill="#ED956E" d="M100.078,57.309l-6.532-12.802c-0.439-0.861-1.494-1.203-2.355-0.764l-0.409,0.209 c-0.959,0.489-1.341,1.664-0.851,2.624L96.372,59.2L100.078,57.309z"/><path fill="#ED956E" d="M110.002,54.297l-4.03-7.899c-0.684-1.341-2.065-2.185-3.572-2.18l-9.043,0.027l7.508,14.715 L110.002,54.297L110.002,54.297z"/></g><path fill="#013B84" d="M48.046,167.876h44.09l31.939-17.358l-12.943-8.717c-2.675-1.802-5.733-2.958-8.931-3.376l-53.46-7.001 L48.046,167.876z"/><path fill="#016EEA" d="M93.35,238.092l-3.264,7.281c-1.646,3.672,1.041,7.821,5.065,7.821h6.531c0,0,17.101,8.269,18.747,8.332 c1.891,0.072,22.392,0,22.392,0v-0.792c0-2.815-2.107-5.184-4.902-5.512l-12.803-1.506l-22.961-5.663L93.35,238.092z"/><polygon fill="#016EEA" points="102.942 250.834 90.568 250.834 92.087 261.296 102.942 261.296"/><path fill="#002652" d="M68.289,36.905l-5.152,0c-4.33,0-7.841-3.511-7.841-7.841v-6.778c0-2.206-1.788-3.995-3.995-3.995l-0.995,0 v-4.124h27.612L68.289,36.905z"/><line x1="53.306" x2="53.306" y1="6.792" y2="19.292" fill="none" stroke="#2888FF" stroke-linecap="round" stroke-miterlimit="10" stroke-width="3"/><path fill="#ED956E" d="M71.976,30.792h3.33l-0.317-6.972c-0.102-2.253-1.959-4.028-4.215-4.028h-0.242 c-2.318,0-3.949,2.279-3.201,4.474l1.444,4.235C69.242,29.871,70.529,30.792,71.976,30.792z"/><path fill="#BEDBFF" d="M94.997,75.745l-3.041,14.961c-0.258,1.708-0.391,3.43-0.398,5.154l-0.029,8.822 c-0.017,4.173,3.681,5.569,8.26,5.585c5.704,0.02,10.346-4.178,10.368-9.376l0.105-25.146H94.997z"/><rect width="17.107" height="10.942" x="97.183" y="75.745" fill="#BEDBFF"/><polygon fill="#BEDBFF" points="77.52 59.771 48.51 53.349 53.802 42.25 73.105 45.149"/></g></g></g></g><g><defs><clipPath id="clip-path-id-viewbox-item-6"><rect width="32.913" height="89.665" x="0" y="0"/></clipPath></defs><g><g clip-path="url(#clip-path-id-viewbox-item-6)" transform="translate(856.0 233.0) rotate(0.0 35.5 99.0) scale(2.1572023212712303 2.2082194836335245) translate(-0.0 -0.0)"><g><g><rect width="6.991" height="11.186" x="12.961" y="4.495" fill="#1D2445"/><path fill="#1D2445" d="M19.952,16.181h-6.991c-0.276,0-0.5-0.224-0.5-0.5V4.495c0-0.276,0.224-0.5,0.5-0.5h6.991 c0.276,0,0.5,0.224,0.5,0.5v11.186C20.452,15.957,20.228,16.181,19.952,16.181z M13.461,15.181h5.991V4.995h-5.991V15.181z"/></g><g><path fill="#1D2445" d="M22.119,33.605v-23.51c0-1.107-0.898-2.005-2.005-2.005H12.8c-1.107,0-2.005,0.898-2.005,2.005v23.51 c0,2.262-0.574,4.487-1.668,6.467L1.751,53.415C0.93,54.9,0.5,56.568,0.5,58.265v27.559c0,1.846,1.496,3.342,3.342,3.342h25.229 c1.846,0,3.342-1.496,3.342-3.342V58.265c0-1.696-0.43-3.365-1.251-4.85l-7.375-13.343C22.693,38.092,22.119,35.867,22.119,33.605 z"/><path fill="#1D2445" d="M29.071,89.666H3.842C1.724,89.666,0,87.942,0,85.823V58.265c0-1.777,0.454-3.538,1.313-5.092L8.689,39.83 c1.051-1.901,1.606-4.053,1.606-6.225v-23.51c0-1.381,1.124-2.505,2.505-2.505h7.314c1.381,0,2.505,1.124,2.505,2.505v23.51 c0,2.171,0.555,4.324,1.606,6.225l7.375,13.343c0.859,1.554,1.313,3.315,1.313,5.092v27.559 C32.913,87.942,31.189,89.666,29.071,89.666z M12.799,8.59c-0.83,0-1.505,0.675-1.505,1.505v23.51c0,2.34-0.599,4.66-1.731,6.709 L2.189,53.657C1.411,55.063,1,56.657,1,58.265v27.559c0,1.567,1.275,2.842,2.842,2.842h25.229c1.567,0,2.842-1.275,2.842-2.842 V58.265c0-1.608-0.411-3.202-1.188-4.608l-7.375-13.343c-1.132-2.049-1.731-4.369-1.731-6.709v-23.51 c0-0.83-0.675-1.505-1.505-1.505H12.799z"/></g><g><g><path fill="#FFF" d="M16.592,51.991c-3.094,0-6.222,0.359-9.371,1.078c-1.117,0.255-1.797,1.393-1.492,2.497L6.8,59.434 c0.286,1.032,1.333,1.65,2.378,1.415c4.985-1.122,9.753-1.134,14.475-0.036c1.039,0.242,2.087-0.356,2.389-1.38l1.133-3.85 c0.324-1.103-0.342-2.257-1.46-2.523C22.718,52.348,19.672,51.991,16.592,51.991z"/><path fill="#1D2445" d="M8.732,61.398c-1.123,0-2.115-0.753-2.414-1.831L5.248,55.7c-0.185-0.666-0.09-1.361,0.265-1.956 c0.355-0.595,0.923-1.008,1.598-1.162c6.326-1.445,12.665-1.448,18.72-0.009c0.674,0.16,1.237,0.58,1.586,1.18 c0.345,0.594,0.432,1.312,0.238,1.97l-1.133,3.85c-0.315,1.072-1.281,1.792-2.404,1.792c0,0,0,0,0,0 c-0.193,0-0.387-0.022-0.577-0.066c-4.627-1.076-9.364-1.064-14.252,0.036C9.105,61.378,8.918,61.398,8.732,61.398z M16.592,52.491c-3.047,0-6.163,0.359-9.26,1.066c-0.406,0.093-0.748,0.341-0.962,0.7c-0.213,0.358-0.27,0.776-0.159,1.176 l1.07,3.867c0.209,0.754,1.012,1.236,1.787,1.061c5.036-1.133,9.925-1.144,14.698-0.035c0.783,0.183,1.574-0.28,1.795-1.034 l1.133-3.85c0.118-0.402,0.067-0.823-0.144-1.186c-0.21-0.361-0.548-0.614-0.953-0.71C22.654,52.846,19.624,52.491,16.592,52.491 z"/></g></g><g><path fill="#FFF" d="M20.513,7.291H12.4c-0.735,0-1.337-0.602-1.337-1.337V1.837c0-0.735,0.602-1.337,1.337-1.337h8.113 c0.735,0,1.337,0.602,1.337,1.337v4.118C21.85,6.69,21.248,7.291,20.513,7.291z"/><path fill="#1D2445" d="M20.513,7.791H12.4c-1.013,0-1.837-0.824-1.837-1.837V1.837C10.563,0.824,11.387,0,12.4,0h8.113 c1.013,0,1.837,0.824,1.837,1.837v4.118C22.35,6.968,21.526,7.791,20.513,7.791z M12.4,1c-0.461,0-0.837,0.375-0.837,0.837v4.118 c0,0.461,0.375,0.837,0.837,0.837h8.113c0.461,0,0.837-0.375,0.837-0.837V1.837C21.35,1.375,20.974,1,20.513,1H12.4z"/></g></g></g></g></g><g><defs><clipPath id="clip-path-id-viewbox-item-7"><rect width="172.982" height="124.612" x="0" y="0"/></clipPath></defs><g><g clip-path="url(#clip-path-id-viewbox-item-7)" transform="translate(524.0 427.0) rotate(0.0 232.5 167.5) scale(2.688140962643512 2.6883446217057747) translate(-0.0 -0.0)"><g><g><g><polygon fill="#FFF" points="157.423 65.262 157.434 124.112 147.771 124.112 147.76 65.262 147.771 5.874 157.434 5.874"/><path fill="#1D2445" d="M157.454,124.612c-0.007,0-0.013,0-0.02,0h-9.663c-0.276,0-0.5-0.224-0.5-0.5l-0.011-58.85l0.011-59.388 c0-0.276,0.224-0.5,0.5-0.5h9.663c0.133,0,0.26,0.053,0.354,0.146s0.146,0.221,0.146,0.354l-0.011,59.388l0.011,58.709 c0.013,0.044,0.02,0.092,0.02,0.141C157.954,124.389,157.73,124.612,157.454,124.612z M148.271,123.612h8.663l-0.011-58.35 l0.011-58.888h-8.663l-0.011,58.888L148.271,123.612z"/></g><g><polygon fill="#FFF" points="111.203 64.725 111.214 124.112 101.55 124.112 101.54 64.725 101.55 5.874 111.214 5.874"/><path fill="#1D2445" d="M111.234,124.612c-0.007,0-0.013,0-0.02,0h-9.663c-0.276,0-0.5-0.224-0.5-0.5l-0.011-59.388l0.011-58.85 c0-0.276,0.224-0.5,0.5-0.5h9.663c0.133,0,0.26,0.053,0.354,0.146s0.146,0.221,0.146,0.354l-0.011,58.85l0.011,59.247 c0.013,0.044,0.02,0.092,0.02,0.141C111.734,124.389,111.51,124.612,111.234,124.612z M102.051,123.612h8.663l-0.011-58.888 l0.011-58.35h-8.663l-0.011,58.35L102.051,123.612z"/></g><g><rect width="171.982" height="11.824" x=".5" y=".5" fill="#FFF"/><path fill="#1D2445" d="M172.482,12.824H0.5c-0.276,0-0.5-0.224-0.5-0.5V0.5C0,0.224,0.224,0,0.5,0h171.982 c0.276,0,0.5,0.224,0.5,0.5v11.824C172.982,12.6,172.759,12.824,172.482,12.824z M1,11.824h170.982V1H1V11.824z"/></g><g><rect width="113.938" height="10.749" x="58.544" y="113.363" fill="#FFF"/><path fill="#1D2445" d="M172.482,124.612H58.544c-0.276,0-0.5-0.224-0.5-0.5v-10.749c0-0.276,0.224-0.5,0.5-0.5h113.938 c0.276,0,0.5,0.224,0.5,0.5v10.749C172.982,124.389,172.759,124.612,172.482,124.612z M59.044,123.612h112.938v-9.749H59.044 V123.612z"/></g></g></g></g></g></g><g><defs><clipPath id="clip-path-id-viewbox-item-8"><rect width="71" height="71" x="0" y="0"/></clipPath></defs><g><g clip-path="url(#clip-path-id-viewbox-item-8)" transform="translate(537.0 61.0) rotate(0.0 57.5 57.5) scale(1.619718309859155 1.619718309859155) translate(-0.0 -0.0)"><g><g><circle cx="35.5" cy="35.5" r="32" fill="#FFF"/></g><g><path fill="#1D2445" d="M35.5,3.5v32h32C67.5,17.8,53.2,3.5,35.5,3.5z"/><path fill="#1D2445" d="M67.5,36h-32c-0.276,0-0.5-0.224-0.5-0.5v-32C35,3.224,35.224,3,35.5,3C53.421,3,68,17.579,68,35.5 C68,35.776,67.776,36,67.5,36z M36,35h30.996C66.731,18.025,52.975,4.269,36,4.004V35z"/></g><g><g><path fill="#FFF" d="M35.5,70.5c-19.299,0-35-15.701-35-35s15.701-35,35-35s35,15.701,35,35S54.799,70.5,35.5,70.5z M35.5,6.5 c-15.99,0-29,13.01-29,29s13.01,29,29,29s29-13.01,29-29S51.49,6.5,35.5,6.5z"/><path fill="#1D2445" d="M35.5,71C15.925,71,0,55.075,0,35.5S15.925,0,35.5,0S71,15.925,71,35.5S55.075,71,35.5,71z M35.5,1 C16.477,1,1,16.477,1,35.5S16.477,70,35.5,70S70,54.523,70,35.5S54.523,1,35.5,1z M35.5,65C19.233,65,6,51.767,6,35.5 S19.233,6,35.5,6S65,19.233,65,35.5S51.767,65,35.5,65z M35.5,7C19.785,7,7,19.785,7,35.5S19.785,64,35.5,64S64,51.215,64,35.5 S51.215,7,35.5,7z"/></g></g><g><g><path fill="#FFF" d="M52.5,37.5h-17c-1.104,0-2-0.896-2-2v-22c0-1.104,0.896-2,2-2s2,0.896,2,2v20h15c1.104,0,2,0.896,2,2 S53.604,37.5,52.5,37.5z"/><path fill="#1D2445" d="M52.5,38h-17c-1.379,0-2.5-1.121-2.5-2.5v-22c0-1.379,1.121-2.5,2.5-2.5s2.5,1.121,2.5,2.5V33h14.5 c1.379,0,2.5,1.121,2.5,2.5S53.879,38,52.5,38z M35.5,12c-0.827,0-1.5,0.673-1.5,1.5v22c0,0.827,0.673,1.5,1.5,1.5h17 c0.827,0,1.5-0.673,1.5-1.5S53.327,34,52.5,34h-15c-0.276,0-0.5-0.224-0.5-0.5v-20C37,12.673,36.327,12,35.5,12z"/></g></g></g></g></g></g><g><defs><clipPath id="clip-path-id-viewbox-item-9"><rect width="25.006" height="76.874" x="0" y="0"/></clipPath></defs><g><g clip-path="url(#clip-path-id-viewbox-item-9)" transform="translate(834.0 287.0) rotate(0.0 23.0 71.0) scale(1.83955850595857 1.8471784998829255) translate(-0.0 -0.0)"><g><path fill="#FFF" d="M13.72,66.829V41.998c0-0.454,0.212-0.885,0.584-1.145c3.953-2.761,6.922-14.417,6.922-28.384 c0-4.269-0.28-8.319-0.778-11.969H4.557C4.059,4.15,3.779,8.2,3.779,12.469c0,13.967,2.969,25.623,6.922,28.384 c0.372,0.26,0.584,0.691,0.584,1.145v24.831c0,3.041-1.939,5.743-4.819,6.716l-5.644,1.908c-0.507,0.171-0.384,0.92,0.151,0.92 h11.53h11.53c0.535,0,0.658-0.749,0.151-0.92l-5.644-1.908C15.659,72.572,13.72,69.87,13.72,66.829z"/><path fill="#1D2445" d="M24.033,76.874H0.973c-0.486,0-0.881-0.335-0.96-0.815c-0.079-0.48,0.188-0.924,0.648-1.079l5.645-1.908 c2.679-0.906,4.479-3.415,4.479-6.243V41.998c0-0.298-0.139-0.573-0.371-0.735c-4.202-2.934-7.136-14.775-7.136-28.794 c0-4.182,0.263-8.232,0.782-12.037C4.096,0.185,4.307,0,4.557,0h15.892c0.25,0,0.461,0.185,0.496,0.432 c0.519,3.805,0.782,7.855,0.782,12.037c0,14.02-2.935,25.86-7.136,28.794c-0.231,0.162-0.37,0.437-0.37,0.735v24.831 c0,2.828,1.8,5.337,4.479,6.243l5.645,1.908c0.46,0.156,0.727,0.599,0.648,1.079C24.913,76.539,24.519,76.874,24.033,76.874z M12.503,75.874h11.53v0.5l0.005-0.5l-5.659-1.854c-3.086-1.043-5.159-3.933-5.159-7.19V41.998c0-0.624,0.298-1.205,0.797-1.554 c3.888-2.714,6.709-14.479,6.709-27.974c0-3.979-0.241-7.835-0.715-11.469H4.995C4.52,4.635,4.279,8.49,4.279,12.469 c0,13.495,2.821,25.259,6.708,27.974c0.5,0.349,0.798,0.93,0.798,1.554v24.831c0,3.257-2.073,6.147-5.159,7.19l-5.645,1.908 L12.503,75.874z"/></g></g></g></g><g><defs><clipPath id="clip-path-id-viewbox-item-10"><rect width="22.589" height="35.011" x="0" y="0"/></clipPath></defs><g><g clip-path="url(#clip-path-id-viewbox-item-10)" transform="translate(545.0 180.0) rotate(0.0 -24.5 39.0) scale(-2.1691973969631237 2.2278712404672816) translate(-0.0 -0.0)"><g><g><path fill="#1D2445" d="M14.513,26.909c-0.552,0-1-0.448-1-1V9.328c0-3.765-3.063-6.828-6.828-6.828 c-1.669,0-3.275,0.607-4.522,1.711C1.981,4.373,1.745,4.463,1.5,4.463c-0.286,0-0.56-0.123-0.75-0.338 c-0.177-0.2-0.265-0.457-0.249-0.724c0.016-0.267,0.135-0.511,0.336-0.688C2.45,1.286,4.527,0.5,6.685,0.5 c4.868,0,8.828,3.96,8.828,8.828v16.581C15.513,26.461,15.065,26.909,14.513,26.909z"/><path fill="#FFF" d="M6.685,1c4.592,0,8.328,3.736,8.328,8.328v16.581c0,0.276-0.224,0.5-0.5,0.5c-0.276,0-0.5-0.224-0.5-0.5 V9.328C14.013,5.287,10.726,2,6.685,2C4.894,2,3.17,2.652,1.831,3.837C1.736,3.922,1.618,3.963,1.5,3.963 c-0.139,0-0.276-0.057-0.375-0.169C0.943,3.587,0.962,3.271,1.169,3.089C2.691,1.741,4.65,1,6.685,1 M6.685,0 C4.405,0,2.21,0.831,0.506,2.34C0.206,2.604,0.027,2.971,0.003,3.371C-0.022,3.77,0.111,4.155,0.375,4.455 C0.661,4.779,1.071,4.963,1.5,4.963c0.367,0,0.721-0.135,0.996-0.379C3.65,3.563,5.138,3,6.685,3c3.489,0,6.328,2.839,6.328,6.328 v16.581c0,0.827,0.673,1.5,1.5,1.5s1.5-0.673,1.5-1.5V9.328C16.013,4.185,11.829,0,6.685,0L6.685,0z"/></g></g><circle cx="14.674" cy="27.096" r="7.415" fill="#FFF" stroke="#1D2445" stroke-linecap="round" stroke-linejoin="round" stroke-miterlimit="10"/><circle cx="14.674" cy="27.096" r="4.89" fill="#FFF" stroke="#1D2445" stroke-linecap="round" stroke-linejoin="round" stroke-miterlimit="10"/></g></g></g><g><defs><clipPath id="clip-path-id-viewbox-item-11"><rect width="162" height="184.878" x="0" y="0"/></clipPath></defs><g><g clip-path="url(#clip-path-id-viewbox-item-11)" transform="translate(38.0 427.0) rotate(0.0 142.0 161.0) scale(1.7530864197530864 1.741689113902141) translate(-0.0 -0.0)"><g><g><path fill="#C6C8D0" d="M80.54,85.681c0,0-4.369-2.881-5.144,2.231c-0.775,5.111-2.301,12.417-7.408,10.272 c-5.107-2.145-5.106-5.665-5.106-5.665s-4.181,7.201-11.979,5.808c-7.798-1.394-9.472-5.512-7.503-7.473s7.064,1.643,11.494-2.77 c4.43-4.413,4.442-5.871-0.689-5.099s-16.872,3.787-19.751-2.023s-2.855-8.728,4.467-8.789c7.322-0.061,19.013,2.759,18.312-0.882 c-0.702-3.641-10.202-5.749-14.595-5.713c-4.393,0.037-12.429-2.084-13.119-7.183s-2.056-16.757,6.694-12.454 s20.416,10.04,21.905,7.11s-7.975-9.414-13.082-11.56c-5.107-2.145-13.131-5.725-11.617-11.572 c1.513-5.847,3.741-9.512,6.645-6.619S50.93,37.066,54.609,34.847c3.679-2.219-0.677-6.558-5.034-10.897 s-7.987-7.956-7.187-15.984c0.8-8.029,7.396-8.813,11.777-7.391s7.926,15.249,8.627,18.89s5.083,5.063,4.393-0.037 s-2.068-15.298,0.886-18.24c2.953-2.942,9.246,3.326,10.444,5.99s2.589,11.404-4.056,18.023c-6.645,6.619,1.403,7.281,3.63,3.616 c2.227-3.665,2.329-15.821,5.269-17.061c2.939-1.24,8.034,2.364,8.686,11.839s-3.79,15.347-8.958,20.495 c-5.168,5.148,0.64,10.934,4.332,7.257s8.122-8.09,8.909-14.66s7.371-5.896,8.787-0.073s2.818,13.104-3.076,17.529 c-5.895,4.425-13.266,10.321-13.29,13.238s2.904,2.893,7.334-1.52c4.43-4.413,7.42-11.731,12.527-9.585 c5.107,2.145,6.486,12.344-0.135,16.045s-16.146,4.51-16.908,8.163c-0.763,3.653,5.07,6.521,3.581,9.451 c-1.489,2.93-6.608,2.243-8.787,0.073C84.183,87.839,80.54,85.681,80.54,85.681z"/><path fill="#DDDEE3" d="M48.205,77.558c3.313,4.133,6.382,8.378,9.375,12.706c2.978,4.33,5.869,8.721,8.613,13.205 c2.746,4.482,5.419,9.012,7.926,13.635c2.551,4.6,4.911,9.305,7.224,14.033l-2.817,1.32c-2.204-4.715-4.458-9.413-6.904-14.014 c-2.402-4.624-4.972-9.161-7.616-13.653c-2.642-4.495-5.433-8.902-8.311-13.249c-2.885-4.335-5.88-8.633-9.045-12.726 L48.205,77.558z"/><path fill="#C6C8D0" d="M76.003,77.684c2.382,4.127,4.431,8.354,6.326,12.689c1.868,4.337,3.556,8.762,4.918,13.308 c1.331,4.553,2.421,9.197,3.015,13.955c0.527,4.763,0.591,9.62-0.15,14.463l-3.3-0.602c0.78-4.416,0.844-8.981,0.452-13.535 c-0.457-4.556-1.401-9.078-2.589-13.541c-1.219-4.459-2.769-8.837-4.501-13.143c-1.75-4.289-3.695-8.549-5.899-12.59 L76.003,77.684z"/><path fill="#DDDEE3" d="M105.896,184.878H72.09c-2.199,0-4.038-1.667-4.244-3.848l-4.635-48.934 c-0.177-1.869,1.299-3.484,3.183-3.484h45.197c1.884,0,3.36,1.615,3.183,3.484l-4.635,48.934 C109.934,183.212,108.096,184.878,105.896,184.878z"/><path fill="#DDDEE3" d="M111.949,103.257c0,0-0.92-4.391-4.599-1.757c-3.679,2.635-9.199,6.148-11.038,1.757 c-1.84-4.391,2.76-7.026,2.76-7.026s-9.505,2.342-13.491-3.22c-3.986-5.562-2.453-9.076,0-9.076s3.373,5.27,8.892,5.27 c5.519,0,6.439-0.878,2.76-3.513c-3.679-2.635-12.878-7.905-11.038-13.174c1.84-5.27,3.679-7.026,8.279-2.635 c4.599,4.391,10.119,13.174,11.958,10.539c1.84-2.635-2.76-9.661-5.519-12.296c-2.76-2.635-6.439-8.783-3.679-12.296 s9.199-11.418,11.958-3.513s6.439,18.444,9.199,17.566c2.76-0.878,0.92-10.539-0.92-14.931c-1.84-4.391-4.599-11.418,0-14.052 c4.599-2.635,8.279-3.513,8.279,0c0,3.513-1.84,14.931,1.84,15.809c3.679,0.878,3.679-4.391,3.679-9.661s0-9.661,5.519-14.052 s10.119-0.878,11.958,2.635c1.84,3.513-4.599,14.052-6.439,16.687c-1.84,2.635,0,6.148,2.76,2.635 c2.76-3.513,8.279-10.539,11.958-10.539s3.679,7.612,2.76,9.954c-0.92,2.342-5.519,8.49-13.798,8.49c-8.279,0-3.679,5.27,0,4.391 s11.345-8.197,13.951-7.173c2.606,1.025,3.526,6.294-1.993,12.442s-11.958,7.026-18.397,7.026c-6.439,0-6.439,7.026-1.84,7.026 s10.119,0,14.718-3.513s8.279,0.878,5.519,5.27c-2.76,4.391-6.439,9.661-12.878,8.783c-6.439-0.878-14.718-1.757-16.558,0 c-1.84,1.757,0,3.513,5.519,3.513c5.519,0,11.958-2.635,13.798,1.757c1.84,4.391-3.68,11.418-10.119,9.661 c-6.439-1.757-12.878-7.026-15.638-5.27c-2.76,1.757-0.92,7.026-3.679,7.905s-5.519-2.635-5.519-5.27 C112.869,106.77,111.949,103.257,111.949,103.257z"/><path fill="#DDDEE3" d="M115.876,93.156c-2.195,2.84-4.242,5.891-6.139,8.984c-1.897,3.104-3.637,6.3-5.221,9.563 c-1.606,3.254-2.972,6.614-4.172,10.016c-1.225,3.399-2.084,6.898-2.812,10.402l-3.221-0.647 c0.869-3.664,1.879-7.287,3.248-10.768c1.344-3.487,2.853-6.903,4.596-10.19c1.722-3.297,3.594-6.508,5.62-9.617 c2.038-3.11,4.176-6.112,6.56-9.018L115.876,93.156z"/><path fill="#DDDEE3" d="M50.051,75.154c0,0,0.92,4.505,4.599,1.802c3.679-2.703,9.199-6.307,11.038-1.802 c1.84,4.505-2.76,7.208-2.76,7.208s10.888-2.981,14.874,2.725c3.986,5.707,1.071,9.889-1.382,9.889s-3.373-5.406-8.892-5.406 c-5.519,0-6.439,0.901-2.76,3.604c3.679,2.703,12.878,8.109,11.038,13.516c-1.84,5.406-3.679,7.208-8.279,2.703 c-4.599-4.505-10.119-13.516-11.958-10.813c-1.84,2.703,2.76,9.911,5.519,12.615c2.76,2.703,6.439,9.01,3.679,12.615 c-2.76,3.604-9.199,11.714-11.958,3.604s-6.439-18.922-9.199-18.021c-2.76,0.901-0.92,10.813,0.92,15.318 c1.84,4.505,4.599,11.714,0,14.417s-8.279,3.604-8.279,0s1.84-15.318-1.84-16.219c-3.679-0.901-3.679,4.505-3.679,9.911 c0,5.406,0,9.911-5.519,14.417s-10.119,0.901-11.958-2.703s4.599-14.417,6.439-17.12c1.84-2.703,0-6.307-2.76-2.703 c-2.76,3.604-8.279,10.813-11.958,10.813s-3.679-7.809-2.76-10.212c0.92-2.403,5.519-8.71,13.798-8.71s3.679-5.406,0-4.505 c-3.679,0.901-11.345,8.41-13.951,7.359s-3.526-6.457,1.993-12.765s11.958-7.208,18.397-7.208s6.439-7.208,1.84-7.208 s-10.119,0-14.718,3.604s-8.279-0.901-5.519-5.406c2.76-4.505,6.439-9.911,12.878-9.01c6.439,0.901,13.199,2.243,15.038,0.441 c1.84-1.802,1.519-4.046-4-4.046s-11.958,2.703-13.798-1.802s3.679-11.714,10.119-9.911c6.439,1.802,12.878,7.208,15.638,5.406 c2.76-1.802,0.92-7.208,3.679-8.109c2.76-0.901,5.519,2.703,5.519,5.406C49.131,71.55,50.051,75.154,50.051,75.154z"/></g><ellipse cx="33.5" cy="87.534" fill="#E8E9EC" rx="3.5" ry="2.988" transform="matrix(-0.998 0.0638 -0.0638 -0.998 72.5147 172.7522)"/><path fill="#E8E9EC" d="M55.711,60.649c-0.297,1.624,1.003,3.22,2.905,3.566c1.902,0.346,3.684-0.69,3.982-2.314 c0.297-1.624-1.003-3.22-2.905-3.566C57.791,57.99,56.008,59.026,55.711,60.649z"/><ellipse cx="126.117" cy="89.34" fill="#F3F4F6" rx="4.478" ry="2.988"/><ellipse cx="48.5" cy="100.482" fill="#E8E9EC" rx="2.5" ry="2.134"/><path fill="#E8E9EC" d="M28.826,105.546c-0.434-1.097-1.827-1.577-3.112-1.073c-1.285,0.504-1.974,1.802-1.54,2.899 c0.434,1.097,1.827,1.577,3.112,1.073C28.57,107.94,29.26,106.642,28.826,105.546z"/><path fill="#E8E9EC" d="M77.826,38.809c-0.434-1.097-1.827-1.577-3.112-1.073s-1.974,1.802-1.54,2.899 c0.434,1.097,1.827,1.577,3.112,1.073C77.57,41.203,78.26,39.905,77.826,38.809z"/></g></g></g></g></svg>