<svg xmlns="http://www.w3.org/2000/svg" xmlns:xlink="http://www.w3.org/1999/xlink" width="800" height="600" x="0" y="0" version="1.1" viewBox="0 0 800 600"><g><defs><clipPath id="clip-path-id-viewbox-item-0"><rect width="33.412" height="115.092" x="0" y="0"/></clipPath></defs><g><g clip-path="url(#clip-path-id-viewbox-item-0)" transform="translate(99.0 178.0) rotate(0.0 16.5 57.5) scale(0.9876691009218245 0.9992006394884093) translate(-0.0 -0.0)"><g><g><rect width="6" height="77.542" x="13.706" y="37.05" fill="#FFF"/><path fill="#1D2445" d="M19.705,115.092h-6c-0.276,0-0.5-0.224-0.5-0.5V37.049c0-0.276,0.224-0.5,0.5-0.5h6 c0.276,0,0.5,0.224,0.5,0.5v77.543C20.205,114.869,19.982,115.092,19.705,115.092z M14.205,114.092h5V37.549h-5V114.092z"/></g></g><g><path fill="#FFF" d="M24.918,51.532H8.494c-4.415,0-7.994-3.579-7.994-7.994V8.494C0.5,4.079,4.079,0.5,8.494,0.5h16.425 c4.415,0,7.994,3.579,7.994,7.994v35.044C32.912,47.953,29.333,51.532,24.918,51.532z"/><path fill="#1D2445" d="M24.918,52.032H8.493C3.81,52.032,0,48.221,0,43.538V8.494C0,3.81,3.81,0,8.493,0h16.425 c4.684,0,8.494,3.811,8.494,8.494v35.044C33.412,48.221,29.602,52.032,24.918,52.032z M8.493,1C4.362,1,1,4.362,1,8.494v35.044 c0,4.132,3.361,7.494,7.493,7.494h16.425c4.132,0,7.494-3.362,7.494-7.494V8.494C32.412,4.362,29.05,1,24.918,1H8.493z"/></g><g><rect width="22.041" height="11.856" x="5.686" y="5.045" fill="#1D2445"/><path fill="#1D2445" d="M27.727,17.401H5.686c-0.276,0-0.5-0.224-0.5-0.5V5.045c0-0.276,0.224-0.5,0.5-0.5h22.041 c0.276,0,0.5,0.224,0.5,0.5v11.856C28.227,17.177,28.003,17.401,27.727,17.401z M6.186,16.401h21.041V5.545H6.186V16.401z"/></g><g><rect width="8.208" height="8.208" x="5.771" y="23.097" fill="#FFF"/><path fill="#1D2445" d="M13.98,31.805H5.771c-0.276,0-0.5-0.224-0.5-0.5v-8.208c0-0.276,0.224-0.5,0.5-0.5h8.209 c0.276,0,0.5,0.224,0.5,0.5v8.208C14.48,31.582,14.256,31.805,13.98,31.805z M6.271,30.805h7.209v-7.208H6.271V30.805z"/></g><g><rect width="8.208" height="8.208" x="19.3" y="23.097" fill="#FFF"/><path fill="#1D2445" d="M27.508,31.805h-8.209c-0.276,0-0.5-0.224-0.5-0.5v-8.208c0-0.276,0.224-0.5,0.5-0.5h8.209 c0.276,0,0.5,0.224,0.5,0.5v8.208C28.008,31.582,27.784,31.805,27.508,31.805z M19.799,30.805h7.209v-7.208h-7.209V30.805z"/></g><g><rect width="8.208" height="8.208" x="5.771" y="35.562" fill="#FFF"/><path fill="#1D2445" d="M13.98,44.27H5.771c-0.276,0-0.5-0.224-0.5-0.5v-8.208c0-0.276,0.224-0.5,0.5-0.5h8.209 c0.276,0,0.5,0.224,0.5,0.5v8.208C14.48,44.047,14.256,44.27,13.98,44.27z M6.271,43.27h7.209v-7.208H6.271V43.27z"/></g><g><rect width="8.208" height="8.208" x="19.3" y="35.562" fill="#FFF"/><path fill="#1D2445" d="M27.508,44.27h-8.209c-0.276,0-0.5-0.224-0.5-0.5v-8.208c0-0.276,0.224-0.5,0.5-0.5h8.209 c0.276,0,0.5,0.224,0.5,0.5v8.208C28.008,44.047,27.784,44.27,27.508,44.27z M19.799,43.27h7.209v-7.208h-7.209V43.27z"/></g></g></g></g><g><defs><clipPath id="clip-path-id-viewbox-item-1"><rect width="130.648" height="109.27" x="0" y="0"/></clipPath></defs><g><g clip-path="url(#clip-path-id-viewbox-item-1)" transform="translate(150.0 172.0) rotate(0.0 65.0 54.5) scale(0.9950401077704979 0.9975290564656356) translate(-0.0 -0.0)"><g><rect width="129.648" height="75.858" x=".5" y=".5" fill="#FFF"/><path fill="#1D2445" d="M130.148,76.858H0.5c-0.276,0-0.5-0.224-0.5-0.5V0.5C0,0.223,0.224,0,0.5,0h129.647 c0.276,0,0.5,0.224,0.5,0.5v75.858C130.648,76.634,130.424,76.858,130.148,76.858z M1,75.858h128.647V1H1V75.858z"/></g><g><rect width="33.102" height="75.858" x="48.773" y="32.912" fill="#FFF"/><path fill="#1D2445" d="M81.875,109.27H48.773c-0.276,0-0.5-0.224-0.5-0.5V32.912c0-0.276,0.224-0.5,0.5-0.5h33.103 c0.276,0,0.5,0.224,0.5,0.5v75.858C82.375,109.047,82.152,109.27,81.875,109.27z M49.273,108.27h32.103V33.412H49.273V108.27z"/></g></g></g></g><g><defs><clipPath id="clip-path-id-viewbox-item-3"><rect width="602.406" height="191.093" x="0" y="0"/></clipPath></defs><g><g clip-path="url(#clip-path-id-viewbox-item-3)" transform="translate(50.0 277.0) rotate(0.0 280.0 88.5) scale(0.9296056148179136 0.9262505690946293) translate(-0.0 -0.0)"><g><rect width="430.797" height="178.355" x="52.832" y="12.238" fill="#FFF"/><path fill="#1D2445" d="M483.629,191.093H52.832c-0.276,0-0.5-0.224-0.5-0.5V12.239c0-0.276,0.224-0.5,0.5-0.5h430.797 c0.276,0,0.5,0.224,0.5,0.5v178.354C484.129,190.869,483.906,191.093,483.629,191.093z M53.332,190.093h429.797V12.739H53.332 V190.093z"/></g><g><path fill="#1D2445" d="M593.912,30.477H8.494c-4.415,0-7.994-3.579-7.994-7.994V8.494C0.5,4.079,4.079,0.5,8.494,0.5h585.419 c4.415,0,7.994,3.579,7.994,7.994v13.989C601.906,26.898,598.327,30.477,593.912,30.477z"/><path fill="#1D2445" d="M593.913,30.977H8.494C3.81,30.977,0,27.166,0,22.483V8.493C0,3.81,3.81,0,8.494,0h585.419 c4.684,0,8.493,3.81,8.493,8.493v13.989C602.406,27.166,598.596,30.977,593.913,30.977z M8.494,1C4.362,1,1,4.362,1,8.493v13.989 c0,4.132,3.361,7.494,7.493,7.494h585.419c4.132,0,7.493-3.362,7.493-7.494V8.493c0-4.132-3.361-7.493-7.493-7.493H8.494z"/></g><g><rect width="552.694" height="29.977" x="24.856" y=".5" fill="#FFF"/><path fill="#1D2445" d="M577.55,30.977H24.856c-0.276,0-0.5-0.224-0.5-0.5V0.5c0-0.276,0.224-0.5,0.5-0.5H577.55 c0.276,0,0.5,0.224,0.5,0.5v29.977C578.05,30.753,577.827,30.977,577.55,30.977z M25.356,29.977H577.05V1H25.356V29.977z"/></g></g></g></g><g><defs><clipPath id="clip-path-id-viewbox-item-4"><rect width="279.038" height="382.476" x="0" y="0"/></clipPath></defs><g><g clip-path="url(#clip-path-id-viewbox-item-4)" transform="translate(418.0 103.0) rotate(0.0 135.5 185.5) scale(0.9711938875708684 0.9699955029858083) translate(-0.0 -0.0)"><g><rect width="215.981" height="381.476" x="31.529" y=".5" fill="#FFF"/><path fill="#1D2445" d="M247.509,382.477H31.529c-0.276,0-0.5-0.224-0.5-0.5V0.5c0-0.276,0.224-0.5,0.5-0.5h215.98 c0.276,0,0.5,0.224,0.5,0.5v381.477C248.009,382.253,247.785,382.477,247.509,382.477z M32.029,381.477h214.98V1H32.029V381.477z"/></g><g><g><rect width="278.038" height="8" x=".5" y="24.313" fill="#FFF"/><path fill="#1D2445" d="M278.537,32.814H0.5c-0.276,0-0.5-0.224-0.5-0.5v-8c0-0.276,0.224-0.5,0.5-0.5h278.038 c0.276,0,0.5,0.224,0.5,0.5v8C279.037,32.59,278.814,32.814,278.537,32.814z M1,31.814h277.038v-7H1V31.814z"/></g><g><rect width="278.038" height="8" x=".5" y="90.313" fill="#FFF"/><path fill="#1D2445" d="M278.537,98.814H0.5c-0.276,0-0.5-0.224-0.5-0.5v-8c0-0.276,0.224-0.5,0.5-0.5h278.038 c0.276,0,0.5,0.224,0.5,0.5v8C279.037,98.59,278.814,98.814,278.537,98.814z M1,97.814h277.038v-7H1V97.814z"/></g><g><rect width="278.038" height="8" x=".5" y="156.313" fill="#FFF"/><path fill="#1D2445" d="M278.537,164.814H0.5c-0.276,0-0.5-0.224-0.5-0.5v-8c0-0.276,0.224-0.5,0.5-0.5h278.038 c0.276,0,0.5,0.224,0.5,0.5v8C279.037,164.59,278.814,164.814,278.537,164.814z M1,163.814h277.038v-7H1V163.814z"/></g><g><rect width="278.038" height="8" x=".5" y="222.313" fill="#FFF"/><path fill="#1D2445" d="M278.537,230.814H0.5c-0.276,0-0.5-0.224-0.5-0.5v-8c0-0.276,0.224-0.5,0.5-0.5h278.038 c0.276,0,0.5,0.224,0.5,0.5v8C279.037,230.59,278.814,230.814,278.537,230.814z M1,229.814h277.038v-7H1V229.814z"/></g><g><rect width="278.038" height="8" x=".5" y="288.313" fill="#FFF"/><path fill="#1D2445" d="M278.537,296.813H0.5c-0.276,0-0.5-0.224-0.5-0.5v-8c0-0.276,0.224-0.5,0.5-0.5h278.038 c0.276,0,0.5,0.224,0.5,0.5v8C279.037,296.589,278.814,296.813,278.537,296.813z M1,295.813h277.038v-7H1V295.813z"/></g></g></g></g></g><g><defs><clipPath id="clip-path-id-viewbox-item-4"><rect width="90.04" height="183.583" x="0" y="0"/></clipPath></defs><g><g clip-path="url(#clip-path-id-viewbox-item-4)" transform="translate(309.0 110.0) rotate(0.0 91.0 185.0) scale(2.0213238560639715 2.0154371592140885) translate(-0.0 -0.0)"><g><g><path fill="#FFF" d="M14,181.583c-6.617,0-12-5.383-12-12V14C2,7.382,7.383,2,14,2h62.04c6.617,0,12,5.383,12,12v155.583 c0,6.617-5.383,12-12,12H14z"/><path fill="#1D2445" d="M76.04,182.083H14c-6.893,0-12.5-5.607-12.5-12.5V14C1.5,7.107,7.107,1.5,14,1.5h62.04 c6.893,0,12.5,5.607,12.5,12.5v155.583C88.54,176.475,82.932,182.083,76.04,182.083z M14,2.5C7.659,2.5,2.5,7.659,2.5,14v155.583 c0,6.341,5.159,11.5,11.5,11.5h62.04c6.341,0,11.5-5.159,11.5-11.5V14c0-6.341-5.159-11.5-11.5-11.5H14z"/></g><path fill="#1D2445" d="M76.04,4c5.514,0,10,4.486,10,10v155.583c0,5.514-4.486,10-10,10H14c-5.514,0-10-4.486-10-10V14 C4,8.486,8.486,4,14,4H76.04 M76.04,0H14C6.268,0,0,6.268,0,14v155.583c0,7.732,6.268,14,14,14h62.04c7.732,0,14-6.268,14-14V14 C90.04,6.268,83.771,0,76.04,0L76.04,0z"/></g><path fill="#1D2445" d="M26.072,10.51h35.794c2.209,0,4-1.791,4-4V2.102H22.072V6.51C22.072,8.72,23.863,10.51,26.072,10.51z"/></g></g></g><g><defs><clipPath id="clip-path-id-viewbox-item-6"><rect width="59.27" height="156.542" x="0" y="0"/></clipPath></defs><g><g clip-path="url(#clip-path-id-viewbox-item-6)" transform="translate(204.0 117.0) rotate(0.0 29.5 78.0) scale(0.9954445756706597 0.9965376704015536) translate(-0.0 -0.0)"><g><g><rect width="6" height="142.389" x="26.635" y="13.653" fill="#FFF"/><path fill="#1D2445" d="M32.634,156.542h-6c-0.276,0-0.5-0.224-0.5-0.5V13.654c0-0.276,0.224-0.5,0.5-0.5h6 c0.276,0,0.5,0.224,0.5,0.5v142.389C33.134,156.319,32.911,156.542,32.634,156.542z M27.134,155.542h5V14.154h-5V155.542z"/></g></g><g><g><rect width="55.269" height="22.482" x="2" y="2" fill="#1D2445"/><path fill="#1D2445" d="M57.269,24.983H2c-0.276,0-0.5-0.224-0.5-0.5V2c0-0.276,0.224-0.5,0.5-0.5h55.27 c0.276,0,0.5,0.224,0.5,0.5v22.482C57.769,24.759,57.546,24.983,57.269,24.983z M2.5,23.983h54.27V2.5H2.5V23.983z"/></g><g><path fill="#FFF" d="M58.77,25.982H0.5V0.5h58.27V25.982z M3.5,22.982h52.27V3.5H3.5V22.982z"/><path fill="#1D2445" d="M58.769,26.482H0.5c-0.276,0-0.5-0.224-0.5-0.5V0.499c0-0.276,0.224-0.5,0.5-0.5h58.27 c0.276,0,0.5,0.224,0.5,0.5v25.482C59.269,26.258,59.046,26.482,58.769,26.482z M1,25.482h57.27V0.999H1V25.482z M55.769,23.482 H3.5c-0.276,0-0.5-0.224-0.5-0.5V3.499c0-0.276,0.224-0.5,0.5-0.5h52.27c0.276,0,0.5,0.224,0.5,0.5v19.482 C56.269,23.258,56.046,23.482,55.769,23.482z M4,22.482h51.27V3.999H4V22.482z"/></g></g><g><g><g><g><path fill="#FFF" d="M26.294,19.083h-1.601v-1.281h0.961v-0.961h1.281v1.601C26.935,18.797,26.648,19.083,26.294,19.083z"/></g></g><g><g><path fill="#FFF" d="M23.411,19.083H21.81c-0.354,0-0.64-0.287-0.64-0.64v-1.601h1.281v0.961h0.961V19.083z"/></g></g><g><g><rect width="1.281" height="2.426" x="21.17" y="11.99" fill="#FFF"/></g></g><g><g><path fill="#FFF" d="M22.45,9.563H21.17V7.962c0-0.354,0.287-0.64,0.64-0.64h1.601v1.281H22.45V9.563z"/></g></g><g><g><path fill="#FFF" d="M26.935,9.563h-1.281V8.603h-0.961V7.322h1.601c0.354,0,0.64,0.287,0.64,0.64V9.563z"/></g></g><g><g><rect width="1.281" height="2.426" x="25.654" y="11.99" fill="#FFF"/></g></g></g><g><g><g><path fill="#FFF" d="M33.47,19.083h-1.601v-1.281h0.961v-0.961h1.281v1.601C34.11,18.797,33.823,19.083,33.47,19.083z"/></g></g><g><g><path fill="#FFF" d="M30.586,19.083h-1.601c-0.354,0-0.64-0.287-0.64-0.64v-1.601h1.281v0.961h0.961V19.083z"/></g></g><g><g><path fill="#FFF" d="M29.625,14.588h-1.281v-1.601c0-0.354,0.287-0.64,0.64-0.64h1.601v1.281h-0.961V14.588z"/></g></g><g><g><path fill="#FFF" d="M34.11,14.588h-1.281v-0.961h-0.961v-1.281h1.601c0.354,0,0.64,0.287,0.64,0.64V14.588z"/></g></g></g><g><g><g><path fill="#FFF" d="M43.217,19.083h-1.601v-1.281h0.961v-0.961h1.281v1.601C43.857,18.797,43.57,19.083,43.217,19.083z"/></g></g><g><g><path fill="#FFF" d="M40.333,19.083h-1.601c-0.354,0-0.64-0.287-0.64-0.64v-1.601h1.281v0.961h0.961V19.083z"/></g></g><g><g><rect width="1.281" height="2.426" x="38.092" y="11.99" fill="#FFF"/></g></g><g><g><path fill="#FFF" d="M39.372,9.563h-1.281V7.962c0-0.354,0.287-0.64,0.64-0.64h1.601v1.281h-0.961V9.563z"/></g></g><g><g><path fill="#FFF" d="M43.857,9.563h-1.281V8.603h-0.961V7.322h1.601c0.354,0,0.64,0.287,0.64,0.64V9.563z"/></g></g><g><g><rect width="1.281" height="2.426" x="42.576" y="11.99" fill="#FFF"/></g></g></g><g><g><g><path fill="#FFF" d="M50.391,19.083H48.79v-1.281h0.961v-0.961h1.281v1.601C51.032,18.797,50.745,19.083,50.391,19.083z"/></g></g><g><g><path fill="#FFF" d="M47.508,19.083h-1.601c-0.354,0-0.64-0.287-0.64-0.64v-1.601h1.281v0.961h0.961V19.083z"/></g></g><g><g><rect width="1.281" height="2.426" x="45.266" y="11.99" fill="#FFF"/></g></g><g><g><path fill="#FFF" d="M46.547,9.563h-1.281V7.962c0-0.354,0.287-0.64,0.64-0.64h1.601v1.281h-0.961V9.563z"/></g></g><g><g><path fill="#FFF" d="M51.032,9.563h-1.281V8.603H48.79V7.322h1.601c0.354,0,0.64,0.287,0.64,0.64V9.563z"/></g></g><g><g><rect width="1.281" height="2.426" x="49.751" y="11.99" fill="#FFF"/></g></g></g><g><circle cx="36.178" cy="18.3" r=".861" fill="#FFF"/></g><g><g><path fill="#FFF" d="M29.604,14.739h-1.281v-1.842h1.281V14.739z M31.567,11.038l-0.906-0.906l2.264-2.264l0.906,0.906 L31.567,11.038z"/></g></g></g></g></g></g><g><defs><clipPath id="clip-path-id-viewbox-item-7"><rect width="25.047" height="45.289" x="0" y="0"/></clipPath></defs><g><g clip-path="url(#clip-path-id-viewbox-item-7)" transform="translate(348.0 160.0) rotate(0.0 12.5 22.5) scale(0.9981235277677966 0.9936187595221797) translate(-0.0 -0.0)"><g><path fill="#FFF" d="M18.811,12.171l4.371-8.485l-6.551,3.692L18.857,0.5l-6.012,4.88L4.382,0.544l3.919,7.608L1.865,4.525 l4.042,7.847C2.674,14.371,0.5,17.94,0.5,22v11.464c0,6.229,5.096,11.324,11.324,11.324h1.398c6.229,0,11.324-5.096,11.324-11.324 V22C24.547,17.802,22.227,14.126,18.811,12.171z"/><path fill="#1D2445" d="M13.222,45.289h-1.397C5.304,45.289,0,39.984,0,33.465V22.001c0-3.957,1.956-7.589,5.256-9.805L1.42,4.754 c-0.102-0.197-0.062-0.437,0.098-0.59S1.919,3.981,2.11,4.089l4.982,2.808L3.937,0.772c-0.102-0.196-0.062-0.437,0.099-0.59 C4.196,0.03,4.438,0,4.629,0.109l8.166,4.666l5.746-4.664c0.173-0.14,0.415-0.148,0.599-0.023c0.183,0.125,0.261,0.355,0.192,0.566 l-1.832,5.659l5.437-3.063c0.189-0.108,0.432-0.079,0.592,0.075c0.159,0.153,0.199,0.393,0.098,0.59l-4.157,8.068 c3.452,2.164,5.577,5.959,5.577,10.018v11.464C25.046,39.984,19.742,45.289,13.222,45.289z M3.074,5.78l3.278,6.361 c0.12,0.232,0.041,0.518-0.182,0.654C2.933,14.799,1,18.239,1,22.001v11.464c0,5.969,4.856,10.824,10.825,10.824h1.397 c5.969,0,10.824-4.855,10.824-10.824V22.001c0-3.859-2.102-7.46-5.484-9.396c-0.232-0.133-0.319-0.425-0.196-0.663l3.607-7 l-5.098,2.872c-0.179,0.102-0.403,0.082-0.562-0.049c-0.159-0.13-0.223-0.345-0.159-0.541l1.707-5.271L13.16,5.768 c-0.161,0.129-0.384,0.148-0.563,0.046L5.599,1.815l3.146,6.108C8.847,8.12,8.807,8.359,8.648,8.513 c-0.16,0.153-0.401,0.183-0.592,0.075L3.074,5.78z"/></g></g></g></g><g><defs><clipPath id="clip-path-id-viewbox-item-9"><rect width="24.742" height="36.009" x="0" y="0"/></clipPath></defs><g><g clip-path="url(#clip-path-id-viewbox-item-9)" transform="translate(425.0 169.0) rotate(0.0 12.0 18.0) scale(0.9700105084471748 0.9997500624843789) translate(-0.0 -0.0)"><g><g><path fill="#FFF" d="M18.75,35.509H5.992c-3.02,0-5.492-2.471-5.492-5.492V13.235c0-3.02,2.471-5.492,5.492-5.492H18.75 c3.02,0,5.492,2.471,5.492,5.492v16.783C24.242,33.038,21.771,35.509,18.75,35.509z"/><path fill="#1D2445" d="M18.751,36.009H5.992C2.688,36.009,0,33.322,0,30.018V13.235c0-3.304,2.688-5.991,5.992-5.991h12.759 c3.304,0,5.991,2.688,5.991,5.991v16.783C24.742,33.322,22.055,36.009,18.751,36.009z M5.992,8.243C3.239,8.243,1,10.483,1,13.235 v16.783c0,2.752,2.239,4.991,4.992,4.991h12.759c2.752,0,4.991-2.239,4.991-4.991V13.235c0-2.752-2.239-4.991-4.991-4.991H5.992z"/></g><g><rect width="15.291" height="5.231" x="4.725" y=".5" fill="#FFF"/><path fill="#1D2445" d="M20.016,6.232H4.725c-0.276,0-0.5-0.224-0.5-0.5V0.5c0-0.276,0.224-0.5,0.5-0.5h15.291 c0.276,0,0.5,0.224,0.5,0.5v5.231C20.516,6.008,20.293,6.232,20.016,6.232z M5.225,5.232h14.291V1H5.225V5.232z"/></g></g></g></g></g><g><defs><clipPath id="clip-path-id-viewbox-item-10"><rect width="29.291" height="26.298" x="0" y="0"/></clipPath></defs><g><g clip-path="url(#clip-path-id-viewbox-item-10)" transform="translate(350.0 338.0) rotate(0.0 14.5 13.0) scale(0.9900652077429927 0.9886683397977033) translate(-0.0 -0.0)"><g><g><path fill="#FFF" d="M22.897,25.798H6.395c-2.488,0-4.523-2.035-4.523-4.523v-8.458c0-2.488,2.035-4.523,4.523-4.523h16.502 c2.488,0,4.523,2.035,4.523,4.523v8.458C27.42,23.762,25.384,25.798,22.897,25.798z"/><path fill="#1D2445" d="M22.897,26.298H6.395c-2.77,0-5.023-2.253-5.023-5.022v-8.458c0-2.77,2.254-5.022,5.023-5.022h16.502 c2.77,0,5.023,2.253,5.023,5.022v8.458C27.92,24.045,25.666,26.298,22.897,26.298z M6.395,8.795c-2.219,0-4.023,1.805-4.023,4.022 v8.458c0,2.218,1.805,4.022,4.023,4.022h16.502c2.219,0,4.023-1.805,4.023-4.022v-8.458c0-2.218-1.805-4.022-4.023-4.022H6.395z"/></g><g><rect width="28.291" height="5.629" x=".5" y=".5" fill="#FFF"/><path fill="#1D2445" d="M28.791,6.63H0.5C0.224,6.63,0,6.406,0,6.13V0.5C0,0.223,0.224,0,0.5,0h28.291c0.276,0,0.5,0.224,0.5,0.5 v5.63C29.291,6.406,29.068,6.63,28.791,6.63z M1,5.63h27.291V1H1V5.63z"/></g></g></g></g></g><g><defs><clipPath id="clip-path-id-viewbox-item-11"><rect width="220.565" height="348.659" x="0" y="0"/></clipPath></defs><g><g clip-path="url(#clip-path-id-viewbox-item-11)" transform="translate(430.0 164.0) rotate(0.0 -110.0 174.0) scale(-0.9974383968444677 0.9981099010781308) translate(-0.0 -0.0)"><g><path fill="#FFF" d="M162.383,301.626l-11.515,10.808l-14.574,13.679c-0.857,0.022-1.67,0.049-2.407,0.071 c-1.891,0.056-3.257,0.105-3.433,0.12l0.037-0.543l0.105-1.539l0.816-12.095l0.917-13.567l0.61-0.12 c0.936-0.183,1.857,0.367,2.145,1.273l0.82,2.598l4.826-1.748c3.268-1.179,5.578-4.125,5.945-7.581l0.569-5.338 c0.097-0.932,1.235-1.34,1.906-0.681l6.461,6.368l4.548,4.485l0.393,0.386L162.383,301.626z"/><path fill="#1D2445" d="M130.454,326.804c-0.13,0-0.256-0.051-0.35-0.143c-0.104-0.103-0.159-0.245-0.149-0.392l1.875-27.744 c0.016-0.226,0.18-0.413,0.402-0.456l0.61-0.12c1.214-0.238,2.358,0.478,2.718,1.612l0.664,2.102l4.335-1.57 c3.069-1.107,5.274-3.919,5.619-7.164l0.569-5.338c0.085-0.827,0.783-1.451,1.621-1.451c0.423,0,0.826,0.165,1.132,0.467 l11.402,11.238c0.036,0.035,0.067,0.076,0.091,0.121l1.831,3.425c0.106,0.199,0.066,0.445-0.099,0.6l-26.089,24.486 c-0.089,0.084-0.207,0.133-0.329,0.136l-2.405,0.071c-1.939,0.057-3.253,0.104-3.404,0.118 C130.484,326.803,130.469,326.804,130.454,326.804z M132.803,298.976l-1.811,26.803c0.684-0.026,1.835-0.063,2.881-0.095 l2.217-0.065l25.671-24.095l-1.614-3.019l-11.349-11.186c-0.151-0.148-0.318-0.18-0.431-0.18c-0.283,0-0.589,0.19-0.626,0.556 l-0.569,5.339c-0.385,3.623-2.847,6.763-6.273,7.999l-4.825,1.747c-0.128,0.047-0.27,0.038-0.392-0.021 c-0.123-0.061-0.214-0.168-0.255-0.298l-0.82-2.598c-0.209-0.656-0.875-1.072-1.573-0.933L132.803,298.976z"/></g><g><path fill="#1D2445" d="M160.414,308.218l-10.999,10.059l-8.412,7.697c-1.55,0.045-3.193,0.09-4.709,0.138 c-0.857,0.022-1.67,0.049-2.407,0.071l12.208-11.171c0.359-0.329,0.576-0.786,0.606-1.273c0.071-1.22,0.378-2.407,0.895-3.493 s1.239-2.074,2.145-2.901l3.092-2.83l7.326-6.701l0.183-0.169c0.606-0.554,1.587-0.288,1.831,0.498l0.517,1.67 C163.622,302.82,162.735,306.092,160.414,308.218z"/><path fill="#1D2445" d="M133.888,326.683c-0.203,0-0.387-0.123-0.463-0.312c-0.079-0.194-0.028-0.416,0.126-0.558l12.208-11.171 c0.264-0.242,0.422-0.574,0.444-0.936c0.074-1.282,0.392-2.52,0.942-3.677c0.555-1.165,1.315-2.192,2.26-3.055l10.598-9.698 c0.302-0.275,0.689-0.426,1.092-0.426c0.719,0,1.344,0.459,1.556,1.143l0.517,1.671c0.984,3.174,0.036,6.676-2.416,8.922 l-19.412,17.756c-0.088,0.081-0.203,0.127-0.323,0.131l-1.364,0.039c-1.126,0.032-2.267,0.064-3.344,0.099l-2.407,0.071 C133.898,326.683,133.892,326.683,133.888,326.683z M161.095,297.852c-0.108,0-0.268,0.027-0.416,0.162l-0.18,0.167l-10.42,9.533 c-0.849,0.774-1.532,1.698-2.031,2.746c-0.496,1.04-0.78,2.152-0.848,3.308c-0.039,0.622-0.311,1.194-0.767,1.612l-11.215,10.263 l1.063-0.031c1.075-0.034,2.217-0.066,3.344-0.099l1.178-0.033l19.274-17.631c2.167-1.985,3.006-5.082,2.136-7.888l-0.517-1.671 C161.601,297.988,161.326,297.852,161.095,297.852z"/></g><g><path fill="#FFF" d="M151.317,310.625l-2.617,10.534l-1.086,4.384l-17.123,0.217l-12.612,0.161h-0.03l-0.195-0.127l-2.418-1.572 l-1.415-0.921c-1.112-0.723-1.782-1.958-1.782-3.283c0-0.973,0.359-1.872,0.958-2.564c0.599-0.689,1.441-1.172,2.403-1.31 l8.509-1.217c2.703-0.386,5.26-1.355,7.502-2.8c2.216-1.43,4.133-3.332,5.593-5.6l3.519-5.469l3.365,2.059 c0.812,0.494,1.123,1.52,0.722,2.385l-1.145,2.471l4.739,1.969C149.213,310.359,150.269,310.588,151.317,310.625z"/><path fill="#1D2445" d="M117.879,326.422h-0.03c-0.097,0-0.191-0.028-0.272-0.081l-4.028-2.62 c-1.258-0.818-2.009-2.202-2.009-3.702c0-1.06,0.383-2.087,1.08-2.892c0.699-0.803,1.661-1.327,2.71-1.478l8.509-1.217 c2.582-0.368,5.106-1.311,7.302-2.725c2.197-1.419,4.028-3.253,5.443-5.451l3.519-5.469c0.146-0.229,0.45-0.298,0.681-0.156 l3.365,2.059c1.03,0.627,1.423,1.927,0.915,3.022l-0.926,1.999l4.259,1.769c0.951,0.394,1.939,0.61,2.938,0.646 c0.151,0.006,0.291,0.079,0.382,0.199s0.122,0.275,0.086,0.421l-3.703,14.918c-0.055,0.221-0.251,0.377-0.479,0.38l-29.735,0.378 C117.884,326.422,117.881,326.422,117.879,326.422z M140.679,301.74l-3.254,5.058c-1.492,2.319-3.424,4.254-5.742,5.75 c-2.316,1.492-4.979,2.486-7.702,2.875l-8.509,1.217c-0.812,0.116-1.556,0.521-2.097,1.143c-0.538,0.622-0.835,1.417-0.835,2.236 c0,1.16,0.581,2.23,1.555,2.864l3.901,2.537l29.227-0.371l3.466-13.965c-0.91-0.093-1.807-0.32-2.675-0.68l-4.74-1.969 c-0.125-0.053-0.225-0.153-0.274-0.28s-0.045-0.269,0.012-0.392l1.145-2.471c0.294-0.635,0.067-1.387-0.528-1.749L140.679,301.74z"/></g><g><path fill="#1D2445" d="M141.468,324.222v4.649h-17.363c-0.644,0-1.277-0.165-1.838-0.479l-4.387-2.471l-0.225-0.127l-2.464-1.572 L141.468,324.222L141.468,324.222z"/><path fill="#1D2445" d="M141.469,329.371h-17.363c-0.727,0-1.447-0.188-2.082-0.542l-4.614-2.599l-2.488-1.586 c-0.187-0.12-0.273-0.349-0.211-0.562c0.062-0.214,0.258-0.36,0.48-0.36h26.278c0.276,0,0.5,0.224,0.5,0.5v4.648 C141.969,329.147,141.745,329.371,141.469,329.371z M116.904,324.722l1.222,0.764l4.386,2.471c0.485,0.271,1.036,0.414,1.593,0.414 h16.863v-3.648H116.904z"/></g><g><path fill="#99644C" d="M127.795,339.227l17.112-0.052l3.021-15.297l-17.161,1.968l-2.07,3.827 c-0.592,1.094-0.902,2.319-0.902,3.563L127.795,339.227z"/></g><g><path fill="#1D2445" d="M115.148,131.307L85.369,230.05c-1.397,4.632-0.47,9.655,2.49,13.483l46.942,60.719l10.294-21.337 l-19.093-43.592c-0.412-0.94-0.9-1.844-1.46-2.704l-7.148-10.977l41.552-65.696l-7.3-39.867L115.148,131.307z"/></g><g><g><path fill="#1D2445" d="M173.304,120.451l1.152,2.512c3.338,7.281,3.308,15.592,1.359,23.361 c-0.518,2.064-1.667,8.167-1.667,8.167l-3.829,15.667l-9.365,56.762c0,0-24.921-5.482-24.921-5.969l0.29-99.468L173.304,120.451z"/></g></g><g><g><path fill="#29ABE2" d="M130.454,326.303v0.004C130.428,326.307,130.432,326.303,130.454,326.303z"/></g></g><g><g><path fill="#1D2445" d="M163.768,260.495l-8.157,32.835l-2.778,11.186l-1.516,6.11l-0.449,1.808l-1.453,5.844l-0.715,2.883 l-1.086,4.384l-0.064,0.251c0,0-3.032,0.082-6.547,0.18c-1.55,0.045-3.193,0.09-4.709,0.138c-0.857,0.022-1.67,0.049-2.407,0.071 c-1.891,0.056-3.257,0.105-3.433,0.12l0.037-0.543l0.105-1.539l0.816-12.095l0.917-13.567l3.1-45.769l0.494-34.291l25.224-0.752 l3.107,36.653C164.427,256.444,164.262,258.503,163.768,260.495z"/></g></g><g><path fill="#1D2445" d="M126.074,348.159h16.6c0.935,0,1.767-0.51,2.068-1.27l1.68-4.238h-24.096l1.68,4.238 C124.307,347.648,125.139,348.159,126.074,348.159z"/><path fill="#1D2445" d="M142.674,348.659h-16.6c-1.139,0-2.157-0.637-2.533-1.585l-1.68-4.238 c-0.061-0.154-0.042-0.328,0.051-0.466c0.093-0.137,0.248-0.219,0.414-0.219h24.096c0.166,0,0.32,0.082,0.414,0.219 c0.093,0.138,0.112,0.312,0.051,0.466l-1.68,4.238C144.831,348.022,143.813,348.659,142.674,348.659z M123.062,343.151l1.409,3.554 c0.227,0.57,0.871,0.954,1.604,0.954h16.6c0.733,0,1.377-0.384,1.604-0.954l1.409-3.554H123.062z"/></g><g><g><g><path fill="#FFF" d="M148.431,329.939l-0.682-4.155l-2.632-1.484l0.859-4.278c0.207-1.034-0.462-1.872-1.496-1.872h-10.026 c-1.034,0-2.041,0.838-2.249,1.872l-0.789,3.93l-3.271,1.832l-4.914,7.769c-0.771,1.22-1.171,2.637-1.151,4.081l0.056,3.96 c0.01,0.777,0.643,1.401,1.42,1.401h22.695l1.329-3.705C148.654,336.296,148.947,333.078,148.431,329.939z"/></g></g><g><g><path fill="#1D2445" d="M146.251,343.495h-22.695c-1.045,0-1.907-0.85-1.92-1.895l-0.056-3.959 c-0.021-1.544,0.403-3.05,1.228-4.355l4.915-7.77c0.044-0.07,0.105-0.128,0.178-0.169l3.07-1.72l0.744-3.704 c0.256-1.274,1.459-2.273,2.739-2.273h10.026c0.646,0,1.21,0.255,1.589,0.718c0.382,0.466,0.527,1.104,0.397,1.753l-0.788,3.922 l2.316,1.306c0.132,0.074,0.223,0.205,0.248,0.354l0.682,4.155c0.529,3.215,0.227,6.535-0.874,9.602l-1.329,3.704 C146.651,343.362,146.462,343.495,146.251,343.495z M128.5,326.158l-4.847,7.663c-0.721,1.141-1.092,2.457-1.073,3.807 l0.056,3.96c0.006,0.5,0.419,0.907,0.92,0.907H145.9l1.21-3.373c1.043-2.907,1.33-6.055,0.829-9.102l-0.644-3.919l-2.423-1.365 c-0.188-0.106-0.287-0.322-0.245-0.534l0.859-4.278c0.072-0.357,0.004-0.685-0.19-0.922c-0.186-0.227-0.476-0.352-0.816-0.352 h-10.026c-0.793,0-1.599,0.674-1.759,1.471l-0.79,3.93c-0.029,0.143-0.119,0.267-0.246,0.338L128.5,326.158z"/></g></g></g><g><path fill="#1D2445" d="M136.095,339.897h-3.442c-1.42,0-2.582,1.162-2.582,2.582l0,0c0,1.42,1.162,2.582,2.582,2.582h3.442 c1.42,0,2.582-1.162,2.582-2.582l0,0C138.677,341.059,137.515,339.897,136.095,339.897z"/><path fill="#1D2445" d="M136.096,345.561h-3.442c-1.699,0-3.082-1.383-3.082-3.082s1.383-3.082,3.082-3.082h3.442 c1.699,0,3.082,1.383,3.082,3.082S137.795,345.561,136.096,345.561z M132.653,340.397c-1.148,0-2.082,0.934-2.082,2.082 s0.934,2.082,2.082,2.082h3.442c1.148,0,2.082-0.934,2.082-2.082s-0.934-2.082-2.082-2.082H132.653z"/></g><g><path fill="#1D2445" d="M17.866,13.512l1.76-1.21c1.034-0.711,2.318,0.464,1.702,1.557l-1.726,3.06l-1.384,2.453 c-0.631,0.922-1.69,1.303-2.541,0.993c0,0-0.008,0.009-0.017,0.002c-0.282-0.143-0.397-0.485-0.263-0.775L17.866,13.512z"/></g><g><path fill="#1D2445" d="M11.792,11.451l-1.454,5.602l-0.412,1.583c-0.115,0.305,0.048,0.626,0.352,0.741 c0.008-0.009,0.008-0.009,0.017-0.002c0.883,0.198,1.878-0.329,2.385-1.324l2.556-6.334c0.439-1.087-0.801-2.083-1.768-1.419 L11.792,11.451z"/></g><g><path fill="#1D2445" d="M14.831,11.25l-0.447,1.755l-1.844,7.048c-0.108,0.295,0.057,0.634,0.36,0.732c0,0,0,0,0.017-0.002 c0.883,0.198,1.887-0.321,2.385-1.324l3.291-8.154c0.439-1.088-0.801-2.083-1.768-1.418l-1.644,1.13L14.831,11.25z"/></g><g><g><g><path fill="#FFF" d="M33.429,14.949c-2.716-2.178-5.568-4.295-6.552-4.437L18.52,9.304c-0.904-0.132-1.791-0.36-2.646-0.682 l-1.739-0.653l-0.011,0.008L1.546,0.605c-0.268-0.185-0.636-0.118-0.822,0.15L0.715,0.767C0.278,1.584,0.513,2.717,1.357,3.483 l10.006,7.74l8.285,7.702c0.741,0.611,0.846,1.707,0.235,2.448c-0.197,0.239-0.454,0.42-0.744,0.527l-7.267,2.627 c-0.827,0.229-1.311,1.084-1.082,1.911c0.011,0.041,0.024,0.081,0.039,0.12c0.141,0.35,0.507,0.556,0.88,0.494l16.828-2.015 l-0.005-0.018c3.239-0.334,12.771,5.197,14.624,2.519l2.563-5.245C45.717,22.293,36.412,17.341,33.429,14.949z"/></g></g><g><g><path fill="#1D2445" d="M41.285,28.772C41.285,28.772,41.285,28.772,41.285,28.772c-1.838,0-4.425-0.902-6.926-1.774 c-2.281-0.796-4.425-1.548-5.659-1.49c-0.033,0.013-0.068,0.021-0.104,0.025l-16.829,2.015c-0.049,0.009-0.121,0.015-0.193,0.015 c-0.535,0-1.009-0.32-1.21-0.816c-0.024-0.066-0.04-0.116-0.055-0.167c-0.304-1.099,0.338-2.232,1.429-2.534l7.23-2.615 c0.205-0.074,0.388-0.204,0.528-0.374c0.211-0.256,0.31-0.577,0.278-0.907c-0.032-0.329-0.189-0.626-0.445-0.837l-8.307-7.721 L1.051,3.879C0.021,2.945-0.285,1.58,0.274,0.532C0.666-0.045,1.35-0.138,1.83,0.194l12.458,7.3 c0.007,0.002,0.015,0.005,0.022,0.008l1.739,0.652c0.818,0.309,1.673,0.529,2.542,0.655l8.356,1.207 c0.592,0.086,1.939,0.65,6.794,4.543c2.913,2.336,12.117,7.243,12.21,7.292c0.238,0.127,0.333,0.419,0.214,0.661l-2.563,5.245 C43.13,28.453,42.362,28.772,41.285,28.772z M28.834,24.505c1.414,0,3.571,0.752,5.854,1.549 c2.423,0.845,4.928,1.719,6.596,1.719c0,0,0,0,0,0c0.74,0,1.217-0.17,1.458-0.519l2.313-4.747 c-1.879-1.011-9.287-5.039-11.941-7.168c-4.696-3.766-5.978-4.284-6.311-4.332L18.449,9.8c-0.94-0.138-1.866-0.376-2.75-0.71 l-1.657-0.621c-0.059-0.01-0.116-0.029-0.169-0.06L1.293,1.037L1.135,1.039C0.818,1.636,1.044,2.523,1.693,3.113l9.976,7.716 l8.319,7.73c0.439,0.361,0.725,0.898,0.782,1.494c0.057,0.595-0.121,1.177-0.501,1.638c-0.252,0.307-0.583,0.541-0.958,0.679 l-7.269,2.628c-0.596,0.166-0.925,0.747-0.771,1.308c0.067,0.181,0.181,0.257,0.303,0.257l16.775-2.007 c0.041-0.018,0.085-0.029,0.13-0.033C28.592,24.511,28.71,24.505,28.834,24.505z"/></g></g></g><g><path fill="none" d="M171.714,133.491"/></g><g><g><path fill="#29ABE2" d="M129.954,325.803v0.004C129.928,325.807,129.932,325.803,129.954,325.803z"/></g></g><g><path fill="#FFF" d="M171.816,166.291c0,0,0.006,0.002,0.01,0.004c0.235,0.127,0.528,0.042,0.66-0.191l4.326-7.822 c0.466-0.841,0.739-1.776,0.8-2.738l0.305-4.208l1.915-1.791c0.673-0.622,1.085-1.477,1.163-2.386l0.702-7.857l0.005-0.064 c0.034-0.275,0.076-0.539,0.136-0.805l-0.012,0.002l3.114-16.169l-10.532,8.053c-2.867,1.106-3.55,2.596-4.48,4.583l-1.625,3.497 c-0.553,1.281-0.751,2.685-0.578,4.067c0.117,0.849,0.11,1.707-0.017,2.556c-0.334,2.405-0.783,6.203-0.783,6.203 c-0.023,0.643,0.372,1.215,0.968,1.431l0.132,0.048c0.76,0.209,1.54-0.23,1.755-0.988c0.222-0.762,1.593-5.289,2.048-6.695 c0.002-0.006,0.004-0.01,0.004-0.01c0.082-0.227,0.292-0.378,0.532-0.38c0.235-0.004,0.442,0.148,0.516,0.372l0.575,1.761 l0.477,9.55l-2.905,7.656c-0.32,0.852-0.006,1.813,0.759,2.305L171.816,166.291z"/><path fill="#1D2445" d="M172.059,166.853L172.059,166.853c-0.163,0-0.325-0.041-0.468-0.118c-1.027-0.652-1.43-1.872-1.028-2.939 l2.869-7.56l-0.469-9.38l-0.554-1.697c-0.002,0.008-0.113,0.049-0.116,0.056c-0.451,1.4-1.82,5.922-2.029,6.642 c-0.281,0.991-1.368,1.602-2.369,1.331l-0.169-0.061c-0.806-0.292-1.328-1.063-1.297-1.918c0.003-0.041,0.454-3.845,0.788-6.254 c0.122-0.811,0.127-1.623,0.017-2.419c-0.186-1.479,0.027-2.976,0.614-4.334l1.63-3.51c0.958-2.048,1.704-3.643,4.686-4.813 l10.476-8.01c0.165-0.126,0.39-0.139,0.567-0.027c0.176,0.108,0.267,0.315,0.228,0.52l-3.094,16.062 c0.001,0.04-0.002,0.081-0.011,0.121c-0.057,0.248-0.096,0.497-0.128,0.755l-0.705,7.905c-0.089,1.04-0.559,2.002-1.322,2.707 l-1.771,1.655l-0.291,4.013c-0.065,1.026-0.363,2.046-0.861,2.944l-4.326,7.821C172.746,166.66,172.415,166.853,172.059,166.853z M172.363,144.132c0.458,0,0.852,0.287,0.995,0.714l0.576,1.764c0.014,0.042,0.021,0.086,0.024,0.13l0.478,9.551 c0.003,0.069-0.007,0.139-0.032,0.203l-2.905,7.656c-0.235,0.625-0.001,1.342,0.557,1.703l4.321-7.813 c0.427-0.771,0.683-1.645,0.739-2.527l0.306-4.213c0.009-0.126,0.065-0.243,0.157-0.329l1.916-1.791 c0.582-0.538,0.938-1.27,1.006-2.063l0.701-7.859c0.037-0.322,0.076-0.576,0.127-0.822c0-0.031,0.002-0.063,0.008-0.094 l2.867-14.88l-9.489,7.256c-0.038,0.028-0.08,0.052-0.124,0.069c-2.663,1.026-3.271,2.327-4.191,4.295l-1.64,3.529 c-0.511,1.183-0.698,2.499-0.535,3.794c0.122,0.885,0.116,1.793-0.019,2.692c-0.333,2.396-0.782,6.188-0.782,6.188 c-0.012,0.379,0.245,0.758,0.643,0.902l0.132,0.048c0.044,0.011,0.129,0.022,0.213,0.022c0.411,0,0.777-0.278,0.891-0.678 c0.211-0.726,1.586-5.266,2.053-6.711C171.517,144.421,171.918,144.136,172.363,144.132L172.363,144.132z"/></g><g><g><g><path fill="#FFF" d="M218.827,96.077l-33.886-35.496c-1.994-4.936-6.514-8.541-11.962-9.243l-70.327-13.055l-0.001,0.047 l-24.059-6.557l-9.004-2.364L34.298,15.541l-4.941,10.187l25.312,16.437c1.717,1.181,3.608,2.076,5.598,2.672l43.944,15.762 l7.645,20.345v61.485l63.813-12.519l6.376,6.857l26.28-23.932c0.517-0.449,1.802-1.728,2.842-2.966 c0.017-0.016,0.038-0.026,0.055-0.043l6.344-6.348C219.964,101.187,221.114,98.474,218.827,96.077z M176.949,125.471 l0.406-36.894l2.45-1.186c0.221-0.107,0.432-0.228,0.645-0.346l12.544,12.706L176.949,125.471z"/></g></g><g><g><path fill="#1D2445" d="M111.856,142.928c-0.115,0-0.228-0.04-0.318-0.114c-0.115-0.095-0.182-0.236-0.182-0.386V81.034 l-7.532-20.042L60.098,45.307c-2.036-0.609-3.967-1.53-5.712-2.73l-25.302-16.43c-0.211-0.137-0.288-0.41-0.177-0.637 l4.941-10.188c0.114-0.236,0.39-0.343,0.633-0.248L69.77,28.943l8.948,2.347l23.868,6.504c0.052-0.011,0.105-0.013,0.156-0.002 l70.327,13.056c5.475,0.704,10.188,4.326,12.298,9.457l33.821,35.427c2.217,2.324,1.764,5.203-1.278,8.106l-6.335,6.34 c-0.02,0.02-0.07,0.061-0.093,0.077c-1.004,1.209-2.294,2.491-2.83,2.956l-26.272,23.926c-0.203,0.185-0.516,0.171-0.703-0.029 l-6.187-6.654l-63.54,12.466C111.921,142.926,111.889,142.928,111.856,142.928z M29.999,25.55l24.942,16.196 c1.67,1.147,3.506,2.024,5.469,2.612l43.969,15.771c0.138,0.05,0.248,0.157,0.299,0.295l7.646,20.344 c0.021,0.056,0.032,0.115,0.032,0.176v60.878l63.216-12.402c0.17-0.036,0.345,0.023,0.462,0.149l6.039,6.495l25.915-23.6 c0.54-0.47,1.804-1.738,2.796-2.918c0.027-0.033,0.085-0.082,0.12-0.106l6.308-6.316c1.83-1.747,3.525-4.32,1.253-6.701 l-33.886-35.495c-0.043-0.046-0.078-0.1-0.102-0.158c-1.957-4.844-6.387-8.267-11.563-8.934l-70.169-13.025 c-0.075,0.02-0.153,0.023-0.227,0.003L78.46,32.256l-9-2.363L34.546,16.176L29.999,25.55z M176.949,125.971 c-0.047,0-0.094-0.007-0.14-0.021c-0.215-0.063-0.362-0.261-0.36-0.485l0.406-36.894c0.002-0.189,0.111-0.361,0.282-0.444 l2.45-1.187c0.174-0.084,0.34-0.177,0.506-0.269l0.115-0.064c0.195-0.108,0.44-0.073,0.598,0.086l12.543,12.707 c0.163,0.165,0.191,0.42,0.068,0.616l-16.045,25.719C177.28,125.886,177.118,125.971,176.949,125.971z M177.851,88.893 l-0.383,34.801l14.893-23.871l-12-12.156c-0.112,0.061-0.224,0.12-0.34,0.176L177.851,88.893z"/></g></g></g><g><path fill="#1D2445" d="M156.284,19.569l-24.029-8.643l0,0c2.229-6.197,8.547-9.934,15.051-8.904l6.535,1.035 c4.117,0.652,6.624,4.89,5.213,8.812L156.284,19.569z"/></g><g><polygon fill="#1D2445" points="147.266 10.086 145.311 15.521 140.467 13.778 133.927 31.96 132.11 31.307 128.16 14.524 135.87 5.666"/></g><g><rect width="11.197" height="14.234" x="131.894" y="16.11" fill="#C78982" transform="matrix(-0.9492 -0.3148 0.3148 -0.9492 260.6833 88.5542)"/></g><g><g><g><path fill="#FFF" d="M162.292,5.807l-4.987-1.794c-9.313-3.349-19.578,1.485-22.928,10.797l-1.864,5.183l-4.133,2.025 c-1.466,0.719-1.375,2.839,0.148,3.428l1.776,0.688l-2.103,5.847l-0.877,2.394c-0.824,2.484,1.012,5.049,3.629,5.071l5.543,0.046 l0.019,32.338c0.001,1.913,2.429,2.733,3.59,1.212l17.145-22.469l-0.008-11.446c3.091-1.391,5.64-3.977,6.878-7.419l4.49-12.484 C170.57,13.774,167.742,7.767,162.292,5.807z"/></g></g><g><g><path fill="#1D2445" d="M138.535,74.333C138.535,74.333,138.535,74.333,138.535,74.333c-1.238-0.001-2.519-0.937-2.52-2.503 l-0.019-31.842l-5.047-0.042c-1.41-0.012-2.688-0.677-3.508-1.822c-0.819-1.146-1.035-2.569-0.591-3.906l2.819-7.794 l-1.321-0.512c-0.892-0.345-1.472-1.153-1.514-2.109s0.466-1.813,1.326-2.234l3.951-1.936l1.796-4.992 c2.623-7.291,9.589-12.189,17.335-12.189c2.122,0,4.218,0.367,6.232,1.091l4.987,1.794c5.7,2.052,8.669,8.357,6.62,14.057 l-4.49,12.484c-1.207,3.354-3.632,6.031-6.849,7.569l0.008,11.127c0,0.109-0.036,0.216-0.103,0.304l-17.145,22.469 C140.016,73.981,139.317,74.333,138.535,74.333z M151.242,3.451c-7.325,0-13.914,4.633-16.394,11.527l-1.865,5.184 c-0.044,0.123-0.134,0.223-0.25,0.28l-4.133,2.024c-0.594,0.292-0.786,0.859-0.767,1.293c0.024,0.561,0.352,1.018,0.876,1.221 l1.776,0.688c0.253,0.098,0.382,0.38,0.29,0.635l-2.981,8.244c-0.337,1.016-0.171,2.112,0.46,2.995 c0.632,0.883,1.617,1.395,2.703,1.404l5.542,0.046c0.274,0.002,0.496,0.226,0.496,0.5l0.019,32.338 c0,0.94,0.773,1.502,1.52,1.503l0,0c0.464,0,0.88-0.211,1.173-0.595l17.042-22.334l-0.008-11.277 c0-0.196,0.115-0.375,0.295-0.456c3.113-1.4,5.461-3.934,6.612-7.132l4.49-12.484c1.864-5.182-0.835-10.913-6.017-12.777 l-4.987-1.794C155.23,3.798,153.247,3.451,151.242,3.451z"/></g></g></g><g><path fill="#1D2445" d="M137.24,20.627c-0.188,0-0.368-0.106-0.453-0.287l-0.644-1.366c-0.071-0.15-0.196-0.265-0.354-0.322 l-2.413-0.867c-0.26-0.094-0.395-0.38-0.301-0.64c0.094-0.26,0.377-0.394,0.64-0.302l2.414,0.868 c0.409,0.148,0.735,0.445,0.919,0.837l0.643,1.366c0.118,0.25,0.011,0.548-0.239,0.665 C137.383,20.611,137.311,20.627,137.24,20.627z"/></g><g><path fill="#1D2445" d="M131.046,31.051c-0.02,0-0.094-0.004-0.114-0.007l-2.149-0.256c-0.151-0.018-0.286-0.104-0.366-0.233 s-0.097-0.288-0.045-0.432l0.818-2.274c0.081-0.224,0.307-0.354,0.539-0.326l3.251,0.45c0.035,0.005,0.068,0.013,0.101,0.024 c0.419,0.151,0.544,0.408,0.575,0.598c0.078,0.477-0.328,0.799-0.841,1.206c-0.13,0.103-0.268,0.212-0.403,0.328 c-0.001,0.003-0.207,0.206-0.4,0.37c-0.047,0.04-0.089,0.083-0.131,0.124C131.71,30.794,131.452,31.051,131.046,31.051z M129.525,29.87l1.505,0.179c0.036-0.024,0.1-0.089,0.144-0.133c0.061-0.061,0.123-0.122,0.19-0.18 c0.174-0.147,0.361-0.334,0.365-0.338c0.173-0.151,0.323-0.27,0.463-0.382c0.048-0.038,0.101-0.079,0.153-0.121l-2.353-0.327 L129.525,29.87z"/></g><g><path fill="#1D2445" d="M144.069,2.154l-4.022,11.181c-0.782,2.174,0.346,4.57,2.52,5.352l3.968,1.427 c2.1,0.755,3.191,3.071,2.435,5.171l-3.353,9.323c-0.68,1.892,0.301,3.977,2.193,4.658l0,0c0.908,0.327,1.91,0.279,2.783-0.132 l18.215-8.578c1.01-0.475,1.443-1.679,0.967-2.689l-5.798-16.128c-1.751-4.87-6.158-8.289-11.31-8.775L144.069,2.154z"/></g><g><path fill="#1D2445" d="M156.484,3.708l11.158,4.014c5.806,2.089,8.819,8.489,6.731,14.295l-6.8,18.904 c-0.298,0.829-1.134,1.338-2.008,1.223l-18.836-2.489c-1.559-0.206-2.529-1.799-1.997-3.278L156.484,3.708z"/></g><g><path fill="#FFF" d="M154.729,22.396l-0.326-0.117c-2.499-0.899-5.254,0.398-6.153,2.898l-3.136,8.72l4.419-0.911 c1.805-0.372,3.348-1.535,4.203-3.168l2.228-4.256C156.597,24.351,156.015,22.859,154.729,22.396z"/></g><g><path fill="#1D2445" d="M139.633,43.115c-0.099,0-0.198-0.029-0.285-0.09c-0.227-0.157-0.283-0.469-0.125-0.696 c0.325-0.467,0.362-1.047,0.099-1.551c-0.264-0.505-0.76-0.806-1.33-0.806H136.5c-0.276,0-0.5-0.224-0.5-0.5s0.224-0.5,0.5-0.5 h1.492c0.935,0,1.783,0.515,2.216,1.343s0.37,1.818-0.165,2.586C139.947,43.04,139.791,43.115,139.633,43.115z"/></g><g><path fill="#1D2445" d="M176.843,131.654c-0.133,0-0.266-0.053-0.365-0.158l-2.065-2.203c-0.154-0.164-0.179-0.411-0.062-0.604 l2.569-4.187c0.145-0.235,0.453-0.311,0.688-0.164c0.235,0.145,0.309,0.452,0.165,0.688l-2.37,3.861l1.805,1.925 c0.189,0.201,0.179,0.518-0.023,0.707C177.089,131.609,176.966,131.654,176.843,131.654z"/></g></g></g></g><g><defs><clipPath id="clip-path-id-viewbox-item-11"><rect width="36.361" height="30.381" x="0" y="0"/></clipPath></defs><g><g clip-path="url(#clip-path-id-viewbox-item-11)" transform="translate(347.0 252.0) rotate(0.0 18.0 15.0) scale(0.9900717802040648 0.9874592673052236) translate(-0.0 -0.0)"><g><path fill="#FFF" d="M10.454,7.46c-0.018,0-0.034,0.003-0.052,0.003c-0.001-0.051,0.004-0.1,0.002-0.152 c-0.042-1.54-0.438-3.092-0.882-4.195C9.304,2.563,9.095,2.108,8.932,1.803c-0.161-0.31-0.253-0.487-0.253-0.487 C8.619,1.204,8.542,1.091,8.453,0.993C7.888,0.375,6.929,0.332,6.312,0.897C5.694,1.461,5.651,2.42,6.215,3.038l0.028,0.031 c0,0,0.109,0.12,0.3,0.329C6.74,3.605,6.998,3.917,7.29,4.309C7.876,5.09,8.533,6.242,8.922,7.544 c0.004,0.015,0.007,0.03,0.011,0.045C4.16,8.322,0.5,12.435,0.5,17.414c0,5.497,4.457,9.953,9.954,9.953s9.953-4.456,9.953-9.953 S15.951,7.46,10.454,7.46z"/><path fill="#1D2445" d="M10.453,27.867C4.69,27.867,0,23.177,0,17.414C0,12.42,3.447,8.214,8.278,7.2 C7.939,6.263,7.45,5.355,6.891,4.609C6.625,4.253,6.373,3.945,6.181,3.74L5.875,3.407c-0.778-0.853-0.721-2.13,0.1-2.879 C6.76-0.195,8.1-0.133,8.821,0.655c0.114,0.125,0.218,0.273,0.3,0.43l0.254,0.487C9.559,1.916,9.777,2.4,9.987,2.932 c0.502,1.248,0.825,2.704,0.903,4.041c5.587,0.252,10.017,4.839,10.017,10.44C20.907,23.177,16.218,27.867,10.453,27.867z M7.333,1 C7.079,1,6.836,1.094,6.649,1.266C6.235,1.643,6.206,2.287,6.584,2.701l0.329,0.358C7.13,3.29,7.4,3.621,7.691,4.01 c0.735,0.979,1.359,2.216,1.71,3.391c0.041,0.138,0.026,0.311-0.051,0.433S9.152,8.061,9.01,8.083C4.368,8.796,1,12.72,1,17.414 c0,5.213,4.24,9.453,9.453,9.453s9.454-4.24,9.454-9.453s-4.241-9.453-9.454-9.453c-0.269,0-0.54-0.21-0.551-0.479 c0-0.014,0.001-0.102,0.001-0.114C9.868,6.035,9.552,4.531,9.059,3.302C8.86,2.802,8.659,2.354,8.49,2.038L8.235,1.549 c-0.042-0.08-0.095-0.156-0.151-0.217C7.892,1.121,7.618,1,7.333,1z"/></g><g><path fill="#FFF" d="M27.214,10.07c0.317-0.643,0.667-1.215,1-1.658C28.506,8.02,28.764,7.708,28.96,7.5 c0.191-0.209,0.3-0.328,0.3-0.328l0.033-0.037c0.085-0.094,0.159-0.2,0.22-0.318c0.386-0.742,0.097-1.657-0.645-2.044 c-0.743-0.386-1.658-0.097-2.044,0.645c0,0-0.092,0.177-0.253,0.487c-0.163,0.305-0.373,0.76-0.591,1.313 c-0.307,0.764-0.583,1.748-0.743,2.789c-5.184,0.345-9.285,4.648-9.285,9.92c0,5.497,4.456,9.953,9.953,9.953 s9.954-4.456,9.954-9.953C35.861,14.875,32.092,10.711,27.214,10.07z"/><path fill="#1D2445" d="M25.907,30.382c-5.764,0-10.453-4.689-10.453-10.453c0-5.345,4.078-9.832,9.355-10.385 c0.162-0.892,0.41-1.771,0.708-2.511c0.206-0.523,0.425-1.009,0.614-1.363l0.249-0.48c0.498-0.956,1.758-1.358,2.72-0.858 c0.477,0.248,0.829,0.667,0.991,1.181c0.162,0.513,0.114,1.059-0.134,1.536c-0.08,0.155-0.179,0.298-0.294,0.424l-0.335,0.366 c-0.198,0.21-0.45,0.518-0.714,0.873c-0.216,0.287-0.432,0.619-0.636,0.98c4.825,0.972,8.381,5.254,8.381,10.237 C36.36,25.692,31.671,30.382,25.907,30.382z M28.171,5.102c-0.381,0-0.727,0.21-0.902,0.548l-0.253,0.486 c-0.102,0.191-0.308,0.602-0.569,1.266c-0.314,0.783-0.568,1.734-0.714,2.683c-0.035,0.231-0.228,0.407-0.461,0.423 c-4.944,0.33-8.817,4.468-8.817,9.421c0,5.213,4.24,9.453,9.453,9.453s9.453-4.24,9.453-9.453c0-4.722-3.53-8.747-8.212-9.362 c-0.159-0.021-0.3-0.118-0.375-0.26c-0.076-0.143-0.079-0.313-0.008-0.457c0.319-0.648,0.682-1.249,1.049-1.737 c0.289-0.389,0.56-0.72,0.782-0.955l0.296-0.323c0.088-0.097,0.138-0.169,0.179-0.247c0.125-0.241,0.148-0.516,0.067-0.774 c-0.082-0.258-0.259-0.47-0.5-0.595C28.491,5.141,28.334,5.102,28.171,5.102z"/></g></g></g></g><g><defs><clipPath id="clip-path-id-viewbox-item-12"><rect width="34.127" height="33.425" x="0" y="0"/></clipPath></defs><g><g clip-path="url(#clip-path-id-viewbox-item-12)" transform="translate(415.0 332.0) rotate(0.0 17.0 16.5) scale(0.9962786063820435 0.987284966342558) translate(-0.0 -0.0)"><g><path fill="#FFF" d="M0.5,25.274c0,0,0.574-0.389,1.591-0.937c0.512-0.267,1.135-0.575,1.794-0.938 c0.66-0.332,1.404-0.707,2.215-1.116c1.551-0.758,3.36-1.641,5.298-2.589c0.914-0.501,1.886-0.927,2.805-1.463 c0.951-0.479,1.866-1.026,2.801-1.537c0.901-0.561,1.841-1.063,2.707-1.653c0.911-0.531,1.739-1.149,2.615-1.687 c0.8-0.621,1.68-1.135,2.431-1.739c0.4-0.285,0.789-0.562,1.165-0.831c0.373-0.286,0.734-0.562,1.08-0.826 c0.735-0.509,1.365-1.036,1.973-1.484c0.62-0.441,1.154-0.849,1.6-1.191c0.913-0.672,1.516-1.044,1.516-1.044 s0.007,0.68-0.126,1.851c-0.058,0.591-0.18,1.288-0.396,2.065c-0.205,0.782-0.453,1.672-0.855,2.582 c-0.19,0.462-0.411,0.932-0.632,1.43c-0.248,0.479-0.54,0.951-0.826,1.455c-0.567,1.011-1.336,1.957-2.125,2.955 c-0.861,0.923-1.755,1.905-2.809,2.729c-1.014,0.88-2.167,1.607-3.322,2.319c-1.189,0.652-2.402,1.259-3.651,1.706 c-0.311,0.115-0.616,0.24-0.926,0.345c-0.315,0.089-0.628,0.177-0.939,0.264c-0.623,0.168-1.229,0.365-1.846,0.466 c-1.226,0.23-2.412,0.415-3.546,0.454c-0.568,0.016-1.111,0.07-1.645,0.047c-0.534-0.028-1.044-0.04-1.535-0.08 c-0.972-0.055-1.894-0.221-2.682-0.371c-0.8-0.144-1.457-0.335-2.003-0.525C1.132,25.561,0.5,25.274,0.5,25.274z"/><path fill="#1D2445" d="M8.723,27.412c-0.1,0-0.199-0.002-0.298-0.006L7.91,27.383c-0.356-0.016-0.702-0.03-1.04-0.059 c-0.965-0.054-1.88-0.216-2.733-0.378c-0.716-0.129-1.396-0.308-2.075-0.545c-1.1-0.371-1.74-0.659-1.767-0.672 c-0.165-0.074-0.276-0.232-0.292-0.413c-0.016-0.18,0.067-0.354,0.218-0.456c0.024-0.017,0.606-0.409,1.633-0.963l0.501-0.259 c0.396-0.203,0.834-0.427,1.291-0.678l7.534-3.716c0.38-0.209,0.791-0.414,1.204-0.62c0.526-0.263,1.056-0.526,1.568-0.825 c0.639-0.323,1.235-0.66,1.832-0.997c0.326-0.184,0.652-0.367,0.98-0.547c0.323-0.202,0.676-0.409,1.027-0.616 c0.557-0.327,1.111-0.653,1.639-1.012c0.529-0.31,1.004-0.628,1.476-0.944c0.385-0.258,0.768-0.515,1.159-0.755 c0.345-0.271,0.753-0.55,1.157-0.824c0.422-0.287,0.839-0.57,1.222-0.878l2.254-1.665c0.466-0.323,0.873-0.64,1.261-0.94 c0.246-0.19,0.484-0.376,0.719-0.549c0.621-0.442,1.15-0.846,1.592-1.186c0.928-0.682,1.533-1.057,1.559-1.073 c0.153-0.093,0.347-0.1,0.504-0.012c0.158,0.087,0.257,0.252,0.259,0.433c0,0.029,0.006,0.724-0.128,1.911 c-0.067,0.681-0.206,1.403-0.412,2.143c-0.204,0.782-0.46,1.703-0.879,2.65c-0.129,0.316-0.28,0.649-0.436,0.993l-0.196,0.438 c-0.184,0.355-0.373,0.682-0.568,1.016l-0.28,0.483c-0.541,0.963-1.24,1.847-1.981,2.782l-0.381,0.447 c-0.827,0.888-1.682,1.806-2.698,2.601c-1.009,0.877-2.17,1.613-3.369,2.352c-1.491,0.818-2.639,1.354-3.743,1.751l-0.311,0.118 c-0.208,0.08-0.415,0.159-0.624,0.229l-1.453,0.408c-0.457,0.13-0.93,0.264-1.413,0.342c-1.081,0.203-2.365,0.418-3.608,0.461 c-0.194,0.005-0.382,0.015-0.566,0.024C9.265,27.399,8.993,27.412,8.723,27.412z M1.608,25.18c0.223,0.083,0.483,0.177,0.778,0.276 c0.634,0.221,1.264,0.387,1.932,0.507c0.825,0.156,1.703,0.313,2.622,0.364c0.337,0.027,0.67,0.042,1.012,0.057l0.521,0.023 c0.322,0.013,0.671-0.004,1.019-0.022c0.192-0.01,0.389-0.02,0.587-0.025c1.174-0.04,2.412-0.248,3.468-0.445 c0.438-0.071,0.863-0.192,1.313-0.319l1.43-0.401c0.172-0.059,0.366-0.133,0.562-0.208l0.326-0.124 c1.058-0.38,2.162-0.896,3.584-1.676c1.141-0.703,2.265-1.415,3.235-2.259c0.974-0.762,1.802-1.651,2.602-2.511l0.329-0.387 c0.716-0.903,1.392-1.757,1.896-2.653l0.287-0.496c0.187-0.318,0.368-0.63,0.53-0.943l0.187-0.416 c0.15-0.333,0.297-0.655,0.427-0.974c0.395-0.893,0.637-1.768,0.834-2.52c0.191-0.69,0.32-1.357,0.382-1.987 c0.036-0.317,0.062-0.599,0.079-0.838c-0.197,0.138-0.425,0.299-0.677,0.484c-0.44,0.339-0.979,0.75-1.605,1.195 c-0.222,0.164-0.453,0.344-0.692,0.529c-0.401,0.312-0.823,0.639-1.285,0.959l-2.239,1.653c-0.38,0.307-0.818,0.605-1.263,0.907 c-0.387,0.264-0.778,0.529-1.151,0.818c-0.426,0.266-0.798,0.515-1.171,0.765c-0.489,0.328-0.981,0.658-1.499,0.96 c-0.516,0.352-1.089,0.689-1.665,1.028c-0.345,0.202-0.69,0.405-1.03,0.617c-0.349,0.191-0.671,0.373-0.993,0.555 c-0.61,0.345-1.221,0.688-1.847,1.004c-0.504,0.296-1.053,0.569-1.598,0.842c-0.402,0.2-0.802,0.4-1.191,0.613l-7.528,3.713 c-0.45,0.247-0.897,0.477-1.301,0.683l-0.488,0.252C2.051,24.927,1.812,25.062,1.608,25.18z"/></g><g><path fill="#FFF" d="M33.194,7.307c-0.001-0.005-0.002-0.009-0.003-0.013c0.326-1.232,0.456-2.492,0.433-3.477 c-0.01-0.594-0.046-1.094-0.091-1.437c-0.042-0.346-0.065-0.545-0.065-0.545c-0.016-0.125-0.049-0.259-0.098-0.382 c-0.311-0.777-1.193-1.155-1.97-0.844c-0.777,0.311-1.154,1.193-0.843,1.97l0.016,0.039c0,0,0.06,0.15,0.166,0.413 c0.111,0.263,0.242,0.646,0.377,1.116c0.231,0.79,0.405,1.85,0.401,2.974c-0.297,0.422-0.633,0.904-1.036,1.44 c-0.439,0.599-0.863,1.283-1.399,1.978c-0.494,0.711-1.015,1.464-1.594,2.222c-0.52,0.788-1.172,1.538-1.736,2.353 c-0.646,0.766-1.224,1.596-1.909,2.362c-0.625,0.809-1.34,1.56-1.999,2.357c-0.719,0.749-1.388,1.542-2.126,2.27 c-0.684,0.779-1.458,1.46-2.148,2.208c-0.748,0.682-1.423,1.427-2.14,2.07c-0.684,0.686-1.362,1.324-1.996,1.931 c-0.632,0.625-1.212,1.198-1.726,1.707c-0.505,0.537-0.993,1.014-1.392,1.417c-0.786,0.818-1.206,1.356-1.206,1.356 s0.677,0.09,1.811,0.124c0.566,0.024,1.239,0.012,2.033-0.084c0.786-0.086,1.698-0.2,2.627-0.433 c0.473-0.105,0.955-0.243,1.465-0.374c0.504-0.142,1-0.349,1.528-0.532c1.053-0.37,2.106-0.906,3.189-1.483 c0.543-0.29,1.056-0.648,1.588-0.995c0.541-0.336,1.06-0.718,1.56-1.138c1.036-0.794,1.975-1.744,2.894-2.708 c0.857-1.024,1.707-2.059,2.382-3.191c0.356-0.552,0.692-1.109,0.959-1.698c0.281-0.579,0.579-1.137,0.807-1.717 c0.435-1.169,0.845-2.292,1.063-3.407c0.109-0.557,0.244-1.084,0.314-1.61c0.052-0.532,0.113-1.037,0.147-1.525 c0.094-0.97,0.041-1.876-0.007-2.667C33.428,8.563,33.321,7.875,33.194,7.307z"/><path fill="#1D2445" d="M11.42,33.425c-0.184,0-0.357-0.004-0.523-0.011c-1.14-0.035-1.826-0.125-1.854-0.128 c-0.178-0.024-0.33-0.141-0.397-0.307s-0.041-0.356,0.069-0.497c0.018-0.023,0.444-0.567,1.239-1.395l0.309-0.31 c0.33-0.329,0.7-0.699,1.081-1.103l2.08-2.047c0.532-0.508,1.09-1.038,1.65-1.602c0.382-0.343,0.732-0.694,1.088-1.05 c0.348-0.348,0.7-0.7,1.069-1.036c0.281-0.308,0.61-0.633,0.94-0.959c0.397-0.392,0.797-0.786,1.168-1.209 c0.453-0.448,0.857-0.893,1.262-1.338c0.29-0.318,0.581-0.638,0.88-0.949c0.245-0.298,0.523-0.616,0.802-0.934 c0.398-0.455,0.796-0.908,1.162-1.383c0.406-0.456,0.755-0.905,1.102-1.352c0.271-0.348,0.539-0.693,0.821-1.027 c0.236-0.347,0.521-0.717,0.804-1.083c0.313-0.407,0.624-0.81,0.897-1.223c0.575-0.755,1.076-1.477,1.552-2.161 c0.005-0.007,0.059-0.084,0.063-0.09c0.311-0.403,0.582-0.802,0.842-1.182c0.187-0.273,0.367-0.537,0.55-0.787 c0.363-0.482,0.668-0.916,0.938-1.302c-0.011-0.914-0.147-1.882-0.38-2.677c-0.122-0.428-0.25-0.805-0.358-1.062l-0.169-0.423 c-0.428-1.069,0.074-2.244,1.105-2.658c1.022-0.411,2.219,0.114,2.621,1.122c0.063,0.154,0.108,0.33,0.13,0.506l0.065,0.548 c0.052,0.385,0.086,0.916,0.096,1.488c0.024,1.081-0.128,2.349-0.42,3.494c0.14,0.654,0.228,1.334,0.262,2.025 c0.047,0.762,0.104,1.717,0.006,2.739c-0.023,0.337-0.061,0.695-0.1,1.066l-0.047,0.46c-0.051,0.381-0.129,0.744-0.209,1.117 c-0.038,0.178-0.077,0.356-0.113,0.54c-0.217,1.111-0.603,2.189-1.084,3.484c-0.181,0.459-0.398,0.898-0.619,1.343l-0.207,0.418 c-0.286,0.634-0.66,1.241-0.987,1.75c-0.666,1.118-1.49,2.131-2.419,3.241c-0.872,0.917-1.872,1.939-2.974,2.784 c-0.513,0.431-1.058,0.828-1.602,1.166l-0.334,0.22c-0.411,0.272-0.837,0.554-1.282,0.792c-0.983,0.523-2.127,1.116-3.259,1.514 c-0.18,0.063-0.354,0.127-0.524,0.19c-0.349,0.129-0.689,0.255-1.033,0.352l-0.514,0.135c-0.334,0.088-0.659,0.174-0.979,0.245 c-0.922,0.231-1.835,0.35-2.681,0.442C12.47,33.392,11.935,33.425,11.42,33.425z M10.119,32.377 c0.234,0.015,0.507,0.028,0.813,0.037c0.604,0.024,1.278,0.001,1.959-0.08c0.816-0.09,1.688-0.202,2.564-0.423 c0.321-0.07,0.632-0.153,0.952-0.238l0.512-0.134c0.307-0.087,0.621-0.204,0.944-0.323c0.178-0.066,0.357-0.133,0.542-0.197 c1.063-0.373,2.168-0.945,3.118-1.452c0.403-0.216,0.791-0.472,1.201-0.743l0.35-0.229c0.513-0.318,1.019-0.688,1.512-1.102 c1.062-0.815,2.029-1.806,2.854-2.67c0.88-1.054,1.678-2.032,2.314-3.103c0.317-0.493,0.667-1.062,0.934-1.648l0.216-0.439 c0.208-0.417,0.414-0.829,0.58-1.254c0.463-1.243,0.835-2.282,1.038-3.319c0.037-0.189,0.076-0.375,0.116-0.558 c0.074-0.347,0.147-0.685,0.193-1.022l0.046-0.449c0.037-0.358,0.074-0.705,0.097-1.044c0.093-0.959,0.037-1.87-0.007-2.603 c-0.033-0.678-0.122-1.338-0.263-1.967c-0.018-0.078-0.019-0.174,0.002-0.251c0.289-1.09,0.44-2.306,0.417-3.337 c-0.009-0.537-0.04-1.027-0.087-1.383l-0.066-0.55c-0.011-0.089-0.034-0.18-0.065-0.256c-0.203-0.51-0.808-0.771-1.321-0.567 c-0.52,0.209-0.772,0.801-0.564,1.321l0.181,0.451c0.122,0.289,0.26,0.694,0.395,1.165c0.274,0.939,0.424,2.046,0.42,3.113 c0,0.102-0.032,0.201-0.091,0.285c-0.336,0.479-0.66,0.941-1.046,1.453c-0.172,0.235-0.347,0.491-0.527,0.755 c-0.27,0.396-0.552,0.81-0.874,1.228c-0.519,0.747-1.029,1.481-1.594,2.221c-0.267,0.405-0.591,0.827-0.92,1.254 c-0.271,0.353-0.547,0.709-0.803,1.079c-0.302,0.362-0.563,0.697-0.825,1.034c-0.36,0.465-0.724,0.932-1.122,1.377 c-0.355,0.463-0.767,0.933-1.179,1.402c-0.271,0.311-0.545,0.622-0.808,0.94c-0.317,0.333-0.602,0.646-0.886,0.957 c-0.417,0.459-0.834,0.917-1.275,1.352c-0.362,0.415-0.778,0.825-1.191,1.234c-0.319,0.314-0.638,0.629-0.939,0.955 c-0.389,0.356-0.729,0.698-1.066,1.035c-0.368,0.369-0.731,0.732-1.106,1.068c-0.547,0.55-1.11,1.087-1.648,1.6l-2.056,2.021 c-0.376,0.398-0.753,0.775-1.089,1.111l-0.301,0.302C10.458,32.006,10.275,32.204,10.119,32.377z"/></g></g></g></g><g><defs><clipPath id="clip-path-id-viewbox-item-13"><rect width="219.123" height="218.498" x="0" y="0"/></clipPath></defs><g><g clip-path="url(#clip-path-id-viewbox-item-13)" transform="translate(745.0 289.0) rotate(0.0 -109.5 109.0) scale(-0.9994386714311141 0.9977208029364114) translate(-0.0 -0.0)"><g><g><rect width="2" height="24.285" x="183.755" y="175.454" fill="#1D2445"/></g></g><g><g><rect width="2" height="24.285" x="45.851" y="175.454" fill="#1D2445"/></g></g><g><g><rect width="2" height="66.525" x="211.429" y="53.58" fill="#1D2445"/></g></g><g><g><rect width="2" height="72.38" x="184.606" y="49.854" fill="#1D2445"/></g></g><g><g><rect width="2" height="79.748" x="157.784" y="47.977" fill="#1D2445"/></g></g><g><g><rect width="2" height="79.748" x="130.96" y="47.977" fill="#1D2445"/></g></g><g><g><rect width="2" height="88.528" x="104.138" y="42.862" fill="#1D2445"/></g></g><g><g><rect width="2" height="96.701" x="77.314" y="39.501" fill="#1D2445"/></g></g><g><g><path fill="#1D2445" d="M216.336,73.703H52.652c-0.552,0-1-0.447-1-1s0.448-1,1-1h163.684c0.552,0,1,0.447,1,1 S216.888,73.703,216.336,73.703z"/></g></g><g><g><path fill="#1D2445" d="M216.336,101.938H60.427c-0.552,0-1-0.447-1-1s0.448-1,1-1h155.909c0.552,0,1,0.447,1,1 S216.888,101.938,216.336,101.938z"/></g></g><g><g><circle cx="183.69" cy="210.515" r="7.983" fill="#1D2445"/></g></g><g><g><path fill="#1D2445" d="M173.737,211.515c-0.552,0-1-0.447-1-1c0-6.04,4.914-10.954,10.954-10.954 c3.021,0,5.937,1.267,8.002,3.474c0.377,0.403,0.356,1.036-0.047,1.414c-0.403,0.377-1.036,0.355-1.414-0.047 c-1.713-1.832-4.036-2.841-6.542-2.841c-4.937,0-8.954,4.017-8.954,8.954C174.737,211.068,174.289,211.515,173.737,211.515z"/></g></g><g><g><circle cx="45.786" cy="210.515" r="7.983" fill="#1D2445"/></g></g><g><g><path fill="#1D2445" d="M35.833,211.515c-0.552,0-1-0.447-1-1c0-6.04,4.914-10.954,10.954-10.954c3.021,0,5.937,1.267,8.002,3.474 c0.377,0.403,0.356,1.036-0.047,1.414c-0.403,0.377-1.035,0.355-1.414-0.047c-1.713-1.832-4.036-2.841-6.542-2.841 c-4.937,0-8.954,4.017-8.954,8.954C36.833,211.068,36.385,211.515,35.833,211.515z"/></g></g><g><g><g><path fill="#FFF" d="M215.632,173.518l-163.202-0.52l18.158-34.586l145.36-15.857c1.647-0.18,2.837-1.661,2.657-3.308 c-0.18-1.647-1.667-2.833-3.308-2.657L71.764,132.248L46.316,40.332l169.001,17.297c0.104,0.011,0.207,0.016,0.309,0.016 c1.52,0,2.823-1.15,2.981-2.694c0.169-1.648-1.031-3.121-2.679-3.29L44.597,34.124l-5.604-20.243 c-1.826-6.595-7.88-11.2-14.722-11.2H8.064v6H24.27c4.155,0,7.831,2.797,8.94,6.802l32.849,118.647l-22.145,42.181v21.741h6 V178.99l131.84,0.42v18.642h6v-18.623l27.858,0.089c0.003,0,0.007,0,0.01,0c1.652,0,2.995-1.337,3-2.99 C218.628,174.871,217.289,173.523,215.632,173.518z"/></g></g><g><g><path fill="#1D2445" d="M187.755,198.552h-6c-0.276,0-0.5-0.224-0.5-0.5v-18.145l-130.84-0.416v18.561c0,0.276-0.224,0.5-0.5,0.5 h-6c-0.276,0-0.5-0.224-0.5-0.5v-21.741c0-0.081,0.02-0.161,0.057-0.232l22.053-42.006L32.728,15.617 c-1.049-3.789-4.527-6.436-8.458-6.436H8.064c-0.276,0-0.5-0.224-0.5-0.5v-6c0-0.276,0.224-0.5,0.5-0.5H24.27 c7.066,0,13.318,4.757,15.204,11.566l5.513,19.914l170.991,17.501c1.92,0.196,3.322,1.918,3.125,3.838 c-0.196,1.911-1.887,3.331-3.839,3.125L46.993,40.904l25.14,90.802l143.111-15.612c1.958-0.207,3.651,1.197,3.859,3.1 c0.102,0.93-0.165,1.843-0.75,2.571c-0.586,0.729-1.42,1.187-2.35,1.288L70.907,138.881l-17.651,33.621l162.378,0.517 c0.935,0.003,1.813,0.369,2.472,1.033c0.659,0.663,1.02,1.543,1.017,2.479c-0.006,1.923-1.576,3.488-3.5,3.488l-27.368-0.087 v18.121C188.255,198.329,188.031,198.552,187.755,198.552z M182.255,197.552h5v-18.123c0-0.133,0.053-0.261,0.147-0.354 c0.094-0.093,0.224-0.128,0.354-0.146l27.858,0.089c1.382,0,2.504-1.118,2.508-2.492c0.002-0.668-0.256-1.297-0.727-1.771 s-1.098-0.735-1.765-0.737l-163.203-0.52c-0.175-0.001-0.337-0.093-0.427-0.242c-0.09-0.149-0.096-0.336-0.015-0.49 l18.158-34.586c0.078-0.147,0.223-0.247,0.389-0.265l145.36-15.857c0.664-0.072,1.26-0.399,1.678-0.92 c0.418-0.521,0.608-1.173,0.536-1.836c-0.148-1.36-1.371-2.367-2.757-2.215L71.818,132.746c-0.24,0.022-0.471-0.128-0.536-0.363 L45.833,40.466c-0.044-0.159-0.007-0.33,0.1-0.456c0.106-0.127,0.268-0.2,0.433-0.175l169.001,17.297 c1.408,0.137,2.602-0.868,2.742-2.232c0.141-1.371-0.861-2.602-2.232-2.742L44.546,34.622c-0.205-0.021-0.376-0.165-0.431-0.363 l-5.604-20.243C36.744,7.636,30.889,3.181,24.27,3.181H8.564v5H24.27c4.379,0,8.253,2.947,9.422,7.168l32.849,118.647 c0.034,0.123,0.02,0.254-0.039,0.366l-22.087,42.071v21.118h5V178.99c0-0.133,0.053-0.261,0.147-0.354 c0.094-0.093,0.221-0.146,0.353-0.146c0,0,0.001,0,0.001,0l131.84,0.42c0.276,0.001,0.499,0.225,0.499,0.5V197.552z"/></g></g></g><g><g><circle cx="5.456" cy="5.456" r="5.456" fill="#1D2445"/></g></g></g></g></g><g><defs><clipPath id="clip-path-id-viewbox-item-13"><rect width="29.856" height="40.484" x="0" y="0"/></clipPath></defs><g><g clip-path="url(#clip-path-id-viewbox-item-13)" transform="translate(421.0 250.0) rotate(0.0 14.5 20.0) scale(0.9713290460878885 0.9880446596186148) translate(-0.0 -0.0)"><g><path fill="#FFF" d="M29.356,16.129c0-2.761-2.239-5-5-5c-0.012,0-0.024,0.003-0.036,0.004 c-0.702-1.912-2.523-3.283-4.678-3.283c-0.58,0-0.529-0.111-1.048,0.071c-0.002-0.007,0.03,0.054-0.157,0 c0.481-0.725,0.64-1.284,1.344-1.932c0.993-0.928,2.142-1.591,3.041-1.97c0.45-0.191,0.83-0.331,1.104-0.411 c0.271-0.084,0.425-0.132,0.425-0.132l0.047-0.014c0.121-0.038,0.239-0.093,0.351-0.163c0.708-0.446,0.92-1.382,0.474-2.09 c-0.446-0.708-1.382-0.92-2.09-0.474c0,0-0.169,0.106-0.464,0.292c-0.295,0.181-0.705,0.469-1.172,0.836 c-0.94,0.729-2.064,1.869-2.878,3.178c-0.448,0.709-0.797,1.447-1.071,2.148c-0.877-1.441-2.449-2.413-4.259-2.413 c-1.898,0-3.529,1.07-4.376,2.628C8.042,6.669,6.933,6.21,5.705,6.21c-2.761,0-5,2.239-5,5c0,1.679,0.834,3.156,2.104,4.063 c-1.031,0.916-1.694,2.237-1.694,3.725c0,1.886,1.057,3.509,2.6,4.361C1.838,24.079,0.5,25.885,0.5,28.016 c0,2.748,2.217,4.974,4.96,4.996c-0.534,0.727-0.861,1.616-0.861,2.587c0,2.422,1.963,4.385,4.385,4.385s4.385-1.963,4.385-4.385 c0-0.747-0.204-1.44-0.534-2.055c0.281,0.049,0.567,0.087,0.863,0.087c2.761,0,5-2.239,5-5c0-0.009-0.003-0.017-0.003-0.026 c0.542,0.189,1.115,0.313,1.721,0.313c2.899,0,5.25-2.35,5.25-5.25c0-0.95-0.272-1.829-0.714-2.598 C27.429,20.77,29.356,18.685,29.356,16.129z"/><path fill="#1D2445" d="M8.984,40.484c-2.693,0-4.885-2.191-4.885-4.885c0-0.754,0.176-1.487,0.513-2.16 C2.002,33.012,0,30.735,0,28.015c0-1.979,1.039-3.751,2.709-4.728c-1.31-1.033-2.094-2.608-2.094-4.29 c0-1.359,0.521-2.674,1.443-3.686c-1.17-1.04-1.854-2.534-1.854-4.103c0-3.032,2.468-5.5,5.5-5.5c1.103,0,2.153,0.33,3.07,0.961 c1.022-1.49,2.704-2.396,4.514-2.396c1.615,0,3.108,0.699,4.145,1.906c0.233-0.504,0.489-0.976,0.763-1.409 c0.75-1.205,1.842-2.411,2.994-3.306c0.443-0.349,0.876-0.656,1.216-0.866l0.463-0.29c0.909-0.572,2.204-0.278,2.777,0.631 c0.593,0.94,0.311,2.187-0.63,2.779c-0.148,0.093-0.305,0.166-0.466,0.217l-0.476,0.147c-0.272,0.08-0.646,0.219-1.058,0.394 c-1.028,0.434-2.083,1.116-2.895,1.875c-0.364,0.336-0.558,0.635-0.76,0.984c0.072,0.007,0.161,0.012,0.279,0.012 c2.173,0,4.149,1.312,5.021,3.297c2.927,0.188,5.193,2.576,5.193,5.482c0,2.533-1.745,4.705-4.158,5.31 c0.312,0.717,0.469,1.464,0.469,2.229c0,3.171-2.579,5.75-5.75,5.75c-0.415,0-0.831-0.051-1.259-0.154 c-0.322,2.747-2.648,4.868-5.46,4.868c-0.022,0-0.045,0-0.067-0.001c0.159,0.481,0.239,0.973,0.239,1.47 C13.87,38.293,11.678,40.484,8.984,40.484z M5.705,6.71c-2.481,0-4.5,2.019-4.5,4.5c0,1.441,0.708,2.809,1.896,3.656 c0.123,0.089,0.2,0.229,0.208,0.381c0.009,0.151-0.054,0.299-0.167,0.4c-0.97,0.861-1.526,2.083-1.526,3.351 c0,1.623,0.897,3.126,2.342,3.923c0.171,0.094,0.271,0.277,0.258,0.472c-0.014,0.194-0.139,0.363-0.319,0.433 C2.136,24.5,1,26.145,1,28.015c0,2.459,2.003,4.476,4.464,4.496c0.188,0.002,0.359,0.108,0.443,0.276s0.066,0.368-0.044,0.52 c-0.5,0.68-0.764,1.472-0.764,2.292c0,2.142,1.743,3.885,3.885,3.885c2.143,0,3.886-1.743,3.886-3.885 c0-0.618-0.16-1.23-0.475-1.82c-0.091-0.168-0.077-0.373,0.035-0.528c0.111-0.154,0.298-0.236,0.491-0.199 c0.213,0.036,0.494,0.079,0.776,0.079c2.481,0,4.5-2.019,4.5-4.5c0-0.162,0.077-0.327,0.21-0.421 c0.131-0.094,0.299-0.131,0.453-0.077c0.547,0.191,1.056,0.284,1.556,0.284c2.619,0,4.75-2.131,4.75-4.75 c0-0.811-0.218-1.601-0.647-2.35c-0.084-0.146-0.089-0.323-0.014-0.474c0.075-0.149,0.221-0.252,0.388-0.271 c2.259-0.272,3.963-2.183,3.963-4.443c0-2.481-2.019-4.5-4.5-4.5c-0.245,0.021-0.429-0.112-0.506-0.324 c-0.648-1.768-2.34-2.955-4.208-2.955c-0.217,0-0.354-0.014-0.464-0.024c-0.046-0.005-0.083-0.01-0.121-0.01 c-0.023,0-0.069,0-0.23,0.054c-0.157,0.085-0.311,0.093-0.527,0.031c-0.153-0.044-0.276-0.158-0.331-0.308 c-0.056-0.149-0.036-0.316,0.053-0.449c0.145-0.219,0.259-0.422,0.368-0.616c0.253-0.447,0.515-0.91,1.053-1.406 c0.893-0.834,2.055-1.587,3.186-2.063c0.452-0.192,0.854-0.341,1.159-0.43l0.416-0.13c0.126-0.039,0.206-0.076,0.281-0.124 c0.473-0.298,0.615-0.926,0.316-1.399c-0.289-0.458-0.937-0.609-1.4-0.317l-0.465,0.292c-0.313,0.193-0.713,0.479-1.129,0.806 c-1.05,0.814-2.082,1.954-2.763,3.049c-0.387,0.611-0.732,1.306-1.03,2.067C17.944,7.548,17.78,7.67,17.59,7.686 c-0.189,0.019-0.371-0.075-0.47-0.238c-0.828-1.36-2.261-2.173-3.832-2.173c-1.635,0-3.144,0.907-3.938,2.367 C9.279,7.774,9.152,7.867,9.004,7.894c-0.148,0.025-0.3-0.012-0.415-0.109C7.754,7.082,6.757,6.71,5.705,6.71z"/></g></g></g></g><g><defs><clipPath id="clip-path-id-crop-item-14"><g transform="scale(1.2144545454545455 1.1987)"><rect width="22" height="54" x="0" y="0"/></g></clipPath><clipPath id="clip-path-id-viewbox-item-14"><rect width="26.718" height="83.909" x="0" y="0"/></clipPath></defs><g clip-path="url(#clip-path-id-crop-item-14)" transform="translate(505.0 263.0) rotate(0.0 11.0 35.0) scale(0.8234149262669361 0.8342370901810294)"><g clip-path="url(#clip-path-id-viewbox-item-14)" transform="translate(-0.0 -0.0)"><g><polygon fill="#FFF" points="3.5 .5 23.218 .5 23.218 6.914 13.231 7.914 3.5 6.914"/><path fill="#1D2445" d="M13.231,8.414c-0.017,0-0.034-0.001-0.051-0.003l-9.73-1C3.195,7.385,3,7.171,3,6.914V0.5 C3,0.224,3.224,0,3.5,0h19.718c0.276,0,0.5,0.224,0.5,0.5v6.414c0,0.257-0.194,0.472-0.45,0.497l-9.987,1 C13.264,8.413,13.247,8.414,13.231,8.414z M4,6.463l9.231,0.948l9.486-0.949V1H4V6.463z"/></g><g><polygon fill="#FFF" points=".5 16.995 13.338 15.995 26.218 16.995 26.218 83.409 .5 83.409"/><path fill="#1D2445" d="M26.218,83.909H0.5c-0.276,0-0.5-0.224-0.5-0.5V16.995c0-0.261,0.201-0.479,0.461-0.498l12.838-1l12.958,1 c0.26,0.02,0.461,0.237,0.461,0.498v66.414C26.718,83.686,26.494,83.909,26.218,83.909z M1,82.909h24.718V17.458l-12.419-0.965 L1,17.457V82.909z"/></g><g><polygon fill="#FFF" points=".5 16.995 26.218 16.995 23.218 6.914 3.5 6.914"/><path fill="#1D2445" d="M26.218,17.495H0.5c-0.158,0-0.307-0.074-0.4-0.201c-0.095-0.126-0.124-0.29-0.079-0.441l3-10.081 C3.084,6.56,3.279,6.414,3.5,6.414h19.718c0.222,0,0.416,0.146,0.479,0.357l3,10.081c0.045,0.151,0.016,0.315-0.079,0.441 C26.525,17.421,26.376,17.495,26.218,17.495z M1.171,16.495h24.376l-2.702-9.081H3.873L1.171,16.495z"/></g></g></g></g><g><defs><clipPath id="clip-path-id-viewbox-item-16"><rect width="34.003" height="31.845" x="0" y="0"/></clipPath></defs><g><g clip-path="url(#clip-path-id-viewbox-item-16)" transform="translate(612.0 223.0) rotate(0.0 17.0 15.5) scale(0.9999117724906625 0.9734652221698854) translate(-0.0 -0.0)"><g><path fill="#FFF" d="M29.342,1.821C25.905,0.956,21.848,0.5,17.61,0.5c-4.854,0-9.545,0.614-13.21,1.73 C1.494,3.115-0.145,6.187,0.74,9.093c0.459,1.508,1.51,2.67,2.818,3.32l1.565,16.22c0.148,1.538,1.441,2.712,2.986,2.712h17.784 c1.545,0,2.838-1.174,2.986-2.712l1.599-16.573c1.374-0.695,2.452-1.955,2.856-3.565C34.076,5.55,32.289,2.561,29.342,1.821z"/><path fill="#1D2445" d="M25.894,31.845H8.11c-1.813,0-3.31-1.359-3.484-3.163L3.086,12.73c-1.37-0.759-2.368-1.989-2.825-3.491 c-0.963-3.165,0.828-6.523,3.993-7.487C7.964,0.622,12.707,0,17.61,0c4.278,0,8.377,0.462,11.854,1.336 c3.208,0.807,5.162,4.073,4.356,7.282c-0.4,1.594-1.438,2.949-2.869,3.757l-1.573,16.307 C29.203,30.485,27.706,31.845,25.894,31.845z M17.61,1C12.803,1,8.163,1.606,4.545,2.709C1.907,3.512,0.415,6.31,1.218,8.948 c0.403,1.326,1.313,2.397,2.563,3.017c0.154,0.077,0.259,0.229,0.275,0.4l1.565,16.221c0.124,1.288,1.193,2.259,2.488,2.259h17.784 c1.295,0,2.364-0.971,2.488-2.259l1.6-16.573c0.017-0.171,0.119-0.321,0.272-0.398c1.298-0.656,2.244-1.837,2.596-3.239 c0.672-2.675-0.956-5.397-3.63-6.068C25.822,1.452,21.807,1,17.61,1z"/></g></g></g></g><g><defs><clipPath id="clip-path-id-viewbox-item-17"><rect width="18.764" height="55.476" x="0" y="0"/></clipPath></defs><g><g clip-path="url(#clip-path-id-viewbox-item-17)" transform="translate(563.0 137.0) rotate(0.0 9.0 27.5) scale(0.9592837348113409 0.9914197130290576) translate(-0.0 -0.0)"><g><g><ellipse cx="9.382" cy="27.738" fill="#FFF" rx="8.882" ry="27.238"/><path fill="#1D2445" d="M9.382,55.476C4.121,55.476,0,43.291,0,27.738S4.121,0,9.382,0s9.382,12.184,9.382,27.737 S14.643,55.476,9.382,55.476z M9.382,1C4.839,1,1,13.244,1,27.738s3.839,26.738,8.382,26.738s8.382-12.245,8.382-26.738 S13.925,1,9.382,1z"/></g><g><path fill="#FFF" d="M14.415,13.527c0,0-0.065,0.249-0.223,0.642c-0.155,0.396-0.402,0.935-0.738,1.542 c-0.673,1.214-1.755,2.649-3.012,3.909c-1.257,1.26-2.69,2.343-3.906,3.015c-0.608,0.336-1.148,0.583-1.544,0.737 c-0.394,0.157-0.643,0.222-0.643,0.222s0.065-0.25,0.221-0.644c0.154-0.397,0.401-0.936,0.737-1.544 c0.672-1.215,1.755-2.649,3.015-3.906c1.259-1.257,2.694-2.339,3.909-3.012c0.608-0.336,1.146-0.584,1.542-0.738 C14.166,13.592,14.415,13.527,14.415,13.527z"/><path fill="#1D2445" d="M4.351,24.092c-0.131,0-0.26-0.052-0.354-0.146c-0.125-0.125-0.175-0.307-0.132-0.478 c0,0,0.069-0.273,0.242-0.704c0.185-0.476,0.456-1.045,0.763-1.6c0.725-1.313,1.854-2.777,3.099-4.019 c1.242-1.239,2.707-2.367,4.021-3.096c0.561-0.31,1.129-0.582,1.603-0.767c0.426-0.17,0.697-0.24,0.697-0.24 c0.17-0.044,0.354,0.006,0.479,0.131s0.176,0.308,0.131,0.479c0,0-0.07,0.271-0.242,0.701c-0.183,0.47-0.455,1.038-0.765,1.599 c-0.727,1.312-1.854,2.776-3.096,4.021s-2.706,2.374-4.018,3.099c-0.56,0.31-1.13,0.581-1.605,0.766 c-0.426,0.17-0.699,0.239-0.699,0.239C4.433,24.087,4.392,24.092,4.351,24.092z M13.563,14.379 c-0.278,0.124-0.649,0.302-1.09,0.546c-1.235,0.685-2.62,1.752-3.798,2.928c-1.181,1.179-2.249,2.562-2.931,3.795 c-0.244,0.441-0.423,0.816-0.547,1.097c0.28-0.123,0.653-0.302,1.097-0.547c1.233-0.682,2.616-1.75,3.795-2.931 c1.178-1.181,2.245-2.564,2.928-3.798C13.261,15.028,13.439,14.657,13.563,14.379z"/></g><g><path fill="#FFF" d="M14.415,22.501c0,0-0.065,0.249-0.223,0.642c-0.155,0.396-0.402,0.935-0.738,1.542 c-0.673,1.214-1.755,2.649-3.012,3.909c-1.257,1.26-2.69,2.343-3.906,3.015c-0.608,0.336-1.148,0.583-1.544,0.737 c-0.394,0.157-0.643,0.222-0.643,0.222s0.065-0.25,0.221-0.644c0.154-0.397,0.401-0.936,0.737-1.544 c0.672-1.215,1.755-2.649,3.015-3.906c1.259-1.257,2.694-2.339,3.909-3.012c0.608-0.336,1.146-0.584,1.542-0.738 C14.166,22.566,14.415,22.501,14.415,22.501z"/><path fill="#1D2445" d="M4.351,33.066c-0.131,0-0.26-0.052-0.354-0.146c-0.125-0.125-0.175-0.307-0.132-0.478 c0,0,0.069-0.273,0.242-0.704c0.185-0.476,0.456-1.045,0.763-1.6c0.726-1.313,1.855-2.777,3.099-4.018 c1.242-1.24,2.707-2.368,4.021-3.096c0.551-0.306,1.12-0.578,1.602-0.768c0.427-0.17,0.698-0.24,0.698-0.24 c0.17-0.045,0.354,0.006,0.479,0.131c0.125,0.125,0.176,0.308,0.131,0.479c0,0-0.07,0.272-0.242,0.701 c-0.181,0.466-0.453,1.035-0.765,1.599c-0.728,1.314-1.856,2.779-3.096,4.021c-1.241,1.244-2.706,2.374-4.018,3.099 c-0.56,0.31-1.13,0.581-1.605,0.766c-0.426,0.17-0.699,0.239-0.699,0.239C4.433,33.061,4.392,33.066,4.351,33.066z M13.563,23.354 c-0.281,0.125-0.653,0.304-1.09,0.546c-1.235,0.684-2.619,1.751-3.798,2.928c-1.181,1.178-2.249,2.561-2.931,3.794 c-0.244,0.441-0.423,0.816-0.547,1.097c0.28-0.123,0.653-0.302,1.097-0.547c1.233-0.682,2.616-1.75,3.795-2.931 c1.176-1.178,2.243-2.562,2.928-3.797C13.224,24.069,13.411,23.694,13.563,23.354z"/></g><g><path fill="#FFF" d="M14.415,31.474c0,0-0.065,0.249-0.223,0.642c-0.155,0.396-0.402,0.935-0.738,1.542 c-0.673,1.214-1.755,2.65-3.012,3.909c-1.257,1.26-2.69,2.343-3.906,3.015c-0.608,0.336-1.148,0.583-1.544,0.736 c-0.394,0.157-0.643,0.222-0.643,0.222s0.065-0.25,0.221-0.644c0.154-0.397,0.401-0.936,0.737-1.544 c0.672-1.215,1.755-2.649,3.015-3.906c1.259-1.257,2.694-2.339,3.909-3.012c0.608-0.336,1.146-0.584,1.542-0.738 C14.166,31.54,14.415,31.474,14.415,31.474z"/><path fill="#1D2445" d="M4.351,42.039c-0.131,0-0.26-0.052-0.354-0.146c-0.125-0.125-0.175-0.307-0.132-0.478 c0,0,0.069-0.272,0.241-0.704c0.186-0.476,0.457-1.045,0.764-1.6c0.726-1.313,1.855-2.777,3.099-4.018 c1.242-1.24,2.707-2.368,4.021-3.096c0.561-0.31,1.129-0.582,1.603-0.767c0.426-0.17,0.697-0.24,0.697-0.24 c0.17-0.044,0.354,0.006,0.479,0.131s0.176,0.308,0.131,0.479c0,0-0.07,0.272-0.242,0.7c-0.181,0.466-0.453,1.035-0.765,1.599 c-0.728,1.314-1.856,2.779-3.096,4.021c-1.241,1.244-2.706,2.374-4.018,3.099c-0.556,0.308-1.126,0.579-1.604,0.766 c-0.427,0.17-0.7,0.239-0.7,0.239C4.433,42.034,4.392,42.039,4.351,42.039z M13.563,32.327c-0.278,0.124-0.649,0.303-1.09,0.546 c-1.235,0.684-2.619,1.751-3.798,2.928c-1.181,1.178-2.249,2.561-2.931,3.794c-0.244,0.441-0.423,0.817-0.547,1.098 c0.28-0.124,0.655-0.304,1.097-0.548c1.233-0.682,2.616-1.75,3.795-2.931c1.176-1.178,2.243-2.562,2.928-3.797 C13.224,33.042,13.411,32.668,13.563,32.327z"/></g></g></g></g></g><g><defs><clipPath id="clip-path-id-crop-item-18"><g transform="scale(1.2144545454545455 1.1987)"><rect width="22" height="54" x="0" y="0"/></g></clipPath><clipPath id="clip-path-id-viewbox-item-18"><rect width="26.718" height="83.909" x="0" y="0"/></clipPath></defs><g clip-path="url(#clip-path-id-crop-item-18)" transform="translate(565.0 263.0) rotate(0.0 11.0 35.0) scale(0.8234149262669361 0.8342370901810294)"><g clip-path="url(#clip-path-id-viewbox-item-18)" transform="translate(-0.0 -0.0)"><g><polygon fill="#FFF" points="3.5 .5 23.218 .5 23.218 6.914 13.231 7.914 3.5 6.914"/><path fill="#1D2445" d="M13.231,8.414c-0.017,0-0.034-0.001-0.051-0.003l-9.73-1C3.195,7.385,3,7.171,3,6.914V0.5 C3,0.224,3.224,0,3.5,0h19.718c0.276,0,0.5,0.224,0.5,0.5v6.414c0,0.257-0.194,0.472-0.45,0.497l-9.987,1 C13.264,8.413,13.247,8.414,13.231,8.414z M4,6.463l9.231,0.948l9.486-0.949V1H4V6.463z"/></g><g><polygon fill="#FFF" points=".5 16.995 13.338 15.995 26.218 16.995 26.218 83.409 .5 83.409"/><path fill="#1D2445" d="M26.218,83.909H0.5c-0.276,0-0.5-0.224-0.5-0.5V16.995c0-0.261,0.201-0.479,0.461-0.498l12.838-1l12.958,1 c0.26,0.02,0.461,0.237,0.461,0.498v66.414C26.718,83.686,26.494,83.909,26.218,83.909z M1,82.909h24.718V17.458l-12.419-0.965 L1,17.457V82.909z"/></g><g><polygon fill="#FFF" points=".5 16.995 26.218 16.995 23.218 6.914 3.5 6.914"/><path fill="#1D2445" d="M26.218,17.495H0.5c-0.158,0-0.307-0.074-0.4-0.201c-0.095-0.126-0.124-0.29-0.079-0.441l3-10.081 C3.084,6.56,3.279,6.414,3.5,6.414h19.718c0.222,0,0.416,0.146,0.479,0.357l3,10.081c0.045,0.151,0.016,0.315-0.079,0.441 C26.525,17.421,26.376,17.495,26.218,17.495z M1.171,16.495h24.376l-2.702-9.081H3.873L1.171,16.495z"/></g></g></g></g><g><defs><clipPath id="clip-path-id-viewbox-item-19"><rect width="18.764" height="55.476" x="0" y="0"/></clipPath></defs><g><g clip-path="url(#clip-path-id-viewbox-item-19)" transform="translate(542.0 137.0) rotate(16.181168388868144 8.5 27.0) scale(0.9059901939884887 0.9733939000648929) translate(-0.0 -0.0)"><g><g><ellipse cx="9.382" cy="27.738" fill="#FFF" rx="8.882" ry="27.238"/><path fill="#1D2445" d="M9.382,55.476C4.121,55.476,0,43.291,0,27.738S4.121,0,9.382,0s9.382,12.184,9.382,27.737 S14.643,55.476,9.382,55.476z M9.382,1C4.839,1,1,13.244,1,27.738s3.839,26.738,8.382,26.738s8.382-12.245,8.382-26.738 S13.925,1,9.382,1z"/></g><g><path fill="#FFF" d="M14.415,13.527c0,0-0.065,0.249-0.223,0.642c-0.155,0.396-0.402,0.935-0.738,1.542 c-0.673,1.214-1.755,2.649-3.012,3.909c-1.257,1.26-2.69,2.343-3.906,3.015c-0.608,0.336-1.148,0.583-1.544,0.737 c-0.394,0.157-0.643,0.222-0.643,0.222s0.065-0.25,0.221-0.644c0.154-0.397,0.401-0.936,0.737-1.544 c0.672-1.215,1.755-2.649,3.015-3.906c1.259-1.257,2.694-2.339,3.909-3.012c0.608-0.336,1.146-0.584,1.542-0.738 C14.166,13.592,14.415,13.527,14.415,13.527z"/><path fill="#1D2445" d="M4.351,24.092c-0.131,0-0.26-0.052-0.354-0.146c-0.125-0.125-0.175-0.307-0.132-0.478 c0,0,0.069-0.273,0.242-0.704c0.185-0.476,0.456-1.045,0.763-1.6c0.725-1.313,1.854-2.777,3.099-4.019 c1.242-1.239,2.707-2.367,4.021-3.096c0.561-0.31,1.129-0.582,1.603-0.767c0.426-0.17,0.697-0.24,0.697-0.24 c0.17-0.044,0.354,0.006,0.479,0.131s0.176,0.308,0.131,0.479c0,0-0.07,0.271-0.242,0.701c-0.183,0.47-0.455,1.038-0.765,1.599 c-0.727,1.312-1.854,2.776-3.096,4.021s-2.706,2.374-4.018,3.099c-0.56,0.31-1.13,0.581-1.605,0.766 c-0.426,0.17-0.699,0.239-0.699,0.239C4.433,24.087,4.392,24.092,4.351,24.092z M13.563,14.379 c-0.278,0.124-0.649,0.302-1.09,0.546c-1.235,0.685-2.62,1.752-3.798,2.928c-1.181,1.179-2.249,2.562-2.931,3.795 c-0.244,0.441-0.423,0.816-0.547,1.097c0.28-0.123,0.653-0.302,1.097-0.547c1.233-0.682,2.616-1.75,3.795-2.931 c1.178-1.181,2.245-2.564,2.928-3.798C13.261,15.028,13.439,14.657,13.563,14.379z"/></g><g><path fill="#FFF" d="M14.415,22.501c0,0-0.065,0.249-0.223,0.642c-0.155,0.396-0.402,0.935-0.738,1.542 c-0.673,1.214-1.755,2.649-3.012,3.909c-1.257,1.26-2.69,2.343-3.906,3.015c-0.608,0.336-1.148,0.583-1.544,0.737 c-0.394,0.157-0.643,0.222-0.643,0.222s0.065-0.25,0.221-0.644c0.154-0.397,0.401-0.936,0.737-1.544 c0.672-1.215,1.755-2.649,3.015-3.906c1.259-1.257,2.694-2.339,3.909-3.012c0.608-0.336,1.146-0.584,1.542-0.738 C14.166,22.566,14.415,22.501,14.415,22.501z"/><path fill="#1D2445" d="M4.351,33.066c-0.131,0-0.26-0.052-0.354-0.146c-0.125-0.125-0.175-0.307-0.132-0.478 c0,0,0.069-0.273,0.242-0.704c0.185-0.476,0.456-1.045,0.763-1.6c0.726-1.313,1.855-2.777,3.099-4.018 c1.242-1.24,2.707-2.368,4.021-3.096c0.551-0.306,1.12-0.578,1.602-0.768c0.427-0.17,0.698-0.24,0.698-0.24 c0.17-0.045,0.354,0.006,0.479,0.131c0.125,0.125,0.176,0.308,0.131,0.479c0,0-0.07,0.272-0.242,0.701 c-0.181,0.466-0.453,1.035-0.765,1.599c-0.728,1.314-1.856,2.779-3.096,4.021c-1.241,1.244-2.706,2.374-4.018,3.099 c-0.56,0.31-1.13,0.581-1.605,0.766c-0.426,0.17-0.699,0.239-0.699,0.239C4.433,33.061,4.392,33.066,4.351,33.066z M13.563,23.354 c-0.281,0.125-0.653,0.304-1.09,0.546c-1.235,0.684-2.619,1.751-3.798,2.928c-1.181,1.178-2.249,2.561-2.931,3.794 c-0.244,0.441-0.423,0.816-0.547,1.097c0.28-0.123,0.653-0.302,1.097-0.547c1.233-0.682,2.616-1.75,3.795-2.931 c1.176-1.178,2.243-2.562,2.928-3.797C13.224,24.069,13.411,23.694,13.563,23.354z"/></g><g><path fill="#FFF" d="M14.415,31.474c0,0-0.065,0.249-0.223,0.642c-0.155,0.396-0.402,0.935-0.738,1.542 c-0.673,1.214-1.755,2.65-3.012,3.909c-1.257,1.26-2.69,2.343-3.906,3.015c-0.608,0.336-1.148,0.583-1.544,0.736 c-0.394,0.157-0.643,0.222-0.643,0.222s0.065-0.25,0.221-0.644c0.154-0.397,0.401-0.936,0.737-1.544 c0.672-1.215,1.755-2.649,3.015-3.906c1.259-1.257,2.694-2.339,3.909-3.012c0.608-0.336,1.146-0.584,1.542-0.738 C14.166,31.54,14.415,31.474,14.415,31.474z"/><path fill="#1D2445" d="M4.351,42.039c-0.131,0-0.26-0.052-0.354-0.146c-0.125-0.125-0.175-0.307-0.132-0.478 c0,0,0.069-0.272,0.241-0.704c0.186-0.476,0.457-1.045,0.764-1.6c0.726-1.313,1.855-2.777,3.099-4.018 c1.242-1.24,2.707-2.368,4.021-3.096c0.561-0.31,1.129-0.582,1.603-0.767c0.426-0.17,0.697-0.24,0.697-0.24 c0.17-0.044,0.354,0.006,0.479,0.131s0.176,0.308,0.131,0.479c0,0-0.07,0.272-0.242,0.7c-0.181,0.466-0.453,1.035-0.765,1.599 c-0.728,1.314-1.856,2.779-3.096,4.021c-1.241,1.244-2.706,2.374-4.018,3.099c-0.556,0.308-1.126,0.579-1.604,0.766 c-0.427,0.17-0.7,0.239-0.7,0.239C4.433,42.034,4.392,42.039,4.351,42.039z M13.563,32.327c-0.278,0.124-0.649,0.303-1.09,0.546 c-1.235,0.684-2.619,1.751-3.798,2.928c-1.181,1.178-2.249,2.561-2.931,3.794c-0.244,0.441-0.423,0.817-0.547,1.098 c0.28-0.124,0.655-0.304,1.097-0.548c1.233-0.682,2.616-1.75,3.795-2.931c1.176-1.178,2.243-2.562,2.928-3.797 C13.224,33.042,13.411,32.668,13.563,32.327z"/></g></g></g></g></g><g><defs><clipPath id="clip-path-id-crop-item-20"><g transform="scale(1.2144545454545455 1.1879142857142857)"><rect width="22" height="54" x="0" y="0"/></g></clipPath><clipPath id="clip-path-id-viewbox-item-20"><rect width="26.718" height="83.154" x="0" y="0"/></clipPath></defs><g clip-path="url(#clip-path-id-crop-item-20)" transform="translate(531.0 263.0) rotate(0.0 11.0 35.0) scale(0.8234149262669361 0.8418115785169685)"><g clip-path="url(#clip-path-id-viewbox-item-20)" transform="translate(-0.0 -0.0)"><g><path fill="#FFF" d="M14.652,6.349V1.102c0-0.332-0.269-0.602-0.602-0.602l-1.34,0c-0.332,0-0.602,0.269-0.602,0.602v5.109 L0.5,16.24l14.184,2l11.534-2L14.652,6.349z"/><path fill="#1D2445" d="M14.684,18.741c-0.023,0-0.047-0.002-0.069-0.005l-14.184-2c-0.194-0.027-0.354-0.166-0.41-0.354 c-0.056-0.188,0.004-0.392,0.152-0.52l11.436-9.88V1.102C11.609,0.494,12.103,0,12.71,0h1.341c0.607,0,1.102,0.494,1.102,1.102 v5.017l11.391,9.742c0.147,0.126,0.208,0.325,0.157,0.513c-0.052,0.187-0.206,0.327-0.397,0.359l-11.534,2 C14.742,18.738,14.712,18.741,14.684,18.741z M1.66,15.899l13.016,1.836l10.409-1.805L14.327,6.729 c-0.111-0.095-0.175-0.233-0.175-0.38V1.102C14.153,1.046,14.107,1,14.051,1H12.71c-0.056,0-0.102,0.046-0.102,0.102v5.109 c0,0.146-0.063,0.283-0.173,0.378L1.66,15.899z"/></g><g><rect width="25.718" height="66.414" x=".5" y="16.24" fill="#FFF"/><path fill="#1D2445" d="M26.218,83.155H0.5c-0.276,0-0.5-0.224-0.5-0.5V16.241c0-0.276,0.224-0.5,0.5-0.5h25.718 c0.276,0,0.5,0.224,0.5,0.5v66.414C26.718,82.931,26.494,83.155,26.218,83.155z M1,82.155h24.718V16.741H1V82.155z"/></g></g></g></g><g><defs><clipPath id="clip-path-id-viewbox-item-21"><rect width="18.764" height="55.476" x="0" y="0"/></clipPath></defs><g><g clip-path="url(#clip-path-id-viewbox-item-21)" transform="translate(518.0 141.0) rotate(36.520347524243704 8.5 27.0) scale(0.9059901939884887 0.9733939000648929) translate(-0.0 -0.0)"><g><g><ellipse cx="9.382" cy="27.738" fill="#FFF" rx="8.882" ry="27.238"/><path fill="#1D2445" d="M9.382,55.476C4.121,55.476,0,43.291,0,27.738S4.121,0,9.382,0s9.382,12.184,9.382,27.737 S14.643,55.476,9.382,55.476z M9.382,1C4.839,1,1,13.244,1,27.738s3.839,26.738,8.382,26.738s8.382-12.245,8.382-26.738 S13.925,1,9.382,1z"/></g><g><path fill="#FFF" d="M14.415,13.527c0,0-0.065,0.249-0.223,0.642c-0.155,0.396-0.402,0.935-0.738,1.542 c-0.673,1.214-1.755,2.649-3.012,3.909c-1.257,1.26-2.69,2.343-3.906,3.015c-0.608,0.336-1.148,0.583-1.544,0.737 c-0.394,0.157-0.643,0.222-0.643,0.222s0.065-0.25,0.221-0.644c0.154-0.397,0.401-0.936,0.737-1.544 c0.672-1.215,1.755-2.649,3.015-3.906c1.259-1.257,2.694-2.339,3.909-3.012c0.608-0.336,1.146-0.584,1.542-0.738 C14.166,13.592,14.415,13.527,14.415,13.527z"/><path fill="#1D2445" d="M4.351,24.092c-0.131,0-0.26-0.052-0.354-0.146c-0.125-0.125-0.175-0.307-0.132-0.478 c0,0,0.069-0.273,0.242-0.704c0.185-0.476,0.456-1.045,0.763-1.6c0.725-1.313,1.854-2.777,3.099-4.019 c1.242-1.239,2.707-2.367,4.021-3.096c0.561-0.31,1.129-0.582,1.603-0.767c0.426-0.17,0.697-0.24,0.697-0.24 c0.17-0.044,0.354,0.006,0.479,0.131s0.176,0.308,0.131,0.479c0,0-0.07,0.271-0.242,0.701c-0.183,0.47-0.455,1.038-0.765,1.599 c-0.727,1.312-1.854,2.776-3.096,4.021s-2.706,2.374-4.018,3.099c-0.56,0.31-1.13,0.581-1.605,0.766 c-0.426,0.17-0.699,0.239-0.699,0.239C4.433,24.087,4.392,24.092,4.351,24.092z M13.563,14.379 c-0.278,0.124-0.649,0.302-1.09,0.546c-1.235,0.685-2.62,1.752-3.798,2.928c-1.181,1.179-2.249,2.562-2.931,3.795 c-0.244,0.441-0.423,0.816-0.547,1.097c0.28-0.123,0.653-0.302,1.097-0.547c1.233-0.682,2.616-1.75,3.795-2.931 c1.178-1.181,2.245-2.564,2.928-3.798C13.261,15.028,13.439,14.657,13.563,14.379z"/></g><g><path fill="#FFF" d="M14.415,22.501c0,0-0.065,0.249-0.223,0.642c-0.155,0.396-0.402,0.935-0.738,1.542 c-0.673,1.214-1.755,2.649-3.012,3.909c-1.257,1.26-2.69,2.343-3.906,3.015c-0.608,0.336-1.148,0.583-1.544,0.737 c-0.394,0.157-0.643,0.222-0.643,0.222s0.065-0.25,0.221-0.644c0.154-0.397,0.401-0.936,0.737-1.544 c0.672-1.215,1.755-2.649,3.015-3.906c1.259-1.257,2.694-2.339,3.909-3.012c0.608-0.336,1.146-0.584,1.542-0.738 C14.166,22.566,14.415,22.501,14.415,22.501z"/><path fill="#1D2445" d="M4.351,33.066c-0.131,0-0.26-0.052-0.354-0.146c-0.125-0.125-0.175-0.307-0.132-0.478 c0,0,0.069-0.273,0.242-0.704c0.185-0.476,0.456-1.045,0.763-1.6c0.726-1.313,1.855-2.777,3.099-4.018 c1.242-1.24,2.707-2.368,4.021-3.096c0.551-0.306,1.12-0.578,1.602-0.768c0.427-0.17,0.698-0.24,0.698-0.24 c0.17-0.045,0.354,0.006,0.479,0.131c0.125,0.125,0.176,0.308,0.131,0.479c0,0-0.07,0.272-0.242,0.701 c-0.181,0.466-0.453,1.035-0.765,1.599c-0.728,1.314-1.856,2.779-3.096,4.021c-1.241,1.244-2.706,2.374-4.018,3.099 c-0.56,0.31-1.13,0.581-1.605,0.766c-0.426,0.17-0.699,0.239-0.699,0.239C4.433,33.061,4.392,33.066,4.351,33.066z M13.563,23.354 c-0.281,0.125-0.653,0.304-1.09,0.546c-1.235,0.684-2.619,1.751-3.798,2.928c-1.181,1.178-2.249,2.561-2.931,3.794 c-0.244,0.441-0.423,0.816-0.547,1.097c0.28-0.123,0.653-0.302,1.097-0.547c1.233-0.682,2.616-1.75,3.795-2.931 c1.176-1.178,2.243-2.562,2.928-3.797C13.224,24.069,13.411,23.694,13.563,23.354z"/></g><g><path fill="#FFF" d="M14.415,31.474c0,0-0.065,0.249-0.223,0.642c-0.155,0.396-0.402,0.935-0.738,1.542 c-0.673,1.214-1.755,2.65-3.012,3.909c-1.257,1.26-2.69,2.343-3.906,3.015c-0.608,0.336-1.148,0.583-1.544,0.736 c-0.394,0.157-0.643,0.222-0.643,0.222s0.065-0.25,0.221-0.644c0.154-0.397,0.401-0.936,0.737-1.544 c0.672-1.215,1.755-2.649,3.015-3.906c1.259-1.257,2.694-2.339,3.909-3.012c0.608-0.336,1.146-0.584,1.542-0.738 C14.166,31.54,14.415,31.474,14.415,31.474z"/><path fill="#1D2445" d="M4.351,42.039c-0.131,0-0.26-0.052-0.354-0.146c-0.125-0.125-0.175-0.307-0.132-0.478 c0,0,0.069-0.272,0.241-0.704c0.186-0.476,0.457-1.045,0.764-1.6c0.726-1.313,1.855-2.777,3.099-4.018 c1.242-1.24,2.707-2.368,4.021-3.096c0.561-0.31,1.129-0.582,1.603-0.767c0.426-0.17,0.697-0.24,0.697-0.24 c0.17-0.044,0.354,0.006,0.479,0.131s0.176,0.308,0.131,0.479c0,0-0.07,0.272-0.242,0.7c-0.181,0.466-0.453,1.035-0.765,1.599 c-0.728,1.314-1.856,2.779-3.096,4.021c-1.241,1.244-2.706,2.374-4.018,3.099c-0.556,0.308-1.126,0.579-1.604,0.766 c-0.427,0.17-0.7,0.239-0.7,0.239C4.433,42.034,4.392,42.039,4.351,42.039z M13.563,32.327c-0.278,0.124-0.649,0.303-1.09,0.546 c-1.235,0.684-2.619,1.751-3.798,2.928c-1.181,1.178-2.249,2.561-2.931,3.794c-0.244,0.441-0.423,0.817-0.547,1.098 c0.28-0.124,0.655-0.304,1.097-0.548c1.233-0.682,2.616-1.75,3.795-2.931c1.176-1.178,2.243-2.562,2.928-3.797 C13.224,33.042,13.411,32.668,13.563,32.327z"/></g></g></g></g></g><g><defs><clipPath id="clip-path-id-crop-item-23"><g transform="scale(1.2144545454545455 1.1987)"><rect width="22" height="54" x="0" y="0"/></g></clipPath><clipPath id="clip-path-id-viewbox-item-23"><rect width="26.718" height="83.909" x="0" y="0"/></clipPath></defs><g clip-path="url(#clip-path-id-crop-item-23)" transform="translate(591.0 264.0) rotate(0.0 11.0 35.0) scale(0.8234149262669361 0.8342370901810294)"><g clip-path="url(#clip-path-id-viewbox-item-23)" transform="translate(-0.0 -0.0)"><g><polygon fill="#FFF" points="3.5 .5 23.218 .5 23.218 6.914 13.231 7.914 3.5 6.914"/><path fill="#1D2445" d="M13.231,8.414c-0.017,0-0.034-0.001-0.051-0.003l-9.73-1C3.195,7.385,3,7.171,3,6.914V0.5 C3,0.224,3.224,0,3.5,0h19.718c0.276,0,0.5,0.224,0.5,0.5v6.414c0,0.257-0.194,0.472-0.45,0.497l-9.987,1 C13.264,8.413,13.247,8.414,13.231,8.414z M4,6.463l9.231,0.948l9.486-0.949V1H4V6.463z"/></g><g><polygon fill="#FFF" points=".5 16.995 13.338 15.995 26.218 16.995 26.218 83.409 .5 83.409"/><path fill="#1D2445" d="M26.218,83.909H0.5c-0.276,0-0.5-0.224-0.5-0.5V16.995c0-0.261,0.201-0.479,0.461-0.498l12.838-1l12.958,1 c0.26,0.02,0.461,0.237,0.461,0.498v66.414C26.718,83.686,26.494,83.909,26.218,83.909z M1,82.909h24.718V17.458l-12.419-0.965 L1,17.457V82.909z"/></g><g><polygon fill="#FFF" points=".5 16.995 26.218 16.995 23.218 6.914 3.5 6.914"/><path fill="#1D2445" d="M26.218,17.495H0.5c-0.158,0-0.307-0.074-0.4-0.201c-0.095-0.126-0.124-0.29-0.079-0.441l3-10.081 C3.084,6.56,3.279,6.414,3.5,6.414h19.718c0.222,0,0.416,0.146,0.479,0.357l3,10.081c0.045,0.151,0.016,0.315-0.079,0.441 C26.525,17.421,26.376,17.495,26.218,17.495z M1.171,16.495h24.376l-2.702-9.081H3.873L1.171,16.495z"/></g></g></g></g><g><defs><clipPath id="clip-path-id-crop-item-24"><g transform="scale(5.420705882352941 5.420249999999999)"><rect width="17" height="32" x="0" y="4"/></g></clipPath><clipPath id="clip-path-id-viewbox-item-24"><rect width="92.152" height="195.129" x="0" y="0"/></clipPath></defs><g clip-path="url(#clip-path-id-crop-item-24)" transform="translate(233.0 112.0) rotate(90.0 8.5 18.0) scale(0.18447781925514367 0.1844933351782667)"><g clip-path="url(#clip-path-id-viewbox-item-24)" transform="translate(-0.0 -0.0)"><polygon fill="#1d2445" points="62.009 21.531 62.009 0 0 0 0 195.129 92.152 195.129 92.152 21.531"/></g></g></g></svg>