<svg xmlns="http://www.w3.org/2000/svg" xmlns:xlink="http://www.w3.org/1999/xlink" width="1600" height="1200" x="0" y="0" version="1.1" viewBox="0 0 1600 1200"><g><defs><clipPath id="clip-path-id-viewbox-item-0"><rect width="772.927" height="476.5" x="0" y="0"/></clipPath></defs><g><g clip-path="url(#clip-path-id-viewbox-item-0)" transform="translate(36.0 75.0) rotate(0.0 761.0 470.0) scale(1.9691380945419166 1.9727177334732424) translate(-0.0 -0.0)"><g><path fill="#1D2445" d="M762.682,476.003H10.245c-0.233,0-0.436-0.161-0.487-0.389C3.283,447.203,0,417.894,0,388.5 c0-52.447,10.218-103.325,30.37-151.221c19.465-46.262,47.33-87.81,82.821-123.489c35.492-35.679,76.822-63.692,122.842-83.259 C283.679,10.272,334.291,0,386.464,0c52.172,0,102.784,10.272,150.43,30.531c46.02,19.567,87.35,47.58,122.842,83.259 c35.491,35.679,63.356,77.227,82.821,123.489c20.152,47.896,30.37,98.774,30.37,151.221c0,29.396-3.282,58.706-9.757,87.114 C763.118,475.842,762.916,476.003,762.682,476.003z M10.644,475.003h751.639c6.399-28.214,9.644-57.315,9.644-86.503 C771.927,174.832,599.009,1,386.464,1C173.918,1,1,174.832,1,388.5C1,417.685,4.245,446.787,10.644,475.003z"/></g><path fill="none" stroke="#1D2445" stroke-linecap="round" stroke-linejoin="round" stroke-miterlimit="10" d="M601.667,185.37c-27.68-29.2-61.068-52.397-98.09-68.15c-74.898-31.629-159.402-31.629-234.3,0 c-35.59,15.139-67.828,37.18-94.85,64.85c-1.08,1.09-2.14,2.19-3.2,3.3c-57.23,60.13-88.75,142.39-88.8,231.75 c1.29,1.3,14,13.23,56.69,25.28c25.54,7.22,56.66,13,92.48,17.14c44.6,5.18,96.7,7.85,154.84,8c58.12-0.11,110.22-2.78,154.82-8 c35.82-4.15,66.94-9.92,92.48-17.14c42.64-12,55.4-24,56.69-25.28C690.427,327.77,658.867,245.5,601.667,185.37z" enable-background="new"/><g><g><path fill="#FFF" d="M7.427,476c0,0,86.71-124,379-124s379,124,379,124H7.427z"/><path fill="#1D2445" d="M765.446,476.5c-0.005,0-0.012,0.001-0.02,0h-758c-0.187,0-0.357-0.104-0.443-0.269 c-0.086-0.165-0.073-0.365,0.033-0.518c0.218-0.311,22.413-31.454,80.066-62.155c33.837-18.019,73.101-32.375,116.7-42.67 c54.484-12.865,115.935-19.388,182.644-19.388s128.159,6.523,182.644,19.388c43.6,10.295,82.863,24.651,116.7,42.67 c56.038,29.841,78.577,60.099,79.996,62.057c0.11,0.092,0.18,0.23,0.18,0.385C765.946,476.276,765.722,476.5,765.446,476.5z M8.422,475.5h756.01c-3.836-5.023-26.837-33.226-79.207-61.099C632.167,386.162,537.259,352.5,386.427,352.5 s-245.74,33.662-298.798,61.901C35.259,442.274,12.258,470.477,8.422,475.5z"/></g></g><path fill="#1D2445" d="M386.427,97.5c39.714-0.11,79.036,7.851,115.58,23.4c36.524,15.54,69.462,38.424,96.77,67.23 c56.1,58.95,87.18,139.58,87.64,227.19c-4,3.24-18.66,13.44-54.88,23.55c-25.38,7.08-56.25,12.74-91.77,16.82 c-44.22,5.08-95.81,7.7-153.33,7.81c-57.54-0.11-109.13-2.73-153.35-7.81c-35.52-4.08-66.39-9.74-91.77-16.82 c-36.24-10.12-50.89-20.32-54.89-23.55c0.47-87.64,31.55-168.25,87.65-227.19c27.302-28.808,60.238-51.692,96.76-67.23 C307.384,105.35,346.709,97.389,386.427,97.5 M386.427,89.5c-82.87,0-161,33.07-218.14,93.12 c-57.95,60.88-89.86,144.24-89.86,234.73c0.005,0.909,0.364,1.781,1,2.43c2,2.1,51.94,51.25,307,51.72 c255.06-0.47,305-49.62,307-51.72c0.636-0.649,0.995-1.521,1-2.43c0-90.49-31.91-173.85-89.86-234.73 C547.427,122.57,469.297,89.5,386.427,89.5z"/></g></g></g><g><defs><clipPath id="clip-path-id-viewbox-item-1"><rect width="539" height="313" x="0" y="0"/></clipPath></defs><g><g clip-path="url(#clip-path-id-viewbox-item-1)" transform="translate(281.0 174.0) rotate(0.0 521.0 303.0) scale(1.9332096474953617 1.9361022364217253) translate(-0.0 -0.0)"><g><g><path fill="#FFF" d="M237,0.5l1,7.16c0.049,0.33,0.204,0.635,0.44,0.87c0.238,0.233,0.542,0.387,0.87,0.44l7.15,1l-7.16,1 c-0.33,0.049-0.635,0.204-0.87,0.44c-0.233,0.238-0.387,0.541-0.44,0.87l-1,7.15l-1-7.16c-0.08-0.301-0.251-0.57-0.49-0.77 c-0.238-0.233-0.542-0.387-0.87-0.44l-7.15-1l7.16-1c0.343-0.081,0.647-0.279,0.86-0.56c0.233-0.238,0.387-0.541,0.44-0.87 L237,0.5z"/><path fill="#1D2445" d="M236.99,19.93L236.99,19.93c-0.25,0-0.461-0.184-0.495-0.431l-1-7.16 c-0.042-0.144-0.155-0.321-0.316-0.456c-0.194-0.188-0.401-0.293-0.629-0.33l-7.14-0.999c-0.247-0.035-0.431-0.246-0.431-0.495 s0.184-0.461,0.431-0.495l7.16-1c0.184-0.046,0.389-0.18,0.531-0.367c0.204-0.212,0.309-0.42,0.345-0.648l1.059-7.124 C236.542,0.181,236.752,0,237,0c0.001,0,0.001,0,0.002,0c0.249,0.001,0.459,0.185,0.493,0.431l1,7.16 c0.033,0.217,0.139,0.427,0.298,0.585c0.162,0.159,0.37,0.264,0.597,0.301l7.139,0.999c0.247,0.035,0.431,0.246,0.431,0.495 s-0.184,0.46-0.431,0.495l-7.16,1c-0.22,0.033-0.424,0.136-0.585,0.298c-0.159,0.162-0.264,0.369-0.301,0.597l-0.999,7.139 C237.45,19.747,237.24,19.93,236.99,19.93z M231.088,10.06l3.611,0.505c0.443,0.072,0.838,0.271,1.15,0.578 c0.291,0.241,0.516,0.596,0.624,0.999l0.516,3.683l0.505-3.613c0.072-0.444,0.271-0.838,0.578-1.151 c0.316-0.317,0.714-0.519,1.153-0.584l3.621-0.506l-3.607-0.504c-0.443-0.072-0.838-0.271-1.15-0.578 c-0.313-0.311-0.52-0.72-0.585-1.153l-0.521-3.729l-0.55,3.699c-0.071,0.44-0.271,0.834-0.579,1.147 c-0.24,0.323-0.646,0.588-1.101,0.696L231.088,10.06z"/></g><g><path fill="#FFF" d="M496,102.5l1.37,9.42c0.061,0.432,0.261,0.832,0.57,1.14c0.31,0.308,0.708,0.511,1.14,0.58l9.42,1.36 l-9.42,1.37c-0.893,0.118-1.597,0.818-1.72,1.71L496,127.5l-1.37-9.42c-0.061-0.432-0.261-0.832-0.57-1.14 c-0.31-0.308-0.708-0.511-1.14-0.58L483.5,115l9.42-1.37c0.893-0.118,1.597-0.818,1.72-1.71L496,102.5z"/><path fill="#1D2445" d="M496,128c-0.249,0-0.459-0.182-0.495-0.428l-1.37-9.42c-0.046-0.325-0.198-0.628-0.428-0.857 c-0.237-0.236-0.537-0.388-0.866-0.441l-9.413-1.359C483.182,115.459,483,115.249,483,115c0-0.249,0.182-0.459,0.428-0.495 l9.42-1.37c0.674-0.089,1.204-0.617,1.296-1.284l1.36-9.423c0.035-0.246,0.246-0.429,0.494-0.429c0,0,0,0,0,0 c0.249,0,0.459,0.182,0.495,0.428l1.37,9.42c0.046,0.325,0.198,0.628,0.428,0.857c0.237,0.236,0.537,0.388,0.866,0.441 l9.413,1.359c0.246,0.035,0.429,0.246,0.429,0.494c0,0.249-0.182,0.459-0.428,0.495l-9.42,1.37 c-0.674,0.089-1.205,0.616-1.296,1.283l-1.361,9.423C496.459,127.817,496.248,128,496,128L496,128z M486.987,114.998l6.005,0.867 c0.546,0.087,1.035,0.336,1.421,0.721c0.384,0.382,0.638,0.888,0.713,1.425l0.873,6.002l0.867-6.004 c0.152-1.108,1.036-1.988,2.149-2.134l5.999-0.873l-6.005-0.867c-0.546-0.087-1.035-0.336-1.421-0.721 c-0.384-0.382-0.638-0.888-0.713-1.425l-0.873-6.003l-0.867,6.005c-0.153,1.109-1.037,1.988-2.149,2.134L486.987,114.998z"/></g><g><path fill="#FFF" d="M116,287.5l0.82,5.65c0.04,0.261,0.163,0.503,0.35,0.69c0.18,0.19,0.42,0.31,0.68,0.34l5.65,0.82 l-5.65,0.82c-0.261,0.04-0.503,0.163-0.69,0.35c-0.19,0.18-0.31,0.42-0.34,0.68L116,302.5l-0.82-5.65 c-0.04-0.261-0.163-0.503-0.35-0.69c-0.18-0.19-0.42-0.31-0.68-0.34L108.5,295l5.65-0.82c0.261-0.04,0.503-0.163,0.69-0.35 c0.19-0.18,0.31-0.42,0.34-0.68L116,287.5z"/><path fill="#1D2445" d="M116,303L116,303c-0.249,0-0.459-0.183-0.495-0.428l-0.82-5.65c-0.023-0.153-0.096-0.295-0.208-0.407 c-0.109-0.115-0.242-0.182-0.384-0.198l-5.665-0.822C108.182,295.459,108,295.249,108,295s0.182-0.459,0.428-0.495l5.65-0.82 c0.15-0.023,0.297-0.098,0.408-0.209c0.114-0.108,0.18-0.241,0.197-0.384l0.822-5.665c0.036-0.246,0.246-0.428,0.495-0.428 s0.459,0.182,0.495,0.428l0.82,5.65c0.023,0.153,0.096,0.295,0.208,0.407c0.109,0.115,0.242,0.182,0.384,0.198l5.665,0.822 c0.246,0.036,0.428,0.246,0.428,0.495s-0.182,0.459-0.428,0.495l-5.65,0.82c-0.153,0.024-0.295,0.096-0.408,0.209 c-0.114,0.108-0.18,0.241-0.197,0.384l-0.822,5.665C116.459,302.818,116.248,303,116,303z M111.982,295l2.24,0.325 c0.361,0.041,0.711,0.216,0.971,0.491c0.254,0.253,0.424,0.588,0.481,0.958l0.326,2.245l0.326-2.241 c0.041-0.361,0.216-0.712,0.491-0.972c0.254-0.254,0.588-0.424,0.957-0.481l2.245-0.326l-2.24-0.325 c-0.362-0.041-0.712-0.217-0.972-0.492c-0.254-0.252-0.424-0.587-0.48-0.958L116,290.981l-0.325,2.241 c-0.041,0.361-0.216,0.711-0.49,0.971c-0.251,0.251-0.595,0.426-0.958,0.481L111.982,295z"/></g><g><circle cx="150.5" cy="38.5" r="3" fill="#FFF"/><path fill="#1D2445" d="M150.5,42c-1.93,0-3.5-1.57-3.5-3.5s1.57-3.5,3.5-3.5s3.5,1.57,3.5,3.5S152.429,42,150.5,42z M150.5,36 c-1.378,0-2.5,1.122-2.5,2.5s1.122,2.5,2.5,2.5s2.5-1.122,2.5-2.5S151.878,36,150.5,36z"/></g><g><path fill="#FFF" d="M268,155.5l0.6,4.15c0.034,0.187,0.121,0.36,0.25,0.5c0.142,0.131,0.319,0.218,0.51,0.25l4.14,0.6 l-4.15,0.6c-0.187,0.034-0.36,0.121-0.5,0.25c-0.131,0.142-0.218,0.319-0.25,0.51l-0.6,4.14l-0.6-4.15 c-0.034-0.187-0.121-0.36-0.25-0.5c-0.142-0.131-0.319-0.218-0.51-0.25l-4.14-0.6l4.15-0.6c0.187-0.034,0.36-0.121,0.5-0.25 c0.131-0.142,0.218-0.319,0.25-0.51L268,155.5z"/><path fill="#1D2445" d="M268,167L268,167c-0.249,0-0.459-0.183-0.495-0.429l-0.6-4.15c-0.014-0.075-0.058-0.162-0.123-0.232 c-0.042-0.037-0.131-0.08-0.227-0.096l-4.128-0.599C262.182,161.459,262,161.249,262,161s0.183-0.459,0.428-0.495l4.15-0.6 c0.076-0.014,0.162-0.058,0.232-0.122c0.037-0.043,0.081-0.131,0.097-0.228l0.598-4.127c0.036-0.246,0.246-0.428,0.495-0.428l0,0 c0.249,0,0.459,0.183,0.495,0.428l0.6,4.15c0.014,0.076,0.058,0.162,0.122,0.232c0.043,0.038,0.131,0.081,0.227,0.097l4.128,0.599 c0.246,0.036,0.428,0.246,0.428,0.495s-0.183,0.459-0.428,0.495l-4.15,0.6c-0.076,0.014-0.162,0.058-0.232,0.122 c-0.038,0.043-0.081,0.131-0.097,0.227l-0.599,4.128C268.459,166.817,268.248,167,268,167z M265.989,161l0.723,0.105 c0.298,0.05,0.563,0.18,0.776,0.376c0.223,0.239,0.353,0.498,0.404,0.778l0.108,0.75l0.105-0.722 c0.05-0.298,0.18-0.563,0.377-0.777c0.237-0.222,0.497-0.352,0.778-0.403l0.751-0.109l-0.723-0.105 c-0.297-0.05-0.562-0.179-0.776-0.376c-0.223-0.238-0.353-0.497-0.404-0.778L268,158.99l-0.105,0.722 c-0.051,0.3-0.181,0.564-0.377,0.777c-0.237,0.222-0.497,0.352-0.778,0.403L265.989,161z"/></g><g><path fill="#FFF" d="M327,106.5l0.6,4.15c0.034,0.187,0.121,0.36,0.25,0.5c0.142,0.131,0.319,0.218,0.51,0.25l4.14,0.6 l-4.15,0.6c-0.187,0.034-0.36,0.121-0.5,0.25c-0.131,0.142-0.218,0.319-0.25,0.51l-0.6,4.14l-0.6-4.15 c-0.034-0.187-0.121-0.36-0.25-0.5c-0.142-0.131-0.319-0.218-0.51-0.25l-4.14-0.6l4.15-0.6c0.187-0.034,0.36-0.121,0.5-0.25 c0.131-0.142,0.218-0.319,0.25-0.51L327,106.5z"/><path fill="#1D2445" d="M327,118L327,118c-0.249,0-0.459-0.183-0.495-0.429l-0.6-4.15c-0.014-0.075-0.058-0.162-0.123-0.232 c-0.042-0.037-0.131-0.08-0.227-0.096l-4.128-0.599C321.182,112.459,321,112.249,321,112s0.183-0.459,0.428-0.495l4.15-0.6 c0.076-0.014,0.162-0.058,0.232-0.122c0.037-0.043,0.081-0.131,0.097-0.228l0.598-4.127c0.036-0.246,0.246-0.428,0.495-0.428l0,0 c0.249,0,0.459,0.183,0.495,0.428l0.6,4.15c0.014,0.076,0.058,0.162,0.122,0.232c0.043,0.038,0.131,0.081,0.227,0.097l4.128,0.599 c0.246,0.036,0.428,0.246,0.428,0.495s-0.183,0.459-0.428,0.495l-4.15,0.6c-0.076,0.014-0.162,0.058-0.232,0.122 c-0.038,0.043-0.081,0.131-0.097,0.227l-0.599,4.128C327.459,117.817,327.248,118,327,118z M324.989,112l0.723,0.105 c0.298,0.05,0.563,0.18,0.776,0.376c0.223,0.239,0.353,0.498,0.404,0.778l0.108,0.75l0.105-0.722 c0.05-0.298,0.18-0.563,0.377-0.777c0.237-0.222,0.497-0.352,0.778-0.403l0.751-0.109l-0.723-0.105 c-0.297-0.05-0.562-0.179-0.776-0.376c-0.223-0.238-0.353-0.497-0.404-0.778L327,109.99l-0.105,0.722 c-0.051,0.3-0.181,0.564-0.377,0.777c-0.237,0.222-0.497,0.352-0.778,0.403L324.989,112z"/></g><g><path fill="#FFF" d="M96,192.5l1.15,7.91c0.041,0.379,0.21,0.732,0.48,1c0.27,0.269,0.622,0.441,1,0.49l7.87,1.1l-7.91,1.15 c-0.379,0.041-0.732,0.21-1,0.48c-0.269,0.27-0.441,0.622-0.49,1L96,213.5l-1.15-7.91c-0.041-0.379-0.21-0.732-0.48-1 c-0.27-0.269-0.622-0.441-1-0.49L85.5,203l7.91-1.15c0.379-0.041,0.732-0.21,1-0.48c0.269-0.27,0.441-0.622,0.49-1L96,192.5z"/><path fill="#1D2445" d="M96,214c-0.249,0-0.459-0.182-0.495-0.428l-1.15-7.91c-0.031-0.282-0.15-0.53-0.338-0.717 c-0.191-0.19-0.444-0.314-0.711-0.348l-7.876-1.101c-0.247-0.034-0.43-0.245-0.431-0.494s0.182-0.46,0.428-0.496l7.91-1.15 c0.282-0.031,0.53-0.15,0.717-0.338c0.19-0.191,0.314-0.444,0.349-0.711l1.101-7.875c0.034-0.246,0.245-0.43,0.494-0.431 c0,0,0.001,0,0.001,0c0.249,0,0.459,0.182,0.495,0.428l1.15,7.91c0.031,0.282,0.15,0.53,0.338,0.717 c0.191,0.19,0.444,0.314,0.711,0.348l7.875,1.101c0.247,0.034,0.43,0.245,0.431,0.494c0,0.249-0.182,0.46-0.428,0.496l-7.91,1.15 c-0.282,0.031-0.53,0.15-0.717,0.337c-0.191,0.192-0.315,0.445-0.349,0.712l-1.101,7.875c-0.034,0.247-0.245,0.43-0.494,0.431 C96.001,214,96,214,96,214z M89.042,202.99l4.397,0.615c0.479,0.061,0.937,0.285,1.284,0.631c0.35,0.348,0.572,0.81,0.624,1.301 l0.643,4.421l0.615-4.397c0.062-0.479,0.286-0.937,0.631-1.283c0.348-0.35,0.81-0.572,1.301-0.625l4.421-0.643l-4.397-0.615 c-0.479-0.061-0.937-0.285-1.284-0.631c-0.35-0.348-0.572-0.81-0.624-1.301l-0.644-4.421l-0.614,4.397 c-0.062,0.479-0.286,0.937-0.631,1.283c-0.348,0.35-0.811,0.572-1.301,0.625L89.042,202.99z"/></g><g><path fill="#FFF" d="M27,270.5l0.6,4.15c0.034,0.187,0.121,0.36,0.25,0.5c0.142,0.131,0.319,0.218,0.51,0.25l4.14,0.6 l-4.15,0.6c-0.187,0.034-0.36,0.121-0.5,0.25c-0.131,0.142-0.218,0.319-0.25,0.51L27,281.5l-0.6-4.15 c-0.034-0.187-0.121-0.36-0.25-0.5c-0.142-0.131-0.319-0.218-0.51-0.25L21.5,276l4.15-0.6c0.187-0.034,0.36-0.121,0.5-0.25 c0.131-0.142,0.218-0.319,0.25-0.51L27,270.5z"/><path fill="#1D2445" d="M27,282L27,282c-0.249,0-0.459-0.183-0.495-0.429l-0.6-4.15c-0.014-0.075-0.058-0.162-0.123-0.232 c-0.042-0.037-0.131-0.08-0.227-0.096l-4.128-0.599C21.182,276.459,21,276.249,21,276s0.183-0.459,0.428-0.495l4.15-0.6 c0.076-0.014,0.162-0.058,0.232-0.122c0.037-0.043,0.081-0.131,0.097-0.228l0.598-4.127C26.541,270.183,26.751,270,27,270l0,0 c0.249,0,0.459,0.183,0.495,0.428l0.6,4.15c0.014,0.076,0.058,0.162,0.123,0.232c0.043,0.037,0.131,0.08,0.226,0.096l4.128,0.599 C32.818,275.541,33,275.751,33,276s-0.183,0.459-0.428,0.495l-4.15,0.6c-0.076,0.014-0.162,0.058-0.232,0.122 c-0.038,0.043-0.081,0.131-0.097,0.227l-0.599,4.128C27.459,281.817,27.248,282,27,282z M24.989,276l0.723,0.105 c0.298,0.05,0.563,0.18,0.776,0.376c0.223,0.239,0.353,0.498,0.404,0.778L27,278.01l0.105-0.722 c0.05-0.298,0.18-0.563,0.377-0.777c0.237-0.222,0.497-0.352,0.778-0.403l0.751-0.109l-0.723-0.105 c-0.297-0.05-0.562-0.179-0.776-0.376c-0.223-0.239-0.353-0.498-0.404-0.778L27,273.99l-0.105,0.722 c-0.051,0.3-0.181,0.564-0.377,0.777c-0.237,0.222-0.497,0.352-0.778,0.403L24.989,276z"/></g><g><path fill="#FFF" d="M417,158.5l0.6,4.15c0.034,0.187,0.121,0.36,0.25,0.5c0.142,0.131,0.319,0.218,0.51,0.25l4.14,0.6 l-4.14,0.6c-0.398,0.048-0.712,0.362-0.76,0.76l-0.6,4.14l-0.6-4.15c-0.034-0.187-0.121-0.36-0.25-0.5 c-0.142-0.131-0.319-0.218-0.51-0.25l-4.14-0.6l4.14-0.6c0.398-0.048,0.712-0.362,0.76-0.76L417,158.5z"/><path fill="#1D2445" d="M417,170L417,170c-0.249,0-0.459-0.183-0.495-0.429l-0.6-4.15c-0.014-0.075-0.058-0.162-0.123-0.232 c-0.043-0.037-0.131-0.08-0.226-0.096l-4.129-0.599C411.182,164.459,411,164.249,411,164s0.183-0.459,0.428-0.495l4.14-0.6 c0.182-0.022,0.315-0.155,0.335-0.325l0.602-4.152c0.036-0.246,0.246-0.428,0.495-0.428l0,0c0.249,0,0.459,0.183,0.495,0.428 l0.6,4.15c0.014,0.076,0.058,0.162,0.122,0.232c0.043,0.038,0.131,0.081,0.227,0.097l4.128,0.599 c0.246,0.036,0.428,0.246,0.428,0.495s-0.183,0.459-0.428,0.495l-4.14,0.6c-0.182,0.022-0.315,0.155-0.335,0.325l-0.602,4.152 C417.459,169.817,417.248,170,417,170z M414.985,164l0.727,0.105c0.297,0.05,0.562,0.179,0.776,0.376 c0.223,0.239,0.353,0.498,0.404,0.778l0.108,0.75l0.105-0.722c0.074-0.617,0.566-1.109,1.195-1.185l0.714-0.104l-0.727-0.105 c-0.297-0.05-0.562-0.179-0.776-0.376c-0.223-0.238-0.353-0.497-0.404-0.778L417,161.99l-0.105,0.722 c-0.074,0.617-0.566,1.109-1.195,1.185L414.985,164z"/></g><g><path fill="#FFF" d="M85,270.5l0.6,4.14c0.048,0.398,0.362,0.712,0.76,0.76l4.14,0.6l-4.14,0.6 c-0.398,0.048-0.712,0.362-0.76,0.76L85,281.5l-0.6-4.15c-0.034-0.187-0.121-0.36-0.25-0.5c-0.139-0.136-0.318-0.223-0.51-0.25 L79.5,276l4.14-0.6c0.398-0.048,0.712-0.362,0.76-0.76L85,270.5z"/><path fill="#1D2445" d="M85,282L85,282c-0.249,0-0.459-0.183-0.495-0.429l-0.6-4.15c-0.014-0.075-0.058-0.162-0.123-0.232 c-0.045-0.043-0.125-0.082-0.212-0.094l-4.143-0.601C79.182,276.459,79,276.249,79,276s0.183-0.459,0.428-0.495l4.14-0.6 c0.182-0.022,0.315-0.155,0.335-0.325l0.602-4.152C84.54,270.183,84.751,270,85,270s0.459,0.183,0.495,0.428l0.6,4.14 c0.022,0.182,0.155,0.314,0.325,0.335l4.152,0.602C90.817,275.541,91,275.751,91,276s-0.183,0.459-0.428,0.495l-4.14,0.6 c-0.182,0.022-0.315,0.155-0.335,0.325l-0.602,4.152C85.459,281.817,85.248,282,85,282z M82.985,276l0.727,0.105 c0.297,0.042,0.571,0.175,0.788,0.387c0.212,0.229,0.341,0.488,0.393,0.768L85,278.01l0.105-0.722 c0.074-0.617,0.566-1.109,1.195-1.185L87.015,276l-0.727-0.105c-0.617-0.074-1.109-0.566-1.185-1.195L85,273.986l-0.105,0.726 c-0.074,0.617-0.566,1.109-1.195,1.185L82.985,276z"/></g><g><path fill="#FFF" d="M533,280.5l0.6,4.15c0.029,0.191,0.12,0.367,0.26,0.5c0.14,0.129,0.313,0.216,0.5,0.25l4.14,0.6l-4.14,0.6 c-0.398,0.048-0.712,0.362-0.76,0.76l-0.6,4.14l-0.6-4.15c-0.034-0.187-0.121-0.36-0.25-0.5c-0.142-0.131-0.319-0.218-0.51-0.25 l-4.14-0.6l4.15-0.6c0.187-0.034,0.36-0.121,0.5-0.25c0.131-0.142,0.218-0.319,0.25-0.51L533,280.5z"/><path fill="#1D2445" d="M533,292L533,292c-0.249,0-0.459-0.183-0.495-0.429l-0.6-4.15c-0.014-0.075-0.058-0.162-0.123-0.232 c-0.043-0.037-0.131-0.08-0.226-0.096l-4.129-0.599C527.182,286.459,527,286.249,527,286s0.183-0.459,0.428-0.495l4.15-0.6 c0.076-0.014,0.162-0.058,0.232-0.122c0.038-0.043,0.081-0.131,0.097-0.227l0.598-4.128c0.036-0.246,0.246-0.428,0.495-0.428l0,0 c0.249,0,0.459,0.183,0.495,0.428l0.6,4.15c0.012,0.078,0.051,0.153,0.11,0.209c0.064,0.06,0.151,0.103,0.245,0.121l4.122,0.597 c0.246,0.036,0.428,0.246,0.428,0.495s-0.183,0.459-0.428,0.495l-4.14,0.6c-0.182,0.022-0.315,0.155-0.335,0.325l-0.602,4.152 C533.459,291.817,533.248,292,533,292z M530.989,286l0.723,0.105c0.297,0.05,0.562,0.179,0.776,0.376 c0.223,0.239,0.353,0.498,0.404,0.778l0.108,0.75l0.105-0.722c0.074-0.617,0.566-1.109,1.195-1.185l0.714-0.104l-0.727-0.105 c-0.3-0.054-0.56-0.184-0.769-0.378c-0.224-0.212-0.369-0.492-0.415-0.792l-0.106-0.733l-0.104,0.721 c-0.05,0.298-0.18,0.563-0.377,0.777c-0.237,0.222-0.497,0.352-0.778,0.403L530.989,286z"/></g><g><path fill="#FFF" d="M236,80.5l0.82,5.65c0.04,0.261,0.163,0.503,0.35,0.69c0.18,0.19,0.42,0.31,0.68,0.34L243.5,88l-5.65,0.82 c-0.261,0.04-0.503,0.163-0.69,0.35c-0.19,0.18-0.31,0.42-0.34,0.68L236,95.5l-0.82-5.65c-0.04-0.261-0.163-0.503-0.35-0.69 c-0.18-0.19-0.42-0.31-0.68-0.34L228.5,88l5.65-0.82c0.261-0.04,0.503-0.163,0.69-0.35c0.19-0.18,0.31-0.42,0.34-0.68L236,80.5z"/><path fill="#1D2445" d="M236,96L236,96c-0.249,0-0.459-0.183-0.495-0.428l-0.82-5.65c-0.023-0.153-0.096-0.295-0.208-0.407 c-0.109-0.115-0.242-0.182-0.384-0.198l-5.665-0.822C228.182,88.459,228,88.249,228,88s0.182-0.459,0.428-0.495l5.65-0.82 c0.15-0.023,0.297-0.098,0.408-0.209c0.114-0.108,0.18-0.241,0.197-0.384l0.822-5.665C235.541,80.183,235.751,80,236,80 s0.459,0.182,0.495,0.428l0.82,5.65c0.023,0.153,0.096,0.295,0.208,0.407c0.109,0.115,0.242,0.182,0.384,0.198l5.665,0.822 C243.818,87.541,244,87.751,244,88s-0.182,0.459-0.428,0.495l-5.65,0.82c-0.153,0.024-0.295,0.096-0.408,0.209 c-0.114,0.108-0.18,0.241-0.197,0.384l-0.822,5.665C236.459,95.818,236.248,96,236,96z M231.982,88l2.24,0.325 c0.361,0.041,0.711,0.216,0.971,0.491c0.254,0.253,0.424,0.588,0.481,0.958L236,92.019l0.326-2.241 c0.041-0.361,0.216-0.712,0.491-0.972c0.254-0.254,0.588-0.424,0.957-0.481L240.018,88l-2.24-0.325 c-0.362-0.041-0.712-0.217-0.972-0.492c-0.254-0.252-0.424-0.587-0.48-0.958L236,83.981l-0.325,2.241 c-0.041,0.361-0.216,0.712-0.491,0.972c-0.251,0.251-0.595,0.425-0.958,0.481L231.982,88z"/></g><g><path fill="#FFF" d="M467,290.5l0.82,5.65c0.04,0.261,0.163,0.503,0.35,0.69c0.18,0.19,0.42,0.31,0.68,0.34l5.65,0.82 l-5.65,0.82c-0.261,0.04-0.503,0.163-0.69,0.35c-0.19,0.18-0.31,0.42-0.34,0.68L467,305.5l-0.82-5.65 c-0.04-0.261-0.163-0.503-0.35-0.69c-0.18-0.19-0.42-0.31-0.68-0.34L459.5,298l5.65-0.82c0.261-0.04,0.503-0.163,0.69-0.35 c0.19-0.18,0.31-0.42,0.34-0.68L467,290.5z"/><path fill="#1D2445" d="M467,306L467,306c-0.249,0-0.459-0.183-0.495-0.428l-0.82-5.65c-0.023-0.153-0.096-0.295-0.208-0.407 c-0.109-0.115-0.242-0.182-0.384-0.198l-5.665-0.822C459.182,298.459,459,298.249,459,298s0.182-0.459,0.428-0.495l5.65-0.82 c0.15-0.023,0.297-0.098,0.408-0.209c0.114-0.108,0.18-0.241,0.197-0.384l0.822-5.665c0.036-0.246,0.246-0.428,0.495-0.428 s0.459,0.182,0.495,0.428l0.82,5.65c0.023,0.153,0.096,0.295,0.208,0.407c0.109,0.115,0.242,0.182,0.384,0.198l5.665,0.822 c0.246,0.036,0.428,0.246,0.428,0.495s-0.182,0.459-0.428,0.495l-5.65,0.82c-0.153,0.024-0.295,0.096-0.408,0.209 c-0.114,0.108-0.18,0.241-0.197,0.384l-0.822,5.665C467.459,305.818,467.248,306,467,306z M462.982,298l2.24,0.325 c0.362,0.041,0.712,0.217,0.972,0.492c0.254,0.252,0.424,0.587,0.48,0.958l0.326,2.245l0.326-2.241 c0.041-0.361,0.216-0.712,0.491-0.972c0.254-0.254,0.588-0.424,0.957-0.481l2.245-0.326l-2.24-0.325 c-0.361-0.041-0.712-0.216-0.972-0.492c-0.254-0.252-0.424-0.587-0.48-0.958L467,293.981l-0.325,2.241 c-0.041,0.361-0.216,0.712-0.491,0.972c-0.251,0.251-0.595,0.425-0.958,0.481L462.982,298z"/></g><g><path fill="#FFF" d="M364,175.5l0.82,5.65c0.04,0.261,0.163,0.503,0.35,0.69c0.18,0.19,0.42,0.31,0.68,0.34l5.65,0.82 l-5.65,0.82c-0.261,0.04-0.503,0.163-0.69,0.35c-0.19,0.18-0.31,0.42-0.34,0.68L364,190.5l-0.82-5.65 c-0.04-0.261-0.163-0.503-0.35-0.69c-0.18-0.19-0.42-0.31-0.68-0.34L356.5,183l5.65-0.82c0.261-0.04,0.503-0.163,0.69-0.35 c0.19-0.18,0.31-0.42,0.34-0.68L364,175.5z"/><path fill="#1D2445" d="M364,191L364,191c-0.249,0-0.459-0.183-0.495-0.428l-0.82-5.65c-0.023-0.153-0.096-0.295-0.208-0.407 c-0.109-0.115-0.242-0.182-0.384-0.198l-5.665-0.822C356.182,183.459,356,183.249,356,183s0.182-0.459,0.428-0.495l5.65-0.82 c0.15-0.023,0.297-0.098,0.408-0.209c0.114-0.108,0.18-0.241,0.197-0.384l0.822-5.665c0.036-0.246,0.246-0.428,0.495-0.428 s0.459,0.182,0.495,0.428l0.82,5.65c0.023,0.153,0.096,0.295,0.208,0.407c0.109,0.115,0.242,0.182,0.384,0.198l5.665,0.822 c0.246,0.036,0.428,0.246,0.428,0.495s-0.182,0.459-0.428,0.495l-5.65,0.82c-0.153,0.024-0.295,0.096-0.408,0.209 c-0.114,0.108-0.18,0.241-0.197,0.384l-0.822,5.665C364.459,190.818,364.248,191,364,191z M359.982,183l2.24,0.325 c0.361,0.041,0.711,0.216,0.971,0.491c0.254,0.253,0.424,0.588,0.481,0.958l0.326,2.245l0.326-2.241 c0.041-0.361,0.216-0.712,0.491-0.972c0.254-0.254,0.588-0.424,0.957-0.481l2.245-0.326l-2.24-0.325 c-0.362-0.041-0.712-0.217-0.972-0.492c-0.254-0.252-0.424-0.587-0.48-0.958L364,178.981l-0.325,2.241 c-0.041,0.361-0.216,0.712-0.491,0.972c-0.251,0.251-0.595,0.425-0.958,0.481L359.982,183z"/></g><g><path fill="#FFF" d="M391,113.5l1.5,10.17c0.067,0.47,0.284,0.905,0.62,1.24c0.336,0.33,0.765,0.546,1.23,0.62L404.5,127 l-10.17,1.5c-0.96,0.139-1.716,0.891-1.86,1.85L391,140.5l-1.5-10.17c-0.067-0.47-0.284-0.905-0.62-1.24 c-0.336-0.33-0.765-0.546-1.23-0.62L377.5,127l10.17-1.5c0.96-0.139,1.716-0.891,1.86-1.85L391,113.5z"/><path fill="#1D2445" d="M391,141c-0.248,0-0.458-0.182-0.495-0.427l-1.5-10.17c-0.052-0.362-0.222-0.702-0.479-0.959 c-0.26-0.255-0.591-0.422-0.955-0.479l-10.144-1.469C377.182,127.459,377,127.249,377,127c0-0.248,0.182-0.459,0.427-0.495 l10.17-1.5c0.748-0.108,1.326-0.683,1.438-1.43l1.47-10.147c0.035-0.246,0.246-0.428,0.494-0.428h0 c0.248,0,0.458,0.182,0.495,0.427l1.5,10.17c0.052,0.362,0.222,0.703,0.479,0.959c0.26,0.255,0.591,0.422,0.955,0.479 l10.144,1.469c0.246,0.035,0.428,0.246,0.428,0.494c0,0.248-0.182,0.459-0.427,0.495l-10.17,1.5 c-0.748,0.108-1.326,0.683-1.438,1.43l-1.47,10.147C391.459,140.817,391.249,140.999,391,141L391,141z M380.957,126.996 l6.765,0.98c0.577,0.091,1.096,0.353,1.509,0.758c0.412,0.412,0.683,0.953,0.764,1.526l1,6.783l0.98-6.765 c0.179-1.188,1.096-2.101,2.283-2.273l6.785-1.001l-6.765-0.98c-0.577-0.091-1.096-0.353-1.509-0.758 c-0.412-0.412-0.682-0.953-0.765-1.526l-1-6.783l-0.979,6.764c-0.179,1.188-1.096,2.101-2.283,2.273L380.957,126.996z"/></g><g><circle cx="387.5" cy="8.5" r="3" fill="#FFF"/><path fill="#1D2445" d="M387.5,12c-1.93,0-3.5-1.57-3.5-3.5s1.57-3.5,3.5-3.5s3.5,1.57,3.5,3.5S389.429,12,387.5,12z M387.5,6 c-1.378,0-2.5,1.122-2.5,2.5s1.122,2.5,2.5,2.5s2.5-1.122,2.5-2.5S388.878,6,387.5,6z"/></g><g><circle cx="343.5" cy="28.5" r="2" fill="#FFF"/><path fill="#1D2445" d="M343.5,31c-1.378,0-2.5-1.122-2.5-2.5s1.122-2.5,2.5-2.5s2.5,1.122,2.5,2.5S344.878,31,343.5,31z M343.5,27c-0.827,0-1.5,0.673-1.5,1.5s0.673,1.5,1.5,1.5s1.5-0.673,1.5-1.5S344.327,27,343.5,27z"/></g><g><circle cx="501.5" cy="310.5" r="2" fill="#FFF"/><path fill="#1D2445" d="M501.5,313c-1.378,0-2.5-1.122-2.5-2.5s1.122-2.5,2.5-2.5s2.5,1.122,2.5,2.5S502.878,313,501.5,313z M501.5,309c-0.827,0-1.5,0.673-1.5,1.5s0.673,1.5,1.5,1.5s1.5-0.673,1.5-1.5S502.327,309,501.5,309z"/></g><g><circle cx="445.5" cy="34.5" r="4" fill="#FFF"/><path fill="#1D2445" d="M445.5,39c-2.481,0-4.5-2.019-4.5-4.5s2.019-4.5,4.5-4.5s4.5,2.019,4.5,4.5S447.981,39,445.5,39z M445.5,31c-1.93,0-3.5,1.57-3.5,3.5s1.57,3.5,3.5,3.5s3.5-1.57,3.5-3.5S447.429,31,445.5,31z"/></g><g><circle cx="6.5" cy="224.5" r="3" fill="#FFF"/><path fill="#1D2445" d="M6.5,228c-1.93,0-3.5-1.57-3.5-3.5s1.57-3.5,3.5-3.5s3.5,1.57,3.5,3.5S8.429,228,6.5,228z M6.5,222 c-1.378,0-2.5,1.122-2.5,2.5s1.122,2.5,2.5,2.5s2.5-1.122,2.5-2.5S7.878,222,6.5,222z"/></g><g><circle cx="238.5" cy="188.57" r="3" fill="#FFF"/><path fill="#1D2445" d="M238.5,192.07c-1.93,0-3.5-1.57-3.5-3.5s1.57-3.5,3.5-3.5s3.5,1.57,3.5,3.5S240.429,192.07,238.5,192.07z M238.5,186.07c-1.378,0-2.5,1.122-2.5,2.5s1.122,2.5,2.5,2.5s2.5-1.122,2.5-2.5S239.878,186.07,238.5,186.07z"/></g><g><circle cx="2.5" cy="149.5" r="2" fill="#FFF"/><path fill="#1D2445" d="M2.5,152c-1.378,0-2.5-1.122-2.5-2.5s1.122-2.5,2.5-2.5s2.5,1.122,2.5,2.5S3.878,152,2.5,152z M2.5,148 c-0.827,0-1.5,0.673-1.5,1.5s0.673,1.5,1.5,1.5s1.5-0.673,1.5-1.5S3.327,148,2.5,148z"/></g></g></g></g></g><g><defs><clipPath id="clip-path-id-viewbox-item-2"><rect width="178.684" height="229.372" x="0" y="0"/></clipPath></defs><g><g clip-path="url(#clip-path-id-viewbox-item-2)" transform="translate(478.0 445.0) rotate(0.0 177.0 226.5) scale(1.9811510823576817 1.9749577106185583) translate(-0.0 -0.0)"><g><g><g><path fill="#FFF" d="M111.367,134.872v-0.662c0-3.71-2.716-6.861-6.386-7.409L12.37,112.993 c-6.368-0.588-11.865,4.424-11.865,10.82v5.223c0,13.84,11.219,25.059,25.059,25.059h67.75l0.01,3.541 c0.027,8.99,3.287,17.67,9.184,24.455l8.429,9.7l17.719-12.765L111.367,134.872z"/></g></g><g><g><path fill="#1D2445" d="M110.937,192.29c-0.14,0-0.279-0.059-0.377-0.172l-8.429-9.7c-5.975-6.874-9.28-15.674-9.308-24.782 l-0.009-3.042H25.564c-14.094,0-25.56-11.466-25.56-25.559v-5.223c0-6.618,5.697-11.934,12.411-11.318l92.639,13.812 c3.884,0.58,6.813,3.977,6.813,7.903v0.567l17.255,44.066c0.083,0.212,0.012,0.455-0.174,0.588l-17.719,12.765 C111.141,192.26,111.039,192.29,110.937,192.29z M11.354,113.446c-5.707,0-10.35,4.65-10.35,10.367v5.223 c0,13.542,11.018,24.559,24.56,24.559h67.75c0.275,0,0.499,0.223,0.5,0.499l0.01,3.541c0.027,8.867,3.245,17.436,9.062,24.128 l8.13,9.355l17.033-12.271l-17.147-43.793c-0.022-0.058-0.034-0.12-0.034-0.182v-0.662c0-3.435-2.563-6.407-5.961-6.914 l-92.61-13.809C11.998,113.461,11.675,113.446,11.354,113.446z"/></g></g></g><g><g><g><path fill="#FFF" d="M98.96,32.7l-3.135-2.741c-0.295-0.494-0.355-1.106-0.132-1.659l0.874-2.173 c0.089-0.222,0.135-0.459,0.135-0.699V23.28h0.334v-3.644c0-7.239-5.869-13.108-13.109-13.108h-0.489 c-2.069,0-3.745,1.677-3.745,3.745V23.28h2.17v6.618l-12.272,9.149l-0.047-0.011l-0.013,0.055l-0.151,0.112l-0.007,0.57 l-1.895,8.209h-7.857c-7.592,0-14.466,4.488-17.521,11.439l-7.628,17.36c-2.4,5.461-5.886,10.377-10.245,14.449L9.964,104.551 c-5.685,5.309-9.08,12.624-9.463,20.394l39.324-1.685l34.83-39.324V69.443l3.047,5.286l6.325-27.408l8.915,0.037 c2.074,0.008,3.761-1.671,3.761-3.745v-6.861l1.888-0.98C99.761,35.163,99.953,33.568,98.96,32.7z"/></g></g><g><g><path fill="#1D2445" d="M0.501,125.445c-0.133,0-0.261-0.053-0.354-0.147c-0.1-0.1-0.151-0.237-0.145-0.377 c0.392-7.942,3.809-15.306,9.621-20.734l14.265-13.321c4.335-4.049,7.743-8.855,10.128-14.285l7.628-17.36 c3.134-7.13,10.19-11.738,17.979-11.738h7.46l1.793-7.769l0.006-0.516c0.002-0.156,0.076-0.302,0.201-0.395l0.083-0.062 c0.061-0.073,0.138-0.131,0.223-0.167l11.976-8.928V23.78h-1.67c-0.276,0-0.5-0.224-0.5-0.5V10.273 c0-2.341,1.904-4.245,4.245-4.245h0.489c7.504,0,13.608,6.104,13.608,13.608v3.644c0,0.218-0.14,0.403-0.334,0.472v1.676 c0,0.304-0.058,0.602-0.171,0.884l-0.874,2.174c-0.149,0.372-0.126,0.797,0.062,1.152l3.07,2.685 c0.591,0.517,0.888,1.29,0.794,2.069s-0.565,1.461-1.262,1.823l-1.619,0.84v6.557c0,1.134-0.441,2.2-1.244,3.002 c-0.802,0.802-1.868,1.243-3.001,1.243l0,0l-8.533-0.035l-6.235,27.019c-0.046,0.2-0.21,0.352-0.413,0.382 c-0.206,0.029-0.403-0.067-0.508-0.245l-2.113-3.667v12.624c0,0.122-0.045,0.24-0.126,0.332l-34.83,39.324 c-0.09,0.102-0.217,0.162-0.353,0.168l-39.323,1.685C0.515,125.445,0.508,125.445,0.501,125.445z M59.622,48.482 c-7.391,0-14.089,4.373-17.063,11.14l-7.628,17.36c-2.44,5.554-5.927,10.471-10.362,14.613l-14.265,13.321 c-5.486,5.125-8.767,12.033-9.272,19.505l38.559-1.652l34.563-39.023V69.443c0-0.227,0.152-0.424,0.371-0.483 c0.221-0.058,0.45,0.038,0.563,0.233l2.412,4.185l6.039-26.169c0.053-0.227,0.255-0.388,0.487-0.388c0.001,0,0.001,0,0.002,0 l8.915,0.037l0,0c0.88,0,1.694-0.337,2.308-0.95s0.951-1.428,0.951-2.295v-6.861c0-0.187,0.104-0.358,0.27-0.444l1.889-0.98 c0.409-0.212,0.675-0.597,0.729-1.054c0.056-0.458-0.112-0.894-0.459-1.197l-3.135-2.741c-0.039-0.035-0.073-0.075-0.101-0.12 c-0.379-0.634-0.44-1.42-0.166-2.102l0.874-2.173c0.065-0.164,0.099-0.336,0.099-0.512V23.28c0-0.218,0.14-0.403,0.334-0.472 v-3.172c0-6.952-5.656-12.608-12.608-12.608h-0.489c-1.789,0-3.245,1.456-3.245,3.245V22.78h1.67c0.276,0,0.5,0.224,0.5,0.5 v6.618c0,0.158-0.074,0.307-0.201,0.401l-12.272,9.149c-0.004,0.003-0.008,0.006-0.012,0.008l-0.004,0.324 c0,0.036-0.005,0.072-0.013,0.106l-1.895,8.209c-0.053,0.227-0.255,0.388-0.487,0.388H59.622z"/></g></g></g><g><path fill="#1D2445" d="M79.471,109.568c-0.276,0-0.5-0.224-0.5-0.5V65.629c0-0.276,0.224-0.5,0.5-0.5s0.5,0.224,0.5,0.5v43.438 C79.971,109.344,79.747,109.568,79.471,109.568z"/></g><g><g><g><path fill="#FFF" d="M19.949,113.739l-10.441-8.763l-1.087,1.078c-3.594,3.564-6.067,8.045-7.205,12.896 c-0.45,1.116-0.71,2.332-0.71,3.615v2.205c-0.001,0.059-0.005,0.117-0.005,0.176l0.005,0v4.09 c0,13.84,11.219,25.059,25.059,25.059h54.333v-31.043L19.949,113.739z"/></g></g><g><g><path fill="#1D2445" d="M79.897,154.595H25.564c-14.093,0-25.559-11.466-25.559-25.559v-4.015C0.002,124.994,0,124.966,0,124.938 c0-0.004,0.003-0.097,0.003-0.101l0.003-2.272c0-1.298,0.251-2.578,0.746-3.803c1.148-4.921,3.687-9.463,7.316-13.063 l1.087-1.078c0.185-0.182,0.477-0.195,0.674-0.028l10.335,8.673l59.811,9.292c0.243,0.038,0.423,0.248,0.423,0.494v31.043 C80.397,154.371,80.174,154.595,79.897,154.595z M1.001,124.879c0.003,0.021,0.005,0.044,0.005,0.066v4.09 c0,13.542,11.017,24.559,24.559,24.559h53.833V123.48l-59.525-9.247c-0.09-0.014-0.175-0.052-0.244-0.111l-10.092-8.469 l-0.763,0.757c-3.497,3.468-5.942,7.844-7.071,12.655c-0.47,1.178-0.696,2.332-0.696,3.501v2.205 c0,0.007-0.003,0.102-0.003,0.109L1.001,124.879z"/></g></g></g><g><path fill="#FFF" d="M174.064,228.872h-46.791c-0.827,0-1.498-0.671-1.498-1.498v-7.116c0-0.827,0.671-1.498,1.498-1.498h48.289 c1.448,0,2.622,1.174,2.622,2.622v3.37C178.184,227.028,176.34,228.872,174.064,228.872z"/><path fill="#1D2445" d="M174.064,229.372h-46.791c-1.102,0-1.998-0.896-1.998-1.999v-7.116c0-1.102,0.896-1.998,1.998-1.998h48.289 c1.722,0,3.122,1.4,3.122,3.122v3.37C178.684,227.3,176.612,229.372,174.064,229.372z M127.273,219.26 c-0.551,0-0.998,0.448-0.998,0.998v7.116c0,0.551,0.447,0.999,0.998,0.999h46.791c1.996,0,3.62-1.624,3.62-3.62v-3.37 c0-1.17-0.952-2.122-2.122-2.122H127.273z"/></g><g><path fill="#1D2445" d="M76.153,18.726c0-5.888,7.671-10.661,17.134-10.661c8.073,0,14.841,3.474,16.656,8.15 c0.47,1.211-0.463,2.511-1.762,2.511H76.153z"/></g><g><path fill="#1D2445" d="M77.449,10.399c0-5.013,6.531-9.076,14.587-9.076c6.873,0,12.635,2.957,14.18,6.938 c0.4,1.031-0.394,2.138-1.5,2.138H77.449z"/></g><g><path fill="#1D2445" d="M71.069,41.071l2.155,0.957c2.902,1.289,6.171-0.835,6.171-4.01V9.524c0-2.068-1.677-3.745-3.745-3.745 h-1.685c-8.026,0-14.168,7.148-12.959,15.083l1.337,8.775C63.111,34.686,66.401,38.996,71.069,41.071z"/></g><g><path fill="#FFF" d="M83.824,47.26l-2.946-0.169c-0.76-0.044-1.343,0.666-1.152,1.403"/><path fill="#1D2445" d="M79.725,48.994c-0.223,0-0.426-0.149-0.484-0.375c-0.131-0.508-0.015-1.032,0.318-1.437 c0.334-0.405,0.811-0.617,1.348-0.59l2.945,0.169c0.276,0.016,0.486,0.252,0.471,0.528c-0.016,0.274-0.219,0.492-0.527,0.47 l-2.946-0.169c-0.202-0.01-0.389,0.07-0.518,0.227c-0.128,0.156-0.173,0.357-0.122,0.552c0.068,0.268-0.092,0.54-0.359,0.609 C79.808,48.989,79.766,48.994,79.725,48.994z"/></g><g><rect width="5.443" height="8.288" x="74.137" y="29.996" fill="#99644C"/></g><g><path fill="#FFF" d="M93.365,38.18l0.427,0.835c0.234,0.457,0.646,0.798,1.139,0.943l1.694,0.498v-2.321L93.365,38.18z"/><path fill="#1D2445" d="M96.625,40.957c-0.047,0-0.095-0.007-0.141-0.021l-1.693-0.498c-0.623-0.183-1.149-0.619-1.443-1.196 l-0.428-0.833c-0.078-0.154-0.072-0.337,0.017-0.486c0.09-0.148,0.249-0.24,0.422-0.242l3.26-0.044 c0.116,0.012,0.263,0.05,0.358,0.144c0.095,0.094,0.148,0.222,0.148,0.356v2.321c0,0.158-0.074,0.306-0.2,0.4 C96.837,40.923,96.731,40.957,96.625,40.957z M94.178,38.669l0.061,0.118c0.17,0.334,0.475,0.586,0.834,0.692l1.053,0.309v-1.146 L94.178,38.669z"/></g><g><polygon fill="#1D2445" points="76.66 26.022 93.264 26.022 93.639 23.275 76.66 23.275"/></g><g><path fill="#99644C" d="M74.293,31.761h8.208v-8.476h-8.208c-1.853,0-3.356,1.502-3.356,3.356v1.765 C70.937,30.259,72.44,31.761,74.293,31.761z"/></g><g><path d="M61.266,7.865C61.266,3.521,66.925,0,73.906,0c6.981,0,12.64,3.521,12.64,7.865"/></g><g><path fill="#1D2445" d="M69.411,11.235H82.52v25.279c0,4.137-3.354,7.491-7.491,7.491h-5.617V11.235z"/></g><g><path fill="#1D2445" d="M78.013,6.928h15.434v8.801c0,4.137-3.354,7.491-7.491,7.491h-7.943V6.928z"/></g><g><path fill="#1D2445" d="M125.086,211.639l-1.193,5.197c-0.688,2.997,1.589,5.856,4.664,5.856h44.909 c1.481,0,2.682-1.201,2.682-2.682l0,0c0-1.372-1.036-2.523-2.4-2.667l-7.12-0.751c-2.002-0.211-3.937-0.839-5.681-1.844 l-16.766-9.655c-3.446-1.985-6.173-5.013-7.787-8.647l-7.737-17.422l-18.222,12L125.086,211.639z"/><path fill="#1D2445" d="M173.466,223.193h-44.909c-1.618,0-3.125-0.726-4.134-1.992s-1.38-2.897-1.018-4.476l1.144-4.979 l-14.822-20.853l19.147-12.61l7.977,17.96c1.582,3.563,4.203,6.473,7.579,8.417l16.767,9.655c1.693,0.976,3.539,1.574,5.484,1.78 l7.119,0.75c1.623,0.171,2.848,1.532,2.848,3.164C176.647,221.765,175.22,223.193,173.466,223.193z M111.142,191.159l14.48,20.374 l-1.243,5.416c-0.294,1.279,0.007,2.602,0.825,3.629c0.817,1.026,2.039,1.615,3.352,1.615h44.909c1.203,0,2.182-0.979,2.182-2.182 c0-1.12-0.84-2.052-1.953-2.17l-7.119-0.75c-2.085-0.22-4.063-0.862-5.879-1.908l-16.766-9.655 c-3.561-2.05-6.325-5.121-7.994-8.877l-7.498-16.882L111.142,191.159z"/></g><g><g><path fill="#FFF" d="M93.833,30.462c-0.344,0-0.623-0.28-0.623-0.624v-5.439c0-0.344,0.279-0.624,0.623-0.624h3.631 c0.344,0,0.624,0.28,0.624,0.624v5.439c0,0.344-0.28,0.624-0.624,0.624H93.833z"/></g><g><path fill="#1D2445" d="M97.464,24.275c0.068,0,0.124,0.056,0.124,0.124v5.439c0,0.068-0.055,0.124-0.124,0.124h-3.631 c-0.068,0-0.124-0.056-0.124-0.124v-5.439c0-0.068,0.055-0.124,0.124-0.124H97.464 M97.464,23.275h-3.631 c-0.62,0-1.124,0.503-1.124,1.124v5.439c0,0.621,0.503,1.124,1.124,1.124h3.631c0.621,0,1.124-0.503,1.124-1.124v-5.439 C98.588,23.779,98.085,23.275,97.464,23.275L97.464,23.275z"/></g></g><g><path fill="#1D2445" d="M80.3,111.296h-1.799c-0.557,0-0.919-0.586-0.67-1.084l0.9-1.799c0.276-0.552,1.064-0.552,1.34,0l0.9,1.799 C81.219,110.71,80.857,111.296,80.3,111.296z"/></g><g><path fill="#FFF" d="M68.403,82.222c0.12-0.876,1.158-1.277,1.835-0.709l3.534,2.966"/><path fill="#1D2445" d="M73.773,84.979c-0.113,0-0.228-0.039-0.321-0.117l-3.534-2.965c-0.177-0.148-0.41-0.186-0.626-0.104 c-0.215,0.083-0.362,0.269-0.394,0.498c-0.037,0.274-0.295,0.457-0.563,0.428c-0.273-0.038-0.465-0.29-0.427-0.563 c0.081-0.595,0.464-1.079,1.024-1.295c0.56-0.216,1.168-0.115,1.628,0.271l3.534,2.965c0.212,0.177,0.239,0.493,0.062,0.704 C74.057,84.918,73.916,84.979,73.773,84.979z"/></g><g><path fill="#1D2445" d="M71.659,27.714c0-5.888-7.671-10.661-17.134-10.661c-8.073,0-14.841,3.474-16.656,8.15 c-0.47,1.211,0.463,2.511,1.762,2.511H71.659z"/></g><g><path fill="#1D2445" d="M78.026,35.205c0-5.474-7.132-9.912-15.93-9.912c-7.505,0-13.799,3.23-15.486,7.577 c-0.437,1.126,0.431,2.335,1.638,2.335H78.026z"/></g><g><path fill="#1D2445" d="M73.895,39.699c4.566,0,5.968-6.15,1.873-8.169c-2.23-1.099-4.933-1.743-7.846-1.743 c-6.525,0-11.996,3.23-13.462,7.577c-0.38,1.126,0.374,2.335,1.424,2.335H73.895z"/></g><g><path fill="#1D2445" d="M76.243,44.035c3.364,0,4.397-4.531,1.38-6.018c-1.643-0.81-3.634-1.284-5.78-1.284 c-4.807,0-8.837,2.379-9.918,5.582c-0.28,0.829,0.276,1.72,1.049,1.72H76.243z"/></g><g><path fill="#1D2445" d="M76.153,17.976c0-5.888-7.671-10.661-17.134-10.661c-8.073,0-14.841,3.474-16.656,8.15 c-0.47,1.211,0.463,2.511,1.762,2.511H76.153z"/></g><g><path fill="#1D2445" d="M90.76,10.86c0-5.888-7.671-10.661-17.134-10.661c-8.073,0-14.841,3.474-16.656,8.15 c-0.47,1.211,0.463,2.511,1.762,2.511H90.76z"/></g><g><ellipse cx="157.968" cy="221.231" fill="#1D2445" rx="17.517" ry="3.68"/></g><g><path fill="#99644C" d="M148.15,89.38l2.082,3.509c0.649,1.094,2.009,1.536,3.177,1.033l0.258-0.111 c0.367-0.158,0.536-0.583,0.378-0.95l-1.472-3.418c-0.395-0.917-1.458-1.34-2.375-0.945L148.15,89.38z"/></g><g><g><g><path fill="#FFF" d="M155.936,90.175h-3.68l-0.005-0.463c-0.011-0.996-0.826-1.794-1.821-1.787l-3.291,0.042 c-1.76,0.023-3.456,0.665-4.79,1.813l-1.686,1.451c-0.578,0.332-1.038,0.802-1.335,1.354l-25.244-4.577 c-1.641-0.219-3.295-0.328-4.95-0.328H95.328v12.546c0,2.068,1.677,3.745,3.745,3.745h46.252v-0.021h3.718 c1.52,0,2.909-0.862,3.584-2.224l3.767-7.599h-0.07c0.848-0.178,1.486-0.93,1.486-1.832v-0.25 C157.809,91.013,156.97,90.175,155.936,90.175z"/></g></g><g><g><path fill="#1D2445" d="M145.325,104.472H99.073c-2.341,0-4.245-1.904-4.245-4.245V87.681c0-0.276,0.224-0.5,0.5-0.5h13.805 c1.674,0,3.361,0.112,5.017,0.333l24.929,4.519c0.336-0.5,0.792-0.923,1.335-1.235l1.608-1.396 c1.421-1.223,3.235-1.91,5.109-1.934l3.291-0.042c1.27,0,2.297,1.006,2.327,2.25h3.188c1.308,0,2.372,1.064,2.372,2.373v0.25 c0,1-0.636,1.887-1.553,2.226l-3.681,7.427c-0.765,1.543-2.31,2.501-4.032,2.501h-3.58 C145.42,104.465,145.373,104.472,145.325,104.472z M95.828,88.181v12.046c0,1.79,1.456,3.245,3.245,3.245h46.108 c0.045-0.014,0.094-0.021,0.144-0.021h3.718c1.34,0,2.541-0.746,3.136-1.946l3.681-7.424c0.013-0.214,0.144-0.396,0.361-0.442 c0.63-0.132,1.088-0.697,1.088-1.342v-0.25c0-0.757-0.615-1.373-1.372-1.373h-3.681c-0.273,0-0.496-0.22-0.5-0.494l-0.006-0.463 c-0.008-0.713-0.594-1.293-1.307-1.293l-3.299,0.042c-1.64,0.021-3.228,0.622-4.471,1.692l-1.686,1.451 c-0.569,0.337-0.965,0.738-1.221,1.213c-0.104,0.19-0.315,0.294-0.529,0.255l-25.244-4.577c-1.588-0.211-3.231-0.32-4.861-0.32 H95.828z"/></g></g></g><g><g><g><path fill="#FFF" d="M104.482,87.787L71.29,56.152c-0.618-0.724-1.309-1.379-2.061-1.964l-5.109-4.869l-1.646,2.04 c-0.607-0.08-1.221-0.136-1.85-0.136h-1.002c-7.595,0-14.468,1.248-17.521,8.199l-7.629,17.359 c-1.105,2.509-2.435,4.906-3.985,7.158l24.252,22.483l19.238-21.725l23.333,18.821L104.482,87.787z"/></g></g><g><g><path fill="#1D2445" d="M54.741,106.922c-0.126,0-0.247-0.047-0.34-0.133L30.149,84.306c-0.183-0.169-0.213-0.446-0.072-0.65 c1.515-2.198,2.84-4.579,3.939-7.076l7.629-17.359c3.288-7.488,10.934-8.498,17.979-8.498h1.002c0.506,0,1.031,0.034,1.636,0.105 l1.47-1.823c0.088-0.109,0.218-0.176,0.357-0.185c0.131-0.011,0.275,0.041,0.377,0.137l5.108,4.869 c0.748,0.58,1.466,1.264,2.096,2.001l33.157,31.598c0.154,0.147,0.198,0.375,0.11,0.569l-7.171,15.731 c-0.064,0.141-0.189,0.244-0.34,0.279c-0.152,0.035-0.31-0.001-0.429-0.098L74.036,85.386l-18.921,21.367 c-0.089,0.101-0.215,0.161-0.35,0.168C54.758,106.922,54.749,106.922,54.741,106.922z M31.144,83.865l23.562,21.843 l18.898-21.342c0.177-0.2,0.479-0.226,0.688-0.058l22.832,18.417l6.756-14.821l-32.935-31.39c-0.621-0.723-1.29-1.36-2.023-1.931 l-4.753-4.527l-1.304,1.618c-0.109,0.135-0.286,0.205-0.455,0.182c-0.68-0.089-1.247-0.131-1.784-0.131h-1.002 c-7.061,0-14.015,0.957-17.063,7.9l-7.629,17.359C33.866,79.402,32.593,81.715,31.144,83.865z"/></g></g></g><g><path fill="#FFF" d="M37.609,69.132l3.091-6.436c5.809-12.097,21.754-14.965,31.415-5.65l0,0l-5.069-5.674 c-3.165-3.543-8.07-4.974-12.644-3.69L32.373,53.87l4.641,7.292L37.609,69.132z"/><path fill="#1D2445" d="M37.608,69.633c-0.03,0-0.062-0.003-0.093-0.009c-0.223-0.042-0.389-0.228-0.406-0.454l-0.585-7.844 l-4.573-7.187c-0.085-0.134-0.102-0.299-0.045-0.447c0.057-0.147,0.18-0.26,0.332-0.303l22.028-6.188 c1.14-0.32,2.316-0.482,3.498-0.482c3.683,0,7.201,1.575,9.653,4.321l4.997,5.594c0.133,0.09,0.219,0.242,0.219,0.414 c0,0.276-0.224,0.5-0.5,0.5c-0.005,0-0.013,0-0.02,0c-0.125,0-0.25-0.047-0.347-0.14c-3.598-3.469-8.313-5.379-13.279-5.379 c-7.471,0-14.113,4.171-17.338,10.885l-3.091,6.437C37.974,69.525,37.798,69.633,37.608,69.633z M33.156,54.17l4.279,6.725 c0.044,0.07,0.07,0.149,0.077,0.231l0.455,6.104l2.28-4.75c3.393-7.064,10.382-11.453,18.24-11.453 c3.519,0,6.918,0.911,9.919,2.621l-1.735-1.943c-2.263-2.534-5.509-3.987-8.907-3.987c-1.09,0-2.176,0.15-3.229,0.445L33.156,54.17 z"/></g><g><path fill="#1D2445" d="M156.518,94.53h-2.933c-0.276,0-0.5-0.224-0.5-0.5s0.224-0.5,0.5-0.5h2.933c0.276,0,0.5,0.224,0.5,0.5 S156.795,94.53,156.518,94.53z"/></g><g><path fill="#1D2445" d="M153.041,90.675h-5.824c-0.276,0-0.5-0.224-0.5-0.5s0.224-0.5,0.5-0.5h5.824c0.276,0,0.5,0.224,0.5,0.5 S153.317,90.675,153.041,90.675z"/></g></g></g></g><g><defs><clipPath id="clip-path-id-viewbox-item-3"><rect width="27.91" height="84.431" x="0" y="0"/></clipPath></defs><g><g clip-path="url(#clip-path-id-viewbox-item-3)" transform="translate(807.0 477.0) rotate(0.0 29.5 88.0) scale(2.1139376567538517 2.0845424074096006) translate(-0.0 -0.0)"><g><g><g><path fill="#FFF" d="M15.076,83.92H2.294c-0.991,0-1.794-0.803-1.794-1.794s0.803-1.794,1.794-1.794h12.782 c1.891,0.03,3.78-0.147,5.633-0.529h0.144c0.287-0.054,2.969-0.583,2.969-3.095c-0.065-1.271-0.267-2.531-0.601-3.758 c-1.857-8.001-3.794-14.881-5.077-19.429l-0.135-0.466c-0.144-0.511-0.305-1.103-0.475-1.731 c-0.897-3.346-3.274-12.226-5.848-12.226c-0.991,0-1.794-0.803-1.794-1.794c0-0.991,0.803-1.794,1.794-1.794 c5.328,0,7.633,8.602,9.32,14.881c0.161,0.619,0.314,1.184,0.457,1.686l0.135,0.475c1.292,4.575,3.247,11.499,5.122,19.581 c0.395,1.508,0.627,3.053,0.691,4.611c0,4.485-3.83,6.279-5.929,6.629C19.373,83.797,17.225,83.98,15.076,83.92z"/><path fill="#1D2445" d="M15.876,84.431c-0.271,0-0.543-0.004-0.814-0.011H2.294C1.029,84.42,0,83.39,0,82.126 s1.029-2.294,2.294-2.294l13.201,0.003c1.713,0,3.434-0.176,5.113-0.522c0.033-0.007,0.067-0.01,0.101-0.01h0.144 c0.335-0.071,2.469-0.573,2.469-2.594c-0.063-1.207-0.259-2.436-0.583-3.627c-1.872-8.067-3.8-14.902-5.076-19.424l-0.134-0.463 c-0.145-0.516-0.306-1.11-0.477-1.739c-2.628-9.802-4.368-11.857-5.366-11.857c-1.265,0-2.294-1.029-2.294-2.294 s1.029-2.294,2.294-2.294c5.706,0,8.071,8.804,9.798,15.232c0.167,0.637,0.318,1.198,0.46,1.698l0.134,0.476 c1.293,4.579,3.248,11.499,5.128,19.605c0.401,1.525,0.638,3.112,0.703,4.703c0,4.816-4.151,6.776-6.346,7.143 C19.705,84.24,17.786,84.431,15.876,84.431z M15.068,80.832H2.294C1.58,80.832,1,81.412,1,82.126S1.58,83.42,2.294,83.42h12.782 c0.276,0.008,0.538,0.011,0.8,0.011c1.844,0,3.697-0.185,5.506-0.548c2.063-0.344,5.527-2.021,5.527-6.139 c-0.062-1.499-0.289-3.014-0.674-4.483c-1.879-8.097-3.829-15.003-5.12-19.573l-0.134-0.475c-0.145-0.504-0.298-1.073-0.46-1.696 c-1.647-6.131-3.896-14.507-8.836-14.507c-0.713,0-1.294,0.581-1.294,1.294s0.581,1.294,1.294,1.294 c2.604,0,4.66,6.361,6.328,12.583c0.173,0.638,0.334,1.229,0.477,1.738l0.134,0.463c1.279,4.535,3.21,11.383,5.083,19.455 c0.338,1.243,0.546,2.543,0.613,3.846c0,2.206-1.818,3.32-3.376,3.611L20.771,80.3c-1.733,0.355-3.508,0.535-5.276,0.535 L15.068,80.832z"/></g><g><path fill="#FFF" d="M16.439,0.886L15.542,0.5L0.5,74.053h0.951c2.278,0.018,4.261-1.554,4.763-3.776L19.238,6.25 C19.696,4.024,18.527,1.783,16.439,0.886z"/><path fill="#1D2445" d="M1.49,74.553C1.49,74.553,1.49,74.553,1.49,74.553c-0.001,0-0.042,0-0.043,0H0.5 c-0.15,0-0.292-0.067-0.387-0.184C0.017,74.253-0.02,74.1,0.01,73.953L15.053,0.4c0.03-0.147,0.125-0.273,0.258-0.343 c0.133-0.069,0.29-0.075,0.429-0.016l0.897,0.386c2.294,0.987,3.594,3.479,3.091,5.924L6.703,70.376 C6.147,72.84,4.004,74.553,1.49,74.553z M1.113,73.553h0.338H1.49c2.043,0,3.786-1.393,4.236-3.387L18.748,6.15 c0.408-1.985-0.646-4.005-2.507-4.805l-0.333-0.143L1.113,73.553z"/></g></g></g></g></g></g><g><defs><clipPath id="clip-path-id-crop-item-4"><g transform="scale(0.421425 0.4168983050847458)"><rect width="38" height="55" x="0" y="0"/></g></clipPath><clipPath id="clip-path-id-viewbox-item-4"><rect width="16.857" height="24.597" x="0" y="0"/></clipPath></defs><g clip-path="url(#clip-path-id-crop-item-4)" transform="translate(738.0 570.0) rotate(0.0 20.0 29.5) scale(2.3729014652666547 2.3986665040452086)"><g clip-path="url(#clip-path-id-viewbox-item-4)" transform="translate(-0.0 -0.0)"><g><path fill="#1d2445" d="M15.858,24.597c-0.325,0-0.645-0.158-0.836-0.451L0.165,1.549c-0.304-0.461-0.175-1.082,0.286-1.385 c0.462-0.303,1.082-0.176,1.385,0.286l14.856,22.597c0.304,0.461,0.175,1.082-0.286,1.385 C16.236,24.543,16.046,24.597,15.858,24.597z"/></g></g></g></g><g><defs><clipPath id="clip-path-id-viewbox-item-5"><rect width="21.071" height="20" x="0" y="0"/></clipPath></defs><g><g clip-path="url(#clip-path-id-viewbox-item-5)" transform="translate(924.0 519.0) rotate(0.0 25.5 24.0) scale(2.420388211285653 2.4) translate(-0.0 -0.0)"><g><path fill="#1d2445" d="M10.161,17h-4.8c-1.801-0.004-3.377-1.212-3.85-2.95l-1.37-5c-0.279-1.011-0.142-2.091,0.38-3 c0.525-0.923,1.396-1.599,2.42-1.88c0.343-0.091,0.695-0.138,1.05-0.14h5L10.161,17z M4.001,6c-0.179-0.002-0.358,0.022-0.53,0.07 C2.406,6.362,1.779,7.462,2.07,8.527c0,0.001,0.001,0.002,0.001,0.003l0,0l1.37,5c0.238,0.865,1.023,1.466,1.92,1.47h2.62l-0.82-9 H4.001z"/><path fill="#1d2445" d="M7.071,20h12c1.211-6.264,1.88-12.621,2-19c0-0.552-0.448-1-1-1h-14c-0.552,0-1,0.448-1,1 C5.191,7.379,5.861,13.736,7.071,20z"/></g></g></g></g><g><defs><clipPath id="clip-path-id-viewbox-item-6"><rect width="123.456" height="117.03" x="0" y="0"/></clipPath></defs><g><g clip-path="url(#clip-path-id-viewbox-item-6)" transform="translate(996.0 492.0) rotate(0.0 126.0 119.5) scale(2.041213063763608 2.0422113987866357) translate(-0.0 -0.0)"><g><g><ellipse cx="61.728" cy="58.515" fill="#FFF" rx="61.228" ry="58.015"/><path fill="#1D2445" d="M61.728,117.03C27.691,117.03,0,90.78,0,58.515S27.691,0,61.728,0s61.728,26.25,61.728,58.515 S95.765,117.03,61.728,117.03z M61.728,1C28.242,1,1,26.801,1,58.515s27.243,57.515,60.729,57.515 c33.485,0,60.728-25.801,60.728-57.515S95.214,1,61.728,1z"/></g><g><ellipse cx="61.728" cy="58.515" fill="#FFF" rx="48.983" ry="46.412"/><path fill="#1D2445" d="M61.728,105.427c-27.285,0-49.483-21.044-49.483-46.912s22.198-46.912,49.483-46.912 c27.285,0,49.482,21.045,49.482,46.912S89.013,105.427,61.728,105.427z M61.728,12.603c-26.733,0-48.483,20.596-48.483,45.912 s21.75,45.912,48.483,45.912s48.482-20.596,48.482-45.912S88.462,12.603,61.728,12.603z"/></g><g><ellipse cx="61.728" cy="58.515" fill="#FFF" rx="36.737" ry="34.809"/><path fill="#1D2445" d="M61.728,93.824c-20.532,0-37.237-15.839-37.237-35.309c0-19.47,16.705-35.309,37.237-35.309 s37.237,15.839,37.237,35.309C98.965,77.985,82.261,93.824,61.728,93.824z M61.728,24.206c-19.981,0-36.237,15.391-36.237,34.309 s16.256,34.309,36.237,34.309s36.237-15.391,36.237-34.309S81.709,24.206,61.728,24.206z"/></g><g><circle cx="61.811" cy="58.751" r="20.262" fill="#FFF"/><path fill="#1D2445" d="M61.811,79.512c-11.448,0-20.762-9.313-20.762-20.762s9.313-20.762,20.762-20.762 s20.762,9.313,20.762,20.762S73.26,79.512,61.811,79.512z M61.811,38.989c-10.896,0-19.762,8.865-19.762,19.762 s8.865,19.762,19.762,19.762s19.762-8.865,19.762-19.762S72.708,38.989,61.811,38.989z"/></g></g></g></g></g><g><defs><clipPath id="clip-path-id-crop-item-7"><g transform="scale(0.4367816091954023 0.4326923076923077)"><rect width="87" height="103" x="0" y="0"/></g></clipPath><clipPath id="clip-path-id-viewbox-item-7"><rect width="38" height="45" x="0" y="0"/></clipPath></defs><g clip-path="url(#clip-path-id-crop-item-7)" transform="translate(978.0 550.0) rotate(0.0 43.5 52.0) scale(2.289473684210526 2.311111111111111)"><g clip-path="url(#clip-path-id-viewbox-item-7)" transform="translate(-0.0 -0.0)"><g id="surface1_4_-i7"><g><rect width="2" height="15" x="17.5" y="11.5" fill="#FFF"/><path fill="#1D2445" d="M19.5,27h-2c-0.276,0-0.5-0.224-0.5-0.5v-15c0-0.276,0.224-0.5,0.5-0.5h2c0.276,0,0.5,0.224,0.5,0.5v15 C20,26.776,19.776,27,19.5,27z M18,26h1V12h-1V26z"/></g><g><path fill="#FFF" d="M18.5,27.5l-2-0.06c0.118-3.628-1.605-7.07-4.58-9.15l1.16-1.64C16.596,19.126,18.632,23.202,18.5,27.5z"/><path fill="#1D2445" d="M18.5,28c-0.005,0-0.01,0-0.016,0l-2-0.06c-0.133-0.004-0.258-0.061-0.349-0.158 c-0.091-0.097-0.14-0.226-0.135-0.358c0.112-3.472-1.52-6.733-4.367-8.724c-0.109-0.076-0.183-0.193-0.206-0.324 c-0.023-0.131,0.008-0.266,0.084-0.375l1.16-1.64c0.16-0.225,0.47-0.279,0.696-0.12c3.664,2.58,5.769,6.794,5.632,11.274 C18.992,27.786,18.77,28,18.5,28z M17.005,26.955l1,0.03c-0.036-3.789-1.804-7.327-4.811-9.631l-0.583,0.823 C15.354,20.28,16.965,23.5,17.005,26.955z"/></g><g><path fill="#FFF" d="M18.5,27.5c-0.132-4.298,1.904-8.374,5.42-10.85l1.16,1.64c-2.993,2.092-4.718,5.561-4.58,9.21H18.5z"/><path fill="#1D2445" d="M20.52,28c-0.007,0-0.013,0-0.02,0h-2c-0.27,0-0.492-0.215-0.5-0.485 c-0.137-4.479,1.968-8.694,5.632-11.274c0.226-0.159,0.537-0.105,0.696,0.12l1.16,1.64c0.077,0.108,0.107,0.243,0.084,0.375 c-0.023,0.131-0.097,0.248-0.206,0.324c-2.83,1.978-4.457,5.201-4.371,8.645c0.016,0.049,0.024,0.101,0.024,0.155 C21.02,27.776,20.796,28,20.52,28z M18.994,27h0.999c0.026-3.473,1.638-6.709,4.395-8.823l-0.582-0.823 C20.794,19.661,19.026,23.206,18.994,27z"/></g><g><path fill="#FFF" d="M27,9.5c4.31,0,9.23,3.39,10.5,4.31c-2.75,1.07-4.6,4.41-9.47,5.05c-3.25,0.41-4-0.77-4-0.77 s-2.57-0.25-2.57-4C21.5,12.15,23.14,9.5,27,9.5z"/><path fill="#1D2445" d="M26.746,19.446c-1.838,0-2.667-0.583-2.981-0.9c-0.693-0.167-2.805-0.965-2.805-4.456 C21,12.116,22.676,9,27,9c4.252,0,8.965,3.081,10.793,4.405c0.148,0.107,0.226,0.287,0.203,0.469 c-0.023,0.181-0.144,0.335-0.315,0.402c-0.946,0.368-1.822,1.06-2.75,1.792c-1.701,1.344-3.63,2.867-6.836,3.288 C27.617,19.416,27.164,19.446,26.746,19.446z M24.452,17.822c0.001,0,0.502,0.625,2.293,0.625c0.376,0,0.788-0.028,1.222-0.083 c2.931-0.385,4.744-1.817,6.344-3.081c0.734-0.58,1.438-1.136,2.197-1.556C34.611,12.44,30.541,10,27,10 c-3.636,0-5.006,2.452-5.04,4.1c0,3.209,2.037,3.482,2.123,3.493C24.233,17.61,24.372,17.694,24.452,17.822L24.452,17.822z"/></g><g><path fill="#FFF" d="M28.3,24.42c4.65-0.65,6.41-9.54,9.2-10.61c-2.17-0.32-5.58,1-13.43,4.28 C22.31,22.92,24.89,24.95,28.3,24.42z"/><path fill="#1D2445" d="M27.276,25.002L27.276,25.002c-1.57,0-2.837-0.576-3.57-1.623c-0.629-0.898-1.158-2.575-0.106-5.461 c0.048-0.131,0.148-0.236,0.277-0.29c8.099-3.384,11.441-4.644,13.696-4.313c0.225,0.033,0.399,0.214,0.424,0.44 c0.025,0.226-0.106,0.44-0.318,0.521c-0.993,0.381-1.959,2.155-2.981,4.033c-1.58,2.902-3.371,6.191-6.329,6.605 C28.001,24.972,27.631,25.002,27.276,25.002z M24.467,18.466c-0.643,1.869-0.623,3.366,0.059,4.34 c0.54,0.771,1.517,1.196,2.75,1.196h0c0.303,0,0.622-0.025,0.947-0.076c2.467-0.345,4.129-3.399,5.596-6.094 c0.757-1.39,1.446-2.656,2.204-3.512C33.91,14.598,30.616,15.898,24.467,18.466z"/></g><g><path fill="#FFF" d="M13.04,10.35C8.8,8.26,2.18,10.61,0.5,11.21c2.47,1.48,2.12,9.46,6.63,10.94c3.18,1,5.65-0.17,5.91-4.51 C16.58,15.64,16.05,11.82,13.04,10.35z"/><path fill="#1D2445" d="M9.104,22.984C9.104,22.984,9.104,22.984,9.104,22.984c-0.656,0-1.371-0.121-2.125-0.357 c-2.896-0.951-3.907-4.175-4.798-7.021c-0.556-1.776-1.082-3.454-1.939-3.968c-0.166-0.099-0.26-0.285-0.241-0.478 c0.019-0.192,0.147-0.356,0.33-0.421C1.536,10.309,5.199,9,8.828,9c1.729,0,3.221,0.303,4.434,0.901 c1.639,0.801,2.688,2.312,2.737,3.942c0.048,1.611-0.852,3.09-2.479,4.093C13.16,22.32,10.612,22.984,9.104,22.984z M1.462,11.403 c0.73,0.888,1.176,2.312,1.675,3.904c0.819,2.615,1.747,5.579,4.149,6.367c0.651,0.205,1.265,0.31,1.818,0.31 c2.624,0,3.317-2.379,3.437-4.374c0.01-0.169,0.105-0.322,0.253-0.406c1.44-0.813,2.244-2.028,2.205-3.331 c-0.039-1.277-0.853-2.427-2.178-3.074C11.745,10.269,10.402,10,8.828,10C5.963,10,3.041,10.87,1.462,11.403z"/></g><g><path fill="#FFF" d="M7.13,22.15c-4.51-1.48-4.16-9.46-6.63-10.94c2.21,0.18,5.39,2.09,12.54,6.43 C12.78,21.98,10.39,23.19,7.13,22.15z"/><path fill="#1D2445" d="M9.155,23c-0.667,0-1.399-0.126-2.177-0.374c-2.895-0.95-3.905-4.175-4.796-7.02 c-0.556-1.776-1.082-3.454-1.939-3.968c-0.2-0.119-0.29-0.36-0.219-0.582c0.071-0.221,0.288-0.356,0.517-0.346 c2.368,0.193,5.624,2.17,12.759,6.501c0.159,0.096,0.251,0.272,0.24,0.457C13.261,22.308,10.673,23,9.155,23z M1.89,12.035 c0.493,0.866,0.854,2.017,1.247,3.273c0.819,2.615,1.747,5.579,4.149,6.367C7.961,21.89,8.592,22,9.155,22 c2,0,3.131-1.376,3.364-4.092C7.233,14.7,4.035,12.768,1.89,12.035z"/></g><g><path fill="#FFF" d="M18.5,0.5c-1.839,2.029-2.902,4.643-3,7.38c0,4.62,3,4.62,3,4.62s3,0,3-2.77C21.5,7.32,18.5,5.12,18.5,0.5 z"/><path fill="#1D2445" d="M18.5,13c-0.035,0-3.5-0.059-3.5-5.12c0.103-2.868,1.214-5.602,3.129-7.716 c0.139-0.152,0.36-0.207,0.55-0.13C18.873,0.108,19,0.293,19,0.5c0,2.556,0.956,4.32,1.799,5.876C21.443,7.565,22,8.592,22,9.73 C22,12.316,19.71,13,18.5,13z M18.08,1.814C16.809,3.585,16.078,5.704,16,7.898C16,11.929,18.446,12,18.5,12 c0.26-0.002,2.5-0.081,2.5-2.27c0-0.884-0.5-1.808-1.08-2.877C19.205,5.533,18.343,3.943,18.08,1.814z"/></g><g><path fill="#FFF" d="M7.5,29.5l3,15h16l3-15H7.5z"/><path fill="#1D2445" d="M26.5,45h-16c-0.238,0-0.443-0.168-0.49-0.402l-3-15c-0.029-0.147,0.009-0.299,0.104-0.415 C7.208,29.067,7.35,29,7.5,29h22c0.15,0,0.292,0.067,0.387,0.183c0.095,0.116,0.133,0.268,0.104,0.415l-3,15 C26.943,44.832,26.738,45,26.5,45z M10.91,44H26.09l2.8-14H8.11L10.91,44z"/></g><g><path fill="#FFF" d="M29.5,32.5h-22c-0.552,0-1-0.448-1-1v-4h24v4C30.462,32.036,30.036,32.462,29.5,32.5z"/><path fill="#1D2445" d="M29.5,33h-22C6.673,33,6,32.327,6,31.5v-4C6,27.224,6.224,27,6.5,27h24c0.276,0,0.5,0.224,0.5,0.5v4 c-0.057,0.814-0.686,1.443-1.464,1.499C29.524,33,29.512,33,29.5,33z M7,28v3.5C7,31.776,7.224,32,7.5,32h21.979 c0.279-0.027,0.502-0.255,0.522-0.536L30,28H7z"/></g></g></g></g></g><g><defs><clipPath id="clip-path-id-viewbox-item-8"><rect width="32" height="9" x="0" y="0"/></clipPath></defs><g><g clip-path="url(#clip-path-id-viewbox-item-8)" transform="translate(895.0 625.0) rotate(0.0 46.0 13.0) scale(2.875 2.888888888888889) translate(-0.0 -0.0)"><g><rect width="32" height="9" x="0" y="0" fill="#1d2445"/><rect width="2" height="9" x="5" y="0" fill="#fff"/><rect width="2" height="9" x="25" y="0" fill="#fff"/><rect width="12" height="3" x="10" y="3" fill="#fff"/></g></g></g></g><g><defs><clipPath id="clip-path-id-viewbox-item-9"><rect width="28" height="9" x="0" y="0"/></clipPath></defs><g><g clip-path="url(#clip-path-id-viewbox-item-9)" transform="translate(891.0 592.0) rotate(0.0 50.0 16.0) scale(3.5714285714285716 3.5555555555555554) translate(-0.0 -0.0)"><g><g><rect width="27" height="8" x=".5" y=".5" fill="#FFF"/><path fill="#1D2445" d="M27.5,9h-27C0.224,9,0,8.776,0,8.5v-8C0,0.223,0.224,0,0.5,0h27C27.777,0,28,0.223,28,0.5v8 C28,8.776,27.777,9,27.5,9z M1,8h26V1H1V8z"/></g><g><rect width="2" height="8" x="3.5" y=".5" fill="#FFF"/><path fill="#1D2445" d="M5.5,9h-2C3.224,9,3,8.776,3,8.5v-8C3,0.223,3.224,0,3.5,0h2C5.777,0,6,0.223,6,0.5v8 C6,8.776,5.777,9,5.5,9z M4,8h1V1H4V8z"/></g><g><rect width="2" height="8" x="22.5" y=".5" fill="#FFF"/><path fill="#1D2445" d="M24.5,9h-2C22.224,9,22,8.776,22,8.5v-8C22,0.223,22.224,0,22.5,0h2C24.777,0,25,0.223,25,0.5v8 C25,8.776,24.777,9,24.5,9z M23,8h1V1h-1V8z"/></g><g><rect width="11" height="2.667" x="8.5" y="3.166" fill="#FFF"/><path fill="#1D2445" d="M19.5,6.333h-11c-0.276,0-0.5-0.224-0.5-0.5V3.167c0-0.276,0.224-0.5,0.5-0.5h11 c0.276,0,0.5,0.224,0.5,0.5v2.667C20,6.11,19.777,6.333,19.5,6.333z M9,5.333h10V3.667H9V5.333z"/></g></g></g></g></g><g><defs><clipPath id="clip-path-id-viewbox-item-10"><rect width="33" height="11" x="0" y="0"/></clipPath></defs><g><g clip-path="url(#clip-path-id-viewbox-item-10)" transform="translate(901.0 563.0) rotate(0.0 45.0 15.0) scale(2.727272727272727 2.727272727272727) translate(-0.0 -0.0)"><g><g><rect width="32" height="10" x=".5" y=".5" fill="#FFF"/><path fill="#1D2445" d="M32.5,11h-32C0.223,11,0,10.776,0,10.5v-10C0,0.224,0.223,0,0.5,0h32C32.776,0,33,0.224,33,0.5v10 C33,10.776,32.776,11,32.5,11z M1,10h31V1H1V10z"/></g><g><rect width="2" height="10" x="5.5" y=".5" fill="#FFF"/><path fill="#1D2445" d="M7.5,11h-2C5.223,11,5,10.776,5,10.5v-10C5,0.224,5.223,0,5.5,0h2C7.776,0,8,0.224,8,0.5v10 C8,10.776,7.776,11,7.5,11z M6,10h1V1H6V10z"/></g><g><rect width="2" height="10" x="25.5" y=".5" fill="#FFF"/><path fill="#1D2445" d="M27.5,11h-2c-0.276,0-0.5-0.224-0.5-0.5v-10C25,0.224,25.223,0,25.5,0h2C27.776,0,28,0.224,28,0.5v10 C28,10.776,27.776,11,27.5,11z M26,10h1V1h-1V10z"/></g><g><rect width="12" height="4" x="10.5" y="3.5" fill="#FFF"/><path fill="#1D2445" d="M22.5,8h-12C10.223,8,10,7.776,10,7.5v-4C10,3.224,10.223,3,10.5,3h12C22.776,3,23,3.224,23,3.5v4 C23,7.776,22.776,8,22.5,8z M11,7h11V4H11V7z"/></g></g></g></g></g><g><defs><clipPath id="clip-path-id-viewbox-item-11"><rect width="103.508" height="200.977" x="0" y="0"/></clipPath></defs><g><g clip-path="url(#clip-path-id-viewbox-item-11)" transform="translate(393.0 506.0) rotate(0.0 107.0 206.5) scale(2.067473045561696 2.0549615130089514) translate(-0.0 -0.0)"><g><g><g><path fill="#FFF" d="M6.038,6.038c0,41.812,13.291,49.444,13.291,78.64c0,23.337-1.639,45.412,29.496,45.412h46.929v-7.753 c0-3.059-2.479-5.538-5.538-5.538H48.825c-4.298,0-9.968-0.532-12.472-3.068c-3.81-3.832-3.777-14.931-3.744-25.674v-3.378 c0-15.318-3.234-25.663-6.358-35.687c-3.411-10.91-6.934-22.152-6.934-42.953l0,0c-0.03-3.037-2.501-5.483-5.538-5.483H6.027 L6.038,6.038z"/><path fill="#1D2445" d="M95.754,130.59H48.825c-10.187,0-17.461-2.331-22.239-7.124c-7.857-7.884-7.812-21.273-7.764-35.45 c0.003-1.108,0.007-2.222,0.007-3.338c0-13.215-2.785-22.134-5.733-31.577C9.554,41.754,5.538,28.892,5.538,6.038L5.527,0.556 c0-0.133,0.052-0.26,0.146-0.354c0.094-0.094,0.221-0.147,0.354-0.147h7.753c3.296,0,6.005,2.682,6.038,5.978 c0,20.708,3.508,31.927,6.9,42.776c0,0,0.03,0.097,0.03,0.097c3.127,10.034,6.36,20.41,6.36,35.772v3.378 c-0.033,10.638-0.067,21.636,3.599,25.322c2.382,2.414,7.904,2.92,12.117,2.92h41.391c3.33,0,6.038,2.708,6.038,6.038v7.753 C96.254,130.367,96.031,130.59,95.754,130.59z M6.528,1.055l0.01,4.982c0,22.703,3.992,35.487,7.513,46.767 c2.972,9.518,5.778,18.507,5.778,31.875c0,1.118-0.004,2.232-0.007,3.342c-0.047,13.962-0.092,27.151,7.472,34.74 c4.581,4.596,11.623,6.83,21.531,6.83h46.429v-7.253c0-2.778-2.26-5.038-5.038-5.038H48.825c-4.404,0-10.204-0.558-12.828-3.217 c-3.957-3.979-3.922-15.188-3.888-26.027v-3.376c0-15.21-3.21-25.512-6.315-35.475l0.447-0.245l-0.477,0.149 c-3.415-10.92-6.946-22.213-6.946-43.069c-0.027-2.745-2.288-4.983-5.038-4.983H6.528z"/></g><g><path fill="#FFF" d="M90.216,135.628H48.825c-11.597,0-20.037-2.813-25.807-8.606c-9.337-9.37-9.226-23.769-9.226-39.021 v-3.323c0-12.45-2.547-20.613-5.538-30.072C4.609,42.91,0.5,29.663,0.5,6.038C0.5,2.979,2.979,0.5,6.038,0.5h5.538v5.538 c0,21.942,3.699,33.793,7.288,45.268c3.09,9.891,6.003,19.239,6.003,33.372v3.323c0,12.893-0.078,25.065,6.003,31.168 c3.589,3.6,9.47,5.35,17.965,5.35h46.918v5.538c0,3.059-2.479,5.538-5.538,5.538V135.628z"/><path fill="#1D2445" d="M90.216,136.128H48.825c-11.737,0-20.294-2.863-26.162-8.753c-9.375-9.408-9.374-23.706-9.372-38.843 v-3.854c0-12.476-2.556-20.561-5.515-29.921C4.131,43.056,0,29.796,0,6.038C0,2.709,2.708,0,6.038,0h5.538 c0.276,0,0.5,0.224,0.5,0.5v5.538c0,21.889,3.693,33.698,7.265,45.119c3.099,9.918,6.026,19.286,6.026,33.521v3.801 c-0.001,12.577-0.002,24.456,5.857,30.336c3.49,3.501,9.251,5.203,17.611,5.203h46.918c0.276,0,0.5,0.224,0.5,0.5v5.538 c0,3.271-2.614,5.943-5.863,6.036C90.337,136.115,90.278,136.128,90.216,136.128z M6.038,1C3.26,1,1,3.26,1,6.038 c0,23.606,4.107,36.789,7.731,48.419c2.983,9.438,5.561,17.59,5.561,30.221v3.854c-0.001,14.925-0.002,29.022,9.08,38.137 c5.67,5.692,13.997,8.459,25.454,8.459h41.211c0.056-0.021,0.116-0.033,0.18-0.033c2.778,0,5.038-2.26,5.038-5.038v-5.038H48.836 c-8.64,0-14.632-1.798-18.319-5.497c-6.151-6.174-6.15-18.253-6.149-31.042v-3.801c0-14.083-2.905-23.38-5.98-33.223 c-3.594-11.492-7.311-23.375-7.311-45.417V1H6.038z"/></g><g><path fill="#1D2445" d="M60.311,131.198c-1.835-0.004-3.319-1.495-3.315-3.33c0.003-1.28,0.741-2.445,1.898-2.994 c0.188-0.089,19.139-9.282,19.139-22.662c0-3.002-0.731-6.457-6.457-6.457H20.437c-1.835,0-3.323-1.488-3.323-3.323 s1.488-3.323,3.323-3.323h51.138c8.086,0,13.103,5.017,13.103,13.103c0,17.6-22.008,28.222-22.95,28.665 C61.285,131.087,60.801,131.197,60.311,131.198z"/></g><g><path fill="#1D2445" d="M77.036,185.127c0,0-2.326-4.087-18.94-4.087c-10.976,0-15.673,1.794-17.5,2.869 c-0.556,0.274-1.038,0.676-1.407,1.174l-1.44-0.454l-1.108-0.21l-4.021-0.321c0.177-2.271,2.559-9.703,25.475-9.703 s25.287,7.432,25.475,9.703l-6.646,0.532C76.927,184.801,76.965,184.97,77.036,185.127z"/></g><g><path fill="#FFF" d="M95.754,190.41c-0.642-2.614-8.65-9.37-37.659-9.37s-37.061,6.756-37.659,9.37 c0.011-0.081,0.011-0.163,0-0.244l-6.646-0.532c0.199-2.548,3.323-15.241,44.304-15.241s44.094,12.693,44.304,15.241 l-6.646,0.532C95.743,190.248,95.743,190.33,95.754,190.41z"/><path fill="#1D2445" d="M20.437,190.911c-0.03,0-0.06-0.002-0.091-0.008c-0.161-0.029-0.29-0.133-0.357-0.27l-6.238-0.499 c-0.275-0.022-0.48-0.263-0.458-0.538c0.205-2.622,3.329-15.702,44.803-15.702c41.408,0,44.586,13.078,44.803,15.7 c0.011,0.132-0.031,0.264-0.118,0.365c-0.086,0.101-0.208,0.164-0.341,0.175l-6.217,0.497c-0.083,0.168-0.299,0.261-0.457,0.28 c-0.224,0.004-0.44-0.15-0.497-0.381c-0.573-2.332-8.633-8.99-37.173-8.99c-28.665,0-36.638,6.652-37.171,8.982 C20.872,190.753,20.666,190.911,20.437,190.911z M14.353,189.179l5.853,0.468c1.642-3.044,10.557-9.107,37.89-9.107 c26.561,0,36.147,5.628,37.9,9.106l5.84-0.467c-0.593-3.298-5.454-14.284-43.74-14.284 C19.744,174.895,14.931,185.883,14.353,189.179z"/></g><g><rect width="13.291" height="40.982" x="51.45" y="135.628" fill="#FFF"/><path fill="#1D2445" d="M64.741,177.11H51.45c-0.276,0-0.5-0.224-0.5-0.5v-40.982c0-0.276,0.224-0.5,0.5-0.5h13.291 c0.276,0,0.5,0.224,0.5,0.5v40.982C65.241,176.886,65.018,177.11,64.741,177.11z M51.95,176.11h12.291v-39.982H51.95V176.11z"/></g><g><path fill="#FFF" d="M52.558,169.964h11.076c1.835,0,3.323,1.488,3.323,3.323v6.646c0,1.835-1.488,3.323-3.323,3.323H52.558 c-1.835,0-3.323-1.488-3.323-3.323v-6.646C49.235,171.452,50.722,169.964,52.558,169.964z"/><path fill="#1D2445" d="M63.634,183.755H52.558c-2.108,0-3.823-1.715-3.823-3.823v-6.646c0-2.108,1.715-3.823,3.823-3.823h11.076 c2.108,0,3.823,1.715,3.823,3.823v6.646C67.456,182.041,65.742,183.755,63.634,183.755z M52.558,170.464 c-1.557,0-2.823,1.266-2.823,2.823v6.646c0,1.557,1.266,2.823,2.823,2.823h11.076c1.557,0,2.823-1.266,2.823-2.823v-6.646 c0-1.557-1.266-2.823-2.823-2.823H52.558z"/></g><g><g><path fill="#FFF" d="M58.096,196.547c-1.835,0-3.323-1.488-3.323-3.323v-15.507c0-1.835,1.488-3.323,3.323-3.323 s3.323,1.488,3.323,3.323l0,0v15.507C61.418,195.059,59.931,196.547,58.096,196.547z"/><path fill="#1D2445" d="M58.096,197.046c-2.108,0-3.823-1.715-3.823-3.823v-15.506c0-2.108,1.715-3.823,3.823-3.823 s3.823,1.715,3.823,3.823v15.506C61.918,195.332,60.204,197.046,58.096,197.046z M58.096,174.895 c-1.557,0-2.823,1.266-2.823,2.823v15.506c0,1.557,1.266,2.823,2.823,2.823s2.823-1.266,2.823-2.823v-15.506 C60.918,176.161,59.652,174.895,58.096,174.895z"/></g><g><path fill="#1D2445" d="M55.88,193.224h4.43c1.223,0,2.215,0.992,2.215,2.215v3.323c0,1.223-0.992,2.215-2.215,2.215h-4.43 c-1.223,0-2.215-0.992-2.215-2.215v-3.323C53.665,194.216,54.657,193.224,55.88,193.224z"/></g><g><path fill="#1D2445" d="M14.899,188.793h4.43c1.223,0,2.215,0.992,2.215,2.215v3.323c0,1.223-0.992,2.215-2.215,2.215h-4.43 c-1.223,0-2.215-0.992-2.215-2.215v-3.323C12.684,189.785,13.675,188.793,14.899,188.793z"/></g><g><path fill="#1D2445" d="M33.728,183.255h4.43c1.223,0,2.215,0.992,2.215,2.215v3.323c0,1.223-0.992,2.215-2.215,2.215h-4.43 c-1.223,0-2.215-0.992-2.215-2.215v-3.323C31.513,184.247,32.505,183.255,33.728,183.255z"/></g><g><path fill="#1D2445" d="M78.033,183.255h4.43c1.223,0,2.215,0.992,2.215,2.215v3.323c0,1.223-0.992,2.215-2.215,2.215h-4.43 c-1.223,0-2.215-0.992-2.215-2.215v-3.323C75.817,184.247,76.809,183.255,78.033,183.255z"/></g><g><path fill="#1D2445" d="M96.862,188.793h4.43c1.223,0,2.215,0.992,2.215,2.215v3.323c0,1.223-0.992,2.215-2.215,2.215h-4.43 c-1.223,0-2.215-0.992-2.215-2.215v-3.323C94.647,189.785,95.638,188.793,96.862,188.793z"/></g></g></g></g></g></g></g><g><defs><clipPath id="clip-path-id-viewbox-item-12"><rect width="97.148" height="97.148" x="0" y="0"/></clipPath></defs><g><g clip-path="url(#clip-path-id-viewbox-item-12)" transform="translate(331.0 285.0) rotate(0.0 91.5 91.5) scale(1.8837238028574959 1.8837238028574959) translate(-0.0 -0.0)"><g><g><circle cx="48.574" cy="48.574" r="41.5" fill="#1D2445"/><path fill="#1D2445" d="M48.574,90.574c-23.159,0-42-18.841-42-42s18.841-42,42-42s42,18.841,42,42S71.733,90.574,48.574,90.574z M48.574,7.574c-22.607,0-41,18.393-41,41s18.393,41,41,41s41-18.393,41-41S71.181,7.574,48.574,7.574z"/></g><g><g><path fill="#FFF" d="M85.014,46.684l-3.94-1.13l0,0l-0.47-0.14c-3.145-0.569-6.372-0.501-9.49,0.2 c-5.8,1.72-2.45,6.06-9.38,4.08c-0.89-0.25-0.93-4.36-0.48-5.93c0.19-0.67,3.25-1.25,4.57-1.6c1.013-0.232,1.753-1.103,1.82-2.14 l-1.31-3c0.005-0.946,0.527-1.813,1.36-2.26l5.38-2.09c1.173-0.45,2.171-1.263,2.85-2.32l6.25-6.14 c5.15,7.077,7.917,15.608,7.9,24.36"/><path fill="#1D2445" d="M64.605,50.705c-0.752,0-1.72-0.162-3.008-0.53c-0.249-0.07-0.457-0.252-0.619-0.542 c-0.678-1.215-0.607-4.603-0.205-6.007c0.2-0.708,1.347-1.087,4.011-1.722c0.346-0.083,0.661-0.157,0.912-0.224 c0.77-0.177,1.341-0.814,1.438-1.575l-1.258-2.882c-0.028-0.064-0.042-0.133-0.042-0.203c0.006-1.13,0.628-2.164,1.624-2.698 l5.436-2.116c1.083-0.416,1.985-1.15,2.61-2.124c0.021-0.032,0.044-0.061,0.07-0.086l6.25-6.14 c0.104-0.102,0.248-0.149,0.392-0.142c0.145,0.012,0.278,0.087,0.363,0.204c5.249,7.212,8.014,15.737,7.996,24.655 c0,0.276-0.224,0.499-0.5,0.499c0,0,0,0-0.001,0c-0.276,0-0.5-0.225-0.499-0.501c0.017-8.511-2.563-16.655-7.466-23.593 l-5.794,5.693c-0.74,1.13-1.797,1.983-3.06,2.468l-5.378,2.089c-0.59,0.321-1,0.973-1.038,1.696l1.265,2.897 c0.032,0.073,0.046,0.153,0.041,0.232c-0.08,1.249-0.987,2.316-2.207,2.596c-0.242,0.064-0.565,0.142-0.92,0.226 c-0.905,0.216-3.026,0.721-3.304,1.076c-0.435,1.547-0.249,4.903,0.201,5.279c3.56,1.01,4.011,0.318,4.834-0.934 c0.657-1.001,1.558-2.373,4.226-3.164c3.233-0.728,6.493-0.796,9.721-0.212l4.459,1.282c0.266,0.076,0.419,0.353,0.343,0.618 c-0.077,0.265-0.353,0.417-0.618,0.343l-4.415-1.271c-3.041-0.547-6.167-0.482-9.237,0.208c-2.285,0.679-3.005,1.777-3.642,2.746 C66.868,49.934,66.246,50.705,64.605,50.705z"/></g><g><path fill="#FFF" d="M59.504,73.764L59.504,73.764c0.33,1.13,1.51,5.49,2.5,10.12c0.17,0.88,0.45,2.09,0.73,3.29 c2.78-1.09,5.433-2.482,7.91-4.15c2.322-1.569,4.482-3.365,6.45-5.36l-17.67-4.19C59.456,73.569,59.483,73.666,59.504,73.764z"/><path fill="#1D2445" d="M62.734,87.674c-0.08,0-0.16-0.019-0.233-0.058c-0.128-0.067-0.221-0.188-0.254-0.329 c-0.282-1.207-0.563-2.424-0.734-3.309c-1.029-4.81-2.225-9.17-2.489-10.074c-0.026-0.116-0.047-0.192-0.073-0.267 c-0.06-0.172-0.021-0.363,0.102-0.499s0.311-0.194,0.486-0.151l17.67,4.19c0.176,0.042,0.315,0.175,0.365,0.348 c0.05,0.174,0.002,0.361-0.125,0.489c-1.988,2.016-4.184,3.84-6.526,5.423c-2.504,1.687-5.198,3.1-8.007,4.201 C62.857,87.662,62.795,87.674,62.734,87.674z M60.134,74.156c0.418,1.498,1.453,5.387,2.358,9.623 c0.144,0.745,0.364,1.714,0.596,2.714c2.548-1.041,4.993-2.346,7.276-3.884c2.041-1.379,3.968-2.946,5.739-4.667L60.134,74.156z"/></g><g><path fill="#FFF" d="M48.764,22.074l-3.19,11.18c-1.28,4.47-5.08,3.38-8,2.56c-7.16-2-7.86,2.11-8.63,4.79 s-1.27,4.47-3.28,3.89s-0.07-4.85-3.42-5.81l-2-0.56l-10.94-3.12c4.983-14.36,17.409-24.853,32.4-27.36 c-0.979,1.309-1.789,2.737-2.41,4.25c-0.77,2.68,1.95,4.18,5.75,5.27C49.554,18.434,48.954,21.394,48.764,22.074z"/><path fill="#1D2445" d="M26.362,45.103c-0.259,0-0.541-0.043-0.837-0.129c-1.192-0.344-1.349-1.543-1.5-2.702 c-0.178-1.367-0.347-2.657-1.919-3.108l-1.997-0.559L9.167,35.485c-0.132-0.038-0.243-0.128-0.307-0.25 c-0.063-0.122-0.074-0.265-0.028-0.395C13.877,20.3,26.441,9.69,41.621,7.151c0.203-0.03,0.403,0.059,0.509,0.233 c0.106,0.175,0.096,0.396-0.026,0.56c-0.953,1.275-1.743,2.668-2.348,4.141c-0.286,1.007,0.029,1.866,1.011,2.65 c0.896,0.716,2.34,1.354,4.414,1.949c4.948,1.393,4.253,4.847,4.064,5.525l-3.19,11.183c-0.697,2.434-2.228,3.667-4.549,3.667 c-1.35,0-2.771-0.399-4.024-0.751c-1.258-0.352-2.339-0.523-3.255-0.523c-3.423,0-4.088,2.394-4.675,4.507l-0.127,0.452 C28.717,43.202,28.171,45.103,26.362,45.103z M9.953,34.669l12.426,3.534c2.207,0.632,2.456,2.544,2.638,3.94 c0.138,1.059,0.25,1.716,0.786,1.871c1.465,0.423,1.858-0.754,2.646-3.496l0.14-0.495c0.58-2.086,1.456-5.239,5.639-5.239 c1.007,0,2.178,0.185,3.482,0.549c1.235,0.347,2.585,0.726,3.797,0.726c1.873,0,3.013-0.935,3.588-2.942l3.189-11.18 c0.26-0.929,0.453-3.213-3.375-4.291c-2.236-0.642-3.75-1.318-4.765-2.13c-1.3-1.04-1.748-2.304-1.33-3.76 c0.494-1.209,1.089-2.342,1.783-3.402C26.486,11.141,14.853,21.111,9.953,34.669z"/></g><g><path fill="#FFF" d="M41.744,63.574L41.744,63.574l-1.71,6c0,0-3,3.78-3.71,4.55c-3.252,3.12-6.221,6.524-8.87,10.17 c-1.751-1.034-3.422-2.198-5-3.48c-0.7-0.57-1.37-1.16-2-1.77l2.5-8.77v-16.9l2.54-1.41l0.34-0.19l1.78,0.5l3.58,1 c1.57,0.45,3.13,2.59,4.09,4.3C37.234,62.274,39.074,62.794,41.744,63.574z"/><path fill="#1D2445" d="M27.453,84.794c-0.086,0-0.174-0.022-0.254-0.069c-1.763-1.042-3.466-2.227-5.061-3.522 c-0.727-0.591-1.41-1.197-2.032-1.799c-0.133-0.128-0.184-0.319-0.133-0.497l2.481-8.703v-16.83c0-0.182,0.099-0.349,0.257-0.437 l2.878-1.6c0.115-0.065,0.251-0.081,0.379-0.045l5.359,1.5c1.985,0.569,3.733,3.362,4.392,4.537 c1.875,4.512,3.568,5.007,6.13,5.755c0.264,0.077,0.45,0.362,0.375,0.627l-1.71,6c-0.018,0.063-0.048,0.122-0.089,0.174 c-0.123,0.155-3.02,3.803-3.734,4.578c-3.244,3.113-6.208,6.512-8.833,10.125C27.761,84.722,27.609,84.794,27.453,84.794z M21.017,78.891c0.543,0.514,1.131,1.03,1.752,1.535c1.439,1.169,2.968,2.246,4.55,3.205c2.592-3.523,5.503-6.841,8.658-9.868 c0.614-0.667,3.171-3.879,3.603-4.422l1.547-5.427c-2.525-0.751-4.39-1.532-6.305-6.148c-1.221-2.168-2.639-3.688-3.766-4.011 l-5.159-1.443l-2.443,1.357v16.605c0,0.046-0.006,0.092-0.019,0.137L21.017,78.891z"/></g><g><path fill="#FFF" d="M90.074,48.574c0.016,13.857-6.897,26.804-18.42,34.5c-2.489-4.29-6.408-7.567-11.07-9.26h-0.08 c-0.91-0.38-8.47-3.88-6.31-11.46c0.71-2.45,2.56-8.94,13.74-5.75c6.7,1.92,11.81,1,12.45-1.28c1.91-6.7,0.32-9.58,0.32-9.58 c0.108-0.04,0.212-0.09,0.31-0.15h0.06c2.45-1.36,4.16-6.32,7.51-8.08C89.579,41.116,90.08,44.837,90.074,48.574z"/><path fill="#1D2445" d="M71.654,83.574c-0.038,0-0.076-0.004-0.113-0.013c-0.134-0.031-0.25-0.116-0.319-0.236 c-2.414-4.161-6.227-7.36-10.742-9.017c-0.063-0.006-0.131-0.017-0.168-0.033c-0.366-0.153-8.94-3.839-6.598-12.059 c0.609-2.102,2.021-6.977,8.791-6.977c1.64,0,3.513,0.297,5.567,0.883c2.331,0.668,4.603,1.021,6.571,1.021 c2.862,0,4.927-0.768,5.26-1.956c1.833-6.429,0.378-9.176,0.364-9.203c-0.071-0.127-0.082-0.279-0.031-0.416 c0.051-0.137,0.158-0.244,0.295-0.295c0.078-0.029,0.152-0.065,0.223-0.108c0.053-0.033,0.112-0.055,0.173-0.066 c0.982-0.594,1.895-1.892,2.859-3.264c1.237-1.759,2.639-3.754,4.566-4.766c0.134-0.071,0.292-0.076,0.431-0.016 c0.139,0.061,0.243,0.18,0.283,0.326c1.007,3.646,1.514,7.412,1.508,11.194C90.59,62.63,83.62,75.683,71.931,83.49 C71.848,83.545,71.752,83.574,71.654,83.574z M60.621,73.321c0.051,0.005,0.104,0.013,0.133,0.023 c4.596,1.668,8.503,4.861,11.057,9.019c11.147-7.651,17.778-20.243,17.763-33.789c0.005-3.473-0.433-6.932-1.302-10.292 c-1.445,0.968-2.573,2.573-3.668,4.13c-1.053,1.498-2.047,2.913-3.25,3.598c0.387,1.12,1.029,4.125-0.489,9.451 c-0.472,1.679-2.798,2.683-6.223,2.683c-2.061,0-4.428-0.366-6.846-1.06c-1.964-0.56-3.745-0.845-5.292-0.845 c-6.018,0-7.238,4.211-7.825,6.235C52.661,69.557,59.502,72.837,60.621,73.321z"/></g><g><path fill="#FFF" d="M42.984,67.594c-2.07,7.36-6.67,6.53-6.67,6.53c-3.33-0.93-11.27,1-13.87,6.69 c-0.7-0.57-1.37-1.16-2-1.77s-1.38-1.31-2-2c0.57-4.84-1-13,1-19.82c1.29-4.47-4.43-9-5.84-10.86c-1.89-2.49-4.21-5.48-5.09-8.28 c0.27-1,0.58-2.07,0.94-3.08c2.113-6.112,5.631-11.644,10.27-16.15c1.288,2.558,1.662,5.48,1.06,8.28 c-1,3.36,2.75,7.32,1.6,11.34c-0.649-0.201-1.321-0.319-2-0.35c-2-0.07-3,0.94-3.31,2l-0.63,2.23c-0.33,1.13,0.37,2,1.72,2.43 c1.79,0.51,1.88,1,1.56,2.14s0.29,3.23,1.63,3.61l4.25,1.21l-0.07,0.25c-2.36,8.54,0.94,12.1,5.37,13.35 c8.5,2.43,10.89-1.72,10.89-1.72l0,0C43.074,64.014,43.234,66.704,42.984,67.594z"/><path fill="#1D2445" d="M22.444,81.314c-0.114,0-0.226-0.039-0.316-0.112c-0.726-0.591-1.409-1.196-2.032-1.798l-0.349-0.336 c-0.541-0.52-1.155-1.11-1.676-1.689c-0.096-0.107-0.141-0.25-0.125-0.393c0.204-1.729,0.126-3.96,0.043-6.323 c-0.15-4.299-0.319-9.171,0.973-13.579c0.948-3.286-2.286-6.686-4.426-8.936c-0.552-0.581-1.029-1.082-1.333-1.482l-0.209-0.276 c-1.915-2.52-4.085-5.376-4.959-8.156c-0.028-0.091-0.03-0.188-0.006-0.28c0.34-1.257,0.642-2.248,0.952-3.118 c2.127-6.151,5.721-11.803,10.393-16.341c0.114-0.111,0.276-0.159,0.431-0.134c0.157,0.026,0.292,0.126,0.364,0.269 c1.334,2.65,1.726,5.708,1.102,8.609c-0.443,1.495,0.141,3.159,0.758,4.921c0.726,2.069,1.476,4.208,0.834,6.452 c-0.037,0.129-0.125,0.238-0.243,0.302s-0.256,0.079-0.386,0.038c-0.608-0.188-1.239-0.299-1.875-0.328l-0.172-0.003 c-1.945,0-2.491,1.149-2.635,1.644l-0.629,2.226c-0.319,1.095,0.734,1.608,1.391,1.817c1.862,0.531,2.325,1.2,1.89,2.752 c-0.257,0.916,0.27,2.706,1.285,2.994l4.25,1.21c0.265,0.076,0.419,0.351,0.345,0.615l-0.07,0.25 c-1.925,6.965-0.235,11.25,5.024,12.734c1.729,0.495,3.324,0.745,4.743,0.745c4.201,0,5.526-2.144,5.58-2.235 c0.118-0.197,0.357-0.292,0.577-0.226c1.701,0.519,1.8,3.608,1.526,4.583c-1.757,6.249-5.291,6.923-6.729,6.923 c-0.323,0-0.512-0.036-0.512-0.036c-0.525-0.145-1.133-0.215-1.804-0.215c-3.285,0-9.318,1.797-11.522,6.621 c-0.064,0.141-0.19,0.244-0.341,0.279C22.52,81.309,22.482,81.314,22.444,81.314z M18.965,76.874 c0.464,0.501,0.999,1.014,1.475,1.472l0.351,0.338c0.463,0.448,0.961,0.897,1.486,1.342c2.597-4.814,8.743-6.625,12.144-6.625 c0.771,0,1.452,0.081,2.025,0.241c-0.021-0.005,0.101,0.011,0.291,0.011c1.21,0,4.194-0.604,5.766-6.194 c0.198-0.704,0.058-2.566-0.571-3.181c-0.646,0.763-2.426,2.33-6.149,2.33c-1.512,0-3.2-0.263-5.016-0.782 c-4.018-1.134-8.263-4.439-5.776-13.735l-3.773-1.075c-1.671-0.474-2.35-2.89-1.975-4.226c0.241-0.859,0.306-1.09-1.216-1.524 c-1.672-0.532-2.457-1.699-2.063-3.051l0.629-2.226c0.434-1.484,1.778-2.367,3.596-2.367l0.212,0.004 c0.546,0.025,1.086,0.102,1.614,0.23c0.327-1.785-0.311-3.601-0.928-5.363c-0.673-1.919-1.309-3.732-0.783-5.5 c0.518-2.418,0.259-4.988-0.734-7.283c-4.316,4.342-7.644,9.672-9.645,15.459c-0.291,0.815-0.574,1.74-0.891,2.904 c0.851,2.574,2.924,5.301,4.757,7.713l0.21,0.276c0.27,0.355,0.729,0.838,1.26,1.397c2.158,2.269,5.769,6.065,4.662,9.904 c-1.248,4.255-1.081,9.042-0.934,13.265C19.07,72.929,19.146,75.108,18.965,76.874z"/></g></g></g><g><path fill="#FFF" d="M48.574,0.5C22.023,0.5,0.5,22.023,0.5,48.574s21.523,48.074,48.074,48.074s48.074-21.523,48.074-48.074 S75.124,0.5,48.574,0.5z M48.574,90.074c-22.92,0-41.5-18.58-41.5-41.5s18.58-41.5,41.5-41.5s41.5,18.58,41.5,41.5l0,0 C90.074,71.494,71.494,90.074,48.574,90.074L48.574,90.074z"/><path fill="#1D2445" d="M48.574,97.148C21.79,97.148,0,75.357,0,48.574S21.79,0,48.574,0s48.574,21.79,48.574,48.574 S75.358,97.148,48.574,97.148z M48.574,1C22.342,1,1,22.341,1,48.574s21.342,47.574,47.574,47.574s47.574-21.342,47.574-47.574 S74.806,1,48.574,1z M48.574,90.574c-23.159,0-42-18.841-42-42s18.841-42,42-42s42,18.841,42,42S71.733,90.574,48.574,90.574z M48.574,7.574c-22.607,0-41,18.393-41,41s18.393,41,41,41s41-18.393,41-41S71.181,7.574,48.574,7.574z"/></g></g></g></g><g><defs><clipPath id="clip-path-id-viewbox-item-13"><rect width="172.982" height="124.612" x="0" y="0"/></clipPath></defs><g><g clip-path="url(#clip-path-id-viewbox-item-13)" transform="translate(735.0 651.0) rotate(0.0 169.0 122.5) scale(1.9539605276849614 1.9661027830385518) translate(-0.0 -0.0)"><g><g><g><polygon fill="#FFF" points="157.423 65.262 157.434 124.112 147.771 124.112 147.76 65.262 147.771 5.874 157.434 5.874"/><path fill="#1D2445" d="M157.454,124.612c-0.007,0-0.013,0-0.02,0h-9.663c-0.276,0-0.5-0.224-0.5-0.5l-0.011-58.85l0.011-59.388 c0-0.276,0.224-0.5,0.5-0.5h9.663c0.133,0,0.26,0.053,0.354,0.146s0.146,0.221,0.146,0.354l-0.011,59.388l0.011,58.709 c0.013,0.044,0.02,0.092,0.02,0.141C157.954,124.389,157.73,124.612,157.454,124.612z M148.271,123.612h8.663l-0.011-58.35 l0.011-58.888h-8.663l-0.011,58.888L148.271,123.612z"/></g><g><polygon fill="#FFF" points="111.203 64.725 111.214 124.112 101.55 124.112 101.54 64.725 101.55 5.874 111.214 5.874"/><path fill="#1D2445" d="M111.234,124.612c-0.007,0-0.013,0-0.02,0h-9.663c-0.276,0-0.5-0.224-0.5-0.5l-0.011-59.388l0.011-58.85 c0-0.276,0.224-0.5,0.5-0.5h9.663c0.133,0,0.26,0.053,0.354,0.146s0.146,0.221,0.146,0.354l-0.011,58.85l0.011,59.247 c0.013,0.044,0.02,0.092,0.02,0.141C111.734,124.389,111.51,124.612,111.234,124.612z M102.051,123.612h8.663l-0.011-58.888 l0.011-58.35h-8.663l-0.011,58.35L102.051,123.612z"/></g><g><rect width="171.982" height="11.824" x=".5" y=".5" fill="#FFF"/><path fill="#1D2445" d="M172.482,12.824H0.5c-0.276,0-0.5-0.224-0.5-0.5V0.5C0,0.224,0.224,0,0.5,0h171.982 c0.276,0,0.5,0.224,0.5,0.5v11.824C172.982,12.6,172.759,12.824,172.482,12.824z M1,11.824h170.982V1H1V11.824z"/></g><g><rect width="113.938" height="10.749" x="58.544" y="113.363" fill="#FFF"/><path fill="#1D2445" d="M172.482,124.612H58.544c-0.276,0-0.5-0.224-0.5-0.5v-10.749c0-0.276,0.224-0.5,0.5-0.5h113.938 c0.276,0,0.5,0.224,0.5,0.5v10.749C172.982,124.389,172.759,124.612,172.482,124.612z M59.044,123.612h112.938v-9.749H59.044 V123.612z"/></g></g></g></g></g></g></svg>